<svg width="427" height="323" viewBox="0 0 427 323" fill="none" xmlns="http://www.w3.org/2000/svg">
<rect x="0.0507812" y="20.8702" width="29.5148" height="29.5148" rx="6.61204" transform="rotate(-45 0.0507812 20.8702)" fill="url(#paint0_radial_1312_1409)" fill-opacity="0.5"/>
<rect x="55.0195" y="20.8701" width="29.5148" height="29.5148" rx="6.61204" transform="rotate(-45 55.0195 20.8701)" fill="url(#paint1_radial_1312_1409)" fill-opacity="0.5"/>
<rect x="109.98" y="20.8701" width="29.5148" height="29.5148" rx="6.61204" transform="rotate(-45 109.98 20.8701)" fill="url(#paint2_radial_1312_1409)" fill-opacity="0.5"/>
<rect x="164.949" y="20.8701" width="29.5148" height="29.5148" rx="6.61204" transform="rotate(-45 164.949 20.8701)" fill="url(#paint3_radial_1312_1409)" fill-opacity="0.5"/>
<rect x="219.914" y="20.8701" width="29.5148" height="29.5148" rx="6.61204" transform="rotate(-45 219.914 20.8701)" fill="url(#paint4_radial_1312_1409)" fill-opacity="0.5"/>
<rect x="274.879" y="20.8701" width="29.5148" height="29.5148" rx="6.61204" transform="rotate(-45 274.879 20.8701)" fill="url(#paint5_radial_1312_1409)" fill-opacity="0.5"/>
<rect x="329.844" y="20.8701" width="29.5148" height="29.5148" rx="6.61204" transform="rotate(-45 329.844 20.8701)" fill="url(#paint6_radial_1312_1409)" fill-opacity="0.5"/>
<rect x="384.812" y="20.8702" width="29.5148" height="29.5148" rx="6.61204" transform="rotate(-45 384.812 20.8702)" fill="url(#paint7_radial_1312_1409)" fill-opacity="0.5"/>
<rect x="0.0507812" y="133.275" width="29.5148" height="29.5148" rx="6.61204" transform="rotate(-45 0.0507812 133.275)" fill="url(#paint8_radial_1312_1409)" fill-opacity="0.5"/>
<rect x="55.0195" y="133.275" width="29.5148" height="29.5148" rx="6.61204" transform="rotate(-45 55.0195 133.275)" fill="url(#paint9_radial_1312_1409)" fill-opacity="0.5"/>
<rect x="109.98" y="133.275" width="29.5148" height="29.5148" rx="6.61204" transform="rotate(-45 109.98 133.275)" fill="url(#paint10_radial_1312_1409)" fill-opacity="0.5"/>
<rect x="164.949" y="133.275" width="29.5148" height="29.5148" rx="6.61204" transform="rotate(-45 164.949 133.275)" fill="url(#paint11_radial_1312_1409)" fill-opacity="0.5"/>
<rect x="219.914" y="133.275" width="29.5148" height="29.5148" rx="6.61204" transform="rotate(-45 219.914 133.275)" fill="url(#paint12_radial_1312_1409)" fill-opacity="0.5"/>
<rect x="274.879" y="133.275" width="29.5148" height="29.5148" rx="6.61204" transform="rotate(-45 274.879 133.275)" fill="url(#paint13_radial_1312_1409)" fill-opacity="0.5"/>
<rect x="329.844" y="133.275" width="29.5148" height="29.5148" rx="6.61204" transform="rotate(-45 329.844 133.275)" fill="url(#paint14_radial_1312_1409)" fill-opacity="0.5"/>
<rect x="384.812" y="133.275" width="29.5148" height="29.5148" rx="6.61204" transform="rotate(-45 384.812 133.275)" fill="url(#paint15_radial_1312_1409)" fill-opacity="0.5"/>
<rect x="0.0507812" y="245.68" width="29.5148" height="29.5148" rx="6.61204" transform="rotate(-45 0.0507812 245.68)" fill="url(#paint16_radial_1312_1409)" fill-opacity="0.5"/>
<rect x="55.0195" y="245.68" width="29.5148" height="29.5148" rx="6.61204" transform="rotate(-45 55.0195 245.68)" fill="url(#paint17_radial_1312_1409)" fill-opacity="0.5"/>
<rect x="109.98" y="245.68" width="29.5148" height="29.5148" rx="6.61204" transform="rotate(-45 109.98 245.68)" fill="url(#paint18_radial_1312_1409)" fill-opacity="0.5"/>
<rect x="164.949" y="245.68" width="29.5148" height="29.5148" rx="6.61204" transform="rotate(-45 164.949 245.68)" fill="url(#paint19_radial_1312_1409)" fill-opacity="0.5"/>
<rect x="219.914" y="245.68" width="29.5148" height="29.5148" rx="6.61204" transform="rotate(-45 219.914 245.68)" fill="url(#paint20_radial_1312_1409)" fill-opacity="0.5"/>
<rect x="274.879" y="245.68" width="29.5148" height="29.5148" rx="6.61204" transform="rotate(-45 274.879 245.68)" fill="url(#paint21_radial_1312_1409)" fill-opacity="0.5"/>
<rect x="329.844" y="245.68" width="29.5148" height="29.5148" rx="6.61204" transform="rotate(-45 329.844 245.68)" fill="url(#paint22_radial_1312_1409)" fill-opacity="0.5"/>
<rect x="384.812" y="245.68" width="29.5148" height="29.5148" rx="6.61204" transform="rotate(-45 384.812 245.68)" fill="url(#paint23_radial_1312_1409)" fill-opacity="0.5"/>
<rect x="0.0507812" y="77.0728" width="29.5148" height="29.5148" rx="6.61204" transform="rotate(-45 0.0507812 77.0728)" fill="url(#paint24_radial_1312_1409)" fill-opacity="0.5"/>
<rect x="55.0195" y="77.0728" width="29.5148" height="29.5148" rx="6.61204" transform="rotate(-45 55.0195 77.0728)" fill="url(#paint25_radial_1312_1409)" fill-opacity="0.5"/>
<rect x="109.98" y="77.0728" width="29.5148" height="29.5148" rx="6.61204" transform="rotate(-45 109.98 77.0728)" fill="url(#paint26_radial_1312_1409)" fill-opacity="0.5"/>
<rect x="164.949" y="77.0728" width="29.5148" height="29.5148" rx="6.61204" transform="rotate(-45 164.949 77.0728)" fill="url(#paint27_radial_1312_1409)" fill-opacity="0.5"/>
<rect x="219.914" y="77.0728" width="29.5148" height="29.5148" rx="6.61204" transform="rotate(-45 219.914 77.0728)" fill="url(#paint28_radial_1312_1409)" fill-opacity="0.5"/>
<rect x="274.879" y="77.0728" width="29.5148" height="29.5148" rx="6.61204" transform="rotate(-45 274.879 77.0728)" fill="url(#paint29_radial_1312_1409)" fill-opacity="0.5"/>
<rect x="329.844" y="77.0728" width="29.5148" height="29.5148" rx="6.61204" transform="rotate(-45 329.844 77.0728)" fill="url(#paint30_radial_1312_1409)" fill-opacity="0.5"/>
<rect x="384.812" y="77.0728" width="29.5148" height="29.5148" rx="6.61204" transform="rotate(-45 384.812 77.0728)" fill="url(#paint31_radial_1312_1409)" fill-opacity="0.5"/>
<rect x="0.0507812" y="189.478" width="29.5148" height="29.5148" rx="6.61204" transform="rotate(-45 0.0507812 189.478)" fill="url(#paint32_radial_1312_1409)" fill-opacity="0.5"/>
<rect x="55.0195" y="189.478" width="29.5148" height="29.5148" rx="6.61204" transform="rotate(-45 55.0195 189.478)" fill="url(#paint33_radial_1312_1409)" fill-opacity="0.5"/>
<rect x="109.98" y="189.478" width="29.5148" height="29.5148" rx="6.61204" transform="rotate(-45 109.98 189.478)" fill="url(#paint34_radial_1312_1409)" fill-opacity="0.5"/>
<rect x="164.949" y="189.478" width="29.5148" height="29.5148" rx="6.61204" transform="rotate(-45 164.949 189.478)" fill="url(#paint35_radial_1312_1409)" fill-opacity="0.5"/>
<rect x="219.914" y="189.478" width="29.5148" height="29.5148" rx="6.61204" transform="rotate(-45 219.914 189.478)" fill="url(#paint36_radial_1312_1409)" fill-opacity="0.5"/>
<rect x="274.879" y="189.478" width="29.5148" height="29.5148" rx="6.61204" transform="rotate(-45 274.879 189.478)" fill="url(#paint37_radial_1312_1409)" fill-opacity="0.5"/>
<rect x="329.844" y="189.478" width="29.5148" height="29.5148" rx="6.61204" transform="rotate(-45 329.844 189.478)" fill="url(#paint38_radial_1312_1409)" fill-opacity="0.5"/>
<rect x="384.812" y="189.478" width="29.5148" height="29.5148" rx="6.61204" transform="rotate(-45 384.812 189.478)" fill="url(#paint39_radial_1312_1409)" fill-opacity="0.5"/>
<rect x="0.0507812" y="301.882" width="29.5148" height="29.5148" rx="6.61204" transform="rotate(-45 0.0507812 301.882)" fill="url(#paint40_radial_1312_1409)" fill-opacity="0.5"/>
<rect x="55.0195" y="301.882" width="29.5148" height="29.5148" rx="6.61204" transform="rotate(-45 55.0195 301.882)" fill="url(#paint41_radial_1312_1409)" fill-opacity="0.5"/>
<rect x="109.98" y="301.882" width="29.5148" height="29.5148" rx="6.61204" transform="rotate(-45 109.98 301.882)" fill="url(#paint42_radial_1312_1409)" fill-opacity="0.5"/>
<rect x="164.949" y="301.882" width="29.5148" height="29.5148" rx="6.61204" transform="rotate(-45 164.949 301.882)" fill="url(#paint43_radial_1312_1409)" fill-opacity="0.5"/>
<rect x="219.914" y="301.882" width="29.5148" height="29.5148" rx="6.61204" transform="rotate(-45 219.914 301.882)" fill="url(#paint44_radial_1312_1409)" fill-opacity="0.5"/>
<rect x="274.879" y="301.882" width="29.5148" height="29.5148" rx="6.61204" transform="rotate(-45 274.879 301.882)" fill="url(#paint45_radial_1312_1409)" fill-opacity="0.5"/>
<rect x="329.844" y="301.882" width="29.5148" height="29.5148" rx="6.61204" transform="rotate(-45 329.844 301.882)" fill="url(#paint46_radial_1312_1409)" fill-opacity="0.5"/>
<rect x="384.812" y="301.882" width="29.5148" height="29.5148" rx="6.61204" transform="rotate(-45 384.812 301.882)" fill="url(#paint47_radial_1312_1409)" fill-opacity="0.5"/>
<defs>
<radialGradient id="paint0_radial_1312_1409" cx="0" cy="0" r="1" gradientUnits="userSpaceOnUse" gradientTransform="translate(14.8082 35.6276) rotate(85.3036) scale(28.2856)">
<stop stop-color="#F6F5F5"/>
<stop offset="1" stop-color="#FAFAFA"/>
</radialGradient>
<radialGradient id="paint1_radial_1312_1409" cx="0" cy="0" r="1" gradientUnits="userSpaceOnUse" gradientTransform="translate(69.7769 35.6276) rotate(85.3036) scale(28.2856)">
<stop stop-color="#F6F5F5"/>
<stop offset="1" stop-color="#FAFAFA"/>
</radialGradient>
<radialGradient id="paint2_radial_1312_1409" cx="0" cy="0" r="1" gradientUnits="userSpaceOnUse" gradientTransform="translate(124.738 35.6276) rotate(85.3036) scale(28.2856)">
<stop stop-color="#F6F5F5"/>
<stop offset="1" stop-color="#FAFAFA"/>
</radialGradient>
<radialGradient id="paint3_radial_1312_1409" cx="0" cy="0" r="1" gradientUnits="userSpaceOnUse" gradientTransform="translate(179.707 35.6275) rotate(85.3036) scale(28.2856)">
<stop stop-color="#F6F5F5"/>
<stop offset="1" stop-color="#FAFAFA"/>
</radialGradient>
<radialGradient id="paint4_radial_1312_1409" cx="0" cy="0" r="1" gradientUnits="userSpaceOnUse" gradientTransform="translate(234.671 35.6276) rotate(85.3036) scale(28.2856)">
<stop stop-color="#F6F5F5"/>
<stop offset="1" stop-color="#FAFAFA"/>
</radialGradient>
<radialGradient id="paint5_radial_1312_1409" cx="0" cy="0" r="1" gradientUnits="userSpaceOnUse" gradientTransform="translate(289.636 35.6276) rotate(85.3036) scale(28.2856)">
<stop stop-color="#F6F5F5"/>
<stop offset="1" stop-color="#FAFAFA"/>
</radialGradient>
<radialGradient id="paint6_radial_1312_1409" cx="0" cy="0" r="1" gradientUnits="userSpaceOnUse" gradientTransform="translate(344.601 35.6275) rotate(85.3036) scale(28.2856)">
<stop stop-color="#F6F5F5"/>
<stop offset="1" stop-color="#FAFAFA"/>
</radialGradient>
<radialGradient id="paint7_radial_1312_1409" cx="0" cy="0" r="1" gradientUnits="userSpaceOnUse" gradientTransform="translate(399.57 35.6276) rotate(85.3036) scale(28.2856)">
<stop stop-color="#F6F5F5"/>
<stop offset="1" stop-color="#FAFAFA"/>
</radialGradient>
<radialGradient id="paint8_radial_1312_1409" cx="0" cy="0" r="1" gradientUnits="userSpaceOnUse" gradientTransform="translate(14.8082 148.033) rotate(85.3036) scale(28.2856)">
<stop stop-color="#F6F5F5"/>
<stop offset="1" stop-color="#FAFAFA"/>
</radialGradient>
<radialGradient id="paint9_radial_1312_1409" cx="0" cy="0" r="1" gradientUnits="userSpaceOnUse" gradientTransform="translate(69.7769 148.033) rotate(85.3036) scale(28.2856)">
<stop stop-color="#F6F5F5"/>
<stop offset="1" stop-color="#FAFAFA"/>
</radialGradient>
<radialGradient id="paint10_radial_1312_1409" cx="0" cy="0" r="1" gradientUnits="userSpaceOnUse" gradientTransform="translate(124.738 148.033) rotate(85.3036) scale(28.2856)">
<stop stop-color="#F6F5F5"/>
<stop offset="1" stop-color="#FAFAFA"/>
</radialGradient>
<radialGradient id="paint11_radial_1312_1409" cx="0" cy="0" r="1" gradientUnits="userSpaceOnUse" gradientTransform="translate(179.707 148.033) rotate(85.3036) scale(28.2856)">
<stop stop-color="#F6F5F5"/>
<stop offset="1" stop-color="#FAFAFA"/>
</radialGradient>
<radialGradient id="paint12_radial_1312_1409" cx="0" cy="0" r="1" gradientUnits="userSpaceOnUse" gradientTransform="translate(234.671 148.033) rotate(85.3036) scale(28.2856)">
<stop stop-color="#F6F5F5"/>
<stop offset="1" stop-color="#FAFAFA"/>
</radialGradient>
<radialGradient id="paint13_radial_1312_1409" cx="0" cy="0" r="1" gradientUnits="userSpaceOnUse" gradientTransform="translate(289.636 148.033) rotate(85.3036) scale(28.2856)">
<stop stop-color="#F6F5F5"/>
<stop offset="1" stop-color="#FAFAFA"/>
</radialGradient>
<radialGradient id="paint14_radial_1312_1409" cx="0" cy="0" r="1" gradientUnits="userSpaceOnUse" gradientTransform="translate(344.601 148.033) rotate(85.3036) scale(28.2856)">
<stop stop-color="#F6F5F5"/>
<stop offset="1" stop-color="#FAFAFA"/>
</radialGradient>
<radialGradient id="paint15_radial_1312_1409" cx="0" cy="0" r="1" gradientUnits="userSpaceOnUse" gradientTransform="translate(399.57 148.033) rotate(85.3036) scale(28.2856)">
<stop stop-color="#F6F5F5"/>
<stop offset="1" stop-color="#FAFAFA"/>
</radialGradient>
<radialGradient id="paint16_radial_1312_1409" cx="0" cy="0" r="1" gradientUnits="userSpaceOnUse" gradientTransform="translate(14.8082 260.437) rotate(85.3036) scale(28.2856)">
<stop stop-color="#F6F5F5"/>
<stop offset="1" stop-color="#FAFAFA"/>
</radialGradient>
<radialGradient id="paint17_radial_1312_1409" cx="0" cy="0" r="1" gradientUnits="userSpaceOnUse" gradientTransform="translate(69.7769 260.437) rotate(85.3036) scale(28.2856)">
<stop stop-color="#F6F5F5"/>
<stop offset="1" stop-color="#FAFAFA"/>
</radialGradient>
<radialGradient id="paint18_radial_1312_1409" cx="0" cy="0" r="1" gradientUnits="userSpaceOnUse" gradientTransform="translate(124.738 260.437) rotate(85.3036) scale(28.2856)">
<stop stop-color="#F6F5F5"/>
<stop offset="1" stop-color="#FAFAFA"/>
</radialGradient>
<radialGradient id="paint19_radial_1312_1409" cx="0" cy="0" r="1" gradientUnits="userSpaceOnUse" gradientTransform="translate(179.707 260.437) rotate(85.3036) scale(28.2856)">
<stop stop-color="#F6F5F5"/>
<stop offset="1" stop-color="#FAFAFA"/>
</radialGradient>
<radialGradient id="paint20_radial_1312_1409" cx="0" cy="0" r="1" gradientUnits="userSpaceOnUse" gradientTransform="translate(234.671 260.437) rotate(85.3036) scale(28.2856)">
<stop stop-color="#F6F5F5"/>
<stop offset="1" stop-color="#FAFAFA"/>
</radialGradient>
<radialGradient id="paint21_radial_1312_1409" cx="0" cy="0" r="1" gradientUnits="userSpaceOnUse" gradientTransform="translate(289.636 260.437) rotate(85.3036) scale(28.2856)">
<stop stop-color="#F6F5F5"/>
<stop offset="1" stop-color="#FAFAFA"/>
</radialGradient>
<radialGradient id="paint22_radial_1312_1409" cx="0" cy="0" r="1" gradientUnits="userSpaceOnUse" gradientTransform="translate(344.601 260.437) rotate(85.3036) scale(28.2856)">
<stop stop-color="#F6F5F5"/>
<stop offset="1" stop-color="#FAFAFA"/>
</radialGradient>
<radialGradient id="paint23_radial_1312_1409" cx="0" cy="0" r="1" gradientUnits="userSpaceOnUse" gradientTransform="translate(399.57 260.437) rotate(85.3036) scale(28.2856)">
<stop stop-color="#F6F5F5"/>
<stop offset="1" stop-color="#FAFAFA"/>
</radialGradient>
<radialGradient id="paint24_radial_1312_1409" cx="0" cy="0" r="1" gradientUnits="userSpaceOnUse" gradientTransform="translate(14.8082 91.8302) rotate(85.3036) scale(28.2856)">
<stop stop-color="#F6F5F5"/>
<stop offset="1" stop-color="#FAFAFA"/>
</radialGradient>
<radialGradient id="paint25_radial_1312_1409" cx="0" cy="0" r="1" gradientUnits="userSpaceOnUse" gradientTransform="translate(69.7769 91.8302) rotate(85.3036) scale(28.2856)">
<stop stop-color="#F6F5F5"/>
<stop offset="1" stop-color="#FAFAFA"/>
</radialGradient>
<radialGradient id="paint26_radial_1312_1409" cx="0" cy="0" r="1" gradientUnits="userSpaceOnUse" gradientTransform="translate(124.738 91.8302) rotate(85.3036) scale(28.2856)">
<stop stop-color="#F6F5F5"/>
<stop offset="1" stop-color="#FAFAFA"/>
</radialGradient>
<radialGradient id="paint27_radial_1312_1409" cx="0" cy="0" r="1" gradientUnits="userSpaceOnUse" gradientTransform="translate(179.707 91.8302) rotate(85.3036) scale(28.2856)">
<stop stop-color="#F6F5F5"/>
<stop offset="1" stop-color="#FAFAFA"/>
</radialGradient>
<radialGradient id="paint28_radial_1312_1409" cx="0" cy="0" r="1" gradientUnits="userSpaceOnUse" gradientTransform="translate(234.671 91.8302) rotate(85.3036) scale(28.2856)">
<stop stop-color="#F6F5F5"/>
<stop offset="1" stop-color="#FAFAFA"/>
</radialGradient>
<radialGradient id="paint29_radial_1312_1409" cx="0" cy="0" r="1" gradientUnits="userSpaceOnUse" gradientTransform="translate(289.636 91.8302) rotate(85.3036) scale(28.2856)">
<stop stop-color="#F6F5F5"/>
<stop offset="1" stop-color="#FAFAFA"/>
</radialGradient>
<radialGradient id="paint30_radial_1312_1409" cx="0" cy="0" r="1" gradientUnits="userSpaceOnUse" gradientTransform="translate(344.601 91.8302) rotate(85.3036) scale(28.2856)">
<stop stop-color="#F6F5F5"/>
<stop offset="1" stop-color="#FAFAFA"/>
</radialGradient>
<radialGradient id="paint31_radial_1312_1409" cx="0" cy="0" r="1" gradientUnits="userSpaceOnUse" gradientTransform="translate(399.57 91.8302) rotate(85.3036) scale(28.2856)">
<stop stop-color="#F6F5F5"/>
<stop offset="1" stop-color="#FAFAFA"/>
</radialGradient>
<radialGradient id="paint32_radial_1312_1409" cx="0" cy="0" r="1" gradientUnits="userSpaceOnUse" gradientTransform="translate(14.8082 204.235) rotate(85.3036) scale(28.2856)">
<stop stop-color="#F6F5F5"/>
<stop offset="1" stop-color="#FAFAFA"/>
</radialGradient>
<radialGradient id="paint33_radial_1312_1409" cx="0" cy="0" r="1" gradientUnits="userSpaceOnUse" gradientTransform="translate(69.7769 204.235) rotate(85.3036) scale(28.2856)">
<stop stop-color="#F6F5F5"/>
<stop offset="1" stop-color="#FAFAFA"/>
</radialGradient>
<radialGradient id="paint34_radial_1312_1409" cx="0" cy="0" r="1" gradientUnits="userSpaceOnUse" gradientTransform="translate(124.738 204.235) rotate(85.3036) scale(28.2856)">
<stop stop-color="#F6F5F5"/>
<stop offset="1" stop-color="#FAFAFA"/>
</radialGradient>
<radialGradient id="paint35_radial_1312_1409" cx="0" cy="0" r="1" gradientUnits="userSpaceOnUse" gradientTransform="translate(179.707 204.235) rotate(85.3036) scale(28.2856)">
<stop stop-color="#F6F5F5"/>
<stop offset="1" stop-color="#FAFAFA"/>
</radialGradient>
<radialGradient id="paint36_radial_1312_1409" cx="0" cy="0" r="1" gradientUnits="userSpaceOnUse" gradientTransform="translate(234.671 204.235) rotate(85.3036) scale(28.2856)">
<stop stop-color="#F6F5F5"/>
<stop offset="1" stop-color="#FAFAFA"/>
</radialGradient>
<radialGradient id="paint37_radial_1312_1409" cx="0" cy="0" r="1" gradientUnits="userSpaceOnUse" gradientTransform="translate(289.636 204.235) rotate(85.3036) scale(28.2856)">
<stop stop-color="#F6F5F5"/>
<stop offset="1" stop-color="#FAFAFA"/>
</radialGradient>
<radialGradient id="paint38_radial_1312_1409" cx="0" cy="0" r="1" gradientUnits="userSpaceOnUse" gradientTransform="translate(344.601 204.235) rotate(85.3036) scale(28.2856)">
<stop stop-color="#F6F5F5"/>
<stop offset="1" stop-color="#FAFAFA"/>
</radialGradient>
<radialGradient id="paint39_radial_1312_1409" cx="0" cy="0" r="1" gradientUnits="userSpaceOnUse" gradientTransform="translate(399.57 204.235) rotate(85.3036) scale(28.2856)">
<stop stop-color="#F6F5F5"/>
<stop offset="1" stop-color="#FAFAFA"/>
</radialGradient>
<radialGradient id="paint40_radial_1312_1409" cx="0" cy="0" r="1" gradientUnits="userSpaceOnUse" gradientTransform="translate(14.8082 316.64) rotate(85.3036) scale(28.2856)">
<stop stop-color="#F6F5F5"/>
<stop offset="1" stop-color="#FAFAFA"/>
</radialGradient>
<radialGradient id="paint41_radial_1312_1409" cx="0" cy="0" r="1" gradientUnits="userSpaceOnUse" gradientTransform="translate(69.7769 316.64) rotate(85.3036) scale(28.2856)">
<stop stop-color="#F6F5F5"/>
<stop offset="1" stop-color="#FAFAFA"/>
</radialGradient>
<radialGradient id="paint42_radial_1312_1409" cx="0" cy="0" r="1" gradientUnits="userSpaceOnUse" gradientTransform="translate(124.738 316.64) rotate(85.3036) scale(28.2856)">
<stop stop-color="#F6F5F5"/>
<stop offset="1" stop-color="#FAFAFA"/>
</radialGradient>
<radialGradient id="paint43_radial_1312_1409" cx="0" cy="0" r="1" gradientUnits="userSpaceOnUse" gradientTransform="translate(179.707 316.64) rotate(85.3036) scale(28.2856)">
<stop stop-color="#F6F5F5"/>
<stop offset="1" stop-color="#FAFAFA"/>
</radialGradient>
<radialGradient id="paint44_radial_1312_1409" cx="0" cy="0" r="1" gradientUnits="userSpaceOnUse" gradientTransform="translate(234.671 316.64) rotate(85.3036) scale(28.2856)">
<stop stop-color="#F6F5F5"/>
<stop offset="1" stop-color="#FAFAFA"/>
</radialGradient>
<radialGradient id="paint45_radial_1312_1409" cx="0" cy="0" r="1" gradientUnits="userSpaceOnUse" gradientTransform="translate(289.636 316.64) rotate(85.3036) scale(28.2856)">
<stop stop-color="#F6F5F5"/>
<stop offset="1" stop-color="#FAFAFA"/>
</radialGradient>
<radialGradient id="paint46_radial_1312_1409" cx="0" cy="0" r="1" gradientUnits="userSpaceOnUse" gradientTransform="translate(344.601 316.64) rotate(85.3036) scale(28.2856)">
<stop stop-color="#F6F5F5"/>
<stop offset="1" stop-color="#FAFAFA"/>
</radialGradient>
<radialGradient id="paint47_radial_1312_1409" cx="0" cy="0" r="1" gradientUnits="userSpaceOnUse" gradientTransform="translate(399.57 316.64) rotate(85.3036) scale(28.2856)">
<stop stop-color="#F6F5F5"/>
<stop offset="1" stop-color="#FAFAFA"/>
</radialGradient>
</defs>
</svg>
