<svg width="163" height="124" viewBox="0 0 163 124" fill="none" xmlns="http://www.w3.org/2000/svg">
<rect x="0.0507812" y="7.96399" width="11.2628" height="11.2628" rx="2.52315" transform="rotate(-45 0.0507812 7.96399)" fill="url(#paint0_radial_1312_1576)" fill-opacity="0.6"/>
<rect x="21.0273" y="7.96399" width="11.2628" height="11.2628" rx="2.52315" transform="rotate(-45 21.0273 7.96399)" fill="url(#paint1_radial_1312_1576)" fill-opacity="0.6"/>
<rect x="42" y="7.96399" width="11.2628" height="11.2628" rx="2.52315" transform="rotate(-45 42 7.96399)" fill="url(#paint2_radial_1312_1576)" fill-opacity="0.6"/>
<rect x="62.9766" y="7.96399" width="11.2628" height="11.2628" rx="2.52315" transform="rotate(-45 62.9766 7.96399)" fill="url(#paint3_radial_1312_1576)" fill-opacity="0.6"/>
<rect x="83.9492" y="7.96399" width="11.2628" height="11.2628" rx="2.52315" transform="rotate(-45 83.9492 7.96399)" fill="url(#paint4_radial_1312_1576)" fill-opacity="0.6"/>
<rect x="104.926" y="7.96399" width="11.2628" height="11.2628" rx="2.52315" transform="rotate(-45 104.926 7.96399)" fill="url(#paint5_radial_1312_1576)" fill-opacity="0.6"/>
<rect x="125.902" y="7.96399" width="11.2628" height="11.2628" rx="2.52315" transform="rotate(-45 125.902 7.96399)" fill="url(#paint6_radial_1312_1576)" fill-opacity="0.6"/>
<rect x="146.875" y="7.96399" width="11.2628" height="11.2628" rx="2.52315" transform="rotate(-45 146.875 7.96399)" fill="url(#paint7_radial_1312_1576)" fill-opacity="0.6"/>
<rect x="0.0507812" y="50.858" width="11.2628" height="11.2628" rx="2.52315" transform="rotate(-45 0.0507812 50.858)" fill="url(#paint8_radial_1312_1576)" fill-opacity="0.6"/>
<rect x="21.0273" y="50.8575" width="11.2628" height="11.2628" rx="2.52315" transform="rotate(-45 21.0273 50.8575)" fill="url(#paint9_radial_1312_1576)" fill-opacity="0.6"/>
<rect x="42" y="50.8575" width="11.2628" height="11.2628" rx="2.52315" transform="rotate(-45 42 50.8575)" fill="url(#paint10_radial_1312_1576)" fill-opacity="0.6"/>
<rect x="62.9766" y="50.858" width="11.2628" height="11.2628" rx="2.52315" transform="rotate(-45 62.9766 50.858)" fill="url(#paint11_radial_1312_1576)" fill-opacity="0.6"/>
<rect x="83.9492" y="50.8575" width="11.2628" height="11.2628" rx="2.52315" transform="rotate(-45 83.9492 50.8575)" fill="url(#paint12_radial_1312_1576)" fill-opacity="0.6"/>
<rect x="104.926" y="50.8575" width="11.2628" height="11.2628" rx="2.52315" transform="rotate(-45 104.926 50.8575)" fill="url(#paint13_radial_1312_1576)" fill-opacity="0.6"/>
<rect x="125.902" y="50.8575" width="11.2628" height="11.2628" rx="2.52315" transform="rotate(-45 125.902 50.8575)" fill="url(#paint14_radial_1312_1576)" fill-opacity="0.6"/>
<rect x="146.875" y="50.8575" width="11.2628" height="11.2628" rx="2.52315" transform="rotate(-45 146.875 50.8575)" fill="url(#paint15_radial_1312_1576)" fill-opacity="0.6"/>
<rect x="0.0507812" y="93.7515" width="11.2628" height="11.2628" rx="2.52315" transform="rotate(-45 0.0507812 93.7515)" fill="url(#paint16_radial_1312_1576)" fill-opacity="0.6"/>
<rect x="21.0273" y="93.7512" width="11.2628" height="11.2628" rx="2.52315" transform="rotate(-45 21.0273 93.7512)" fill="url(#paint17_radial_1312_1576)" fill-opacity="0.6"/>
<rect x="42" y="93.7512" width="11.2628" height="11.2628" rx="2.52315" transform="rotate(-45 42 93.7512)" fill="url(#paint18_radial_1312_1576)" fill-opacity="0.6"/>
<rect x="62.9766" y="93.7515" width="11.2628" height="11.2628" rx="2.52315" transform="rotate(-45 62.9766 93.7515)" fill="url(#paint19_radial_1312_1576)" fill-opacity="0.6"/>
<rect x="83.9492" y="93.7512" width="11.2628" height="11.2628" rx="2.52315" transform="rotate(-45 83.9492 93.7512)" fill="url(#paint20_radial_1312_1576)" fill-opacity="0.6"/>
<rect x="104.926" y="93.7512" width="11.2628" height="11.2628" rx="2.52315" transform="rotate(-45 104.926 93.7512)" fill="url(#paint21_radial_1312_1576)" fill-opacity="0.6"/>
<rect x="125.902" y="93.7512" width="11.2628" height="11.2628" rx="2.52315" transform="rotate(-45 125.902 93.7512)" fill="url(#paint22_radial_1312_1576)" fill-opacity="0.6"/>
<rect x="146.875" y="93.7512" width="11.2628" height="11.2628" rx="2.52315" transform="rotate(-45 146.875 93.7512)" fill="url(#paint23_radial_1312_1576)" fill-opacity="0.6"/>
<rect x="0.0507812" y="29.4108" width="11.2628" height="11.2628" rx="2.52315" transform="rotate(-45 0.0507812 29.4108)" fill="url(#paint24_radial_1312_1576)" fill-opacity="0.6"/>
<rect x="21.0273" y="29.4108" width="11.2628" height="11.2628" rx="2.52315" transform="rotate(-45 21.0273 29.4108)" fill="url(#paint25_radial_1312_1576)" fill-opacity="0.6"/>
<rect x="42" y="29.4108" width="11.2628" height="11.2628" rx="2.52315" transform="rotate(-45 42 29.4108)" fill="url(#paint26_radial_1312_1576)" fill-opacity="0.6"/>
<rect x="62.9766" y="29.4108" width="11.2628" height="11.2628" rx="2.52315" transform="rotate(-45 62.9766 29.4108)" fill="url(#paint27_radial_1312_1576)" fill-opacity="0.6"/>
<rect x="83.9492" y="29.4108" width="11.2628" height="11.2628" rx="2.52315" transform="rotate(-45 83.9492 29.4108)" fill="url(#paint28_radial_1312_1576)" fill-opacity="0.6"/>
<rect x="104.926" y="29.4108" width="11.2628" height="11.2628" rx="2.52315" transform="rotate(-45 104.926 29.4108)" fill="url(#paint29_radial_1312_1576)" fill-opacity="0.6"/>
<rect x="125.902" y="29.4108" width="11.2628" height="11.2628" rx="2.52315" transform="rotate(-45 125.902 29.4108)" fill="url(#paint30_radial_1312_1576)" fill-opacity="0.6"/>
<rect x="146.875" y="29.4108" width="11.2628" height="11.2628" rx="2.52315" transform="rotate(-45 146.875 29.4108)" fill="url(#paint31_radial_1312_1576)" fill-opacity="0.6"/>
<rect x="0.0507812" y="72.3043" width="11.2628" height="11.2628" rx="2.52315" transform="rotate(-45 0.0507812 72.3043)" fill="url(#paint32_radial_1312_1576)" fill-opacity="0.6"/>
<rect x="21.0273" y="72.3043" width="11.2628" height="11.2628" rx="2.52315" transform="rotate(-45 21.0273 72.3043)" fill="url(#paint33_radial_1312_1576)" fill-opacity="0.6"/>
<rect x="42" y="72.3043" width="11.2628" height="11.2628" rx="2.52315" transform="rotate(-45 42 72.3043)" fill="url(#paint34_radial_1312_1576)" fill-opacity="0.6"/>
<rect x="62.9766" y="72.3043" width="11.2628" height="11.2628" rx="2.52315" transform="rotate(-45 62.9766 72.3043)" fill="url(#paint35_radial_1312_1576)" fill-opacity="0.6"/>
<rect x="83.9492" y="72.3043" width="11.2628" height="11.2628" rx="2.52315" transform="rotate(-45 83.9492 72.3043)" fill="url(#paint36_radial_1312_1576)" fill-opacity="0.6"/>
<rect x="104.926" y="72.3043" width="11.2628" height="11.2628" rx="2.52315" transform="rotate(-45 104.926 72.3043)" fill="url(#paint37_radial_1312_1576)" fill-opacity="0.6"/>
<rect x="125.902" y="72.3043" width="11.2628" height="11.2628" rx="2.52315" transform="rotate(-45 125.902 72.3043)" fill="url(#paint38_radial_1312_1576)" fill-opacity="0.6"/>
<rect x="146.875" y="72.3043" width="11.2628" height="11.2628" rx="2.52315" transform="rotate(-45 146.875 72.3043)" fill="url(#paint39_radial_1312_1576)" fill-opacity="0.6"/>
<rect x="0.0507812" y="115.198" width="11.2628" height="11.2628" rx="2.52315" transform="rotate(-45 0.0507812 115.198)" fill="url(#paint40_radial_1312_1576)" fill-opacity="0.6"/>
<rect x="21.0273" y="115.198" width="11.2628" height="11.2628" rx="2.52315" transform="rotate(-45 21.0273 115.198)" fill="url(#paint41_radial_1312_1576)" fill-opacity="0.6"/>
<rect x="42" y="115.198" width="11.2628" height="11.2628" rx="2.52315" transform="rotate(-45 42 115.198)" fill="url(#paint42_radial_1312_1576)" fill-opacity="0.6"/>
<rect x="62.9766" y="115.198" width="11.2628" height="11.2628" rx="2.52315" transform="rotate(-45 62.9766 115.198)" fill="url(#paint43_radial_1312_1576)" fill-opacity="0.6"/>
<rect x="83.9492" y="115.198" width="11.2628" height="11.2628" rx="2.52315" transform="rotate(-45 83.9492 115.198)" fill="url(#paint44_radial_1312_1576)" fill-opacity="0.6"/>
<rect x="104.926" y="115.198" width="11.2628" height="11.2628" rx="2.52315" transform="rotate(-45 104.926 115.198)" fill="url(#paint45_radial_1312_1576)" fill-opacity="0.6"/>
<rect x="125.902" y="115.198" width="11.2628" height="11.2628" rx="2.52315" transform="rotate(-45 125.902 115.198)" fill="url(#paint46_radial_1312_1576)" fill-opacity="0.6"/>
<rect x="146.875" y="115.198" width="11.2628" height="11.2628" rx="2.52315" transform="rotate(-45 146.875 115.198)" fill="url(#paint47_radial_1312_1576)" fill-opacity="0.6"/>
<defs>
<radialGradient id="paint0_radial_1312_1576" cx="0" cy="0" r="1" gradientUnits="userSpaceOnUse" gradientTransform="translate(5.68219 13.5954) rotate(85.3036) scale(10.7938)">
<stop stop-color="white"/>
<stop offset="1" stop-color="#FAFAFA"/>
</radialGradient>
<radialGradient id="paint1_radial_1312_1576" cx="0" cy="0" r="1" gradientUnits="userSpaceOnUse" gradientTransform="translate(26.6588 13.5954) rotate(85.3036) scale(10.7938)">
<stop stop-color="white"/>
<stop offset="1" stop-color="#FAFAFA"/>
</radialGradient>
<radialGradient id="paint2_radial_1312_1576" cx="0" cy="0" r="1" gradientUnits="userSpaceOnUse" gradientTransform="translate(47.6314 13.5954) rotate(85.3036) scale(10.7938)">
<stop stop-color="white"/>
<stop offset="1" stop-color="#FAFAFA"/>
</radialGradient>
<radialGradient id="paint3_radial_1312_1576" cx="0" cy="0" r="1" gradientUnits="userSpaceOnUse" gradientTransform="translate(68.608 13.5954) rotate(85.3036) scale(10.7938)">
<stop stop-color="white"/>
<stop offset="1" stop-color="#FAFAFA"/>
</radialGradient>
<radialGradient id="paint4_radial_1312_1576" cx="0" cy="0" r="1" gradientUnits="userSpaceOnUse" gradientTransform="translate(89.5806 13.5954) rotate(85.3036) scale(10.7938)">
<stop stop-color="white"/>
<stop offset="1" stop-color="#FAFAFA"/>
</radialGradient>
<radialGradient id="paint5_radial_1312_1576" cx="0" cy="0" r="1" gradientUnits="userSpaceOnUse" gradientTransform="translate(110.557 13.5954) rotate(85.3036) scale(10.7938)">
<stop stop-color="white"/>
<stop offset="1" stop-color="#FAFAFA"/>
</radialGradient>
<radialGradient id="paint6_radial_1312_1576" cx="0" cy="0" r="1" gradientUnits="userSpaceOnUse" gradientTransform="translate(131.534 13.5954) rotate(85.3036) scale(10.7938)">
<stop stop-color="white"/>
<stop offset="1" stop-color="#FAFAFA"/>
</radialGradient>
<radialGradient id="paint7_radial_1312_1576" cx="0" cy="0" r="1" gradientUnits="userSpaceOnUse" gradientTransform="translate(152.506 13.5954) rotate(85.3036) scale(10.7938)">
<stop stop-color="white"/>
<stop offset="1" stop-color="#FAFAFA"/>
</radialGradient>
<radialGradient id="paint8_radial_1312_1576" cx="0" cy="0" r="1" gradientUnits="userSpaceOnUse" gradientTransform="translate(5.68219 56.4894) rotate(85.3036) scale(10.7938)">
<stop stop-color="white"/>
<stop offset="1" stop-color="#FAFAFA"/>
</radialGradient>
<radialGradient id="paint9_radial_1312_1576" cx="0" cy="0" r="1" gradientUnits="userSpaceOnUse" gradientTransform="translate(26.6588 56.489) rotate(85.3036) scale(10.7938)">
<stop stop-color="white"/>
<stop offset="1" stop-color="#FAFAFA"/>
</radialGradient>
<radialGradient id="paint10_radial_1312_1576" cx="0" cy="0" r="1" gradientUnits="userSpaceOnUse" gradientTransform="translate(47.6314 56.489) rotate(85.3036) scale(10.7938)">
<stop stop-color="white"/>
<stop offset="1" stop-color="#FAFAFA"/>
</radialGradient>
<radialGradient id="paint11_radial_1312_1576" cx="0" cy="0" r="1" gradientUnits="userSpaceOnUse" gradientTransform="translate(68.608 56.4894) rotate(85.3036) scale(10.7938)">
<stop stop-color="white"/>
<stop offset="1" stop-color="#FAFAFA"/>
</radialGradient>
<radialGradient id="paint12_radial_1312_1576" cx="0" cy="0" r="1" gradientUnits="userSpaceOnUse" gradientTransform="translate(89.5806 56.489) rotate(85.3036) scale(10.7938)">
<stop stop-color="white"/>
<stop offset="1" stop-color="#FAFAFA"/>
</radialGradient>
<radialGradient id="paint13_radial_1312_1576" cx="0" cy="0" r="1" gradientUnits="userSpaceOnUse" gradientTransform="translate(110.557 56.489) rotate(85.3036) scale(10.7938)">
<stop stop-color="white"/>
<stop offset="1" stop-color="#FAFAFA"/>
</radialGradient>
<radialGradient id="paint14_radial_1312_1576" cx="0" cy="0" r="1" gradientUnits="userSpaceOnUse" gradientTransform="translate(131.534 56.489) rotate(85.3036) scale(10.7938)">
<stop stop-color="white"/>
<stop offset="1" stop-color="#FAFAFA"/>
</radialGradient>
<radialGradient id="paint15_radial_1312_1576" cx="0" cy="0" r="1" gradientUnits="userSpaceOnUse" gradientTransform="translate(152.506 56.489) rotate(85.3036) scale(10.7938)">
<stop stop-color="white"/>
<stop offset="1" stop-color="#FAFAFA"/>
</radialGradient>
<radialGradient id="paint16_radial_1312_1576" cx="0" cy="0" r="1" gradientUnits="userSpaceOnUse" gradientTransform="translate(5.68219 99.3829) rotate(85.3036) scale(10.7938)">
<stop stop-color="white"/>
<stop offset="1" stop-color="#FAFAFA"/>
</radialGradient>
<radialGradient id="paint17_radial_1312_1576" cx="0" cy="0" r="1" gradientUnits="userSpaceOnUse" gradientTransform="translate(26.6588 99.3826) rotate(85.3036) scale(10.7938)">
<stop stop-color="white"/>
<stop offset="1" stop-color="#FAFAFA"/>
</radialGradient>
<radialGradient id="paint18_radial_1312_1576" cx="0" cy="0" r="1" gradientUnits="userSpaceOnUse" gradientTransform="translate(47.6314 99.3826) rotate(85.3036) scale(10.7938)">
<stop stop-color="white"/>
<stop offset="1" stop-color="#FAFAFA"/>
</radialGradient>
<radialGradient id="paint19_radial_1312_1576" cx="0" cy="0" r="1" gradientUnits="userSpaceOnUse" gradientTransform="translate(68.608 99.3829) rotate(85.3036) scale(10.7938)">
<stop stop-color="white"/>
<stop offset="1" stop-color="#FAFAFA"/>
</radialGradient>
<radialGradient id="paint20_radial_1312_1576" cx="0" cy="0" r="1" gradientUnits="userSpaceOnUse" gradientTransform="translate(89.5806 99.3826) rotate(85.3036) scale(10.7938)">
<stop stop-color="white"/>
<stop offset="1" stop-color="#FAFAFA"/>
</radialGradient>
<radialGradient id="paint21_radial_1312_1576" cx="0" cy="0" r="1" gradientUnits="userSpaceOnUse" gradientTransform="translate(110.557 99.3826) rotate(85.3036) scale(10.7938)">
<stop stop-color="white"/>
<stop offset="1" stop-color="#FAFAFA"/>
</radialGradient>
<radialGradient id="paint22_radial_1312_1576" cx="0" cy="0" r="1" gradientUnits="userSpaceOnUse" gradientTransform="translate(131.534 99.3826) rotate(85.3036) scale(10.7938)">
<stop stop-color="white"/>
<stop offset="1" stop-color="#FAFAFA"/>
</radialGradient>
<radialGradient id="paint23_radial_1312_1576" cx="0" cy="0" r="1" gradientUnits="userSpaceOnUse" gradientTransform="translate(152.506 99.3826) rotate(85.3036) scale(10.7938)">
<stop stop-color="white"/>
<stop offset="1" stop-color="#FAFAFA"/>
</radialGradient>
<radialGradient id="paint24_radial_1312_1576" cx="0" cy="0" r="1" gradientUnits="userSpaceOnUse" gradientTransform="translate(5.68219 35.0422) rotate(85.3036) scale(10.7938)">
<stop stop-color="white"/>
<stop offset="1" stop-color="#FAFAFA"/>
</radialGradient>
<radialGradient id="paint25_radial_1312_1576" cx="0" cy="0" r="1" gradientUnits="userSpaceOnUse" gradientTransform="translate(26.6588 35.0422) rotate(85.3036) scale(10.7938)">
<stop stop-color="white"/>
<stop offset="1" stop-color="#FAFAFA"/>
</radialGradient>
<radialGradient id="paint26_radial_1312_1576" cx="0" cy="0" r="1" gradientUnits="userSpaceOnUse" gradientTransform="translate(47.6314 35.0422) rotate(85.3036) scale(10.7938)">
<stop stop-color="white"/>
<stop offset="1" stop-color="#FAFAFA"/>
</radialGradient>
<radialGradient id="paint27_radial_1312_1576" cx="0" cy="0" r="1" gradientUnits="userSpaceOnUse" gradientTransform="translate(68.608 35.0422) rotate(85.3036) scale(10.7938)">
<stop stop-color="white"/>
<stop offset="1" stop-color="#FAFAFA"/>
</radialGradient>
<radialGradient id="paint28_radial_1312_1576" cx="0" cy="0" r="1" gradientUnits="userSpaceOnUse" gradientTransform="translate(89.5806 35.0422) rotate(85.3036) scale(10.7938)">
<stop stop-color="white"/>
<stop offset="1" stop-color="#FAFAFA"/>
</radialGradient>
<radialGradient id="paint29_radial_1312_1576" cx="0" cy="0" r="1" gradientUnits="userSpaceOnUse" gradientTransform="translate(110.557 35.0422) rotate(85.3036) scale(10.7938)">
<stop stop-color="white"/>
<stop offset="1" stop-color="#FAFAFA"/>
</radialGradient>
<radialGradient id="paint30_radial_1312_1576" cx="0" cy="0" r="1" gradientUnits="userSpaceOnUse" gradientTransform="translate(131.534 35.0422) rotate(85.3036) scale(10.7938)">
<stop stop-color="white"/>
<stop offset="1" stop-color="#FAFAFA"/>
</radialGradient>
<radialGradient id="paint31_radial_1312_1576" cx="0" cy="0" r="1" gradientUnits="userSpaceOnUse" gradientTransform="translate(152.506 35.0422) rotate(85.3036) scale(10.7938)">
<stop stop-color="white"/>
<stop offset="1" stop-color="#FAFAFA"/>
</radialGradient>
<radialGradient id="paint32_radial_1312_1576" cx="0" cy="0" r="1" gradientUnits="userSpaceOnUse" gradientTransform="translate(5.68219 77.9357) rotate(85.3036) scale(10.7938)">
<stop stop-color="white"/>
<stop offset="1" stop-color="#FAFAFA"/>
</radialGradient>
<radialGradient id="paint33_radial_1312_1576" cx="0" cy="0" r="1" gradientUnits="userSpaceOnUse" gradientTransform="translate(26.6588 77.9357) rotate(85.3036) scale(10.7938)">
<stop stop-color="white"/>
<stop offset="1" stop-color="#FAFAFA"/>
</radialGradient>
<radialGradient id="paint34_radial_1312_1576" cx="0" cy="0" r="1" gradientUnits="userSpaceOnUse" gradientTransform="translate(47.6314 77.9357) rotate(85.3036) scale(10.7938)">
<stop stop-color="white"/>
<stop offset="1" stop-color="#FAFAFA"/>
</radialGradient>
<radialGradient id="paint35_radial_1312_1576" cx="0" cy="0" r="1" gradientUnits="userSpaceOnUse" gradientTransform="translate(68.608 77.9357) rotate(85.3036) scale(10.7938)">
<stop stop-color="white"/>
<stop offset="1" stop-color="#FAFAFA"/>
</radialGradient>
<radialGradient id="paint36_radial_1312_1576" cx="0" cy="0" r="1" gradientUnits="userSpaceOnUse" gradientTransform="translate(89.5806 77.9357) rotate(85.3036) scale(10.7938)">
<stop stop-color="white"/>
<stop offset="1" stop-color="#FAFAFA"/>
</radialGradient>
<radialGradient id="paint37_radial_1312_1576" cx="0" cy="0" r="1" gradientUnits="userSpaceOnUse" gradientTransform="translate(110.557 77.9357) rotate(85.3036) scale(10.7938)">
<stop stop-color="white"/>
<stop offset="1" stop-color="#FAFAFA"/>
</radialGradient>
<radialGradient id="paint38_radial_1312_1576" cx="0" cy="0" r="1" gradientUnits="userSpaceOnUse" gradientTransform="translate(131.534 77.9357) rotate(85.3036) scale(10.7938)">
<stop stop-color="white"/>
<stop offset="1" stop-color="#FAFAFA"/>
</radialGradient>
<radialGradient id="paint39_radial_1312_1576" cx="0" cy="0" r="1" gradientUnits="userSpaceOnUse" gradientTransform="translate(152.506 77.9357) rotate(85.3036) scale(10.7938)">
<stop stop-color="white"/>
<stop offset="1" stop-color="#FAFAFA"/>
</radialGradient>
<radialGradient id="paint40_radial_1312_1576" cx="0" cy="0" r="1" gradientUnits="userSpaceOnUse" gradientTransform="translate(5.68219 120.83) rotate(85.3036) scale(10.7938)">
<stop stop-color="white"/>
<stop offset="1" stop-color="#FAFAFA"/>
</radialGradient>
<radialGradient id="paint41_radial_1312_1576" cx="0" cy="0" r="1" gradientUnits="userSpaceOnUse" gradientTransform="translate(26.6588 120.83) rotate(85.3036) scale(10.7938)">
<stop stop-color="white"/>
<stop offset="1" stop-color="#FAFAFA"/>
</radialGradient>
<radialGradient id="paint42_radial_1312_1576" cx="0" cy="0" r="1" gradientUnits="userSpaceOnUse" gradientTransform="translate(47.6314 120.83) rotate(85.3036) scale(10.7938)">
<stop stop-color="white"/>
<stop offset="1" stop-color="#FAFAFA"/>
</radialGradient>
<radialGradient id="paint43_radial_1312_1576" cx="0" cy="0" r="1" gradientUnits="userSpaceOnUse" gradientTransform="translate(68.608 120.83) rotate(85.3036) scale(10.7938)">
<stop stop-color="white"/>
<stop offset="1" stop-color="#FAFAFA"/>
</radialGradient>
<radialGradient id="paint44_radial_1312_1576" cx="0" cy="0" r="1" gradientUnits="userSpaceOnUse" gradientTransform="translate(89.5806 120.83) rotate(85.3036) scale(10.7938)">
<stop stop-color="white"/>
<stop offset="1" stop-color="#FAFAFA"/>
</radialGradient>
<radialGradient id="paint45_radial_1312_1576" cx="0" cy="0" r="1" gradientUnits="userSpaceOnUse" gradientTransform="translate(110.557 120.83) rotate(85.3036) scale(10.7938)">
<stop stop-color="white"/>
<stop offset="1" stop-color="#FAFAFA"/>
</radialGradient>
<radialGradient id="paint46_radial_1312_1576" cx="0" cy="0" r="1" gradientUnits="userSpaceOnUse" gradientTransform="translate(131.534 120.83) rotate(85.3036) scale(10.7938)">
<stop stop-color="white"/>
<stop offset="1" stop-color="#FAFAFA"/>
</radialGradient>
<radialGradient id="paint47_radial_1312_1576" cx="0" cy="0" r="1" gradientUnits="userSpaceOnUse" gradientTransform="translate(152.506 120.83) rotate(85.3036) scale(10.7938)">
<stop stop-color="white"/>
<stop offset="1" stop-color="#FAFAFA"/>
</radialGradient>
</defs>
</svg>
