<svg width="96" height="50" viewBox="0 0 96 50" fill="none" xmlns="http://www.w3.org/2000/svg">
<path d="M2.06641 36.5704C2.06641 36.5704 2.70871 31.371 5.63629 29.8736C7.63923 28.8492 10.2381 29.7851 11.2702 28.4874C13.0831 26.2082 11.7549 24.4492 14.5416 22.0384C18.823 18.3345 25.6686 20.3569 28.1721 17.0359C30.353 14.1429 27.4201 12.7751 28.8385 9.80339C30.2569 6.83171 35.7703 6.12535 40.4516 4.62965C44.6492 3.28849 48.7725 2.02637 48.7725 2.02637" stroke="#C6C6C6" stroke-width="3.02469"/>
<path d="M1.1543 36.0864C1.1543 36.0864 2.22894 30.5767 5.15652 29.0793C7.15946 28.0548 9.64448 28.8673 10.6766 27.5696C12.4895 25.2905 10.9954 23.8974 14.0736 21.2895C19.3144 16.8494 24.7334 19.7829 27.2369 16.4618C29.4178 13.5688 26.4483 12.5939 27.9033 9.22932C29.3583 5.86475 35.3441 5.21792 40.0254 3.72222C44.223 2.38106 48.5284 1 48.5284 1" stroke="#D6D6D6" stroke-width="1.20988"/>
<path d="M85.4824 28.6083C83.6696 26.3291 84.9978 24.5701 82.2111 22.1593C77.9297 18.4553 71.0841 20.4778 68.5806 17.1568C66.3997 14.2638 69.3326 12.896 67.9142 9.92428C66.4958 6.9526 61.1038 6.30673 56.4225 4.81104C52.2249 3.46988 48.2839 2.02832 48.2839 2.02832" stroke="#C6C6C6" stroke-width="3.02469"/>
<path d="M86.0742 27.6906C84.2614 25.4114 85.4639 23.8213 82.6772 21.4104C78.3959 17.7065 72.0175 19.9038 69.5139 16.5828C67.3331 13.6898 70.3025 12.7149 68.8476 9.3503C67.3926 5.98573 61.2245 5.21792 56.5432 3.72222C52.3457 2.38107 48.1615 1 48.1615 1" stroke="#D6D6D6" stroke-width="1.20988"/>
<path fill-rule="evenodd" clip-rule="evenodd" d="M6.24108 28.1867L6.24206 28.188C6.57125 28.6202 6.97923 29.0356 7.4697 29.4329C7.97818 29.8284 8.66541 30.33 9.53392 30.9387C10.4778 31.5871 11.2518 32.1686 11.8515 32.6825C12.4852 33.1951 13.0197 33.7787 13.452 34.4333C13.9067 35.1217 14.1388 35.8741 14.1394 36.6807C14.1569 38.2623 13.3888 39.4872 11.9272 40.3216L11.9253 40.3227L11.9233 40.3238C10.5046 41.1165 8.7499 41.5064 6.68489 41.523L6.68293 41.523H6.68097C5.29837 41.523 4.1212 41.3411 3.16931 40.9549L3.16783 40.9543L3.16635 40.9537C2.25453 40.5767 1.53918 40.079 1.06621 39.4383L1.06147 39.4319L1.05694 39.4253C0.61788 38.7876 0.388711 38.0965 0.388711 37.361C0.388711 36.8191 0.511126 36.3078 0.757574 35.8344C1.00223 35.3484 1.3406 34.9573 1.77715 34.6799C2.31551 34.3292 2.89177 34.1427 3.4984 34.1427C3.83188 34.1427 4.14388 34.1995 4.42777 34.3169C3.4565 33.6556 2.67977 33.0939 2.10162 32.6332L2.09565 32.6285L2.08983 32.6235C1.49764 32.1204 1.00134 31.5304 0.601838 30.8557L0.599464 30.8517L0.597168 30.8477C0.195122 30.1378 0 29.3363 0 28.4563C0 27.4533 0.332932 26.5474 0.984431 25.7543L0.985174 25.7534C1.64122 24.9587 2.50294 24.3499 3.55395 23.9204C4.60545 23.4745 5.73868 23.2538 6.94821 23.2538C7.30784 23.2538 7.59303 23.2618 7.79391 23.28L7.79913 23.2805L7.80433 23.2811C8.99549 23.4148 10.0146 23.6934 10.8448 24.1332C11.6556 24.5628 12.2859 25.0877 12.6991 25.7224C13.1001 26.3225 13.3133 26.9621 13.3133 27.6336C13.3133 28.3584 13.0794 28.9947 12.6014 29.5105C12.1108 30.0399 11.4657 30.2953 10.7138 30.2953C10.2451 30.2953 9.75181 30.1789 9.24046 29.9682L8.61593 29.7108L9.05984 29.2032C9.40282 28.8109 9.5963 28.2718 9.5963 27.5368C9.5963 27.0387 9.49668 26.5544 9.29477 26.0804L9.2923 26.0746L9.28999 26.0688C9.10523 25.6016 8.85013 25.2446 8.53211 24.9807L8.52367 24.9737L8.51555 24.9663C8.22534 24.7024 7.91888 24.5847 7.57986 24.5847C6.96076 24.5847 6.49963 24.7722 6.14994 25.1205C5.79353 25.4755 5.61201 25.9143 5.61201 26.4721C5.61201 27.0626 5.81139 27.6304 6.24008 28.1854L6.24108 28.1867ZM12.293 25.9882C11.9367 25.4397 11.3779 24.9638 10.6167 24.5605C10.0756 24.2739 9.43641 24.0565 8.69901 23.9084C8.39891 23.8481 8.08255 23.7993 7.74992 23.762C7.70018 23.7575 7.64349 23.7536 7.57986 23.7504C7.41559 23.742 7.20504 23.7378 6.94821 23.7378C6.84532 23.7378 6.74307 23.7395 6.64148 23.7428C5.60763 23.777 4.64092 23.985 3.74134 24.3669C2.75337 24.7702 1.95975 25.3348 1.36049 26.0608C0.777422 26.7705 0.485889 27.5691 0.485889 28.4563C0.485889 29.2629 0.664048 29.9808 1.02037 30.6099C1.39288 31.239 1.85447 31.7875 2.40515 32.2553C2.97202 32.707 3.74134 33.2636 4.71312 33.925C5.49054 34.4573 6.0898 34.8848 6.51091 35.2074C6.93201 35.5139 7.35311 35.8688 7.77422 36.2721C8.09814 36.5947 8.34109 36.9496 8.50305 37.3368C8.68121 37.724 8.77029 38.1111 8.77029 38.4983C8.77029 39.1274 8.55974 39.6598 8.13863 40.0953C7.96169 40.2786 7.75537 40.4218 7.51967 40.525C7.27243 40.6333 6.99286 40.6975 6.68097 40.7176C6.6801 40.7176 6.67923 40.7177 6.67837 40.7177C6.60799 40.7222 6.53598 40.7245 6.46232 40.7245C6.03607 40.7245 5.65345 40.6438 5.31446 40.4824C5.26702 40.4598 5.22044 40.4356 5.17471 40.4099C4.8022 40.2002 4.51876 39.934 4.32441 39.6114C4.13005 39.2726 4.03288 38.9338 4.03288 38.5951C4.03288 38.2079 4.16245 37.9095 4.42159 37.6998C4.95606 37.2642 5.2233 36.7722 5.2233 36.2237C5.2233 35.772 5.06134 35.3929 4.73741 35.0864C4.41349 34.7799 4.00048 34.6267 3.4984 34.6267C2.99631 34.6267 2.51042 34.7799 2.04073 35.0864C1.68441 35.3123 1.40098 35.6349 1.19043 36.0543C0.979875 36.4576 0.874599 36.8932 0.874599 37.361C0.874599 37.9901 1.06895 38.587 1.45767 39.1516C1.86257 39.7001 2.49423 40.1518 3.35263 40.5067C3.87754 40.7197 4.48704 40.8688 5.18114 40.9539C5.58023 41.0029 6.00729 41.0307 6.46232 41.0374C6.5345 41.0385 6.60738 41.039 6.68097 41.039C7.00726 41.0364 7.32457 41.0242 7.63291 41.0024C9.22239 40.8901 10.5733 40.5232 11.6856 39.9017C13.0137 39.1436 13.6697 38.0708 13.6535 36.6835C13.6535 35.9737 13.451 35.3123 13.0461 34.6993C12.6412 34.0863 12.1391 33.5378 11.5399 33.0538C10.9568 32.5538 10.1956 31.9811 9.25618 31.3358C8.38158 30.7228 7.68514 30.2147 7.16686 29.8114C6.64858 29.3919 6.21128 28.9483 5.85496 28.4805C5.36907 27.8514 5.12612 27.1819 5.12612 26.4721C5.12612 25.7946 5.35287 25.23 5.80637 24.7783C6.06593 24.5198 6.37058 24.3352 6.72033 24.2247C6.79427 24.2013 6.87023 24.1812 6.94821 24.1645C7.14581 24.122 7.35636 24.1008 7.57986 24.1008C7.62403 24.1008 7.66778 24.1023 7.71109 24.1052C7.71358 24.1054 7.71606 24.1056 7.71854 24.1058C8.00595 24.1268 8.27439 24.214 8.52387 24.3673C8.634 24.4349 8.74043 24.5155 8.84317 24.6089C9.23188 24.9315 9.53151 25.359 9.74207 25.8914C9.96881 26.4237 10.0822 26.9722 10.0822 27.5368C10.0822 28.1532 9.95944 28.6791 9.71393 29.1144C9.63178 29.2601 9.53588 29.3956 9.42624 29.521C9.5938 29.5901 9.75622 29.6468 9.91347 29.6912C10.197 29.7713 10.4638 29.8114 10.7138 29.8114C11.3455 29.8114 11.8557 29.6017 12.2444 29.1822C12.6331 28.7628 12.8275 28.2466 12.8275 27.6336C12.8275 27.069 12.6493 26.5205 12.293 25.9882ZM7.43395 36.6176C7.02792 36.229 6.62461 35.8896 6.22422 35.5982L6.2194 35.5946L6.21466 35.591C5.94282 35.3827 5.59219 35.1277 5.16168 34.8253C5.52459 35.2098 5.70919 35.6844 5.70919 36.2237C5.70919 36.9533 5.34528 37.5723 4.72927 38.0743L4.72799 38.0754C4.60173 38.1775 4.51876 38.3269 4.51876 38.5951C4.51876 38.8362 4.58668 39.0916 4.74367 39.3667C4.8893 39.6067 5.10641 39.8155 5.4138 39.9886C5.70395 40.1519 6.04868 40.2405 6.46232 40.2405C7.07392 40.2405 7.49463 40.0642 7.78839 39.7599L7.78864 39.7596C8.11872 39.4182 8.2844 39.0078 8.2844 38.4983C8.2844 38.1874 8.21333 37.8687 8.06135 37.5384L8.05781 37.5307L8.05454 37.5229C7.91958 37.2003 7.71526 36.8986 7.43395 36.6176ZM28.5328 35.5861L28.5352 35.679C28.5545 36.4285 28.2854 37.2504 27.7943 38.1277C27.2946 39.0336 26.5277 39.8065 25.5187 40.4538C24.4686 41.1274 23.1979 41.4504 21.7329 41.4504C20.4363 41.4504 19.2453 41.1951 18.1686 40.6761C17.0835 40.1532 16.2132 39.3827 15.5655 38.3714L15.5639 38.3689L15.5623 38.3663C14.9238 37.3417 14.6146 36.1369 14.6146 34.7719C14.6146 33.4732 14.9553 32.3115 15.647 31.3045L15.6475 31.3038L15.648 31.303C16.3462 30.2947 17.2719 29.5219 18.4153 28.9868C19.5687 28.4384 20.8144 28.1659 22.1459 28.1659C22.8836 28.1659 23.6174 28.297 24.3452 28.5554C25.1039 28.8082 25.7692 29.2404 26.3382 29.8426C26.9339 30.473 27.2946 31.2699 27.4366 32.2073L27.4875 32.543L21.0419 36.0254C21.3654 36.5303 21.7409 36.9161 22.1639 37.1947C22.7186 37.5332 23.3088 37.6998 23.9437 37.6998C24.6535 37.6998 25.3323 37.4964 25.9884 37.0752C26.6378 36.6584 27.1564 36.0737 27.542 35.3056L28.0105 34.3723L28.5328 35.5861ZM20.6139 36.2567C20.5658 36.1806 20.519 36.1023 20.4733 36.0219C20.4562 35.9917 20.4392 35.9611 20.4224 35.9302C20.4056 35.8993 20.3889 35.8681 20.3724 35.8366L26.9562 32.2795C26.8266 31.4245 26.5027 30.7228 25.9844 30.1743C25.4661 29.6259 24.8669 29.2387 24.1866 29.0129C23.5064 28.7709 22.8261 28.6499 22.1459 28.6499C20.8826 28.6499 19.7083 28.908 18.6232 29.4242C17.5542 29.9243 16.6958 30.6422 16.048 31.5778C15.4163 32.4973 15.1005 33.562 15.1005 34.7719C15.1005 36.0624 15.392 37.1755 15.9751 38.1111C16.5744 39.0468 17.3761 39.7566 18.3803 40.2405C19.3844 40.7245 20.502 40.9664 21.7329 40.9664C23.1258 40.9664 24.3 40.6599 25.2556 40.0469C26.2112 39.4339 26.9157 38.7161 27.3692 37.8933C27.6475 37.3963 27.8405 36.9361 27.9482 36.5126C28.0223 36.2215 28.056 35.9477 28.0494 35.6914L27.9766 35.522C27.9471 35.5808 27.9168 35.6386 27.8858 35.6955C27.87 35.7245 27.8541 35.7532 27.8379 35.7817C27.7329 35.9669 27.6195 36.1421 27.498 36.3075C27.1501 36.7804 26.7347 37.172 26.2516 37.482C25.5228 37.9498 24.7535 38.1837 23.9437 38.1837C23.2148 38.1837 22.5346 37.9901 21.9029 37.603C21.4041 37.2761 20.9744 36.8273 20.6139 36.2567ZM20.421 29.3274C20.1456 29.4081 19.927 29.7226 19.765 30.2711C19.6031 30.8035 19.5221 31.4326 19.5221 32.1585C19.5221 33.1838 19.6847 34.1474 20.0099 35.0493C20.0173 35.0698 20.0247 35.0902 20.0323 35.1106C20.0817 35.2385 20.122 35.3364 20.1533 35.4043C20.1643 35.4281 20.1742 35.4482 20.1829 35.4646C20.1901 35.4782 20.1966 35.4893 20.2023 35.4978L22.5346 34.1427C22.5342 34.1346 22.5338 34.1265 22.5334 34.1185C22.483 33.1095 22.2972 32.0529 21.9758 30.9487C21.6519 29.8356 21.2146 29.279 20.6639 29.279C20.5991 29.279 20.5182 29.2952 20.421 29.3274ZM22.0315 33.8747C21.9659 32.988 21.7927 32.0578 21.5091 31.0834C21.3548 30.5531 21.186 30.203 21.0223 29.9947C20.8683 29.7988 20.7508 29.7637 20.6665 29.763C20.6665 29.763 20.666 29.763 20.6658 29.7631C20.6635 29.7633 20.6583 29.764 20.6499 29.7657C20.6332 29.769 20.6084 29.7753 20.5746 29.7865L20.5664 29.7893L20.5581 29.7917C20.5562 29.7923 20.5468 29.7951 20.5294 29.8091C20.5109 29.8239 20.4835 29.8512 20.45 29.8993C20.3809 29.9987 20.304 30.161 20.2312 30.4077L20.2306 30.4096L20.23 30.4115C20.0854 30.8869 20.008 31.4665 20.008 32.1585C20.008 33.0995 20.1521 33.9793 20.4372 34.8011L22.0315 33.8747ZM28.5412 30.1903L28.9302 30.1115C30.7135 29.7499 32.2623 29.1633 33.5838 28.3581L34.0019 28.1033L34.3962 28.7578V42.6845C34.3962 43.783 34.1301 44.6926 33.498 45.3039C32.9206 45.8777 32.2016 46.1742 31.3704 46.193L31.3649 46.1931H28.5412V44.9832H29.6276C29.643 44.9435 29.6588 44.8757 29.6588 44.7654V31.6988C29.6588 31.4467 29.6008 31.3479 29.5704 31.3142C29.5498 31.2913 29.4927 31.2426 29.3143 31.2392L28.5412 31.3092V30.1903ZM29.8331 30.9021C30.0408 31.0524 30.1446 31.318 30.1446 31.6988V44.7654C30.1446 44.9499 30.1133 45.1031 30.0507 45.2252C30.0421 45.2419 30.0329 45.258 30.0232 45.2736C29.9422 45.4026 29.8207 45.4672 29.6588 45.4672H29.0271V45.7091H31.3594C32.072 45.693 32.6713 45.443 33.1571 44.959C33.6592 44.4751 33.9103 43.7169 33.9103 42.6845V28.8919L33.8374 28.7709C33.7773 28.8075 33.7168 28.8437 33.6558 28.8794C33.6487 28.8835 33.6416 28.8877 33.6345 28.8919C33.565 28.9324 33.495 28.9723 33.4244 29.0117C32.3737 29.5978 31.1991 30.056 29.9006 30.3865C29.7015 30.4372 29.4994 30.4848 29.2943 30.5295C29.2876 30.531 29.2809 30.5324 29.2741 30.5339C29.1923 30.5516 29.1099 30.5689 29.0271 30.5857V30.7793L29.2943 30.7551C29.3726 30.7551 29.4455 30.7611 29.513 30.7731C29.6383 30.7954 29.745 30.8384 29.8331 30.9021ZM32.0153 23.8104C32.6648 23.8104 33.2331 24.0486 33.6951 24.5087C34.157 24.9688 34.3962 25.5348 34.3962 26.1817C34.3962 26.8287 34.157 27.3947 33.6951 27.8548C33.2331 28.3149 32.6648 28.5531 32.0153 28.5531C31.3658 28.5531 30.7975 28.3149 30.3355 27.8548C29.8736 27.3947 29.6345 26.8287 29.6345 26.1817C29.6345 25.5348 29.8736 24.9688 30.3355 24.5087C30.7975 24.0486 31.3658 23.8104 32.0153 23.8104ZM50.1327 41.3536H45.6558L45.649 41.3534C45.0211 41.336 44.4688 41.2143 44.0519 40.9303L44.0449 40.9255L44.0381 40.9205C43.8584 40.7886 43.718 40.6209 43.6099 40.4269C43.3149 40.7396 42.9505 40.9996 42.5233 41.2076L42.5193 41.2095L42.5154 41.2114C41.7144 41.5837 40.825 41.7649 39.8561 41.7649C39.005 41.7649 38.1923 41.6176 37.4216 41.3211C36.6416 41.0209 36.0008 40.5797 35.519 39.9891L35.5138 39.9828L35.5089 39.9762C35.0227 39.337 34.828 38.5771 34.9019 37.7304L34.9021 37.7278L34.9024 37.7251C34.992 36.8149 35.3103 36.0348 35.8767 35.4142L35.8772 35.4137C36.4218 34.8188 37.0504 34.359 37.7618 34.0402L37.7638 34.0393L37.7659 34.0384C37.7919 34.027 37.8183 34.0155 37.8449 34.0041C37.2858 33.9513 36.781 33.7792 36.3454 33.4738L36.3418 33.4713L36.3383 33.4688C35.765 33.0515 35.5074 32.4214 35.5074 31.6746C35.5074 30.883 35.8934 30.2206 36.5663 29.6981C37.2123 29.1807 38.0204 28.8011 38.9734 28.5464C39.9239 28.2763 40.907 28.1417 41.9212 28.1417C43.852 28.1417 45.5161 28.5517 46.8885 29.399C48.376 30.3003 49.0394 32.0176 49.0394 34.3363V39.9259C49.0394 40.0166 49.0474 40.0811 49.0575 40.1245C49.0591 40.1317 49.0608 40.1381 49.0624 40.1437H50.1327V41.3536ZM46.6343 29.8114C45.6293 29.1905 44.4444 28.8135 43.0797 28.6803C42.707 28.6439 42.3208 28.6257 41.9212 28.6257C41.9173 28.6257 41.9133 28.6257 41.9094 28.6257C41.9077 28.6257 41.906 28.6257 41.9042 28.6257C41.6483 28.6261 41.3946 28.6355 41.1432 28.6538C40.4458 28.7045 39.7658 28.8242 39.103 29.0129C38.196 29.2548 37.451 29.6097 36.8679 30.0775C36.2849 30.5292 35.9933 31.0616 35.9933 31.6746C35.9933 32.3037 36.2039 32.7715 36.625 33.078C37.0623 33.3845 37.5968 33.5378 38.2284 33.5378C38.8601 33.5378 39.4836 33.4087 40.0991 33.1506C40.4967 32.9882 40.8172 32.8033 41.0608 32.5962C41.2042 32.4742 41.321 32.3444 41.411 32.2069C41.242 32.1531 41.0899 32.088 40.9548 32.0116C40.7661 31.905 40.6105 31.7766 40.4878 31.6262C40.2934 31.3681 40.1963 31.0777 40.1963 30.7551C40.1963 30.3034 40.3582 29.9001 40.6822 29.5452C40.8493 29.3621 41.0401 29.2241 41.2546 29.1312C41.4559 29.044 41.6781 28.9965 41.9212 28.9887C42.3455 28.969 42.6886 29.0242 42.9506 29.1542C43.1187 29.2376 43.2533 29.3518 43.3545 29.4968C43.6107 29.8477 43.7403 30.4429 43.7432 31.2825C43.7432 31.2922 43.7433 31.3019 43.7433 31.3116C43.7433 31.5822 43.6721 31.8252 43.5297 32.0406C43.4974 32.0894 43.4615 32.1368 43.422 32.1827C43.3863 32.2242 43.3476 32.2645 43.306 32.3037C43.2979 32.3112 43.2898 32.3187 43.2817 32.3262C43.1539 32.4431 43.0108 32.5516 42.8526 32.6516C42.6747 32.7641 42.4776 32.8659 42.2613 32.957C41.8564 33.1184 41.2652 33.32 40.4878 33.562C39.4674 33.8846 38.6252 34.1911 37.9612 34.4815C37.3133 34.7719 36.7384 35.1913 36.2363 35.7398C35.7504 36.2721 35.467 36.9496 35.386 37.7724C35.3212 38.5144 35.4912 39.1516 35.8962 39.684C36.3173 40.2002 36.8841 40.5954 37.5968 40.8696C38.3094 41.1439 39.0625 41.281 39.8561 41.281C40.7631 41.281 41.5811 41.1116 42.3099 40.7729C42.7701 40.5488 43.1366 40.2636 43.4096 39.9173C43.4143 39.9113 43.419 39.9053 43.4237 39.8992C43.4821 39.8238 43.5361 39.7455 43.5857 39.6644C43.5877 39.661 43.5898 39.6576 43.5919 39.6542C43.6694 39.526 43.7361 39.3908 43.7918 39.2484C43.799 39.3405 43.8088 39.4283 43.8215 39.5117C43.8495 39.6963 43.8911 39.8597 43.9463 40.002C44.0366 40.2349 44.1632 40.4112 44.3263 40.5309C44.6341 40.7406 45.0794 40.8535 45.6625 40.8696H49.6468V40.6277H49.0394C48.8492 40.6277 48.7149 40.547 48.6363 40.3857C48.5811 40.2723 48.5536 40.119 48.5536 39.9259V34.3363C48.5536 32.094 47.9138 30.5857 46.6343 29.8114ZM43.7676 32.1827C43.6987 32.297 43.6206 32.4172 43.5332 32.5434L43.5329 32.5438C43.4563 32.6544 43.3725 32.7695 43.2817 32.8892C43.2509 32.9297 43.2193 32.9707 43.1869 33.0123C42.8847 33.4 42.5114 33.8333 42.0669 34.3121C41.6296 34.8122 41.2895 35.2074 41.0466 35.4978C40.8198 35.772 40.6336 36.0624 40.4878 36.3689C40.2773 36.7722 40.172 37.1997 40.172 37.6514C40.172 37.9901 40.2368 38.3128 40.3663 38.6193C40.4959 38.9096 40.6822 39.1516 40.9251 39.3452C41.0871 39.4742 41.2895 39.5791 41.5325 39.6598C41.7754 39.7404 42.0183 39.7808 42.2613 39.7808C42.5672 39.7808 42.8408 39.7025 43.082 39.5459C43.1601 39.4953 43.2347 39.4364 43.306 39.3694C43.3086 39.3667 43.3113 39.3641 43.3139 39.3614C43.3396 39.3353 43.3642 39.308 43.3877 39.2794C43.4254 39.2335 43.4603 39.1844 43.4923 39.132C43.4992 39.1209 43.5059 39.1096 43.5124 39.0981C43.6707 38.8227 43.7557 38.4614 43.7676 38.0143V32.1827ZM43.2817 33.6681V38.0077C43.2664 38.548 43.1328 38.8543 42.967 39.0225C42.7679 39.2076 42.541 39.2968 42.2613 39.2968C42.0733 39.2968 41.8822 39.2658 41.6861 39.2006C41.4852 39.134 41.3367 39.0534 41.2286 38.9673C41.0491 38.8243 40.9109 38.6465 40.8122 38.427C40.7095 38.1824 40.6579 37.9252 40.6579 37.6514C40.6579 37.2779 40.7441 36.927 40.9189 36.5922L40.9231 36.5842L40.9269 36.5761C41.0546 36.3077 41.2186 36.0512 41.4207 35.8066C41.6594 35.5213 41.995 35.1313 42.4287 34.6353C42.7462 34.2931 43.0309 33.9706 43.2817 33.6681ZM42.0763 32.5095C42.4528 32.3504 42.7479 32.1622 42.9726 31.9516C43.1702 31.7656 43.2574 31.5609 43.2574 31.3116C43.2574 30.477 43.1253 30.0057 42.9616 29.7814L42.9586 29.7773L42.9557 29.7732C42.8358 29.6016 42.5681 29.4432 41.9437 29.4721L41.9403 29.4722L41.9368 29.4724C41.5598 29.4845 41.273 29.6173 41.0417 29.8707C40.7936 30.1426 40.6822 30.4317 40.6822 30.7551C40.6822 30.9698 40.7434 31.156 40.8708 31.3282C41.0078 31.4928 41.2245 31.6394 41.5591 31.746L42.1662 31.9395L41.818 32.4713C41.7757 32.5359 41.7295 32.5983 41.6797 32.6586C41.8287 32.6051 41.9609 32.5554 42.0763 32.5095ZM65.1935 40.1437V41.3536H60.7409L60.7342 41.3534C60.104 41.336 59.5502 41.2136 59.1224 40.9366L59.1104 40.9289L59.0989 40.9205C58.9377 40.8022 58.8082 40.6551 58.7052 40.486C58.5127 40.6575 58.2843 40.8073 58.0297 40.9373C57.3191 41.3003 56.512 41.4746 55.6215 41.4746C54.7013 41.4746 53.824 41.2623 52.9954 40.8409C52.1343 40.403 51.4455 39.698 50.921 38.7575C50.3827 37.7925 50.131 36.583 50.131 35.159C50.131 33.5613 50.4686 32.2156 51.1865 31.161L51.187 31.1603L51.1875 31.1596C51.8974 30.1248 52.7851 29.3741 53.8523 28.9304C54.8796 28.4875 55.924 28.2627 56.982 28.2627C57.4972 28.2627 57.9629 28.3042 58.3668 28.3988V25.0445C58.3668 24.7923 58.3089 24.6936 58.2785 24.6599C58.2578 24.637 58.2007 24.5883 58.0223 24.5849L57.2492 24.6549V23.5368L57.6372 23.4573C60.4727 22.8764 62.3221 22.2842 63.2615 21.7051L63.6804 21.4468L64.076 22.1035V39.9259C64.076 40.0362 64.0917 40.104 64.1071 40.1437H65.1935ZM58.5495 24.2539C58.7516 24.4053 58.8527 24.6688 58.8527 25.0445V29.0854C58.713 29.0105 58.551 28.948 58.3668 28.898C58.2328 28.8616 58.087 28.8317 57.9295 28.8085C57.7311 28.7792 57.5141 28.7603 57.2784 28.7518C57.1827 28.7484 57.0839 28.7467 56.982 28.7467C55.994 28.7467 55.0142 28.9564 54.0424 29.3758C53.0706 29.7791 52.2527 30.4647 51.5886 31.4326C50.9408 32.3844 50.6169 33.6265 50.6169 35.159C50.6169 36.5302 50.8598 37.6514 51.3457 38.5225C51.8316 39.3936 52.4551 40.0227 53.2164 40.4099C53.9776 40.797 54.7793 40.9906 55.6215 40.9906C56.4475 40.9906 57.1764 40.8293 57.808 40.5067C58.0973 40.3589 58.3271 40.1943 58.4975 40.0127C58.5352 39.9725 58.57 39.9315 58.6019 39.8897C58.7286 39.7234 58.8093 39.544 58.8441 39.3515C58.8474 39.3334 58.8502 39.3152 58.8527 39.2968V39.2484C58.8539 39.2647 58.8553 39.2808 58.8567 39.2968L58.8568 39.2973C58.8587 39.3194 58.8609 39.3412 58.8632 39.3627C58.8722 39.447 58.8837 39.5274 58.8978 39.6038C58.9326 39.7933 58.9829 39.9586 59.0487 40.0999C59.135 40.2849 59.2478 40.4286 59.3872 40.5309C59.7111 40.7406 60.1646 40.8535 60.7476 40.8696H64.7076V40.6277H64.076C63.914 40.6277 63.7925 40.5631 63.7116 40.4341C63.7018 40.4185 63.6926 40.4024 63.6841 40.3857C63.6214 40.2636 63.5901 40.1104 63.5901 39.9259V22.2375L63.5172 22.1166C63.4823 22.1381 63.4463 22.1596 63.4093 22.181C63.3768 22.1999 63.3434 22.2187 63.3093 22.2375C63.2439 22.2735 63.1756 22.3094 63.1042 22.3453C62.1492 22.8248 60.6572 23.29 58.6284 23.7409C58.4251 23.7861 58.2164 23.8311 58.0024 23.876C57.9957 23.8774 57.989 23.8788 57.9822 23.8802C57.9007 23.8973 57.8183 23.9143 57.7351 23.9314V24.125L58.0024 24.1008C58.0807 24.1008 58.1535 24.1068 58.221 24.1188C58.3504 24.1418 58.4599 24.1868 58.5495 24.2539ZM58.5602 39.241C58.5687 39.2277 58.5772 39.214 58.5854 39.2C58.7474 38.9258 58.8365 38.5144 58.8527 37.9659V30.3437C58.8527 30.0148 58.7884 29.7441 58.6598 29.5317C58.6514 29.5177 58.6427 29.504 58.6337 29.4906C58.6184 29.4677 58.6023 29.4456 58.5854 29.4242C58.4073 29.1984 58.1886 29.0854 57.9295 29.0854C57.7487 29.0854 57.5679 29.1374 57.3871 29.2412C57.2116 29.342 57.0361 29.4917 56.8605 29.6904C56.5042 30.0775 56.2046 30.6825 55.9616 31.5052C55.7187 32.3279 55.5972 33.3523 55.5972 34.5783C55.5972 35.5784 55.7187 36.4657 55.9616 37.24C56.2046 37.9982 56.5042 38.587 56.8605 39.0064C57.2331 39.4097 57.5894 39.6114 57.9295 39.6114C58.0506 39.6114 58.1607 39.5848 58.2599 39.5318C58.3033 39.5086 58.3445 39.4803 58.3837 39.447C58.4331 39.405 58.4791 39.3549 58.5218 39.2968C58.5276 39.2888 58.5334 39.2807 58.5392 39.2724C58.5428 39.2672 58.5464 39.2619 58.5499 39.2566C58.5517 39.2539 58.5535 39.2512 58.5553 39.2484C58.5569 39.246 58.5586 39.2435 58.5602 39.241ZM57.225 38.6862C57.557 39.0433 57.7905 39.1274 57.9295 39.1274C58.0022 39.1274 58.0753 39.1092 58.1666 38.9546C58.2667 38.7853 58.3509 38.4729 58.3668 37.9586V30.3437C58.3668 30.0275 58.2942 29.8383 58.2034 29.7232C58.1055 29.5991 58.0214 29.5694 57.9295 29.5694C57.7715 29.5694 57.537 29.6573 57.2253 30.0101L57.222 30.0138L57.2187 30.0174C56.9345 30.3262 56.6615 30.8503 56.4278 31.6418C56.2022 32.4056 56.0831 33.3804 56.0831 34.5783C56.0831 35.5399 56.2 36.3765 56.425 37.0945C56.6548 37.811 56.9269 38.3324 57.225 38.6862ZM75.9763 41.3536L75.9696 41.3534C75.3417 41.336 74.7893 41.2143 74.3725 40.9303L74.3655 40.9255L74.3587 40.9205C74.179 40.7886 74.0385 40.6209 73.9305 40.4269C73.6355 40.7396 73.2711 40.9996 72.8439 41.2076L72.8399 41.2095L72.8359 41.2114C72.035 41.5837 71.1456 41.7649 70.1767 41.7649C69.3256 41.7649 68.5129 41.6176 67.7422 41.3211C66.9622 41.0209 66.3214 40.5797 65.8396 39.9891L65.8344 39.9828L65.8294 39.9762C65.3433 39.337 65.1486 38.5771 65.2225 37.7304L65.2227 37.7278L65.223 37.7251C65.3126 36.8149 65.6309 36.0348 66.1973 35.4142L66.1978 35.4137C66.7424 34.8188 67.371 34.359 68.0824 34.0402L68.0844 34.0393L68.0864 34.0384C68.1125 34.027 68.1389 34.0155 68.1655 34.0041C67.6064 33.9513 67.1016 33.7792 66.6659 33.4738L66.6624 33.4713L66.6589 33.4688C66.0855 33.0515 65.828 32.4214 65.828 31.6746C65.828 30.883 66.214 30.2205 66.887 29.698C67.533 29.1807 68.341 28.8011 69.2939 28.5464C70.2444 28.2763 71.2276 28.1417 72.2418 28.1417C74.1725 28.1417 75.8365 28.5516 77.2089 29.3988C78.6965 30.3001 79.36 32.0175 79.36 34.3363V39.9259C79.36 40.0166 79.368 40.0811 79.378 40.1245C79.3797 40.1317 79.3814 40.1381 79.383 40.1437H81.5184C81.5208 40.1356 81.5234 40.1259 81.526 40.1143C81.5367 40.0666 81.5448 39.9974 81.5448 39.9017V25.0445C81.5448 24.7894 81.4876 24.6885 81.4579 24.6547C81.4401 24.6343 81.3904 24.5883 81.2245 24.5849L80.4516 24.6549V23.5373L80.839 23.4575C83.6579 22.8766 85.4998 22.2845 86.4395 21.7051L86.8056 21.4793L87.2783 22.0678V30.0526C87.4642 29.8838 87.6646 29.7164 87.8789 29.5504L87.8814 29.5484L87.884 29.5465C88.5156 29.0704 89.1642 28.7069 89.8301 28.4624C90.2777 28.2954 90.7567 28.2143 91.2626 28.2143C92.2571 28.2143 93.123 28.5492 93.8318 29.2181C94.5786 29.9227 94.9067 30.9606 94.9067 32.2311V39.9259C94.9067 40.0362 94.9225 40.104 94.9379 40.1437H96V41.3536H75.9763ZM89.1468 40.1437C89.1493 40.1356 89.1519 40.1259 89.1545 40.1143C89.1651 40.0666 89.1733 39.9974 89.1733 39.9017V32.0375C89.1733 31.4901 89.101 31.1522 89.0071 30.9679C88.9637 30.8826 88.9242 30.8469 88.9003 30.8313C88.8791 30.8174 88.8467 30.8035 88.7846 30.8035C88.6278 30.8035 88.3832 30.8803 88.0353 31.1394C87.7417 31.3687 87.49 31.6175 87.2783 31.8853V39.9259C87.2783 40.0115 87.2861 40.0722 87.2958 40.113C87.2988 40.1259 87.3018 40.136 87.3045 40.1437H89.1468ZM86.8811 40.3857C86.822 40.2722 86.7924 40.119 86.7924 39.9259V31.723C86.8607 31.6295 86.9329 31.5382 87.009 31.4492C87.0559 31.3944 87.1042 31.3405 87.154 31.2874C87.1945 31.2443 87.2359 31.2018 87.2783 31.1599C87.421 31.0186 87.5749 30.8837 87.7399 30.7551C87.9624 30.5889 88.1716 30.4703 88.3675 30.3992C88.5139 30.3461 88.6529 30.3195 88.7846 30.3195C89.3676 30.3195 89.6591 30.8922 89.6591 32.0375V39.9017C89.6591 40.1063 89.6302 40.2676 89.5724 40.3857C89.4933 40.547 89.3603 40.6277 89.1733 40.6277H88.5659V40.8696H95.5141V40.6277H94.9067C94.7448 40.6277 94.3434 40.6919 94.2624 40.5628C94.2526 40.5473 94.0887 40.519 94.0802 40.5023C94.0175 40.3803 94.4209 40.1104 94.4209 39.9259V32.2311C94.4209 31.0374 94.1131 30.1501 93.4977 29.5694C92.8822 28.9887 92.1372 28.6983 91.2626 28.6983C90.8091 28.6983 90.388 28.7709 89.9993 28.9161C89.3838 29.1419 88.7765 29.4807 88.1772 29.9324C88.1591 29.9464 88.141 29.9605 88.1231 29.9745C87.9091 30.1425 87.7119 30.3104 87.5315 30.4784C87.5298 30.48 87.528 30.4816 87.5263 30.4832C87.4398 30.564 87.3571 30.6447 87.2783 30.7254C87.0954 30.9127 86.9335 31.1001 86.7924 31.2874V22.2375L86.6952 22.1166C86.6297 22.157 86.5604 22.1973 86.4874 22.2375C86.4294 22.2695 86.3691 22.3014 86.3065 22.3332C85.3533 22.8174 83.8581 23.2869 81.8209 23.742C81.6207 23.7867 81.4153 23.8312 81.2047 23.8757C81.198 23.8771 81.1913 23.8785 81.1845 23.8799C81.103 23.8971 81.0206 23.9142 80.9375 23.9314V24.125L81.2047 24.1008C81.2832 24.1008 81.356 24.1071 81.4233 24.1199C81.5475 24.1435 81.6527 24.1888 81.7388 24.2559C81.9334 24.4076 82.0307 24.6704 82.0307 25.0445V39.9017C82.0307 40.1063 82.173 40.3237 82.1152 40.4418C82.0361 40.6032 81.7318 40.5628 81.5448 40.5628H80.9375V40.9258H87.8857V40.6277H87.2783C87.0928 40.6184 86.9604 40.5378 86.8811 40.3857ZM76.9549 29.8114C75.9499 29.1905 74.765 28.8135 73.4003 28.6803C73.0275 28.6439 72.6413 28.6257 72.2418 28.6257C72.2378 28.6257 72.2339 28.6257 72.23 28.6257C72.2283 28.6257 72.2265 28.6257 72.2248 28.6257C71.9689 28.6261 71.7152 28.6355 71.4638 28.6538C70.7664 28.7045 70.0864 28.8242 69.4236 29.0129C68.5166 29.2548 67.7716 29.6097 67.1885 30.0775C66.6054 30.5292 66.3139 31.0616 66.3139 31.6746C66.3139 32.3037 66.5245 32.7715 66.9456 33.078C67.3829 33.3845 67.9174 33.5378 68.549 33.5378C69.1807 33.5378 69.8042 33.4087 70.4197 33.1506C70.8172 32.9882 71.1378 32.8033 71.3814 32.5962C71.5248 32.4742 71.6415 32.3444 71.7316 32.2069C71.5626 32.1531 71.4105 32.088 71.2754 32.0116C71.0867 31.905 70.9311 31.7766 70.8084 31.6262C70.614 31.3681 70.5169 31.0777 70.5169 30.7551C70.5169 30.3034 70.6788 29.9001 71.0027 29.5452C71.1698 29.3621 71.3607 29.2241 71.5752 29.1312C71.7765 29.044 71.9987 28.9965 72.2418 28.9887C72.6661 28.969 73.0092 29.0242 73.2712 29.1542C73.4392 29.2376 73.5739 29.3518 73.6751 29.4968C73.9313 29.8477 74.0609 30.4429 74.0638 31.2825C74.0638 31.2922 74.0638 31.3019 74.0638 31.3116C74.0638 31.5822 73.9926 31.8252 73.8503 32.0406C73.818 32.0894 73.7821 32.1368 73.7426 32.1827C73.7069 32.2242 73.6682 32.2645 73.6265 32.3037C73.6185 32.3112 73.6104 32.3187 73.6022 32.3262C73.4744 32.4431 73.3314 32.5516 73.1732 32.6516C72.9953 32.7641 72.7982 32.8659 72.5819 32.957C72.177 33.1184 71.5858 33.32 70.8084 33.562C69.788 33.8846 68.9458 34.1911 68.2818 34.4815C67.6339 34.7719 67.0589 35.1913 66.5569 35.7398C66.071 36.2721 65.7875 36.9496 65.7066 37.7724C65.6418 38.5144 65.8118 39.1516 66.2167 39.684C66.6378 40.2002 67.2047 40.5954 67.9174 40.8696C68.63 41.1439 69.3831 41.281 70.1767 41.281C71.0837 41.281 71.9016 41.1116 72.6305 40.7729C73.0906 40.5488 73.4572 40.2636 73.7301 39.9173C73.7349 39.9113 73.7396 39.9053 73.7443 39.8992C73.8027 39.8238 73.8567 39.7455 73.9062 39.6644C73.9083 39.661 73.9104 39.6576 73.9125 39.6542C73.99 39.526 74.0567 39.3908 74.1124 39.2484C74.1195 39.3405 74.1294 39.4283 74.1421 39.5117C74.1701 39.6963 74.2117 39.8597 74.2669 40.002C74.3572 40.2349 74.4838 40.4112 74.6469 40.5309C74.9546 40.7406 75.4 40.8535 75.9831 40.8696H79.9674V40.6277H79.36C79.1698 40.6277 79.0354 40.547 78.9569 40.3857C78.9017 40.2723 78.8741 40.119 78.8741 39.9259V34.3363C78.8741 32.094 78.2344 30.5857 76.9549 29.8114ZM74.0881 32.1827C74.0193 32.297 73.9412 32.4172 73.8538 32.5434L73.8534 32.5438C73.7768 32.6544 73.6931 32.7695 73.6022 32.8892C73.5715 32.9297 73.5399 32.9707 73.5075 33.0123C73.2053 33.4 72.832 33.8333 72.3875 34.3121C71.9502 34.8122 71.6101 35.2074 71.3672 35.4978C71.1404 35.772 70.9542 36.0624 70.8084 36.3689C70.5978 36.7722 70.4926 37.1997 70.4926 37.6514C70.4926 37.9901 70.5573 38.3128 70.6869 38.6193C70.8165 38.9096 71.0027 39.1516 71.2457 39.3452C71.4077 39.4742 71.6101 39.5791 71.853 39.6598C72.096 39.7404 72.3389 39.7808 72.5819 39.7808C72.8878 39.7808 73.1614 39.7025 73.4026 39.5459C73.4806 39.4953 73.5553 39.4364 73.6265 39.3694C73.6292 39.3667 73.6318 39.3641 73.6345 39.3614C73.6602 39.3353 73.6848 39.308 73.7083 39.2794C73.746 39.2335 73.7808 39.1844 73.8129 39.132C73.8198 39.1209 73.8265 39.1096 73.833 39.0981C73.9913 38.8227 74.0763 38.4614 74.0881 38.0143V32.1827ZM73.6022 33.6681V38.0078C73.587 38.548 73.4534 38.8542 73.2876 39.0225C73.0885 39.2076 72.8616 39.2968 72.5819 39.2968C72.3939 39.2968 72.2028 39.2658 72.0067 39.2006C71.8058 39.134 71.6573 39.0534 71.5492 38.9673C71.3698 38.8243 71.2316 38.6465 71.1329 38.4271C71.0302 38.1825 70.9784 37.9252 70.9784 37.6514C70.9784 37.2779 71.0647 36.927 71.2395 36.5922L71.2436 36.5842L71.2475 36.5761C71.3752 36.3077 71.5392 36.0512 71.7413 35.8066C71.98 35.5213 72.3156 35.1313 72.7492 34.6354C73.0667 34.2931 73.3515 33.9706 73.6022 33.6681ZM72.3969 32.5095C72.7733 32.3504 73.0682 32.1623 73.2929 31.9519C73.4907 31.7658 73.5779 31.561 73.5779 31.3116C73.5779 30.477 73.4459 30.0057 73.2822 29.7814L73.2792 29.7773L73.2763 29.7732C73.1564 29.6016 72.8887 29.4432 72.2643 29.4721L72.2609 29.4722L72.2574 29.4724C71.8804 29.4845 71.5936 29.6173 71.3623 29.8707C71.1142 30.1426 71.0027 30.4317 71.0027 30.7551C71.0027 30.9698 71.064 31.156 71.1914 31.3282C71.3285 31.4928 71.5451 31.6394 71.8797 31.746L72.4868 31.9395L72.1386 32.4713C72.0963 32.5359 72.0501 32.5983 72.0003 32.6586C72.1493 32.6051 72.2815 32.5554 72.3969 32.5095ZM33.3515 24.8509C32.979 24.4798 32.5336 24.2943 32.0153 24.2943C31.497 24.2943 31.0516 24.4798 30.6791 24.8509C30.3066 25.2219 30.1203 25.6655 30.1203 26.1817C30.1203 26.698 30.3066 27.1416 30.6791 27.5126C31.0516 27.8836 31.497 28.0691 32.0153 28.0691C32.5336 28.0691 32.979 27.8836 33.3515 27.5126C33.724 27.1416 33.9103 26.698 33.9103 26.1817C33.9103 25.6655 33.724 25.2219 33.3515 24.8509Z" fill="white"/>
<path d="M5.8554 28.4802C6.21171 28.948 6.64901 29.3916 7.1673 29.811C7.68558 30.2143 8.38202 30.7225 9.25662 31.3355C10.196 31.9807 10.9572 32.5534 11.5403 33.0535C12.1396 33.5374 12.6416 34.0859 13.0465 34.6989C13.4515 35.3119 13.6539 35.9733 13.6539 36.6831C13.6701 38.0704 13.0142 39.1432 11.6861 39.9014C10.358 40.6435 8.68975 41.0225 6.68141 41.0387C5.33712 41.0387 4.22767 40.8612 3.35307 40.5063C2.49467 40.1514 1.86301 39.6998 1.45811 39.1513C1.06939 38.5867 0.875039 37.9898 0.875039 37.3607C0.875039 36.8928 0.980315 36.4573 1.19087 36.054C1.40142 35.6346 1.68485 35.3119 2.04117 35.0861C2.51086 34.7796 2.99675 34.6263 3.49884 34.6263C4.00092 34.6263 4.41393 34.7796 4.73785 35.0861C5.06178 35.3926 5.22374 35.7717 5.22374 36.2234C5.22374 36.7719 4.9565 37.2639 4.42203 37.6994C4.16288 37.9091 4.03331 38.2076 4.03331 38.5947C4.03331 38.9335 4.13049 39.2723 4.32485 39.611C4.5192 39.9337 4.80264 40.1998 5.17515 40.4095C5.54767 40.6193 5.97687 40.7241 6.46276 40.7241C7.17539 40.7241 7.73417 40.5144 8.13907 40.095C8.56018 39.6594 8.77073 39.1271 8.77073 38.4979C8.77073 38.1108 8.68165 37.7236 8.50349 37.3365C8.34153 36.9493 8.09858 36.5944 7.77466 36.2718C7.35355 35.8685 6.93245 35.5136 6.51135 35.2071C6.09024 34.8844 5.49098 34.457 4.71356 33.9246C3.74178 33.2632 2.97246 32.7067 2.40559 32.255C1.85491 31.7872 1.39332 31.2387 1.02081 30.6095C0.664487 29.9804 0.486328 29.2625 0.486328 28.456C0.486328 27.5687 0.777861 26.7702 1.36093 26.0604C1.96019 25.3345 2.75381 24.7699 3.74178 24.3666C4.72975 23.9472 5.79871 23.7374 6.94865 23.7374C7.30496 23.7374 7.5722 23.7455 7.75036 23.7616C8.9003 23.8907 9.85588 24.1569 10.6171 24.5602C11.3783 24.9635 11.9371 25.4393 12.2934 25.9878C12.6497 26.5202 12.8279 27.0686 12.8279 27.6332C12.8279 28.2463 12.6335 28.7625 12.2448 29.1819C11.8561 29.6013 11.3459 29.811 10.7143 29.811C10.3256 29.811 9.89637 29.7142 9.42668 29.5207C9.86398 29.0206 10.0826 28.3592 10.0826 27.5365C10.0826 26.9718 9.96925 26.4234 9.74251 25.891C9.53195 25.3587 9.23232 24.9312 8.84361 24.6086C8.4711 24.2698 8.04999 24.1004 7.5803 24.1004C6.85147 24.1004 6.2603 24.3263 5.80681 24.7779C5.35331 25.2296 5.12656 25.7942 5.12656 26.4718C5.12656 27.1816 5.36951 27.851 5.8554 28.4802Z" fill="#444444"/>
<path d="M28.0499 35.691C28.0661 36.3202 27.8393 37.0542 27.3696 37.893C26.9161 38.7157 26.2116 39.4336 25.256 40.0466C24.3004 40.6596 23.1262 40.9661 21.7333 40.9661C20.5024 40.9661 19.3849 40.7241 18.3807 40.2402C17.3765 39.7562 16.5748 39.0464 15.9755 38.1108C15.3925 37.1751 15.1009 36.0621 15.1009 34.7715C15.1009 33.5616 15.4168 32.497 16.0484 31.5774C16.6963 30.6418 17.5547 29.9239 18.6236 29.4239C19.7088 28.9077 20.883 28.6495 22.1463 28.6495C22.8266 28.6495 23.5068 28.7705 24.1871 29.0125C24.8673 29.2384 25.4666 29.6255 25.9848 30.174C26.5031 30.7225 26.8271 31.4242 26.9566 32.2792L20.3728 35.8362C20.7777 36.6105 21.2879 37.1993 21.9034 37.6026C22.535 37.9898 23.2153 38.1834 23.9441 38.1834C24.7539 38.1834 25.5233 37.9495 26.2521 37.4816C26.9809 37.0138 27.5559 36.3605 27.977 35.5216L28.0499 35.691ZM20.0327 35.1103C20.1137 35.32 20.1704 35.449 20.2028 35.4974L22.535 34.1424C22.4865 33.1261 22.3002 32.0614 21.9763 30.9483C21.6523 29.8352 21.215 29.2787 20.6644 29.2787C20.5996 29.2787 20.5186 29.2948 20.4214 29.3271C20.1461 29.4077 19.9274 29.7223 19.7655 30.2708C19.6035 30.8031 19.5225 31.4323 19.5225 32.1582C19.5225 33.2067 19.6926 34.1908 20.0327 35.1103Z" fill="#444444"/>
<path d="M32.0158 24.294C32.534 24.294 32.9794 24.4795 33.3519 24.8505C33.7245 25.2216 33.9107 25.6652 33.9107 26.1814C33.9107 26.6976 33.7245 27.1412 33.3519 27.5123C32.9794 27.8833 32.534 28.0688 32.0158 28.0688C31.4975 28.0688 31.0521 27.8833 30.6796 27.5123C30.307 27.1412 30.1208 26.6976 30.1208 26.1814C30.1208 25.6652 30.307 25.2216 30.6796 24.8505C31.0521 24.4795 31.4975 24.294 32.0158 24.294ZM29.0275 30.5853C30.8577 30.2143 32.4611 29.6094 33.8378 28.7705L33.9107 28.8915V42.6841C33.9107 43.7165 33.6597 44.4747 33.1576 44.9587C32.6717 45.4426 32.0724 45.6927 31.3598 45.7088H29.0275V45.4668H29.6592C29.8212 45.4668 29.9426 45.4023 30.0236 45.2733C30.1046 45.1442 30.1451 44.9748 30.1451 44.7651V31.6984C30.1451 31.0693 29.8616 30.7547 29.2948 30.7547L29.0275 30.7789V30.5853Z" fill="#444444"/>
<path d="M49.6472 40.8693H46.9991H45.663C45.0799 40.8532 44.6345 40.7402 44.3268 40.5305C44.019 40.3047 43.8409 39.8772 43.7923 39.2481C43.5331 39.9095 43.0392 40.4176 42.3103 40.7725C41.5815 41.1113 40.7636 41.2807 39.8566 41.2807C39.063 41.2807 38.3098 41.1435 37.5972 40.8693C36.8846 40.5951 36.3177 40.1998 35.8966 39.6836C35.4917 39.1513 35.3216 38.5141 35.3864 37.772C35.4674 36.9493 35.7508 36.2718 36.2367 35.7394C36.7388 35.1909 37.3138 34.7715 37.9616 34.4811C38.6257 34.1908 39.4679 33.8843 40.4882 33.5616C41.2657 33.3197 41.8568 33.118 42.2617 32.9567C42.6828 32.7793 43.0311 32.5615 43.3064 32.3034C43.5979 32.0291 43.7437 31.6984 43.7437 31.3113C43.7437 30.4563 43.6141 29.8514 43.355 29.4965C43.0958 29.1254 42.6181 28.956 41.9216 28.9883C41.4195 29.0044 41.0065 29.19 40.6826 29.5449C40.3587 29.8998 40.1967 30.303 40.1967 30.7547C40.1967 31.0774 40.2939 31.3677 40.4882 31.6258C40.6988 31.8839 41.0065 32.0775 41.4114 32.2066C41.1685 32.5776 40.7312 32.8922 40.0995 33.1503C39.4841 33.4084 38.8605 33.5374 38.2289 33.5374C37.5972 33.5374 37.0627 33.3842 36.6254 33.0777C36.2043 32.7712 35.9938 32.3034 35.9938 31.6742C35.9938 31.0612 36.2853 30.5289 36.8684 30.0772C37.4514 29.6094 38.1965 29.2545 39.1035 29.0125C40.0104 28.7544 40.9498 28.6253 41.9216 28.6253C43.7842 28.6253 45.3552 29.0206 46.6347 29.811C47.9142 30.5853 48.554 32.0937 48.554 34.336V39.9256C48.554 40.3934 48.716 40.6273 49.0399 40.6273H49.6472V40.8693ZM40.9255 39.3449C41.0875 39.4739 41.29 39.5788 41.5329 39.6594C41.7758 39.7401 42.0188 39.7804 42.2617 39.7804C42.6666 39.7804 43.0149 39.6433 43.3064 39.3691C43.5979 39.0787 43.7518 38.627 43.768 38.014V32.1824C43.4279 32.747 42.861 33.4568 42.0674 34.3118C41.6301 34.8118 41.29 35.2071 41.047 35.4974C40.8203 35.7717 40.634 36.0621 40.4882 36.3686C40.2777 36.7718 40.1724 37.1993 40.1724 37.651C40.1724 37.9898 40.2372 38.3124 40.3668 38.6189C40.4963 38.9093 40.6826 39.1513 40.9255 39.3449Z" fill="#444444"/>
<path d="M63.5905 39.9256C63.5905 40.1353 63.631 40.3047 63.712 40.4337C63.793 40.5628 63.9145 40.6273 64.0764 40.6273H64.7081V40.8693H63.5905H61.7927H60.7481C60.165 40.8532 59.7115 40.7402 59.3876 40.5305C59.0799 40.3047 58.9017 39.8772 58.8531 39.2481V39.2965C58.7883 39.7804 58.4401 40.1837 57.8085 40.5063C57.1768 40.829 56.448 40.9903 55.622 40.9903C54.7798 40.9903 53.978 40.7967 53.2168 40.4095C52.4556 40.0224 51.832 39.3932 51.3461 38.5221C50.8603 37.651 50.6173 36.5299 50.6173 35.1587C50.6173 33.6262 50.9412 32.384 51.5891 31.4323C52.2531 30.4644 53.071 29.7788 54.0428 29.3755C55.0146 28.956 55.9945 28.7463 56.9824 28.7463C57.8085 28.7463 58.432 28.8593 58.8531 29.0851V25.0441C58.8531 24.415 58.5697 24.1004 58.0028 24.1004L57.7356 24.1246V23.931C60.5699 23.3503 62.4973 22.7453 63.5177 22.1162L63.5905 22.2372V39.9256ZM58.8531 30.3434C58.8531 29.9562 58.764 29.6497 58.5859 29.4239C58.4077 29.198 58.1891 29.0851 57.9299 29.0851C57.5736 29.0851 57.2173 29.2867 56.861 29.69C56.5047 30.0772 56.205 30.6821 55.9621 31.5049C55.7191 32.3276 55.5977 33.3519 55.5977 34.5779C55.5977 35.5781 55.7191 36.4653 55.9621 37.2397C56.205 37.9979 56.5047 38.5867 56.861 39.0061C57.2335 39.4094 57.5898 39.611 57.9299 39.611C58.2053 39.611 58.4239 39.4739 58.5859 39.1997C58.7478 38.9254 58.8369 38.5141 58.8531 37.9656V30.3434Z" fill="#444444"/>
<path d="M79.9678 40.8693H77.3197H75.9835C75.4005 40.8532 74.9551 40.7402 74.6473 40.5305C74.3396 40.3047 74.1615 39.8772 74.1129 39.2481C73.8537 39.9095 73.3597 40.4176 72.6309 40.7725C71.9021 41.1113 71.0842 41.2807 70.1772 41.2807C69.3836 41.2807 68.6304 41.1435 67.9178 40.8693C67.2052 40.5951 66.6383 40.1998 66.2172 39.6836C65.8123 39.1513 65.6422 38.5141 65.707 37.772C65.788 36.9493 66.0714 36.2718 66.5573 35.7394C67.0594 35.1909 67.6344 34.7715 68.2822 34.4811C68.9463 34.1908 69.7885 33.8843 70.8088 33.5616C71.5863 33.3197 72.1774 33.118 72.5823 32.9567C73.0034 32.7793 73.3516 32.5615 73.627 32.3034C73.9185 32.0291 74.0643 31.6984 74.0643 31.3113C74.0643 30.4563 73.9347 29.8514 73.6756 29.4965C73.4164 29.1254 72.9386 28.956 72.2422 28.9883C71.7401 29.0044 71.3271 29.19 71.0032 29.5449C70.6793 29.8998 70.5173 30.303 70.5173 30.7547C70.5173 31.0774 70.6145 31.3677 70.8088 31.6258C71.0194 31.8839 71.3271 32.0775 71.732 32.2066C71.4891 32.5776 71.0518 32.8922 70.4201 33.1503C69.8047 33.4084 69.1811 33.5374 68.5494 33.5374C67.9178 33.5374 67.3833 33.3842 66.946 33.0777C66.5249 32.7712 66.3144 32.3034 66.3144 31.6742C66.3144 31.0612 66.6059 30.5289 67.189 30.0772C67.772 29.6094 68.5171 29.2545 69.424 29.0125C70.331 28.7544 71.2704 28.6253 72.2422 28.6253C74.1048 28.6253 75.6758 29.0206 76.9553 29.811C78.2348 30.5853 78.8746 32.0937 78.8746 34.336V39.9256C78.8746 40.3934 79.0365 40.6273 79.3605 40.6273H79.9678V40.8693ZM71.2461 39.3449C71.4081 39.4739 71.6105 39.5788 71.8535 39.6594C72.0964 39.7401 72.3394 39.7804 72.5823 39.7804C72.9872 39.7804 73.3354 39.6433 73.627 39.3691C73.9185 39.0787 74.0724 38.627 74.0886 38.014V32.1824C73.7485 32.747 73.1816 33.4568 72.388 34.3118C71.9507 34.8118 71.6105 35.2071 71.3676 35.4974C71.1408 35.7717 70.9546 36.0621 70.8088 36.3686C70.5983 36.7718 70.493 37.1993 70.493 37.651C70.493 37.9898 70.5578 38.3124 70.6874 38.6189C70.8169 38.9093 71.0032 39.1513 71.2461 39.3449Z" fill="#444444"/>
<path d="M95.5145 40.4337L95.5316 41.0464H87.8861V40.7469L88.5663 40.4337H89.161C89.4849 40.4337 89.6596 40.4337 89.6596 40.4337V32.0372C89.6596 30.8918 89.3681 30.3192 88.785 30.3192C88.4773 30.3192 88.2742 30.4721 87.8855 30.7625C87.513 31.0529 87.052 31.6823 86.7929 32.0372V40.4337H87.2787H88.5663L88.7358 40.8045L87.8861 41.0464H80.9379V40.4415H81.5452C81.8692 40.4415 82.0311 40.4415 82.0311 40.4415V25.0441C82.0311 24.415 81.7558 24.1004 81.2051 24.1004L80.9379 24.1246V23.931C83.756 23.3503 85.6753 22.7453 86.6957 22.1162L86.7929 22.2372V31.0045C87.133 30.5528 87.5738 30.1089 88.1892 29.6736C88.8379 29.2148 89.2439 28.9752 90.0113 28.7662C90.474 28.6401 90.7466 28.5684 91.226 28.5847C92.1931 28.6177 92.8827 28.9883 93.4981 29.5691C94.1136 30.1498 94.4213 31.037 94.4213 32.2308V39.9256C94.4213 40.1353 94.4213 40.4337 94.4213 40.4337C94.4213 40.4337 94.769 40.4337 94.9309 40.4337H95.5145Z" fill="#444444"/>
<path d="M60.2922 47.5371C59.6964 46.9409 59.3984 46.2288 59.3984 45.4006C59.3984 44.5724 59.6964 43.8616 60.2922 43.2681C60.8881 42.6747 61.6017 42.3779 62.4332 42.3779C63.1103 42.3779 63.7265 42.587 64.2817 43.0051L63.7982 43.4866C63.3757 43.1656 62.9207 43.0051 62.4332 43.0051C61.8022 43.0051 61.2632 43.2398 60.8163 43.7092C60.3694 44.1786 60.146 44.7424 60.146 45.4006C60.146 46.0588 60.3694 46.6226 60.8163 47.092C61.2632 47.5614 61.8022 47.7961 62.4332 47.7961C62.9722 47.7961 63.4502 47.6194 63.8673 47.266V45.8174V45.7051H64.6148V47.5047C64.4442 47.6747 64.2776 47.8136 64.1151 47.9215C63.606 48.2587 63.0453 48.4273 62.4332 48.4273C61.6017 48.4273 60.8881 48.1306 60.2922 47.5371Z" fill="black"/>
<path d="M65.7148 48.4436V43.3687H66.3269L66.4513 43.7255C66.8858 43.3952 67.1276 43.3234 67.6106 43.2855C68.2214 43.2376 68.7435 43.6075 69.0553 43.7694L68.7516 44.3139C68.4597 44.2115 68.086 43.9376 67.6106 43.9509C67.1684 43.9633 66.8427 44.1237 66.5607 44.3748V48.4436H65.7148Z" fill="black"/>
<path d="M87.5801 48.387V43.3121H88.1921L88.3165 43.6689C88.7511 43.3385 88.9928 43.2668 89.4759 43.2289C90.0867 43.1809 90.6087 43.5509 90.9206 43.7128L90.6169 44.2573C90.325 44.1548 89.9513 43.881 89.4759 43.8943C89.0336 43.9067 88.7079 44.067 88.426 44.3181V48.387H87.5801Z" fill="black"/>
<path d="M70.4545 47.709C69.9666 47.2037 69.7227 46.5827 69.7227 45.8457C69.7227 45.1088 69.9666 44.4877 70.4545 43.9825C70.9456 43.4772 71.574 43.2246 72.3397 43.2246C73.1022 43.2246 73.7307 43.4788 74.225 43.9873C74.7226 44.4957 74.9713 45.1152 74.9713 45.8457C74.9713 46.5762 74.7226 47.1957 74.225 47.7042C73.7307 48.2126 73.1022 48.4668 72.3397 48.4668C71.5708 48.4668 70.9423 48.2142 70.4545 47.709ZM71.0167 44.5183C70.6871 44.8755 70.5223 45.318 70.5223 45.8457C70.5223 46.3735 70.6871 46.8176 71.0167 47.178C71.3494 47.5352 71.7905 47.7138 72.3397 47.7138C72.8825 47.7138 73.3203 47.5352 73.6531 47.178C73.9891 46.8176 74.1571 46.3735 74.1571 45.8457C74.1571 45.318 73.9891 44.8755 73.6531 44.5183C73.3203 44.1578 72.8825 43.9776 72.3397 43.9776C71.7905 43.9776 71.3494 44.1578 71.0167 44.5183Z" fill="black"/>
<path d="M76.6183 47.6998C76.1111 47.1882 75.8574 46.5703 75.8574 45.8462C75.8574 45.1222 76.1111 44.5043 76.6183 43.9926C77.1288 43.4809 77.6837 43.2466 78.4648 43.2251C79.2463 43.2036 80.2305 43.8905 80.2305 43.8905L79.8661 44.435C79.8661 44.435 79.0397 43.9451 78.4648 43.9781C77.9232 44.0093 77.5359 44.1616 77.1902 44.5284C76.8445 44.8921 76.6716 45.3313 76.6716 45.8462C76.6716 46.3611 76.8445 46.802 77.1902 47.1688C77.5391 47.5325 77.9231 47.7189 78.4648 47.7143C79.0839 47.709 79.8661 46.9757 79.8661 46.9757L80.352 47.5807C80.352 47.5807 79.2796 48.4565 78.4648 48.4673C77.6835 48.4777 77.1288 48.2115 76.6183 47.6998Z" fill="black"/>
<path d="M81.1426 45.8067C81.1426 45.021 81.4005 44.3951 81.9162 43.9288C82.432 43.4593 82.9685 43.2246 83.815 43.2246C85.5001 43.2246 86.4874 44.1891 86.4874 46.1181H82.1466C82.1859 46.5237 82.369 46.8861 82.6958 47.2055C83.0226 47.5217 83.3609 47.5197 83.815 47.5197C84.5438 47.5197 85.1512 46.9147 85.1512 46.9147L85.637 47.4592C85.637 47.4592 84.6108 48.2576 83.815 48.3061C83.4415 48.3288 83.2785 48.3568 82.8612 48.2163C82.4478 48.0758 82.117 47.8826 81.869 47.6366C81.6249 47.3907 81.4418 47.1145 81.3198 46.8079C81.2016 46.5013 81.1426 46.1676 81.1426 45.8067ZM82.182 45.4713H85.4479C85.3928 45.0338 85.2432 44.6745 84.9991 44.3935C84.755 44.1124 84.2796 44.011 83.815 44.011C83.3543 44.011 83.0836 44.1093 82.7608 44.3839C82.4379 44.6586 82.245 45.021 82.182 45.4713Z" fill="black"/>
<path d="M91.4668 43.2246H92.3845L93.7023 46.5329L95.053 43.2246H95.9613L93.1846 49.9999H92.2763L93.3069 47.5165L91.4668 43.2246Z" fill="black"/>
</svg>
