<svg width="65" height="66" viewBox="0 0 65 66" fill="none" xmlns="http://www.w3.org/2000/svg">
<path d="M16.2096 10.1268C18.2666 9.36589 19.3174 7.08152 18.5565 5.02447C17.7957 2.96742 15.5113 1.91665 13.4542 2.67752C11.3972 3.43838 10.3464 5.72274 11.1073 7.77979C11.8681 9.83684 14.1525 10.8876 16.2096 10.1268Z" fill="#3897FF"/>
<path d="M61.1042 23.5635L55.5265 19.5057L48.7288 20.6752L52.7867 15.0975L51.6172 8.2998L57.1949 12.3573L63.9926 11.1882L59.9347 16.7658L61.1042 23.5635Z" fill="#FFCC00"/>
<path d="M18.0569 53.2188L11.1665 52.9061L6.13813 57.6273L6.45105 50.7366L1.72961 45.7085L8.61998 46.0212L13.6484 41.3L13.3357 48.1901L18.0569 53.2188Z" fill="#00A98F"/>
</svg>
