<svg width="1200" height="628" viewBox="0 0 1200 628" fill="none" xmlns="http://www.w3.org/2000/svg">
<rect width="1200" height="628" fill="white"/>
<mask id="mask0_3618_3184" style="mask-type:alpha" maskUnits="userSpaceOnUse" x="79" y="139" width="419" height="350">
<path d="M309.898 291.873H266.959C266.959 291.873 260.825 317.668 288.428 317.668C316.032 317.668 309.898 291.873 309.898 291.873Z" fill="#3E3E3E"/>
<path d="M367.142 316.013C367.142 316.013 380.08 368.71 425.362 358.21C460.604 350.038 431.831 280.309 454.472 257.587C466.083 245.935 486.816 251.096 486.816 251.096" stroke="#212121" stroke-width="21.1349" stroke-linecap="round"/>
<path d="M209.674 316.013C209.674 316.013 196.737 368.71 151.454 358.21C116.212 350.038 144.985 280.309 122.344 257.587C110.733 245.935 89.9998 251.096 89.9998 251.096" stroke="#3E3E3E" stroke-width="21.1349" stroke-linecap="round"/>
<path d="M204.52 266.082C204.52 266.082 187.349 149.999 286.951 150C386.552 150.001 372.813 266.082 372.813 266.082" stroke="#3E3E3E" stroke-width="21.1349" stroke-linecap="round"/>
<path d="M362.332 264.709C361.574 270.496 365.65 275.802 371.436 276.56C377.223 277.319 382.529 273.243 383.288 267.456L362.332 264.709ZM288.427 160.567C311.121 160.568 326.296 167.114 336.717 176.13C347.312 185.296 353.89 197.796 357.841 211.059C361.792 224.319 362.942 237.778 363.065 248.07C363.126 253.181 362.932 257.425 362.728 260.359C362.625 261.824 362.521 262.956 362.444 263.701C362.406 264.074 362.375 264.348 362.355 264.519C362.345 264.604 362.338 264.663 362.334 264.695C362.332 264.711 362.331 264.72 362.33 264.722C362.33 264.724 362.33 264.723 362.331 264.721C362.331 264.72 362.331 264.717 362.331 264.716C362.332 264.713 362.332 264.709 372.81 266.082C383.288 267.456 383.288 267.451 383.289 267.446C383.289 267.444 383.29 267.438 383.291 267.433C383.292 267.424 383.293 267.413 383.295 267.4C383.298 267.374 383.302 267.342 383.307 267.302C383.317 267.222 383.33 267.115 383.346 266.98C383.378 266.711 383.42 266.334 383.469 265.856C383.567 264.901 383.692 263.54 383.811 261.831C384.05 258.416 384.267 253.591 384.198 247.819C384.062 236.345 382.792 220.785 378.097 205.024C373.402 189.266 365.11 172.746 350.545 160.146C335.807 147.396 315.533 139.433 288.427 139.433L288.427 160.567Z" fill="#212121"/>
<path d="M288.427 351.032V478" stroke="#3E3E3E" stroke-width="21.1349" stroke-linecap="round"/>
<path d="M337.671 333.797C337.671 333.797 320.757 443.433 385.027 443.433C449.297 443.433 442.532 386.954 442.532 386.954" stroke="#212121" stroke-width="21.1349" stroke-linecap="round"/>
<path d="M239.162 333.797C239.162 333.797 256.075 443.433 191.805 443.433C127.535 443.433 134.3 386.954 134.3 386.954" stroke="#3E3E3E" stroke-width="21.1349" stroke-linecap="round"/>
<ellipse cx="329.369" cy="275.75" rx="12.6002" ry="12.8985" fill="#212121"/>
<ellipse cx="247.482" cy="275.75" rx="12.6002" ry="12.8985" fill="#3E3E3E"/>
</mask>
<g mask="url(#mask0_3618_3184)">
<rect x="64.5957" y="118.757" width="224.07" height="390.985" fill="#FF474D"/>
<rect x="288.67" y="118.757" width="224.07" height="390.985" fill="#D61414"/>
</g>
<path d="M631.135 279.204V298.311H601.045V359.954C601.045 365.564 602.101 369.583 604.213 372.009C606.475 374.284 609.869 375.497 614.393 375.649C618.918 375.649 624.499 375.497 631.135 375.194V392.936C613.79 395.21 601.121 393.77 593.127 388.614C585.284 383.458 581.363 373.905 581.363 359.954V298.311H558.965V279.204H581.363V253.273L601.045 247.359V279.204H631.135Z" fill="#3E3E3E"/>
<path d="M664.392 258.505C660.621 258.505 657.454 257.216 654.89 254.638C652.326 252.06 651.044 248.951 651.044 245.312C651.044 241.672 652.326 238.564 654.89 235.986C657.454 233.256 660.621 231.891 664.392 231.891C668.012 231.891 671.103 233.256 673.667 235.986C676.232 238.564 677.514 241.672 677.514 245.312C677.514 248.951 676.232 252.06 673.667 254.638C671.103 257.216 668.012 258.505 664.392 258.505ZM674.12 392.936H654.437V279.204H674.12V392.936Z" fill="#3E3E3E"/>
<path d="M760.481 276.247C773.753 276.247 784.387 280.493 792.38 288.985C800.374 297.325 804.371 308.698 804.371 323.104V392.936H784.688V324.242C784.688 315.143 782.2 308.016 777.222 302.86C772.245 297.704 765.383 295.126 756.635 295.126C746.529 295.126 738.536 298.311 732.654 304.68C726.771 310.897 723.83 320.223 723.83 332.658V392.936H704.148V279.204H723.83V295.581C731.673 282.692 743.89 276.247 760.481 276.247Z" fill="#3E3E3E"/>
<path d="M873.965 371.782L909.485 279.204H930.751L885.504 392.936H862.427L817.18 279.204H838.446L873.965 371.782Z" fill="#3E3E3E"/>
<path d="M957.352 258.505C953.581 258.505 950.414 257.216 947.85 254.638C945.286 252.06 944.004 248.951 944.004 245.312C944.004 241.672 945.286 238.564 947.85 235.986C950.414 233.256 953.581 231.891 957.352 231.891C960.971 231.891 964.063 233.256 966.627 235.986C969.191 238.564 970.473 241.672 970.473 245.312C970.473 248.951 969.191 252.06 966.627 254.638C964.063 257.216 960.971 258.505 957.352 258.505ZM967.08 392.936H947.397V279.204H967.08V392.936Z" fill="#3E3E3E"/>
<path d="M1092.58 378.606C1081.12 390.13 1067.01 395.893 1050.27 395.893C1033.53 395.893 1019.43 390.13 1007.97 378.606C996.504 367.081 990.773 352.902 990.773 336.07C990.773 319.237 996.504 305.059 1007.97 293.534C1019.43 282.009 1033.53 276.247 1050.27 276.247C1067.01 276.247 1081.12 282.009 1092.58 293.534C1104.19 305.211 1110 319.389 1110 336.07C1110 352.751 1104.19 366.929 1092.58 378.606ZM1050.27 376.558C1061.59 376.558 1071.09 372.692 1078.78 364.958C1086.47 357.224 1090.32 347.595 1090.32 336.07C1090.32 324.545 1086.47 314.916 1078.78 307.182C1071.09 299.448 1061.59 295.581 1050.27 295.581C1039.11 295.581 1029.69 299.448 1021.99 307.182C1014.3 314.916 1010.46 324.545 1010.46 336.07C1010.46 347.595 1014.3 357.224 1021.99 364.958C1029.69 372.692 1039.11 376.558 1050.27 376.558Z" fill="#3E3E3E"/>
<path d="M873.965 371.782L909.485 279.204H930.751L885.504 392.936H862.427L817.18 279.204H838.446L873.965 371.782Z" fill="#212121"/>
<path d="M957.352 258.505C953.581 258.505 950.414 257.216 947.85 254.638C945.286 252.06 944.004 248.951 944.004 245.312C944.004 241.672 945.286 238.564 947.85 235.986C950.414 233.256 953.581 231.891 957.352 231.891C960.971 231.891 964.063 233.256 966.627 235.986C969.191 238.564 970.473 241.672 970.473 245.312C970.473 248.951 969.191 252.06 966.627 254.638C964.063 257.216 960.971 258.505 957.352 258.505ZM967.08 392.936H947.397V279.204H967.08V392.936Z" fill="#212121"/>
<path d="M1092.58 378.606C1081.12 390.13 1067.01 395.893 1050.27 395.893C1033.53 395.893 1019.43 390.13 1007.97 378.606C996.504 367.081 990.773 352.902 990.773 336.07C990.773 319.237 996.504 305.059 1007.97 293.534C1019.43 282.009 1033.53 276.247 1050.27 276.247C1067.01 276.247 1081.12 282.009 1092.58 293.534C1104.19 305.211 1110 319.389 1110 336.07C1110 352.751 1104.19 366.929 1092.58 378.606ZM1050.27 376.558C1061.59 376.558 1071.09 372.692 1078.78 364.958C1086.47 357.224 1090.32 347.595 1090.32 336.07C1090.32 324.545 1086.47 314.916 1078.78 307.182C1071.09 299.448 1061.59 295.581 1050.27 295.581C1039.11 295.581 1029.69 299.448 1021.99 307.182C1014.3 314.916 1010.46 324.545 1010.46 336.07C1010.46 347.595 1014.3 357.224 1021.99 364.958C1029.69 372.692 1039.11 376.558 1050.27 376.558Z" fill="#212121"/>
<ellipse cx="958.418" cy="246.109" rx="14.143" ry="14.2175" fill="#D61414"/>
<ellipse cx="665.017" cy="246.109" rx="14.143" ry="14.2175" fill="#FF474D"/>
</svg>
