<svg width="356" height="218" viewBox="0 0 356 218" fill="none" xmlns="http://www.w3.org/2000/svg">
<path d="M68.8406 205.311C67.7356 205.259 66.8822 204.321 66.9345 203.216C66.9868 202.111 67.9249 201.257 69.03 201.309C70.135 201.361 70.9884 202.299 70.9361 203.404C70.8838 204.509 69.9456 205.363 68.8406 205.311Z" fill="#3897FF"/>
<path d="M125.832 191.998C123.99 191.911 122.568 190.348 122.655 188.507C122.742 186.665 124.306 185.242 126.148 185.329C127.989 185.415 129.412 186.978 129.325 188.82C129.237 190.662 127.674 192.084 125.832 191.998Z" fill="#8E4DD5"/>
<path d="M179.501 188.641C178.028 188.572 176.89 187.321 176.96 185.848C177.029 184.375 178.28 183.237 179.754 183.306C181.227 183.375 182.365 184.625 182.295 186.099C182.225 187.572 180.975 188.71 179.501 188.641Z" fill="#00A98F"/>
<path d="M338.682 114.291C337.637 113.93 337.084 112.791 337.447 111.746C337.811 110.701 338.953 110.147 339.999 110.508C341.045 110.868 341.598 112.008 341.234 113.052C340.871 114.097 339.728 114.652 338.682 114.291Z" fill="#00A98F"/>
<path d="M352.667 140.464C352.108 140.271 351.812 139.663 352.005 139.107C352.199 138.55 352.81 138.255 353.369 138.448C353.928 138.641 354.225 139.248 354.031 139.805C353.837 140.362 353.227 140.657 352.667 140.464Z" fill="#00A98F"/>
<path d="M330.775 139.137C329.067 138.548 328.174 136.659 328.78 134.918C329.385 133.176 331.261 132.242 332.97 132.831C334.678 133.421 335.571 135.31 334.965 137.051C334.359 138.792 332.483 139.727 330.775 139.137Z" fill="#8E4DD5"/>
<path d="M334.829 37.6054C333.121 37.0163 332.216 35.1602 332.807 33.4598C333.399 31.7594 335.263 30.8586 336.972 31.4477C338.68 32.0369 339.585 33.893 338.993 35.5934C338.401 37.2938 336.537 38.1946 334.829 37.6054Z" fill="#3897FF"/>
<path d="M336.41 64.4972L340.915 62.9155L345.188 65.0273L343.61 60.5427L345.74 56.2823L341.234 57.864L336.962 55.7523L338.539 60.2365L336.41 64.4972Z" fill="#FFCC00"/>
<path d="M308.082 149.895L310.597 150.245L312.096 152.288L312.45 149.779L314.5 148.281L311.986 147.93L310.486 145.887L310.132 148.396L308.082 149.895Z" fill="#FFCC00"/>
<path d="M336.298 163.662L338.094 163.912L339.165 165.372L339.418 163.579L340.883 162.509L339.086 162.259L338.015 160.799L337.762 162.592L336.298 163.662Z" fill="#8E4DD5"/>
<path d="M332.403 6.77429L334.354 7.04873L335.52 8.63236L335.791 6.69001L337.379 5.53259L335.429 5.25816L334.263 3.67453L333.991 5.61673L332.403 6.77429Z" fill="#00A98F"/>
<path d="M229.87 172.096L234.225 173.653L232.029 165.092L227.482 163.77L229.87 172.096Z" fill="#00A98F"/>
<path d="M1.42479 210.996L2.13405 213.965L6.05966 209.806L5.1512 206.81L1.42479 210.996Z" fill="#00A98F"/>
<path d="M289.556 170.994L289.446 167.169L283.492 171.359L283.843 175.264L289.556 170.994Z" fill="#3897FF"/>
</svg>
