<svg width="15" height="16" viewBox="0 0 15 16" fill="none" xmlns="http://www.w3.org/2000/svg">
<path d="M14.3069 8.18489C13.9243 8.18489 13.614 8.49657 13.614 8.88107V5.61896C13.614 5.23446 13.3038 4.92275 12.9211 4.92275C12.5384 4.92275 12.2282 5.23443 12.2282 5.61896V4.92762C12.2282 4.54313 11.918 4.23145 11.5353 4.23145C11.1526 4.23145 10.8424 4.54313 10.8424 4.92762V5.61896C10.8424 5.23446 10.5322 4.92275 10.1495 4.92275C9.76681 4.92275 9.45661 5.23443 9.45661 5.61896V7.23445C9.45661 6.84996 9.1464 6.53824 8.7637 6.53824C8.38104 6.53824 8.0708 6.84992 8.0708 7.23445V11.7995C8.0708 12.2885 8.21507 12.7665 8.48538 13.1731L9.00595 13.9561C9.27626 14.3627 9.42053 14.8407 9.42053 15.3297V15.9853H13.6139V15.444C13.6139 14.8945 13.7961 14.3606 14.1317 13.9267L14.4819 13.4739C14.8175 13.0399 14.9997 12.506 14.9997 11.9565V8.8811C14.9998 8.49657 14.6896 8.18489 14.3069 8.18489Z" fill="#FFCC1F"/>
<path d="M13.6025 8.89571C13.6025 8.51122 13.9128 8.19954 14.2955 8.19954C14.6781 8.19954 14.9884 8.51122 14.9882 8.89575V11.9712C14.9882 12.5207 14.806 13.0546 14.4704 13.4885L14.1202 13.9413C13.7846 14.3752 13.6024 14.9091 13.6024 15.4587V16H11.5238V4.24609C11.9065 4.24609 12.2167 4.55778 12.2167 4.94227V5.63361C12.2167 5.24908 12.5269 4.9374 12.9096 4.9374C13.2923 4.9374 13.6025 5.24911 13.6025 5.63361V8.89571Z" fill="#FFD751"/>
<path d="M0 8.8811V11.9565C0 12.5061 0.182183 13.0399 0.517805 13.4739L0.868001 13.9267C1.20362 14.3606 1.38581 14.8945 1.38581 15.444V15.9853H5.57917V15.3298C5.57917 14.8408 5.72345 14.3628 5.99375 13.9562L6.51433 13.1731C6.78463 12.7665 6.92891 12.2885 6.92891 11.7996V7.23445C6.92891 6.84996 6.6187 6.53824 6.236 6.53824C5.85333 6.53824 5.5431 6.84992 5.5431 7.23445V5.61896C5.5431 5.23446 5.23289 4.92275 4.8502 4.92275C4.46753 4.92275 4.15729 5.23443 4.15729 5.61896V4.92762C4.15729 4.54313 3.84709 4.23145 3.46439 4.23145C3.08169 4.23145 2.77149 4.54313 2.77149 4.92762V5.61896C2.77149 5.23446 2.46128 4.92275 2.07858 4.92275C1.69589 4.92275 1.38568 5.23443 1.38568 5.61896V8.8811C1.38568 8.49661 1.07545 8.18492 0.692779 8.18492C0.310236 8.18492 0 8.49661 0 8.8811Z" fill="#FFD751"/>
<path d="M5.59089 15.3444V16H3.49421L3.47611 4.24609C3.85881 4.24609 4.16901 4.55778 4.16901 4.94227V5.63361C4.16901 5.24908 4.47925 4.9374 4.86191 4.9374C5.24461 4.9374 5.55482 5.24911 5.55482 5.63361V7.2491C5.55482 6.86457 5.86505 6.55289 6.24772 6.55289C6.63042 6.55289 6.94062 6.8646 6.94062 7.2491V11.8142C6.94062 12.3032 6.79635 12.7812 6.52604 13.1878L6.00547 13.9708C5.73517 14.3774 5.59089 14.8554 5.59089 15.3444Z" fill="#FFCC1F"/>
<path d="M14.305 8.18506C14.1898 8.18506 14.0805 8.21338 13.9848 8.26389C14.2061 8.38007 14.3572 8.61304 14.3572 8.88142V11.8116C14.3572 12.3613 14.1753 12.8951 13.8397 13.3289L13.4893 13.7817C13.1537 14.2158 12.9714 14.8947 12.9714 15.4444V15.9856H13.6119V15.4444C13.6119 14.8947 13.7942 14.3609 14.1298 13.9268L14.4802 13.474C14.8159 13.0402 14.9978 12.5064 14.9978 11.9568V8.88139C14.9978 8.4969 14.6878 8.18506 14.305 8.18506Z" fill="#FFB800"/>
<path d="M10.8395 5.61912V11.0773H10.7408C10.4416 11.0773 10.199 10.8335 10.199 10.5328V5.61912C10.199 5.42701 10.1215 5.25292 9.99593 5.12678C9.94627 5.07689 9.88897 5.03474 9.82617 5.00193C9.92194 4.95141 10.0308 4.9231 10.1464 4.9231C10.3376 4.9231 10.5112 5.00096 10.6364 5.12678C10.762 5.25292 10.8395 5.42701 10.8395 5.61912Z" fill="#FFB800"/>
<path d="M9.4538 7.23459V11.0774H9.35002C9.05075 11.0774 8.80813 10.8336 8.80813 10.5329V7.23459C8.80813 6.96749 8.65823 6.73549 8.43823 6.61869C8.53431 6.56752 8.64415 6.53857 8.76074 6.53857C9.14347 6.53854 9.4538 6.85035 9.4538 7.23459Z" fill="#FFB800"/>
<path d="M12.2259 4.92781V11.0772H12.068C11.7687 11.0772 11.5261 10.8334 11.5261 10.5327V4.92781C11.5261 4.7357 11.4486 4.56127 11.3231 4.43548C11.2814 4.39364 11.2343 4.35696 11.1831 4.3267C11.2856 4.26619 11.4054 4.23145 11.5331 4.23145C11.7247 4.23145 11.8976 4.30931 12.0231 4.43548C12.1484 4.56127 12.2259 4.7357 12.2259 4.92781Z" fill="#FFB800"/>
<path d="M6.23719 6.53833C6.11134 6.53833 5.99338 6.57192 5.89153 6.6315C6.09906 6.7516 6.23846 6.97659 6.23846 7.23454V11.7997C6.23846 12.2887 6.09431 12.7666 5.82404 13.1735L5.30334 13.9565C5.03306 14.3631 4.88892 14.841 4.88892 15.3299V15.9856H5.58027V15.3299C5.58027 14.841 5.72441 14.3631 5.99469 13.9565L6.51542 13.1735C6.78569 12.7666 6.92984 12.2887 6.92984 11.7997V7.23457C6.92981 6.85017 6.61976 6.53833 6.23719 6.53833Z" fill="#FFB800"/>
<path d="M2.77044 13.5744H2.54252C2.30711 13.5744 2.09382 13.4373 1.9924 13.2239C1.72424 12.6596 1.33265 12.3635 1.05977 12.2164C0.864968 12.1113 0.743813 11.9071 0.743813 11.685V8.88142C0.743813 8.61304 0.592642 8.38007 0.371338 8.26389C0.467106 8.21338 0.575987 8.18506 0.69161 8.18506C1.074 8.18506 1.38436 8.49687 1.38436 8.88142V11.4972C1.38433 11.4972 2.69453 12.0546 2.77044 13.5744Z" fill="#FFB800"/>
<path d="M5.54458 5.61912V11.0773H5.44592C5.14666 11.0773 4.90404 10.8335 4.90404 10.5328V5.61912C4.90404 5.42701 4.82654 5.25292 4.701 5.12678C4.65135 5.07689 4.59405 5.03474 4.53125 5.00193C4.62702 4.95141 4.7359 4.9231 4.85152 4.9231C5.04272 4.9231 5.21629 5.00096 5.34152 5.12678C5.46708 5.25292 5.54458 5.42701 5.54458 5.61912Z" fill="#FFB800"/>
<path d="M4.15485 4.92781V11.0772H3.99693C3.69767 11.0772 3.45508 10.8334 3.45508 10.5327V4.92781C3.45508 4.7357 3.37758 4.56127 3.25201 4.43548C3.21038 4.39364 3.1633 4.35696 3.11206 4.3267C3.21454 4.26619 3.33433 4.23145 3.4621 4.23145C3.65361 4.23145 3.82656 4.30931 3.9521 4.43548C4.07735 4.56127 4.15485 4.7357 4.15485 4.92781Z" fill="#FFB800"/>
<path d="M2.77121 5.61912V11.0773H2.62035C2.32108 11.0773 2.07846 10.8335 2.07846 10.5328V5.61912C2.07846 5.42701 2.00097 5.25292 1.8754 5.12678C1.8328 5.08398 1.78445 5.04667 1.73193 5.01642C1.83379 4.95688 1.95227 4.9231 2.07846 4.9231C2.26966 4.9231 2.44292 5.00096 2.56846 5.12678C2.69371 5.25292 2.77121 5.42701 2.77121 5.61912Z" fill="#FFB800"/>
<path d="M7.50093 1.6055C7.3703 1.6055 7.2644 1.4991 7.2644 1.36784V0.237658C7.2644 0.106403 7.3703 0 7.50093 0C7.63157 0 7.73746 0.106403 7.73746 0.237658V1.36781C7.73746 1.49907 7.63157 1.6055 7.50093 1.6055Z" fill="#FFB800"/>
<path d="M5.62584 2.10847C5.54409 2.10847 5.4646 2.06585 5.42079 1.98958L4.85839 1.01085C4.79308 0.897174 4.83182 0.751807 4.94496 0.68618C5.05813 0.620552 5.20278 0.659485 5.26809 0.773163L5.83049 1.75189C5.8958 1.86557 5.85706 2.01094 5.74392 2.07656C5.70663 2.0982 5.66596 2.10847 5.62584 2.10847Z" fill="#FFB800"/>
<path d="M4.26562 3.48168C4.22548 3.48168 4.18483 3.47141 4.14758 3.4498L3.17349 2.88473C3.06035 2.8191 3.02157 2.67373 3.08692 2.56006C3.15224 2.44638 3.29691 2.40738 3.41005 2.47307L4.38414 3.03815C4.49728 3.10378 4.53605 3.24914 4.47071 3.36282C4.42689 3.43903 4.34738 3.48168 4.26562 3.48168Z" fill="#FFB800"/>
<path d="M10.7363 3.4817C10.6545 3.4817 10.5751 3.43908 10.5312 3.36281C10.4659 3.24913 10.5047 3.10376 10.6178 3.03814L11.5919 2.47306C11.705 2.4074 11.8497 2.44636 11.915 2.56004C11.9803 2.67372 11.9416 2.81909 11.8285 2.88471L10.8544 3.44979C10.8171 3.47143 10.7764 3.4817 10.7363 3.4817Z" fill="#FFB800"/>
<path d="M9.36869 2.10845C9.32854 2.10845 9.2879 2.09818 9.25064 2.07658C9.1375 2.01095 9.09872 1.86558 9.16407 1.75191L9.72646 0.773177C9.79175 0.659499 9.93643 0.620535 10.0496 0.686194C10.1627 0.751821 10.2015 0.897188 10.1362 1.01087L9.57377 1.98959C9.52996 2.06581 9.45044 2.10845 9.36869 2.10845Z" fill="#FFB800"/>
</svg>
