<svg width="134" height="48" viewBox="0 0 134 48" fill="none" xmlns="http://www.w3.org/2000/svg">
<mask id="mask0_1312_115718" style="mask-type:alpha" maskUnits="userSpaceOnUse" x="0" y="0" width="54" height="48">
<path d="M29.9433 21.0371H24.4878C24.4878 21.0371 23.7085 24.498 27.2156 24.498C30.7227 24.498 29.9433 21.0371 29.9433 21.0371Z" fill="#3E3E3E"/>
<path d="M37.2188 24.2743C37.2188 24.2743 38.8629 31.344 44.6173 29.9353C49.0958 28.839 45.4394 19.4841 48.3166 16.4358C49.7921 14.8725 52.4269 15.5649 52.4269 15.5649" stroke="#212121" stroke-width="2.67568" stroke-linecap="round"/>
<path d="M17.209 24.2743C17.209 24.2743 15.5649 31.344 9.81043 29.9353C5.3319 28.839 8.98836 19.4841 6.11115 16.4358C4.63561 14.8725 2.00084 15.5649 2.00084 15.5649" stroke="#3E3E3E" stroke-width="2.67568" stroke-linecap="round"/>
<path d="M16.5516 17.5741C16.5516 17.5741 14.3696 1.99993 27.0269 2C39.6842 2.00007 37.9381 17.5741 37.9381 17.5741" stroke="#3E3E3E" stroke-width="2.67568" stroke-linecap="round"/>
<path d="M36.6086 17.4092C36.5176 18.1425 37.0382 18.8107 37.7714 18.9018C38.5046 18.9928 39.1729 18.4722 39.2639 17.739L36.6086 17.4092ZM27.2129 3.33784C30.0782 3.33786 31.9985 4.20884 33.326 5.42132C34.6807 6.65862 35.5259 8.35155 36.0335 10.1504C36.5402 11.9459 36.6873 13.7662 36.7029 15.1557C36.7107 15.8461 36.686 16.4196 36.6597 16.8166C36.6466 17.0149 36.6332 17.1685 36.6233 17.2699C36.6184 17.3206 36.6144 17.3582 36.6118 17.3817C36.6105 17.3935 36.6095 17.4018 36.609 17.4064C36.6087 17.4087 36.6085 17.4101 36.6085 17.4106C36.6084 17.4108 36.6084 17.4108 36.6085 17.4106C36.6085 17.4105 36.6085 17.4102 36.6085 17.4101C36.6086 17.4097 36.6086 17.4092 37.9363 17.5741C39.2639 17.739 39.264 17.7384 39.2641 17.7378C39.2641 17.7375 39.2642 17.7368 39.2643 17.7362C39.2644 17.735 39.2646 17.7336 39.2648 17.7319C39.2652 17.7287 39.2657 17.7244 39.2663 17.7192C39.2675 17.7089 39.2691 17.6948 39.2711 17.6771C39.275 17.6417 39.2803 17.5919 39.2865 17.5285C39.2988 17.4018 39.3145 17.2208 39.3296 16.9932C39.3596 16.5385 39.3871 15.8953 39.3784 15.1256C39.3612 13.595 39.2007 11.5218 38.6086 9.42376C38.0176 7.32909 36.973 5.1285 35.1304 3.44565C33.2607 1.73798 30.6763 0.662179 27.2129 0.66216L27.2129 3.33784Z" fill="#212121"/>
<path d="M27.2129 28.9658V46.0001" stroke="#3E3E3E" stroke-width="2.67568" stroke-linecap="round"/>
<path d="M33.4704 26.6533C33.4704 26.6533 31.3211 41.3622 39.4885 41.3622C47.6559 41.3622 46.7961 33.7849 46.7961 33.7849" stroke="#212121" stroke-width="2.67568" stroke-linecap="round"/>
<path d="M20.9553 26.6533C20.9553 26.6533 23.1047 41.3622 14.9373 41.3622C6.76992 41.3622 7.62965 33.7849 7.62965 33.7849" stroke="#3E3E3E" stroke-width="2.67568" stroke-linecap="round"/>
<ellipse cx="32.4192" cy="18.8696" rx="1.60086" ry="1.73046" fill="#212121"/>
<ellipse cx="22.011" cy="18.8696" rx="1.60086" ry="1.73046" fill="#3E3E3E"/>
</mask>
<g mask="url(#mask0_1312_115718)">
<rect x="-1.23242" y="-2.19238" width="28.4747" height="52.4545" fill="#FF474D"/>
<rect x="27.2461" y="-2.19238" width="28.4747" height="52.4545" fill="#D61414"/>
</g>
<path d="M73.4227 18.7684V21.3318H69.6163V29.6019C69.6163 30.3546 69.7498 30.8937 70.0169 31.2193C70.3031 31.5244 70.7324 31.6872 71.3048 31.7075C71.8772 31.7075 72.5832 31.6872 73.4227 31.6465V34.0268C71.2285 34.332 69.6258 34.1387 68.6146 33.447C67.6224 32.7553 67.1263 31.4736 67.1263 29.6019V21.3318H64.293V18.7684H67.1263V15.2895L69.6163 14.496V18.7684H73.4227Z" fill="#3E3E3E"/>
<path d="M77.6298 15.9914C77.1528 15.9914 76.7521 15.8184 76.4278 15.4726C76.1034 15.1267 75.9412 14.7097 75.9412 14.2214C75.9412 13.7331 76.1034 13.3161 76.4278 12.9702C76.7521 12.604 77.1528 12.4209 77.6298 12.4209C78.0877 12.4209 78.4789 12.604 78.8032 12.9702C79.1276 13.3161 79.2898 13.7331 79.2898 14.2214C79.2898 14.7097 79.1276 15.1267 78.8032 15.4726C78.4789 15.8184 78.0877 15.9914 77.6298 15.9914ZM78.8605 34.0268H76.3705V18.7684H78.8605V34.0268Z" fill="#3E3E3E"/>
<path d="M89.7854 18.3717C91.4644 18.3717 92.8096 18.9413 93.8208 20.0806C94.832 21.1996 95.3377 22.7254 95.3377 24.6581V34.0268H92.8477V24.8107C92.8477 23.5901 92.5329 22.6339 91.9033 21.9421C91.2736 21.2504 90.4055 20.9046 89.2989 20.9046C88.0205 20.9046 87.0093 21.3318 86.2652 22.1863C85.5211 23.0204 85.149 24.2716 85.149 25.9398V34.0268H82.6591V18.7684H85.149V20.9656C86.1412 19.2363 87.6866 18.3717 89.7854 18.3717Z" fill="#3E3E3E"/>
<path d="M104.142 31.1887L108.635 18.7684H111.325L105.601 34.0268H102.682L96.958 18.7684H99.6483L104.142 31.1887Z" fill="#3E3E3E"/>
<path d="M114.69 15.9914C114.213 15.9914 113.813 15.8184 113.488 15.4726C113.164 15.1267 113.002 14.7097 113.002 14.2214C113.002 13.7331 113.164 13.3161 113.488 12.9702C113.813 12.604 114.213 12.4209 114.69 12.4209C115.148 12.4209 115.539 12.604 115.864 12.9702C116.188 13.3161 116.35 13.7331 116.35 14.2214C116.35 14.7097 116.188 15.1267 115.864 15.4726C115.539 15.8184 115.148 15.9914 114.69 15.9914ZM115.921 34.0268H113.431V18.7684H115.921V34.0268Z" fill="#3E3E3E"/>
<path d="M131.797 32.1042C130.347 33.6504 128.563 34.4235 126.445 34.4235C124.327 34.4235 122.543 33.6504 121.093 32.1042C119.643 30.5581 118.918 28.6558 118.918 26.3976C118.918 24.1394 119.643 22.2371 121.093 20.691C122.543 19.1448 124.327 18.3717 126.445 18.3717C128.563 18.3717 130.347 19.1448 131.797 20.691C133.266 22.2575 134.001 24.1597 134.001 26.3976C134.001 28.6355 133.266 30.5377 131.797 32.1042ZM126.445 31.8296C127.876 31.8296 129.078 31.3108 130.051 30.2732C131.024 29.2357 131.511 27.9438 131.511 26.3976C131.511 24.8514 131.024 23.5595 130.051 22.522C129.078 21.4844 127.876 20.9656 126.445 20.9656C125.033 20.9656 123.841 21.4844 122.868 22.522C121.895 23.5595 121.408 24.8514 121.408 26.3976C121.408 27.9438 121.895 29.2357 122.868 30.2732C123.841 31.3108 125.033 31.8296 126.445 31.8296Z" fill="#3E3E3E"/>
<path d="M104.142 31.1887L108.635 18.7684H111.325L105.601 34.0268H102.682L96.958 18.7684H99.6483L104.142 31.1887Z" fill="#212121"/>
<path d="M114.69 15.9914C114.213 15.9914 113.813 15.8184 113.488 15.4726C113.164 15.1267 113.002 14.7097 113.002 14.2214C113.002 13.7331 113.164 13.3161 113.488 12.9702C113.813 12.604 114.213 12.4209 114.69 12.4209C115.148 12.4209 115.539 12.604 115.864 12.9702C116.188 13.3161 116.35 13.7331 116.35 14.2214C116.35 14.7097 116.188 15.1267 115.864 15.4726C115.539 15.8184 115.148 15.9914 114.69 15.9914ZM115.921 34.0268H113.431V18.7684H115.921V34.0268Z" fill="#212121"/>
<path d="M131.797 32.1042C130.347 33.6504 128.563 34.4235 126.445 34.4235C124.327 34.4235 122.543 33.6504 121.093 32.1042C119.643 30.5581 118.918 28.6558 118.918 26.3976C118.918 24.1394 119.643 22.2371 121.093 20.691C122.543 19.1448 124.327 18.3717 126.445 18.3717C128.563 18.3717 130.347 19.1448 131.797 20.691C133.266 22.2575 134.001 24.1597 134.001 26.3976C134.001 28.6355 133.266 30.5377 131.797 32.1042ZM126.445 31.8296C127.876 31.8296 129.078 31.3108 130.051 30.2732C131.024 29.2357 131.511 27.9438 131.511 26.3976C131.511 24.8514 131.024 23.5595 130.051 22.522C129.078 21.4844 127.876 20.9656 126.445 20.9656C125.033 20.9656 123.841 21.4844 122.868 22.522C121.895 23.5595 121.408 24.8514 121.408 26.3976C121.408 27.9438 121.895 29.2357 122.868 30.2732C123.841 31.3108 125.033 31.8296 126.445 31.8296Z" fill="#212121"/>
<ellipse cx="114.822" cy="14.3282" rx="1.78874" ry="1.9073" fill="#D61414"/>
<ellipse cx="77.7106" cy="14.3282" rx="1.78874" ry="1.9073" fill="#FF474D"/>
</svg>
