<svg width="116" height="42" viewBox="0 0 116 42" fill="none" xmlns="http://www.w3.org/2000/svg">
<mask id="mask0_1312_115658" style="mask-type:alpha" maskUnits="userSpaceOnUse" x="0" y="0" width="47" height="42">
<path d="M26.1326 18.4414H21.4211C21.4211 18.4414 20.7481 21.4304 23.7769 21.4304C26.8058 21.4304 26.1326 18.4414 26.1326 18.4414Z" fill="#3E3E3E"/>
<path d="M32.416 21.2367C32.416 21.2367 33.8359 27.3424 38.8057 26.1258C42.6735 25.179 39.5156 17.0997 42.0005 14.4671C43.2748 13.117 45.5503 13.715 45.5503 13.715" stroke="#212121" stroke-width="2.31081" stroke-linecap="round"/>
<path d="M15.1348 21.2367C15.1348 21.2367 13.7148 27.3424 8.7451 26.1258C4.87728 25.179 8.03514 17.0997 5.55027 14.4671C4.27594 13.117 2.00046 13.715 2.00046 13.715" stroke="#3E3E3E" stroke-width="2.31081" stroke-linecap="round"/>
<path d="M14.5672 15.4504C14.5672 15.4504 12.6827 1.99994 23.614 2C34.5453 2.00006 33.0374 15.4504 33.0374 15.4504" stroke="#3E3E3E" stroke-width="2.31081" stroke-linecap="round"/>
<path d="M31.8899 15.308C31.8113 15.9412 32.2609 16.5183 32.8941 16.597C33.5274 16.6756 34.1045 16.226 34.1831 15.5927L31.8899 15.308ZM23.7754 3.15541C26.2499 3.15542 27.9084 3.90763 29.0549 4.95478C30.2249 6.02335 30.9548 7.48543 31.3932 9.03899C31.8308 10.5896 31.9578 12.1617 31.9713 13.3618C31.978 13.958 31.9567 14.4533 31.934 14.7962C31.9227 14.9674 31.9111 15.1001 31.9026 15.1877C31.8983 15.2314 31.8949 15.2639 31.8926 15.2842C31.8915 15.2944 31.8906 15.3015 31.8902 15.3055C31.8899 15.3075 31.8898 15.3087 31.8897 15.3091C31.8897 15.3094 31.8897 15.3094 31.8897 15.3092C31.8898 15.3091 31.8898 15.3088 31.8898 15.3087C31.8898 15.3084 31.8899 15.308 33.0365 15.4504C34.1831 15.5927 34.1832 15.5922 34.1832 15.5917C34.1833 15.5914 34.1833 15.5908 34.1834 15.5903C34.1835 15.5893 34.1837 15.5881 34.1838 15.5867C34.1842 15.5838 34.1846 15.5802 34.1851 15.5757C34.1862 15.5668 34.1876 15.5546 34.1893 15.5393C34.1927 15.5088 34.1973 15.4657 34.2026 15.411C34.2132 15.3015 34.2268 15.1452 34.2398 14.9487C34.2658 14.556 34.2895 14.0005 34.282 13.3357C34.2671 12.0139 34.1285 10.2234 33.6172 8.41143C33.1067 6.6024 32.2046 4.70189 30.6133 3.24852C28.9985 1.77371 26.7665 0.844609 23.7754 0.844593L23.7754 3.15541Z" fill="#212121"/>
<path d="M23.7754 25.2886V40" stroke="#3E3E3E" stroke-width="2.31081" stroke-linecap="round"/>
<path d="M29.1797 23.2915C29.1797 23.2915 27.3235 35.9946 34.3771 35.9946C41.4308 35.9946 40.6883 29.4506 40.6883 29.4506" stroke="#212121" stroke-width="2.31081" stroke-linecap="round"/>
<path d="M18.3711 23.2915C18.3711 23.2915 20.2273 35.9946 13.1737 35.9946C6.12001 35.9946 6.8625 29.4506 6.8625 29.4506" stroke="#3E3E3E" stroke-width="2.31081" stroke-linecap="round"/>
<ellipse cx="28.2712" cy="16.5692" rx="1.38256" ry="1.49449" fill="#212121"/>
<ellipse cx="19.283" cy="16.5692" rx="1.38256" ry="1.49449" fill="#3E3E3E"/>
</mask>
<g mask="url(#mask0_1312_115658)">
<rect x="-0.791016" y="-1.62061" width="24.5918" height="45.3017" fill="#FF474D"/>
<rect x="23.8027" y="-1.62061" width="24.5918" height="45.3017" fill="#D61414"/>
</g>
<path d="M63.6836 16.9819V19.1958H60.3962V26.3381C60.3962 26.9882 60.5116 27.4538 60.7423 27.7349C60.9894 27.9985 61.3602 28.1391 61.8545 28.1566C62.3489 28.1566 62.9586 28.1391 63.6836 28.1039V30.1596C61.7886 30.4232 60.4045 30.2563 59.5311 29.6589C58.6743 29.0615 58.2458 27.9546 58.2458 26.3381V19.1958H55.7988V16.9819H58.2458V13.9774L60.3962 13.2922V16.9819H63.6836Z" fill="#3E3E3E"/>
<path d="M67.317 14.5836C66.9051 14.5836 66.559 14.4342 66.2789 14.1355C65.9988 13.8368 65.8587 13.4767 65.8587 13.055C65.8587 12.6333 65.9988 12.2731 66.2789 11.9744C66.559 11.6581 66.9051 11.5 67.317 11.5C67.7125 11.5 68.0503 11.6581 68.3304 11.9744C68.6105 12.2731 68.7506 12.6333 68.7506 13.055C68.7506 13.4767 68.6105 13.8368 68.3304 14.1355C68.0503 14.4342 67.7125 14.5836 67.317 14.5836ZM68.3798 30.1596H66.2295V16.9819H68.3798V30.1596Z" fill="#3E3E3E"/>
<path d="M77.815 16.6393C79.2651 16.6393 80.4268 17.1313 81.3001 18.1152C82.1735 19.0816 82.6102 20.3994 82.6102 22.0685V30.1596H80.4598V22.2003C80.4598 21.1461 80.1879 20.3203 79.6441 19.7229C79.1003 19.1255 78.3506 18.8268 77.3948 18.8268C76.2908 18.8268 75.4175 19.1958 74.7748 19.9337C74.1322 20.6541 73.8109 21.7347 73.8109 23.1755V30.1596H71.6605V16.9819H73.8109V18.8795C74.6677 17.386 76.0024 16.6393 77.815 16.6393Z" fill="#3E3E3E"/>
<path d="M90.2136 27.7086L94.0942 16.9819H96.4176L91.4741 30.1596H88.953L84.0096 16.9819H86.333L90.2136 27.7086Z" fill="#3E3E3E"/>
<path d="M99.3238 14.5836C98.9118 14.5836 98.5658 14.4342 98.2856 14.1355C98.0055 13.8368 97.8655 13.4767 97.8655 13.055C97.8655 12.6333 98.0055 12.2731 98.2856 11.9744C98.5658 11.6581 98.9118 11.5 99.3238 11.5C99.7192 11.5 100.057 11.6581 100.337 11.9744C100.617 12.2731 100.757 12.6333 100.757 13.055C100.757 13.4767 100.617 13.8368 100.337 14.1355C100.057 14.4342 99.7192 14.5836 99.3238 14.5836ZM100.387 30.1596H98.2362V16.9819H100.387V30.1596Z" fill="#3E3E3E"/>
<path d="M114.098 28.4993C112.846 29.8346 111.305 30.5023 109.476 30.5023C107.647 30.5023 106.106 29.8346 104.854 28.4993C103.601 27.1639 102.975 25.5211 102.975 23.5708C102.975 21.6205 103.601 19.9777 104.854 18.6423C106.106 17.307 107.647 16.6393 109.476 16.6393C111.305 16.6393 112.846 17.307 114.098 18.6423C115.367 19.9952 116.001 21.6381 116.001 23.5708C116.001 25.5035 115.367 27.1463 114.098 28.4993ZM109.476 28.2621C110.712 28.2621 111.75 27.814 112.59 26.9179C113.43 26.0218 113.851 24.9061 113.851 23.5708C113.851 22.2354 113.43 21.1197 112.59 20.2236C111.75 19.3276 110.712 18.8795 109.476 18.8795C108.256 18.8795 107.226 19.3276 106.386 20.2236C105.546 21.1197 105.126 22.2354 105.126 23.5708C105.126 24.9061 105.546 26.0218 106.386 26.9179C107.226 27.814 108.256 28.2621 109.476 28.2621Z" fill="#3E3E3E"/>
<path d="M90.2136 27.7086L94.0942 16.9819H96.4176L91.4741 30.1596H88.953L84.0096 16.9819H86.333L90.2136 27.7086Z" fill="#212121"/>
<path d="M99.3238 14.5836C98.9118 14.5836 98.5658 14.4342 98.2856 14.1355C98.0055 13.8368 97.8655 13.4767 97.8655 13.055C97.8655 12.6333 98.0055 12.2731 98.2856 11.9744C98.5658 11.6581 98.9118 11.5 99.3238 11.5C99.7192 11.5 100.057 11.6581 100.337 11.9744C100.617 12.2731 100.757 12.6333 100.757 13.055C100.757 13.4767 100.617 13.8368 100.337 14.1355C100.057 14.4342 99.7192 14.5836 99.3238 14.5836ZM100.387 30.1596H98.2362V16.9819H100.387V30.1596Z" fill="#212121"/>
<path d="M114.098 28.4993C112.846 29.8346 111.305 30.5023 109.476 30.5023C107.647 30.5023 106.106 29.8346 104.854 28.4993C103.601 27.1639 102.975 25.5211 102.975 23.5708C102.975 21.6205 103.601 19.9777 104.854 18.6423C106.106 17.307 107.647 16.6393 109.476 16.6393C111.305 16.6393 112.846 17.307 114.098 18.6423C115.367 19.9952 116.001 21.6381 116.001 23.5708C116.001 25.5035 115.367 27.1463 114.098 28.4993ZM109.476 28.2621C110.712 28.2621 111.75 27.814 112.59 26.9179C113.43 26.0218 113.851 24.9061 113.851 23.5708C113.851 22.2354 113.43 21.1197 112.59 20.2236C111.75 19.3276 110.712 18.8795 109.476 18.8795C108.256 18.8795 107.226 19.3276 106.386 20.2236C105.546 21.1197 105.126 22.2354 105.126 23.5708C105.126 24.9061 105.546 26.0218 106.386 26.9179C107.226 27.814 108.256 28.2621 109.476 28.2621Z" fill="#212121"/>
<ellipse cx="99.4374" cy="13.1472" rx="1.54482" ry="1.64721" fill="#D61414"/>
<ellipse cx="67.3866" cy="13.1472" rx="1.54482" ry="1.64721" fill="#FF474D"/>
</svg>
