<svg width="193" height="238" viewBox="0 0 193 238" fill="none" xmlns="http://www.w3.org/2000/svg">
<rect x="0.105957" y="15.3273" width="21.6761" height="21.6761" rx="4.85598" transform="rotate(-45 0.105957 15.3273)" fill="url(#paint0_radial_702_728)" fill-opacity="0.6"/>
<rect x="40.4688" y="15.3273" width="21.6761" height="21.6761" rx="4.85598" transform="rotate(-45 40.4688 15.3273)" fill="url(#paint1_radial_702_728)" fill-opacity="0.6"/>
<rect x="80.8394" y="15.3273" width="21.6761" height="21.6761" rx="4.85598" transform="rotate(-45 80.8394 15.3273)" fill="url(#paint2_radial_702_728)" fill-opacity="0.6"/>
<rect x="121.21" y="15.3273" width="21.6761" height="21.6761" rx="4.85598" transform="rotate(-45 121.21 15.3273)" fill="url(#paint3_radial_702_728)" fill-opacity="0.6"/>
<rect x="161.574" y="15.3273" width="21.6761" height="21.6761" rx="4.85598" transform="rotate(-45 161.574 15.3273)" fill="url(#paint4_radial_702_728)" fill-opacity="0.6"/>
<rect x="0.10498" y="97.8795" width="21.6761" height="21.6761" rx="4.85598" transform="rotate(-45 0.10498 97.8795)" fill="url(#paint5_radial_702_728)" fill-opacity="0.6"/>
<rect x="40.4688" y="97.8795" width="21.6761" height="21.6761" rx="4.85598" transform="rotate(-45 40.4688 97.8795)" fill="url(#paint6_radial_702_728)" fill-opacity="0.6"/>
<rect x="80.8394" y="97.8795" width="21.6761" height="21.6761" rx="4.85598" transform="rotate(-45 80.8394 97.8795)" fill="url(#paint7_radial_702_728)" fill-opacity="0.6"/>
<rect x="121.21" y="97.8795" width="21.6761" height="21.6761" rx="4.85598" transform="rotate(-45 121.21 97.8795)" fill="url(#paint8_radial_702_728)" fill-opacity="0.6"/>
<rect x="161.574" y="97.8795" width="21.6761" height="21.6761" rx="4.85598" transform="rotate(-45 161.574 97.8795)" fill="url(#paint9_radial_702_728)" fill-opacity="0.6"/>
<rect x="0.105957" y="180.431" width="21.6761" height="21.6761" rx="4.85598" transform="rotate(-45 0.105957 180.431)" fill="url(#paint10_radial_702_728)" fill-opacity="0.6"/>
<rect x="40.4688" y="180.431" width="21.6761" height="21.6761" rx="4.85598" transform="rotate(-45 40.4688 180.431)" fill="url(#paint11_radial_702_728)" fill-opacity="0.6"/>
<rect x="80.8394" y="180.431" width="21.6761" height="21.6761" rx="4.85598" transform="rotate(-45 80.8394 180.431)" fill="url(#paint12_radial_702_728)" fill-opacity="0.6"/>
<rect x="121.21" y="180.431" width="21.6761" height="21.6761" rx="4.85598" transform="rotate(-45 121.21 180.431)" fill="url(#paint13_radial_702_728)" fill-opacity="0.6"/>
<rect x="161.574" y="180.431" width="21.6761" height="21.6761" rx="4.85598" transform="rotate(-45 161.574 180.431)" fill="url(#paint14_radial_702_728)" fill-opacity="0.6"/>
<rect x="0.10498" y="56.6031" width="21.6761" height="21.6761" rx="4.85598" transform="rotate(-45 0.10498 56.6031)" fill="url(#paint15_radial_702_728)" fill-opacity="0.6"/>
<rect x="40.4688" y="56.6031" width="21.6761" height="21.6761" rx="4.85598" transform="rotate(-45 40.4688 56.6031)" fill="url(#paint16_radial_702_728)" fill-opacity="0.6"/>
<rect x="80.8394" y="56.6031" width="21.6761" height="21.6761" rx="4.85598" transform="rotate(-45 80.8394 56.6031)" fill="url(#paint17_radial_702_728)" fill-opacity="0.6"/>
<rect x="121.21" y="56.6031" width="21.6761" height="21.6761" rx="4.85598" transform="rotate(-45 121.21 56.6031)" fill="url(#paint18_radial_702_728)" fill-opacity="0.6"/>
<rect x="161.574" y="56.6031" width="21.6761" height="21.6761" rx="4.85598" transform="rotate(-45 161.574 56.6031)" fill="url(#paint19_radial_702_728)" fill-opacity="0.6"/>
<rect x="0.10498" y="139.155" width="21.6761" height="21.6761" rx="4.85598" transform="rotate(-45 0.10498 139.155)" fill="url(#paint20_radial_702_728)" fill-opacity="0.6"/>
<rect x="40.4688" y="139.155" width="21.6761" height="21.6761" rx="4.85598" transform="rotate(-45 40.4688 139.155)" fill="url(#paint21_radial_702_728)" fill-opacity="0.6"/>
<rect x="80.8394" y="139.155" width="21.6761" height="21.6761" rx="4.85598" transform="rotate(-45 80.8394 139.155)" fill="url(#paint22_radial_702_728)" fill-opacity="0.6"/>
<rect x="121.21" y="139.155" width="21.6761" height="21.6761" rx="4.85598" transform="rotate(-45 121.21 139.155)" fill="url(#paint23_radial_702_728)" fill-opacity="0.6"/>
<rect x="161.574" y="139.155" width="21.6761" height="21.6761" rx="4.85598" transform="rotate(-45 161.574 139.155)" fill="url(#paint24_radial_702_728)" fill-opacity="0.6"/>
<rect x="0.105957" y="221.707" width="21.6761" height="21.6761" rx="4.85598" transform="rotate(-45 0.105957 221.707)" fill="url(#paint25_radial_702_728)" fill-opacity="0.6"/>
<rect x="40.4688" y="221.706" width="21.6761" height="21.6761" rx="4.85598" transform="rotate(-45 40.4688 221.706)" fill="url(#paint26_radial_702_728)" fill-opacity="0.6"/>
<rect x="80.8394" y="221.706" width="21.6761" height="21.6761" rx="4.85598" transform="rotate(-45 80.8394 221.706)" fill="url(#paint27_radial_702_728)" fill-opacity="0.6"/>
<rect x="121.21" y="221.706" width="21.6761" height="21.6761" rx="4.85598" transform="rotate(-45 121.21 221.706)" fill="url(#paint28_radial_702_728)" fill-opacity="0.6"/>
<rect x="161.574" y="221.706" width="21.6761" height="21.6761" rx="4.85598" transform="rotate(-45 161.574 221.706)" fill="url(#paint29_radial_702_728)" fill-opacity="0.6"/>
<defs>
<radialGradient id="paint0_radial_702_728" cx="0" cy="0" r="1" gradientUnits="userSpaceOnUse" gradientTransform="translate(10.944 26.1653) rotate(85.3036) scale(20.7733)">
<stop stop-color="white"/>
<stop offset="1" stop-color="#FAFAFA"/>
</radialGradient>
<radialGradient id="paint1_radial_702_728" cx="0" cy="0" r="1" gradientUnits="userSpaceOnUse" gradientTransform="translate(51.3068 26.1653) rotate(85.3036) scale(20.7733)">
<stop stop-color="white"/>
<stop offset="1" stop-color="#FAFAFA"/>
</radialGradient>
<radialGradient id="paint2_radial_702_728" cx="0" cy="0" r="1" gradientUnits="userSpaceOnUse" gradientTransform="translate(91.6774 26.1653) rotate(85.3036) scale(20.7733)">
<stop stop-color="white"/>
<stop offset="1" stop-color="#FAFAFA"/>
</radialGradient>
<radialGradient id="paint3_radial_702_728" cx="0" cy="0" r="1" gradientUnits="userSpaceOnUse" gradientTransform="translate(132.048 26.1653) rotate(85.3036) scale(20.7733)">
<stop stop-color="white"/>
<stop offset="1" stop-color="#FAFAFA"/>
</radialGradient>
<radialGradient id="paint4_radial_702_728" cx="0" cy="0" r="1" gradientUnits="userSpaceOnUse" gradientTransform="translate(172.412 26.1653) rotate(85.3036) scale(20.7733)">
<stop stop-color="white"/>
<stop offset="1" stop-color="#FAFAFA"/>
</radialGradient>
<radialGradient id="paint5_radial_702_728" cx="0" cy="0" r="1" gradientUnits="userSpaceOnUse" gradientTransform="translate(10.943 108.718) rotate(85.3036) scale(20.7733)">
<stop stop-color="white"/>
<stop offset="1" stop-color="#FAFAFA"/>
</radialGradient>
<radialGradient id="paint6_radial_702_728" cx="0" cy="0" r="1" gradientUnits="userSpaceOnUse" gradientTransform="translate(51.3068 108.718) rotate(85.3036) scale(20.7733)">
<stop stop-color="white"/>
<stop offset="1" stop-color="#FAFAFA"/>
</radialGradient>
<radialGradient id="paint7_radial_702_728" cx="0" cy="0" r="1" gradientUnits="userSpaceOnUse" gradientTransform="translate(91.6774 108.718) rotate(85.3036) scale(20.7733)">
<stop stop-color="white"/>
<stop offset="1" stop-color="#FAFAFA"/>
</radialGradient>
<radialGradient id="paint8_radial_702_728" cx="0" cy="0" r="1" gradientUnits="userSpaceOnUse" gradientTransform="translate(132.048 108.718) rotate(85.3036) scale(20.7733)">
<stop stop-color="white"/>
<stop offset="1" stop-color="#FAFAFA"/>
</radialGradient>
<radialGradient id="paint9_radial_702_728" cx="0" cy="0" r="1" gradientUnits="userSpaceOnUse" gradientTransform="translate(172.412 108.718) rotate(85.3036) scale(20.7733)">
<stop stop-color="white"/>
<stop offset="1" stop-color="#FAFAFA"/>
</radialGradient>
<radialGradient id="paint10_radial_702_728" cx="0" cy="0" r="1" gradientUnits="userSpaceOnUse" gradientTransform="translate(10.944 191.269) rotate(85.3036) scale(20.7733)">
<stop stop-color="white"/>
<stop offset="1" stop-color="#FAFAFA"/>
</radialGradient>
<radialGradient id="paint11_radial_702_728" cx="0" cy="0" r="1" gradientUnits="userSpaceOnUse" gradientTransform="translate(51.3068 191.269) rotate(85.3036) scale(20.7733)">
<stop stop-color="white"/>
<stop offset="1" stop-color="#FAFAFA"/>
</radialGradient>
<radialGradient id="paint12_radial_702_728" cx="0" cy="0" r="1" gradientUnits="userSpaceOnUse" gradientTransform="translate(91.6774 191.269) rotate(85.3036) scale(20.7733)">
<stop stop-color="white"/>
<stop offset="1" stop-color="#FAFAFA"/>
</radialGradient>
<radialGradient id="paint13_radial_702_728" cx="0" cy="0" r="1" gradientUnits="userSpaceOnUse" gradientTransform="translate(132.048 191.269) rotate(85.3036) scale(20.7733)">
<stop stop-color="white"/>
<stop offset="1" stop-color="#FAFAFA"/>
</radialGradient>
<radialGradient id="paint14_radial_702_728" cx="0" cy="0" r="1" gradientUnits="userSpaceOnUse" gradientTransform="translate(172.412 191.269) rotate(85.3036) scale(20.7733)">
<stop stop-color="white"/>
<stop offset="1" stop-color="#FAFAFA"/>
</radialGradient>
<radialGradient id="paint15_radial_702_728" cx="0" cy="0" r="1" gradientUnits="userSpaceOnUse" gradientTransform="translate(10.943 67.4412) rotate(85.3036) scale(20.7733)">
<stop stop-color="white"/>
<stop offset="1" stop-color="#FAFAFA"/>
</radialGradient>
<radialGradient id="paint16_radial_702_728" cx="0" cy="0" r="1" gradientUnits="userSpaceOnUse" gradientTransform="translate(51.3068 67.4412) rotate(85.3036) scale(20.7733)">
<stop stop-color="white"/>
<stop offset="1" stop-color="#FAFAFA"/>
</radialGradient>
<radialGradient id="paint17_radial_702_728" cx="0" cy="0" r="1" gradientUnits="userSpaceOnUse" gradientTransform="translate(91.6774 67.4412) rotate(85.3036) scale(20.7733)">
<stop stop-color="white"/>
<stop offset="1" stop-color="#FAFAFA"/>
</radialGradient>
<radialGradient id="paint18_radial_702_728" cx="0" cy="0" r="1" gradientUnits="userSpaceOnUse" gradientTransform="translate(132.048 67.4412) rotate(85.3036) scale(20.7733)">
<stop stop-color="white"/>
<stop offset="1" stop-color="#FAFAFA"/>
</radialGradient>
<radialGradient id="paint19_radial_702_728" cx="0" cy="0" r="1" gradientUnits="userSpaceOnUse" gradientTransform="translate(172.412 67.4412) rotate(85.3036) scale(20.7733)">
<stop stop-color="white"/>
<stop offset="1" stop-color="#FAFAFA"/>
</radialGradient>
<radialGradient id="paint20_radial_702_728" cx="0" cy="0" r="1" gradientUnits="userSpaceOnUse" gradientTransform="translate(10.943 149.993) rotate(85.3036) scale(20.7733)">
<stop stop-color="white"/>
<stop offset="1" stop-color="#FAFAFA"/>
</radialGradient>
<radialGradient id="paint21_radial_702_728" cx="0" cy="0" r="1" gradientUnits="userSpaceOnUse" gradientTransform="translate(51.3068 149.993) rotate(85.3036) scale(20.7733)">
<stop stop-color="white"/>
<stop offset="1" stop-color="#FAFAFA"/>
</radialGradient>
<radialGradient id="paint22_radial_702_728" cx="0" cy="0" r="1" gradientUnits="userSpaceOnUse" gradientTransform="translate(91.6774 149.993) rotate(85.3036) scale(20.7733)">
<stop stop-color="white"/>
<stop offset="1" stop-color="#FAFAFA"/>
</radialGradient>
<radialGradient id="paint23_radial_702_728" cx="0" cy="0" r="1" gradientUnits="userSpaceOnUse" gradientTransform="translate(132.048 149.993) rotate(85.3036) scale(20.7733)">
<stop stop-color="white"/>
<stop offset="1" stop-color="#FAFAFA"/>
</radialGradient>
<radialGradient id="paint24_radial_702_728" cx="0" cy="0" r="1" gradientUnits="userSpaceOnUse" gradientTransform="translate(172.412 149.993) rotate(85.3036) scale(20.7733)">
<stop stop-color="white"/>
<stop offset="1" stop-color="#FAFAFA"/>
</radialGradient>
<radialGradient id="paint25_radial_702_728" cx="0" cy="0" r="1" gradientUnits="userSpaceOnUse" gradientTransform="translate(10.944 232.545) rotate(85.3036) scale(20.7733)">
<stop stop-color="white"/>
<stop offset="1" stop-color="#FAFAFA"/>
</radialGradient>
<radialGradient id="paint26_radial_702_728" cx="0" cy="0" r="1" gradientUnits="userSpaceOnUse" gradientTransform="translate(51.3068 232.544) rotate(85.3036) scale(20.7733)">
<stop stop-color="white"/>
<stop offset="1" stop-color="#FAFAFA"/>
</radialGradient>
<radialGradient id="paint27_radial_702_728" cx="0" cy="0" r="1" gradientUnits="userSpaceOnUse" gradientTransform="translate(91.6774 232.544) rotate(85.3036) scale(20.7733)">
<stop stop-color="white"/>
<stop offset="1" stop-color="#FAFAFA"/>
</radialGradient>
<radialGradient id="paint28_radial_702_728" cx="0" cy="0" r="1" gradientUnits="userSpaceOnUse" gradientTransform="translate(132.048 232.544) rotate(85.3036) scale(20.7733)">
<stop stop-color="white"/>
<stop offset="1" stop-color="#FAFAFA"/>
</radialGradient>
<radialGradient id="paint29_radial_702_728" cx="0" cy="0" r="1" gradientUnits="userSpaceOnUse" gradientTransform="translate(172.412 232.544) rotate(85.3036) scale(20.7733)">
<stop stop-color="white"/>
<stop offset="1" stop-color="#FAFAFA"/>
</radialGradient>
</defs>
</svg>
