<svg width="113" height="40" viewBox="0 0 113 40" fill="none" xmlns="http://www.w3.org/2000/svg">
<rect opacity="0.88" width="113" height="40" rx="8" fill="url(#paint0_radial_1085_116212)"/>
<path fill-rule="evenodd" clip-rule="evenodd" d="M8.35156 13.0666C8.35156 10.4319 10.4874 8.29614 13.122 8.29614H27.1352C29.7698 8.29614 31.9057 10.4319 31.9057 13.0666V26.9331C31.9057 29.5677 29.7698 31.7036 27.1352 31.7036H13.122C10.4874 31.7036 8.35156 29.5677 8.35156 26.9331V13.0666ZM17.1763 13.2553C16.6397 12.9605 16.0097 12.9674 15.4766 13.2595L21.7251 18.9879L23.8242 16.9018L17.1763 13.2553ZM14.6133 14.6777C14.6133 14.377 14.7007 14.0933 14.8533 13.8455L21.1207 19.5909L14.837 25.8354C14.693 25.5926 14.6133 25.315 14.6133 25.0236V14.6777ZM26.6077 18.4279L24.6055 17.33L22.3555 19.5651L25.1129 22.0924L26.6086 21.2721C27.1469 20.9757 27.4692 20.4442 27.4692 19.8496C27.4683 19.255 27.1469 18.7235 26.6077 18.4279ZM15.4453 26.4299L21.7461 20.1683L24.3193 22.5269L17.1733 26.4461C16.905 26.5934 16.6119 26.6667 16.3205 26.6667C16.0187 26.6667 15.7187 26.5849 15.4453 26.4299Z" fill="white"/>
<path d="M39.8982 15.2962H39.2375L41.1484 10.0921H41.799L43.7098 15.2962H43.0492L41.494 10.9154H41.4534L39.8982 15.2962ZM40.1422 13.2633H42.8052V13.8224H40.1422V13.2633Z" fill="white"/>
<path d="M47.1416 11.3931L45.6982 15.2962H45.0884L43.645 11.3931H44.2956L45.373 14.5034H45.4136L46.4911 11.3931H47.1416Z" fill="white"/>
<path d="M48.9629 15.3877C48.7156 15.3877 48.4911 15.3411 48.2895 15.2479C48.0879 15.1531 47.9278 15.0167 47.8092 14.8388C47.6907 14.6592 47.6314 14.4424 47.6314 14.1883C47.6314 13.9647 47.6754 13.7834 47.7635 13.6445C47.8516 13.5039 47.9693 13.3938 48.1167 13.3142C48.2641 13.2345 48.4267 13.1752 48.6046 13.1363C48.7842 13.0956 48.9646 13.0634 49.1458 13.0397C49.383 13.0092 49.5753 12.9864 49.7227 12.9711C49.8717 12.9542 49.9802 12.9262 50.0479 12.8873C50.1174 12.8483 50.1521 12.7805 50.1521 12.684V12.6636C50.1521 12.4129 50.0835 12.2181 49.9463 12.0792C49.8108 11.9403 49.6049 11.8708 49.3288 11.8708C49.0425 11.8708 48.818 11.9335 48.6554 12.0589C48.4928 12.1842 48.3784 12.3181 48.3124 12.4604L47.7432 12.2571C47.8448 12.0199 47.9803 11.8353 48.1497 11.7031C48.3208 11.5693 48.5072 11.4761 48.7088 11.4236C48.9121 11.3694 49.112 11.3423 49.3085 11.3423C49.4338 11.3423 49.5778 11.3575 49.7405 11.388C49.9048 11.4168 50.0632 11.477 50.2156 11.5684C50.3698 11.6599 50.4977 11.798 50.5993 11.9826C50.701 12.1673 50.7518 12.4146 50.7518 12.7246V15.2962H50.1521V14.7677H50.1216C50.081 14.8524 50.0132 14.943 49.9183 15.0395C49.8235 15.1361 49.6973 15.2183 49.5397 15.286C49.3822 15.3538 49.1899 15.3877 48.9629 15.3877ZM49.0544 14.849C49.2915 14.849 49.4914 14.8024 49.6541 14.7092C49.8184 14.616 49.942 14.4958 50.0251 14.3484C50.1098 14.201 50.1521 14.046 50.1521 13.8834V13.3345C50.1267 13.365 50.0708 13.3929 49.9844 13.4183C49.8997 13.4421 49.8014 13.4632 49.6896 13.4819C49.5795 13.4988 49.4719 13.5141 49.3669 13.5276C49.2636 13.5395 49.1797 13.5496 49.1154 13.5581C48.9595 13.5784 48.8138 13.6115 48.6783 13.6572C48.5445 13.7012 48.436 13.7682 48.353 13.8579C48.2717 13.946 48.2311 14.0663 48.2311 14.2188C48.2311 14.4271 48.3081 14.5847 48.4623 14.6914C48.6181 14.7965 48.8155 14.849 49.0544 14.849Z" fill="white"/>
<path d="M51.8464 15.2962V11.3931H52.4461V15.2962H51.8464ZM52.1513 10.7426C52.0344 10.7426 51.9336 10.7028 51.8489 10.6232C51.7659 10.5435 51.7244 10.4478 51.7244 10.336C51.7244 10.2242 51.7659 10.1285 51.8489 10.0489C51.9336 9.96925 52.0344 9.92944 52.1513 9.92944C52.2682 9.92944 52.3681 9.96925 52.4511 10.0489C52.5359 10.1285 52.5782 10.2242 52.5782 10.336C52.5782 10.4478 52.5359 10.5435 52.4511 10.6232C52.3681 10.7028 52.2682 10.7426 52.1513 10.7426Z" fill="white"/>
<path d="M54.1441 10.0921V15.2962H53.5444V10.0921H54.1441Z" fill="white"/>
<path d="M56.3911 15.3877C56.1438 15.3877 55.9193 15.3411 55.7177 15.2479C55.5161 15.1531 55.356 15.0167 55.2374 14.8388C55.1189 14.6592 55.0596 14.4424 55.0596 14.1883C55.0596 13.9647 55.1036 13.7834 55.1917 13.6445C55.2798 13.5039 55.3975 13.3938 55.5449 13.3142C55.6923 13.2345 55.8549 13.1752 56.0328 13.1363C56.2124 13.0956 56.3928 13.0634 56.574 13.0397C56.8112 13.0092 57.0035 12.9864 57.1509 12.9711C57.2999 12.9542 57.4084 12.9262 57.4761 12.8873C57.5456 12.8483 57.5803 12.7805 57.5803 12.684V12.6636C57.5803 12.4129 57.5117 12.2181 57.3745 12.0792C57.239 11.9403 57.0331 11.8708 56.757 11.8708C56.4707 11.8708 56.2462 11.9335 56.0836 12.0589C55.921 12.1842 55.8066 12.3181 55.7406 12.4604L55.1714 12.2571C55.273 12.0199 55.4085 11.8353 55.5779 11.7031C55.749 11.5693 55.9354 11.4761 56.137 11.4236C56.3403 11.3694 56.5402 11.3423 56.7367 11.3423C56.862 11.3423 57.006 11.3575 57.1687 11.388C57.333 11.4168 57.4914 11.477 57.6438 11.5684C57.798 11.6599 57.9259 11.798 58.0275 11.9826C58.1292 12.1673 58.18 12.4146 58.18 12.7246V15.2962H57.5803V14.7677H57.5498C57.5092 14.8524 57.4414 14.943 57.3465 15.0395C57.2517 15.1361 57.1255 15.2183 56.9679 15.286C56.8104 15.3538 56.6181 15.3877 56.3911 15.3877ZM56.4826 14.849C56.7197 14.849 56.9196 14.8024 57.0823 14.7092C57.2466 14.616 57.3703 14.4958 57.4533 14.3484C57.538 14.201 57.5803 14.046 57.5803 13.8834V13.3345C57.5549 13.365 57.499 13.3929 57.4126 13.4183C57.3279 13.4421 57.2296 13.4632 57.1178 13.4819C57.0077 13.4988 56.9002 13.5141 56.7951 13.5276C56.6918 13.5395 56.6079 13.5496 56.5436 13.5581C56.3877 13.5784 56.242 13.6115 56.1065 13.6572C55.9727 13.7012 55.8642 13.7682 55.7812 13.8579C55.6999 13.946 55.6593 14.0663 55.6593 14.2188C55.6593 14.4271 55.7363 14.5847 55.8905 14.6914C56.0464 14.7965 56.2437 14.849 56.4826 14.849Z" fill="white"/>
<path d="M59.3559 15.2962V10.0921H59.9556V12.0131H60.0064C60.0505 11.9454 60.1114 11.859 60.1894 11.7539C60.269 11.6472 60.3825 11.5523 60.5299 11.4693C60.6789 11.3846 60.8805 11.3423 61.1346 11.3423C61.4633 11.3423 61.753 11.4244 62.0037 11.5888C62.2544 11.7531 62.4501 11.986 62.5907 12.2876C62.7313 12.5891 62.8016 12.9449 62.8016 13.3548C62.8016 13.7682 62.7313 14.1265 62.5907 14.4297C62.4501 14.7312 62.2553 14.965 62.0062 15.131C61.7572 15.2954 61.4701 15.3775 61.1448 15.3775C60.8941 15.3775 60.6933 15.336 60.5426 15.253C60.3918 15.1683 60.2758 15.0726 60.1944 14.9659C60.1131 14.8574 60.0505 14.7677 60.0064 14.6965H59.9353V15.2962H59.3559ZM59.9454 13.3447C59.9454 13.6394 59.9886 13.8995 60.075 14.1248C60.1614 14.3484 60.2876 14.5237 60.4536 14.6508C60.6197 14.7761 60.8229 14.8388 61.0635 14.8388C61.3142 14.8388 61.5234 14.7727 61.6911 14.6406C61.8605 14.5068 61.9876 14.3272 62.0723 14.1019C62.1587 13.8749 62.2019 13.6225 62.2019 13.3447C62.2019 13.0702 62.1595 12.8229 62.0748 12.6027C61.9918 12.3807 61.8656 12.2054 61.6962 12.0767C61.5285 11.9462 61.3176 11.881 61.0635 11.881C60.8196 11.881 60.6146 11.9428 60.4486 12.0665C60.2825 12.1885 60.1572 12.3596 60.0725 12.5798C59.9878 12.7983 59.9454 13.0533 59.9454 13.3447Z" fill="white"/>
<path d="M64.3186 10.0921V15.2962H63.7189V10.0921H64.3186Z" fill="white"/>
<path d="M67.0534 15.3775C66.6774 15.3775 66.353 15.2945 66.0802 15.1285C65.8092 14.9608 65.6 14.727 65.4526 14.4271C65.3069 14.1256 65.234 13.7749 65.234 13.3751C65.234 12.9753 65.3069 12.623 65.4526 12.3181C65.6 12.0114 65.8049 11.7726 66.0675 11.6015C66.3318 11.4287 66.6401 11.3423 66.9925 11.3423C67.1957 11.3423 67.3965 11.3762 67.5947 11.4439C67.7929 11.5117 67.9733 11.6218 68.1359 11.7743C68.2986 11.925 68.4282 12.1249 68.5247 12.374C68.6213 12.623 68.6696 12.9296 68.6696 13.2938V13.5479H65.6609V13.0296H68.0597C68.0597 12.8093 68.0157 12.6128 67.9276 12.44C67.8412 12.2672 67.7175 12.1309 67.5566 12.0309C67.3973 11.931 67.2093 11.881 66.9925 11.881C66.7536 11.881 66.5469 11.9403 66.3724 12.0589C66.1996 12.1758 66.0667 12.3282 65.9735 12.5163C65.8803 12.7043 65.8337 12.9059 65.8337 13.121V13.4666C65.8337 13.7614 65.8846 14.0113 65.9862 14.2162C66.0895 14.4195 66.2327 14.5745 66.4156 14.6813C66.5986 14.7863 66.8112 14.8388 67.0534 14.8388C67.211 14.8388 67.3533 14.8168 67.4803 14.7727C67.6091 14.727 67.7201 14.6592 67.8132 14.5695C67.9064 14.478 67.9784 14.3645 68.0292 14.2289L68.6086 14.3916C68.5476 14.5881 68.4451 14.7609 68.3011 14.91C68.1571 15.0573 67.9792 15.1725 67.7675 15.2555C67.5557 15.3369 67.3177 15.3775 67.0534 15.3775Z" fill="white"/>
<path d="M73.18 15.3775C72.8276 15.3775 72.5185 15.2937 72.2525 15.1259C71.9882 14.9582 71.7815 14.7236 71.6325 14.4221C71.4851 14.1205 71.4114 13.7682 71.4114 13.365C71.4114 12.9584 71.4851 12.6035 71.6325 12.3003C71.7815 11.997 71.9882 11.7616 72.2525 11.5938C72.5185 11.4261 72.8276 11.3423 73.18 11.3423C73.5323 11.3423 73.8407 11.4261 74.1049 11.5938C74.3709 11.7616 74.5776 11.997 74.725 12.3003C74.874 12.6035 74.9486 12.9584 74.9486 13.365C74.9486 13.7682 74.874 14.1205 74.725 14.4221C74.5776 14.7236 74.3709 14.9582 74.1049 15.1259C73.8407 15.2937 73.5323 15.3775 73.18 15.3775ZM73.18 14.8388C73.4476 14.8388 73.6679 14.7702 73.8407 14.633C74.0135 14.4958 74.1414 14.3153 74.2244 14.0917C74.3074 13.8681 74.3489 13.6259 74.3489 13.365C74.3489 13.1041 74.3074 12.861 74.2244 12.6357C74.1414 12.4104 74.0135 12.2283 73.8407 12.0894C73.6679 11.9504 73.4476 11.881 73.18 11.881C72.9123 11.881 72.6921 11.9504 72.5193 12.0894C72.3465 12.2283 72.2186 12.4104 72.1356 12.6357C72.0526 12.861 72.0111 13.1041 72.0111 13.365C72.0111 13.6259 72.0526 13.8681 72.1356 14.0917C72.2186 14.3153 72.3465 14.4958 72.5193 14.633C72.6921 14.7702 72.9123 14.8388 73.18 14.8388Z" fill="white"/>
<path d="M76.4637 12.9482V15.2962H75.864V11.3931H76.4434V12.003H76.4942C76.5857 11.8048 76.7246 11.6455 76.9109 11.5252C77.0973 11.4033 77.3378 11.3423 77.6326 11.3423C77.8969 11.3423 78.1281 11.3965 78.3263 11.5049C78.5245 11.6116 78.6787 11.7743 78.7888 11.9928C78.8989 12.2096 78.9539 12.4841 78.9539 12.8161V15.2962H78.3543V12.8568C78.3543 12.5501 78.2746 12.3113 78.1154 12.1402C77.9562 11.9674 77.7376 11.881 77.4598 11.881C77.2684 11.881 77.0973 11.9225 76.9465 12.0055C76.7974 12.0885 76.6797 12.2096 76.5933 12.3689C76.5069 12.5281 76.4637 12.7212 76.4637 12.9482Z" fill="white"/>
<path d="M83.7598 11.3931V11.9013H81.7371V11.3931H83.7598ZM82.3266 10.458H82.9263V14.1781C82.9263 14.3475 82.9509 14.4746 83 14.5593C83.0508 14.6423 83.1152 14.6982 83.1931 14.727C83.2727 14.7541 83.3566 14.7677 83.4447 14.7677C83.5107 14.7677 83.5649 14.7643 83.6073 14.7575C83.6496 14.749 83.6835 14.7422 83.7089 14.7372L83.8309 15.2759C83.7903 15.2911 83.7335 15.3064 83.6607 15.3216C83.5878 15.3385 83.4955 15.347 83.3837 15.347C83.2143 15.347 83.0483 15.3106 82.8856 15.2378C82.7247 15.1649 82.5909 15.0539 82.4841 14.9049C82.3791 14.7558 82.3266 14.5678 82.3266 14.3408V10.458Z" fill="white"/>
<path d="M85.3454 12.9482V15.2962H84.7457V10.0921H85.3454V12.003H85.3962C85.4877 11.8014 85.6249 11.6413 85.8079 11.5227C85.9925 11.4024 86.2382 11.3423 86.5448 11.3423C86.8107 11.3423 87.0437 11.3956 87.2436 11.5024C87.4435 11.6074 87.5985 11.7692 87.7086 11.9877C87.8204 12.2046 87.8763 12.4807 87.8763 12.8161V15.2962H87.2766V12.8568C87.2766 12.5468 87.1961 12.307 87.0352 12.1376C86.876 11.9665 86.6549 11.881 86.372 11.881C86.1755 11.881 85.9993 11.9225 85.8434 12.0055C85.6893 12.0885 85.5673 12.2096 85.4775 12.3689C85.3894 12.5281 85.3454 12.7212 85.3454 12.9482Z" fill="white"/>
<path d="M90.6099 15.3775C90.2338 15.3775 89.9094 15.2945 89.6366 15.1285C89.3656 14.9608 89.1564 14.727 89.009 14.4271C88.8633 14.1256 88.7905 13.7749 88.7905 13.3751C88.7905 12.9753 88.8633 12.623 89.009 12.3181C89.1564 12.0114 89.3614 11.7726 89.6239 11.6015C89.8882 11.4287 90.1965 11.3423 90.5489 11.3423C90.7522 11.3423 90.9529 11.3762 91.1511 11.4439C91.3493 11.5117 91.5297 11.6218 91.6924 11.7743C91.855 11.925 91.9846 12.1249 92.0812 12.374C92.1777 12.623 92.226 12.9296 92.226 13.2938V13.5479H89.2174V13.0296H91.6161C91.6161 12.8093 91.5721 12.6128 91.484 12.44C91.3976 12.2672 91.2739 12.1309 91.113 12.0309C90.9538 11.931 90.7657 11.881 90.5489 11.881C90.31 11.881 90.1033 11.9403 89.9289 12.0589C89.7561 12.1758 89.6231 12.3282 89.5299 12.5163C89.4367 12.7043 89.3902 12.9059 89.3902 13.121V13.4666C89.3902 13.7614 89.441 14.0113 89.5426 14.2162C89.646 14.4195 89.7891 14.5745 89.9721 14.6813C90.155 14.7863 90.3676 14.8388 90.6099 14.8388C90.7674 14.8388 90.9097 14.8168 91.0368 14.7727C91.1655 14.727 91.2765 14.6592 91.3697 14.5695C91.4628 14.478 91.5348 14.3645 91.5856 14.2289L92.165 14.3916C92.104 14.5881 92.0015 14.7609 91.8575 14.91C91.7135 15.0573 91.5357 15.1725 91.3239 15.2555C91.1122 15.3369 90.8741 15.3775 90.6099 15.3775Z" fill="white"/>
<path d="M45.054 23.3532C44.9904 23.1474 44.9028 22.9631 44.791 22.8005C44.6817 22.6353 44.5496 22.4943 44.3946 22.3774C44.2421 22.2605 44.0668 22.1729 43.8685 22.1144C43.6703 22.0534 43.4544 22.0229 43.2206 22.0229C42.8013 22.0229 42.4278 22.1284 42.1 22.3393C41.7722 22.5502 41.5142 22.8602 41.3262 23.2693C41.1407 23.6759 41.048 24.1714 41.048 24.7559C41.048 25.3454 41.1407 25.8447 41.3262 26.2538C41.5117 26.6629 41.7696 26.9742 42.1 27.1877C42.4303 27.3986 42.814 27.504 43.2511 27.504C43.6475 27.504 43.9905 27.4278 44.2802 27.2753C44.5724 27.1229 44.7973 26.9069 44.9549 26.6274C45.1124 26.3453 45.1912 26.015 45.1912 25.6363L45.5114 25.6859H43.3921V24.5805H46.5595V25.5182C46.5595 26.1865 46.4172 26.7646 46.1326 27.2525C45.848 27.7404 45.4567 28.1164 44.9587 28.3807C44.4606 28.6424 43.8889 28.7733 43.2434 28.7733C42.5243 28.7733 41.8929 28.6119 41.3491 28.2892C40.8078 27.964 40.3847 27.5028 40.0798 26.9056C39.7774 26.3059 39.6262 25.5944 39.6262 24.7711C39.6262 24.1409 39.7152 23.5781 39.893 23.0826C40.0735 22.587 40.325 22.1665 40.6477 21.8209C40.9705 21.4728 41.3491 21.2085 41.7836 21.0281C42.2181 20.8451 42.6908 20.7537 43.2015 20.7537C43.6335 20.7537 44.0363 20.8172 44.4098 20.9442C44.7833 21.0688 45.1149 21.2466 45.4046 21.4779C45.6969 21.7091 45.937 21.9835 46.125 22.3012C46.3131 22.6188 46.4363 22.9695 46.4948 23.3532H45.054Z" fill="white"/>
<path d="M50.4198 28.7809C49.848 28.7809 49.3525 28.6551 48.9332 28.4036C48.514 28.152 48.1887 27.8001 47.9575 27.3478C47.7288 26.8954 47.6144 26.3669 47.6144 25.7621C47.6144 25.1573 47.7288 24.6275 47.9575 24.1727C48.1887 23.7178 48.514 23.3646 48.9332 23.1131C49.3525 22.8615 49.848 22.7357 50.4198 22.7357C50.9915 22.7357 51.487 22.8615 51.9063 23.1131C52.3256 23.3646 52.6496 23.7178 52.8783 24.1727C53.1095 24.6275 53.2251 25.1573 53.2251 25.7621C53.2251 26.3669 53.1095 26.8954 52.8783 27.3478C52.6496 27.8001 52.3256 28.152 51.9063 28.4036C51.487 28.6551 50.9915 28.7809 50.4198 28.7809ZM50.4274 27.6756C50.7374 27.6756 50.9966 27.5904 51.205 27.4202C51.4133 27.2474 51.5683 27.0161 51.67 26.7265C51.7742 26.4368 51.8263 26.1141 51.8263 25.7583C51.8263 25.4 51.7742 25.076 51.67 24.7864C51.5683 24.4941 51.4133 24.2616 51.205 24.0888C50.9966 23.916 50.7374 23.8296 50.4274 23.8296C50.1098 23.8296 49.8455 23.916 49.6346 24.0888C49.4262 24.2616 49.2699 24.4941 49.1657 24.7864C49.0641 25.076 49.0133 25.4 49.0133 25.7583C49.0133 26.1141 49.0641 26.4368 49.1657 26.7265C49.2699 27.0161 49.4262 27.2474 49.6346 27.4202C49.8455 27.5904 50.1098 27.6756 50.4274 27.6756Z" fill="white"/>
<path d="M56.95 28.7809C56.3783 28.7809 55.8828 28.6551 55.4635 28.4036C55.0442 28.152 54.7189 27.8001 54.4877 27.3478C54.259 26.8954 54.1447 26.3669 54.1447 25.7621C54.1447 25.1573 54.259 24.6275 54.4877 24.1727C54.7189 23.7178 55.0442 23.3646 55.4635 23.1131C55.8828 22.8615 56.3783 22.7357 56.95 22.7357C57.5218 22.7357 58.0173 22.8615 58.4365 23.1131C58.8558 23.3646 59.1798 23.7178 59.4085 24.1727C59.6397 24.6275 59.7554 25.1573 59.7554 25.7621C59.7554 26.3669 59.6397 26.8954 59.4085 27.3478C59.1798 27.8001 58.8558 28.152 58.4365 28.4036C58.0173 28.6551 57.5218 28.7809 56.95 28.7809ZM56.9576 27.6756C57.2676 27.6756 57.5268 27.5904 57.7352 27.4202C57.9436 27.2474 58.0986 27.0161 58.2002 26.7265C58.3044 26.4368 58.3565 26.1141 58.3565 25.7583C58.3565 25.4 58.3044 25.076 58.2002 24.7864C58.0986 24.4941 57.9436 24.2616 57.7352 24.0888C57.5268 23.916 57.2676 23.8296 56.9576 23.8296C56.64 23.8296 56.3757 23.916 56.1648 24.0888C55.9565 24.2616 55.8002 24.4941 55.696 24.7864C55.5943 25.076 55.5435 25.4 55.5435 25.7583C55.5435 26.1141 55.5943 26.4368 55.696 26.7265C55.8002 27.0161 55.9565 27.2474 56.1648 27.4202C56.3757 27.5904 56.64 27.6756 56.9576 27.6756Z" fill="white"/>
<path d="M63.4726 30.984C62.9771 30.984 62.5515 30.9167 62.1957 30.782C61.84 30.6499 61.5541 30.472 61.3381 30.2484C61.1221 30.0248 60.9722 29.777 60.8884 29.5051L62.131 29.204C62.1869 29.3184 62.2682 29.4314 62.3749 29.5432C62.4816 29.6576 62.6252 29.7516 62.8056 29.8253C62.9886 29.9015 63.2185 29.9397 63.4955 29.9397C63.8868 29.9397 64.2108 29.8444 64.4675 29.6538C64.7241 29.4657 64.8524 29.1557 64.8524 28.7238V27.6146H64.7838C64.7127 27.7569 64.6085 27.903 64.4713 28.0529C64.3366 28.2028 64.1575 28.3286 63.9338 28.4303C63.7128 28.5319 63.4345 28.5827 63.0991 28.5827C62.6493 28.5827 62.2415 28.4773 61.8756 28.2664C61.5122 28.0529 61.2225 27.7353 61.0065 27.3135C60.7931 26.8891 60.6863 26.358 60.6863 25.7202C60.6863 25.0773 60.7931 24.5348 61.0065 24.0926C61.2225 23.6479 61.5135 23.3113 61.8794 23.0826C62.2453 22.8513 62.6531 22.7357 63.1029 22.7357C63.446 22.7357 63.728 22.7941 63.9491 22.911C64.1727 23.0254 64.3506 23.1639 64.4827 23.3265C64.6149 23.4866 64.7152 23.6378 64.7838 23.7801H64.8601V22.8119H66.2208V28.7619C66.2208 29.2625 66.1014 29.6767 65.8625 30.0045C65.6237 30.3323 65.2971 30.5775 64.8829 30.7401C64.4687 30.9027 63.9986 30.984 63.4726 30.984ZM63.4841 27.5002C63.7763 27.5002 64.0253 27.4291 64.2312 27.2868C64.437 27.1445 64.5933 26.9399 64.7 26.6731C64.8067 26.4063 64.8601 26.0861 64.8601 25.7126C64.8601 25.3441 64.8067 25.0214 64.7 24.7444C64.5958 24.4674 64.4408 24.2527 64.235 24.1003C64.0317 23.9453 63.7814 23.8678 63.4841 23.8678C63.1766 23.8678 62.92 23.9478 62.7141 24.1079C62.5083 24.268 62.3533 24.4878 62.2491 24.7673C62.1449 25.0443 62.0928 25.3594 62.0928 25.7126C62.0928 26.0709 62.1449 26.3847 62.2491 26.654C62.3558 26.9209 62.5121 27.1292 62.7179 27.2791C62.9263 27.4265 63.1817 27.5002 63.4841 27.5002Z" fill="white"/>
<path d="M69.0147 20.8604V28.6666H67.6349V20.8604H69.0147Z" fill="white"/>
<path d="M73.0255 28.7809C72.4385 28.7809 71.9316 28.659 71.5047 28.415C71.0803 28.1685 70.7538 27.8204 70.5251 27.3706C70.2964 26.9183 70.182 26.386 70.182 25.7736C70.182 25.1713 70.2964 24.6428 70.5251 24.1879C70.7563 23.7305 71.079 23.3748 71.4932 23.1207C71.9074 22.864 72.394 22.7357 72.9531 22.7357C73.3139 22.7357 73.6544 22.7941 73.9746 22.911C74.2973 23.0254 74.5819 23.2033 74.8284 23.4447C75.0774 23.6861 75.2731 23.9935 75.4154 24.3671C75.5577 24.7381 75.6288 25.1802 75.6288 25.6935V26.1166H70.83V25.1866H74.3062C74.3037 24.9223 74.2465 24.6872 74.1347 24.4814C74.0229 24.2731 73.8666 24.1092 73.6659 23.9897C73.4676 23.8703 73.2364 23.8106 72.9721 23.8106C72.6901 23.8106 72.4423 23.8792 72.2289 24.0164C72.0154 24.1511 71.849 24.329 71.7296 24.55C71.6127 24.7686 71.5529 25.0087 71.5504 25.2704V26.0823C71.5504 26.4228 71.6127 26.715 71.7372 26.959C71.8617 27.2004 72.0358 27.3859 72.2594 27.5155C72.483 27.6425 72.7447 27.706 73.0446 27.706C73.2453 27.706 73.427 27.6781 73.5896 27.6222C73.7522 27.5637 73.8933 27.4786 74.0127 27.3668C74.1321 27.255 74.2223 27.1165 74.2833 26.9513L75.5717 27.0962C75.4903 27.4367 75.3353 27.734 75.1066 27.9881C74.8805 28.2397 74.5908 28.4353 74.2376 28.5751C73.8844 28.7123 73.4804 28.7809 73.0255 28.7809Z" fill="white"/>
<path d="M79.5195 28.6666V20.8604H82.4469C83.0466 20.8604 83.5497 20.9722 83.9563 21.1958C84.3654 21.4194 84.6741 21.7269 84.8825 22.1182C85.0934 22.507 85.1988 22.9492 85.1988 23.4447C85.1988 23.9453 85.0934 24.3899 84.8825 24.7787C84.6716 25.1675 84.3603 25.4737 83.9486 25.6973C83.537 25.9184 83.03 26.0289 82.4278 26.0289H80.4877V24.8664H82.2372C82.5879 24.8664 82.875 24.8054 83.0986 24.6834C83.3223 24.5615 83.4874 24.3938 83.5942 24.1803C83.7034 23.9669 83.7581 23.7216 83.7581 23.4447C83.7581 23.1677 83.7034 22.9237 83.5942 22.7128C83.4874 22.5019 83.321 22.338 83.0948 22.2211C82.8712 22.1017 82.5828 22.042 82.2296 22.042H80.9337V28.6666H79.5195Z" fill="white"/>
<path d="M87.746 20.8604V28.6666H86.3662V20.8604H87.746Z" fill="white"/>
<path d="M90.8496 28.7847C90.4786 28.7847 90.1444 28.7187 89.8471 28.5865C89.5523 28.4519 89.3186 28.2537 89.1458 27.9919C88.9755 27.7302 88.8904 27.4075 88.8904 27.0238C88.8904 26.6934 88.9514 26.4203 89.0734 26.2043C89.1953 25.9883 89.3618 25.8155 89.5727 25.6859C89.7836 25.5563 90.0212 25.4585 90.2854 25.3924C90.5523 25.3238 90.828 25.2742 91.1126 25.2437C91.4556 25.2082 91.7339 25.1764 91.9473 25.1485C92.1608 25.118 92.3158 25.0722 92.4123 25.0112C92.5114 24.9477 92.561 24.8499 92.561 24.7177V24.6949C92.561 24.4077 92.4759 24.1854 92.3056 24.0278C92.1353 23.8703 91.8901 23.7915 91.57 23.7915C91.232 23.7915 90.9639 23.8652 90.7657 24.0126C90.57 24.16 90.4379 24.334 90.3693 24.5348L89.081 24.3518C89.1826 23.9961 89.3503 23.6988 89.5841 23.4599C89.8179 23.2185 90.1038 23.0381 90.4417 22.9187C90.7797 22.7967 91.1532 22.7357 91.5623 22.7357C91.8444 22.7357 92.1252 22.7687 92.4047 22.8348C92.6842 22.9009 92.9396 23.0101 93.1708 23.1626C93.4021 23.3125 93.5876 23.5171 93.7273 23.7763C93.8696 24.0355 93.9408 24.3595 93.9408 24.7482V28.6666H92.6143V27.8623H92.5686C92.4847 28.025 92.3666 28.1774 92.2141 28.3197C92.0642 28.4595 91.8749 28.5726 91.6462 28.659C91.42 28.7428 91.1545 28.7847 90.8496 28.7847ZM91.2079 27.7708C91.4848 27.7708 91.725 27.7162 91.9283 27.6069C92.1315 27.4951 92.2878 27.3478 92.3971 27.1648C92.5089 26.9818 92.5648 26.7824 92.5648 26.5664V25.8765C92.5216 25.912 92.4479 25.9451 92.3437 25.9756C92.2421 26.0061 92.1277 26.0327 92.0007 26.0556C91.8736 26.0785 91.7478 26.0988 91.6233 26.1166C91.4988 26.1344 91.3908 26.1496 91.2993 26.1623C91.0935 26.1903 90.9093 26.236 90.7467 26.2996C90.584 26.3631 90.4557 26.452 90.3617 26.5664C90.2677 26.6782 90.2206 26.823 90.2206 27.0009C90.2206 27.255 90.3134 27.4469 90.4989 27.5765C90.6844 27.706 90.9207 27.7708 91.2079 27.7708Z" fill="white"/>
<path d="M95.9762 30.8621C95.7882 30.8621 95.6141 30.8468 95.454 30.8163C95.2965 30.7884 95.1707 30.7553 95.0766 30.7172L95.3968 29.6424C95.5976 29.7008 95.7767 29.7287 95.9343 29.7262C96.0918 29.7237 96.2303 29.6741 96.3497 29.5776C96.4717 29.4835 96.5746 29.326 96.6585 29.1049L96.7766 28.7885L94.6536 22.8119H96.1172L97.4665 27.2334H97.5275L98.8806 22.8119H100.348L98.004 29.3755C97.8947 29.6855 97.7499 29.9511 97.5694 30.1722C97.389 30.3958 97.168 30.566 96.9062 30.6829C96.647 30.8024 96.337 30.8621 95.9762 30.8621Z" fill="white"/>
<defs>
<radialGradient id="paint0_radial_1085_116212" cx="0" cy="0" r="1" gradientUnits="userSpaceOnUse" gradientTransform="translate(56.5 20) rotate(76.9341) scale(39.2208 105.846)">
<stop stop-color="#C1C1C1"/>
<stop offset="1" stop-color="#EDEDED"/>
</radialGradient>
</defs>
</svg>
