<svg width="40" height="41" viewBox="0 0 40 41" fill="none" xmlns="http://www.w3.org/2000/svg">
<rect x="39.998" y="40.623" width="40" height="40.0333" rx="8" transform="rotate(-180 39.998 40.623)" fill="#F3F4F5"/>
<path fill-rule="evenodd" clip-rule="evenodd" d="M20.4554 21.9908H21.866C22.2003 21.9908 22.4775 21.7266 22.4775 21.3983C22.4775 21.062 22.2003 20.7978 21.866 20.7978H20.4554V19.4126C20.4554 19.0843 20.1864 18.8201 19.8521 18.8201C19.5177 18.8201 19.2405 19.0843 19.2405 19.4126V20.7978H17.8381C17.5038 20.7978 17.2266 21.062 17.2266 21.3983C17.2266 21.7266 17.5038 21.9908 17.8381 21.9908H19.2405V23.376C19.2405 23.7043 19.5177 23.9685 19.8521 23.9685C20.1864 23.9685 20.4554 23.7043 20.4554 23.376V21.9908ZM26.0431 18.2253C26.2348 18.2231 26.4435 18.2208 26.6331 18.2208C26.8369 18.2208 27 18.3809 27 18.5811V25.0184C27 27.0041 25.3611 28.6134 23.3308 28.6134H16.8486C14.7286 28.6134 13 26.924 13 24.8423V16.2111C13 14.2254 14.6471 12.6001 16.6773 12.6001H21.0315C21.2434 12.6001 21.4065 12.7682 21.4065 12.9684V15.5465C21.4065 17.0118 22.6377 18.2128 24.1299 18.2208C24.4784 18.2208 24.7857 18.2233 25.0546 18.2255C25.2638 18.2272 25.4497 18.2288 25.6139 18.2288C25.7299 18.2288 25.8804 18.2271 26.0431 18.2253ZM26.267 17.0567C25.5968 17.0591 24.8067 17.0567 24.2384 17.0511C23.3366 17.0511 22.5938 16.3217 22.5938 15.4362V13.3257C22.5938 12.9806 23.0202 12.8092 23.264 13.0582C23.7047 13.5082 24.3101 14.1265 24.9129 14.7422C25.5158 15.3579 26.1162 15.971 26.5467 16.4106C26.7848 16.6532 26.6103 17.0559 26.267 17.0567Z" fill="#B3B4B5"/>
</svg>
