<svg width="409" height="229" viewBox="0 0 409 229" fill="none" xmlns="http://www.w3.org/2000/svg">
<path d="M0 32C0 14.3269 14.3269 0 32 0H409V229H32C14.3269 229 0 214.673 0 197V32Z" fill="#F7F7F7"/>
<mask id="mask0_1011_8965" style="mask-type:alpha" maskUnits="userSpaceOnUse" x="0" y="0" width="409" height="229">
<path d="M0 32C0 14.3269 14.3269 0 32 0H409V229H32C14.3269 229 0 214.673 0 197V32Z" fill="url(#paint0_radial_1011_8965)"/>
</mask>
<g mask="url(#mask0_1011_8965)">
<rect x="153" y="227.012" width="178.208" height="178.208" rx="32" transform="rotate(-45 153 227.012)" fill="url(#paint1_radial_1011_8965)" fill-opacity="0.3"/>
<rect x="-210" y="-4.84375" width="339.632" height="339.632" rx="32" transform="rotate(-45 -210 -4.84375)" fill="url(#paint2_radial_1011_8965)" fill-opacity="0.3"/>
<g opacity="0.5">
<rect width="11.3394" height="11.3394" rx="0.788513" transform="matrix(0.707101 -0.707112 0.707101 0.707112 173 24.2036)" fill="url(#paint3_radial_1011_8965)" fill-opacity="0.6"/>
<rect width="11.3394" height="11.3394" rx="0.788513" transform="matrix(0.707101 -0.707112 0.707101 0.707112 194.119 24.2036)" fill="url(#paint4_radial_1011_8965)" fill-opacity="0.6"/>
<rect width="11.3394" height="11.3394" rx="0.788513" transform="matrix(0.707101 -0.707112 0.707101 0.707112 215.234 24.2036)" fill="url(#paint5_radial_1011_8965)" fill-opacity="0.6"/>
<rect width="11.3394" height="11.3394" rx="0.788513" transform="matrix(0.707101 -0.707112 0.707101 0.707112 236.352 24.2036)" fill="url(#paint6_radial_1011_8965)" fill-opacity="0.6"/>
<rect width="11.3394" height="11.3394" rx="0.788513" transform="matrix(0.707101 -0.707112 0.707101 0.707112 257.473 24.2036)" fill="url(#paint7_radial_1011_8965)" fill-opacity="0.6"/>
<rect width="11.3394" height="11.3394" rx="0.788513" transform="matrix(0.707101 -0.707112 0.707101 0.707112 278.588 24.2036)" fill="url(#paint8_radial_1011_8965)" fill-opacity="0.6"/>
<rect width="11.3394" height="11.3394" rx="0.788513" transform="matrix(0.707101 -0.707112 0.707101 0.707112 299.706 24.2036)" fill="url(#paint9_radial_1011_8965)" fill-opacity="0.6"/>
<rect width="11.3394" height="11.3394" rx="0.788513" transform="matrix(0.707101 -0.707112 0.707101 0.707112 320.823 24.2036)" fill="url(#paint10_radial_1011_8965)" fill-opacity="0.6"/>
</g>
<g opacity="0.5">
<rect width="11.3394" height="11.3394" rx="0.788513" transform="matrix(0.707101 -0.707112 0.707101 0.707112 173 67.3889)" fill="url(#paint11_radial_1011_8965)" fill-opacity="0.6"/>
<rect width="11.3394" height="11.3394" rx="0.788513" transform="matrix(0.707101 -0.707112 0.707101 0.707112 194.119 67.3889)" fill="url(#paint12_radial_1011_8965)" fill-opacity="0.6"/>
<rect width="11.3394" height="11.3394" rx="0.788513" transform="matrix(0.707101 -0.707112 0.707101 0.707112 215.234 67.3889)" fill="url(#paint13_radial_1011_8965)" fill-opacity="0.6"/>
<rect width="11.3394" height="11.3394" rx="0.788513" transform="matrix(0.707101 -0.707112 0.707101 0.707112 236.352 67.3889)" fill="url(#paint14_radial_1011_8965)" fill-opacity="0.6"/>
<rect width="11.3394" height="11.3394" rx="0.788513" transform="matrix(0.707101 -0.707112 0.707101 0.707112 257.473 67.3889)" fill="url(#paint15_radial_1011_8965)" fill-opacity="0.6"/>
<rect width="11.3394" height="11.3394" rx="0.788513" transform="matrix(0.707101 -0.707112 0.707101 0.707112 278.587 67.3889)" fill="url(#paint16_radial_1011_8965)" fill-opacity="0.6"/>
<rect width="11.3394" height="11.3394" rx="0.788513" transform="matrix(0.707101 -0.707112 0.707101 0.707112 299.706 67.3889)" fill="url(#paint17_radial_1011_8965)" fill-opacity="0.6"/>
<rect width="11.3394" height="11.3394" rx="0.788513" transform="matrix(0.707101 -0.707112 0.707101 0.707112 320.823 67.3889)" fill="url(#paint18_radial_1011_8965)" fill-opacity="0.6"/>
</g>
<g opacity="0.5">
<rect width="11.3394" height="11.3394" rx="0.788513" transform="matrix(0.707101 -0.707112 0.707101 0.707112 173 2.61084)" fill="url(#paint19_radial_1011_8965)" fill-opacity="0.6"/>
<rect width="11.3394" height="11.3394" rx="0.788513" transform="matrix(0.707101 -0.707112 0.707101 0.707112 194.119 2.61084)" fill="url(#paint20_radial_1011_8965)" fill-opacity="0.6"/>
<rect width="11.3394" height="11.3394" rx="0.788513" transform="matrix(0.707101 -0.707112 0.707101 0.707112 215.234 2.61084)" fill="url(#paint21_radial_1011_8965)" fill-opacity="0.6"/>
<rect width="11.3394" height="11.3394" rx="0.788513" transform="matrix(0.707101 -0.707112 0.707101 0.707112 236.352 2.61084)" fill="url(#paint22_radial_1011_8965)" fill-opacity="0.6"/>
<rect width="11.3394" height="11.3394" rx="0.788513" transform="matrix(0.707101 -0.707112 0.707101 0.707112 257.473 2.61084)" fill="url(#paint23_radial_1011_8965)" fill-opacity="0.6"/>
<rect width="11.3394" height="11.3394" rx="0.788513" transform="matrix(0.707101 -0.707112 0.707101 0.707112 278.587 2.61084)" fill="url(#paint24_radial_1011_8965)" fill-opacity="0.6"/>
<rect width="11.3394" height="11.3394" rx="0.788513" transform="matrix(0.707101 -0.707112 0.707101 0.707112 299.706 2.61084)" fill="url(#paint25_radial_1011_8965)" fill-opacity="0.6"/>
<rect width="11.3394" height="11.3394" rx="0.788513" transform="matrix(0.707101 -0.707112 0.707101 0.707112 320.823 2.61084)" fill="url(#paint26_radial_1011_8965)" fill-opacity="0.6"/>
</g>
<g opacity="0.5">
<rect width="11.3394" height="11.3394" rx="0.788513" transform="matrix(0.707105 -0.707108 0.707105 0.707108 173 45.7966)" fill="url(#paint27_radial_1011_8965)" fill-opacity="0.6"/>
<rect width="11.3394" height="11.3394" rx="0.788513" transform="matrix(0.707105 -0.707108 0.707105 0.707108 194.119 45.7966)" fill="url(#paint28_radial_1011_8965)" fill-opacity="0.6"/>
<rect width="11.3394" height="11.3394" rx="0.788513" transform="matrix(0.707105 -0.707108 0.707105 0.707108 215.234 45.7966)" fill="url(#paint29_radial_1011_8965)" fill-opacity="0.6"/>
<rect width="11.3394" height="11.3394" rx="0.788513" transform="matrix(0.707105 -0.707108 0.707105 0.707108 236.352 45.7966)" fill="url(#paint30_radial_1011_8965)" fill-opacity="0.6"/>
<rect width="11.3394" height="11.3394" rx="0.788513" transform="matrix(0.707105 -0.707108 0.707105 0.707108 257.473 45.7966)" fill="url(#paint31_radial_1011_8965)" fill-opacity="0.6"/>
<rect width="11.3394" height="11.3394" rx="0.788513" transform="matrix(0.707105 -0.707108 0.707105 0.707108 278.587 45.7966)" fill="url(#paint32_radial_1011_8965)" fill-opacity="0.6"/>
<rect width="11.3394" height="11.3394" rx="0.788513" transform="matrix(0.707105 -0.707108 0.707105 0.707108 299.706 45.7966)" fill="url(#paint33_radial_1011_8965)" fill-opacity="0.6"/>
<rect width="11.3394" height="11.3394" rx="0.788513" transform="matrix(0.707105 -0.707108 0.707105 0.707108 320.823 45.7966)" fill="url(#paint34_radial_1011_8965)" fill-opacity="0.6"/>
</g>
<g opacity="0.5">
<rect width="11.3394" height="11.3394" rx="0.788513" transform="matrix(0.707101 -0.707112 0.707101 0.707112 173 88.9819)" fill="url(#paint35_radial_1011_8965)" fill-opacity="0.6"/>
<rect width="11.3394" height="11.3394" rx="0.788513" transform="matrix(0.707101 -0.707112 0.707101 0.707112 194.119 88.9819)" fill="url(#paint36_radial_1011_8965)" fill-opacity="0.6"/>
<rect width="11.3394" height="11.3394" rx="0.788513" transform="matrix(0.707101 -0.707112 0.707101 0.707112 215.234 88.9819)" fill="url(#paint37_radial_1011_8965)" fill-opacity="0.6"/>
<rect width="11.3394" height="11.3394" rx="0.788513" transform="matrix(0.707101 -0.707112 0.707101 0.707112 236.352 88.9819)" fill="url(#paint38_radial_1011_8965)" fill-opacity="0.6"/>
<rect width="11.3394" height="11.3394" rx="0.788513" transform="matrix(0.707101 -0.707112 0.707101 0.707112 257.473 88.9819)" fill="url(#paint39_radial_1011_8965)" fill-opacity="0.6"/>
<rect width="11.3394" height="11.3394" rx="0.788513" transform="matrix(0.707101 -0.707112 0.707101 0.707112 278.588 88.9819)" fill="url(#paint40_radial_1011_8965)" fill-opacity="0.6"/>
<rect width="11.3394" height="11.3394" rx="0.788513" transform="matrix(0.707101 -0.707112 0.707101 0.707112 299.706 88.9819)" fill="url(#paint41_radial_1011_8965)" fill-opacity="0.6"/>
<rect width="11.3394" height="11.3394" rx="0.788513" transform="matrix(0.707101 -0.707112 0.707101 0.707112 320.823 88.9819)" fill="url(#paint42_radial_1011_8965)" fill-opacity="0.6"/>
</g>
</g>
<path d="M66.4327 179.336C64.7687 179.336 63.3687 178.968 62.2327 178.232C61.0967 177.48 60.2967 176.464 59.8327 175.184L62.6647 173.528C63.3207 175.24 64.6087 176.096 66.5287 176.096C67.4567 176.096 68.1367 175.928 68.5687 175.592C69.0007 175.256 69.2167 174.832 69.2167 174.32C69.2167 173.728 68.9527 173.272 68.4247 172.952C67.8967 172.616 66.9527 172.256 65.5927 171.872C64.8407 171.648 64.2007 171.424 63.6727 171.2C63.1607 170.976 62.6407 170.68 62.1127 170.312C61.6007 169.928 61.2087 169.448 60.9367 168.872C60.6647 168.296 60.5287 167.624 60.5287 166.856C60.5287 165.336 61.0647 164.128 62.1367 163.232C63.2247 162.32 64.5287 161.864 66.0487 161.864C67.4087 161.864 68.6007 162.2 69.6247 162.872C70.6647 163.528 71.4727 164.448 72.0487 165.632L69.2647 167.24C68.5927 165.8 67.5207 165.08 66.0487 165.08C65.3607 165.08 64.8167 165.24 64.4167 165.56C64.0327 165.864 63.8407 166.264 63.8407 166.76C63.8407 167.288 64.0567 167.72 64.4887 168.056C64.9367 168.376 65.7847 168.728 67.0327 169.112C67.5447 169.272 67.9287 169.4 68.1847 169.496C68.4567 169.576 68.8167 169.712 69.2647 169.904C69.7287 170.08 70.0807 170.248 70.3207 170.408C70.5767 170.568 70.8647 170.784 71.1847 171.056C71.5047 171.328 71.7447 171.608 71.9047 171.896C72.0807 172.184 72.2247 172.536 72.3367 172.952C72.4647 173.352 72.5287 173.792 72.5287 174.272C72.5287 175.824 71.9607 177.056 70.8247 177.968C69.7047 178.88 68.2407 179.336 66.4327 179.336ZM81.2169 166.664C82.5289 166.664 83.6089 167.104 84.4569 167.984C85.3209 168.864 85.7529 170.08 85.7529 171.632V179H82.6569V172.016C82.6569 171.216 82.4409 170.608 82.0089 170.192C81.5769 169.76 81.0009 169.544 80.2809 169.544C79.4809 169.544 78.8409 169.792 78.3609 170.288C77.8809 170.784 77.6409 171.528 77.6409 172.52V179H74.5449V162.2H77.6409V168.344C78.3929 167.224 79.5849 166.664 81.2169 166.664ZM97.5165 167H100.612V179H97.5165V177.584C96.5885 178.752 95.2845 179.336 93.6045 179.336C92.0045 179.336 90.6285 178.728 89.4765 177.512C88.3405 176.28 87.7725 174.776 87.7725 173C87.7725 171.224 88.3405 169.728 89.4765 168.512C90.6285 167.28 92.0045 166.664 93.6045 166.664C95.2845 166.664 96.5885 167.248 97.5165 168.416V167ZM91.8045 175.448C92.4285 176.072 93.2205 176.384 94.1805 176.384C95.1405 176.384 95.9325 176.072 96.5565 175.448C97.1965 174.808 97.5165 173.992 97.5165 173C97.5165 172.008 97.1965 171.2 96.5565 170.576C95.9325 169.936 95.1405 169.616 94.1805 169.616C93.2205 169.616 92.4285 169.936 91.8045 170.576C91.1805 171.2 90.8685 172.008 90.8685 173C90.8685 173.992 91.1805 174.808 91.8045 175.448ZM106.516 169.064C106.804 168.296 107.276 167.72 107.932 167.336C108.604 166.952 109.348 166.76 110.164 166.76V170.216C109.22 170.104 108.372 170.296 107.62 170.792C106.884 171.288 106.516 172.112 106.516 173.264V179H103.42V167H106.516V169.064ZM114.145 174.272C114.561 175.776 115.689 176.528 117.529 176.528C118.713 176.528 119.609 176.128 120.217 175.328L122.713 176.768C121.529 178.48 119.785 179.336 117.481 179.336C115.497 179.336 113.905 178.736 112.705 177.536C111.505 176.336 110.905 174.824 110.905 173C110.905 171.192 111.497 169.688 112.681 168.488C113.865 167.272 115.385 166.664 117.241 166.664C119.001 166.664 120.449 167.272 121.585 168.488C122.737 169.704 123.313 171.208 123.313 173C123.313 173.4 123.273 173.824 123.193 174.272H114.145ZM114.097 171.872H120.217C120.041 171.056 119.673 170.448 119.113 170.048C118.569 169.648 117.945 169.448 117.241 169.448C116.409 169.448 115.721 169.664 115.177 170.096C114.633 170.512 114.273 171.104 114.097 171.872ZM138.459 166.664C140.075 166.664 141.451 167.28 142.587 168.512C143.739 169.728 144.315 171.224 144.315 173C144.315 174.776 143.739 176.28 142.587 177.512C141.451 178.728 140.075 179.336 138.459 179.336C136.779 179.336 135.483 178.752 134.571 177.584V183.8H131.475V167H134.571V168.416C135.483 167.248 136.779 166.664 138.459 166.664ZM135.507 175.448C136.131 176.072 136.923 176.384 137.883 176.384C138.843 176.384 139.635 176.072 140.259 175.448C140.899 174.808 141.219 173.992 141.219 173C141.219 172.008 140.899 171.2 140.259 170.576C139.635 169.936 138.843 169.616 137.883 169.616C136.923 169.616 136.131 169.936 135.507 170.576C134.883 171.2 134.571 172.008 134.571 173C134.571 173.992 134.883 174.808 135.507 175.448ZM155.618 167H158.714V179H155.618V177.584C154.69 178.752 153.386 179.336 151.706 179.336C150.106 179.336 148.73 178.728 147.578 177.512C146.442 176.28 145.874 174.776 145.874 173C145.874 171.224 146.442 169.728 147.578 168.512C148.73 167.28 150.106 166.664 151.706 166.664C153.386 166.664 154.69 167.248 155.618 168.416V167ZM149.906 175.448C150.53 176.072 151.322 176.384 152.282 176.384C153.242 176.384 154.034 176.072 154.658 175.448C155.298 174.808 155.618 173.992 155.618 173C155.618 172.008 155.298 171.2 154.658 170.576C154.034 169.936 153.242 169.616 152.282 169.616C151.322 169.616 150.53 169.936 149.906 170.576C149.282 171.2 148.97 172.008 148.97 173C148.97 173.992 149.282 174.808 149.906 175.448ZM169.345 167H172.657L168.289 179C167.665 180.728 166.833 181.976 165.793 182.744C164.769 183.528 163.489 183.88 161.953 183.8V180.92C162.785 180.936 163.441 180.76 163.921 180.392C164.417 180.024 164.809 179.432 165.097 178.616L160.177 167H163.561L166.681 175.064L169.345 167ZM187.403 166.664C188.779 166.664 189.875 167.112 190.691 168.008C191.523 168.904 191.939 170.104 191.939 171.608V179H188.843V171.824C188.843 171.104 188.667 170.544 188.315 170.144C187.963 169.744 187.467 169.544 186.827 169.544C186.123 169.544 185.571 169.776 185.171 170.24C184.787 170.704 184.595 171.376 184.595 172.256V179H181.499V171.824C181.499 171.104 181.323 170.544 180.971 170.144C180.619 169.744 180.123 169.544 179.483 169.544C178.795 169.544 178.243 169.776 177.827 170.24C177.427 170.704 177.227 171.376 177.227 172.256V179H174.131V167H177.227V168.272C177.947 167.2 179.059 166.664 180.563 166.664C182.035 166.664 183.123 167.24 183.827 168.392C184.627 167.24 185.819 166.664 187.403 166.664ZM197.184 174.272C197.6 175.776 198.728 176.528 200.568 176.528C201.752 176.528 202.648 176.128 203.256 175.328L205.752 176.768C204.568 178.48 202.824 179.336 200.52 179.336C198.536 179.336 196.944 178.736 195.744 177.536C194.544 176.336 193.944 174.824 193.944 173C193.944 171.192 194.536 169.688 195.72 168.488C196.904 167.272 198.424 166.664 200.28 166.664C202.04 166.664 203.488 167.272 204.624 168.488C205.776 169.704 206.352 171.208 206.352 173C206.352 173.4 206.312 173.824 206.232 174.272H197.184ZM197.136 171.872H203.256C203.08 171.056 202.712 170.448 202.152 170.048C201.608 169.648 200.984 169.448 200.28 169.448C199.448 169.448 198.76 169.664 198.216 170.096C197.672 170.512 197.312 171.104 197.136 171.872ZM215.186 166.664C216.498 166.664 217.578 167.104 218.426 167.984C219.29 168.864 219.722 170.08 219.722 171.632V179H216.626V172.016C216.626 171.216 216.41 170.608 215.978 170.192C215.546 169.76 214.97 169.544 214.25 169.544C213.45 169.544 212.81 169.792 212.33 170.288C211.85 170.784 211.61 171.528 211.61 172.52V179H208.514V167H211.61V168.344C212.362 167.224 213.554 166.664 215.186 166.664ZM229.229 169.976H226.517V174.968C226.517 175.384 226.621 175.688 226.829 175.88C227.037 176.072 227.341 176.184 227.741 176.216C228.141 176.232 228.637 176.224 229.229 176.192V179C227.101 179.24 225.597 179.04 224.717 178.4C223.853 177.76 223.421 176.616 223.421 174.968V169.976H221.333V167H223.421V164.576L226.517 163.64V167H229.229V169.976ZM237.6 179V161.48H240.696V179H237.6ZM245.065 165.56C244.553 165.56 244.105 165.376 243.721 165.008C243.353 164.624 243.169 164.176 243.169 163.664C243.169 163.152 243.353 162.704 243.721 162.32C244.105 161.936 244.553 161.744 245.065 161.744C245.593 161.744 246.041 161.936 246.409 162.32C246.793 162.704 246.985 163.152 246.985 163.664C246.985 164.176 246.793 164.624 246.409 165.008C246.041 165.376 245.593 165.56 245.065 165.56ZM243.529 179V167H246.625V179H243.529ZM256.131 166.664C257.443 166.664 258.523 167.104 259.371 167.984C260.235 168.864 260.667 170.08 260.667 171.632V179H257.571V172.016C257.571 171.216 257.355 170.608 256.923 170.192C256.491 169.76 255.915 169.544 255.195 169.544C254.395 169.544 253.755 169.792 253.275 170.288C252.795 170.784 252.555 171.528 252.555 172.52V179H249.459V167H252.555V168.344C253.307 167.224 254.499 166.664 256.131 166.664ZM274.375 179H270.775L266.407 173.552V179H263.311V162.2H266.407V172.28L270.535 167H274.231L269.407 172.928L274.375 179ZM277.979 170.408C277.979 170.728 278.187 170.992 278.603 171.2C279.035 171.392 279.555 171.568 280.163 171.728C280.771 171.872 281.379 172.064 281.987 172.304C282.595 172.528 283.107 172.912 283.523 173.456C283.955 174 284.171 174.68 284.171 175.496C284.171 176.728 283.707 177.68 282.779 178.352C281.867 179.008 280.723 179.336 279.347 179.336C276.883 179.336 275.203 178.384 274.307 176.48L276.995 174.968C277.347 176.008 278.131 176.528 279.347 176.528C280.451 176.528 281.003 176.184 281.003 175.496C281.003 175.176 280.787 174.92 280.355 174.728C279.939 174.52 279.427 174.336 278.819 174.176C278.211 174.016 277.603 173.816 276.995 173.576C276.387 173.336 275.867 172.96 275.435 172.448C275.019 171.92 274.811 171.264 274.811 170.48C274.811 169.296 275.243 168.368 276.107 167.696C276.987 167.008 278.075 166.664 279.371 166.664C280.347 166.664 281.235 166.888 282.035 167.336C282.835 167.768 283.467 168.392 283.931 169.208L281.291 170.648C280.907 169.832 280.267 169.424 279.371 169.424C278.971 169.424 278.635 169.512 278.363 169.688C278.107 169.864 277.979 170.104 277.979 170.408Z" fill="#212121"/>
<g filter="url(#filter0_f_1011_8965)">
<rect x="133" y="54.6487" width="90" height="93.217" rx="6.0916" fill="black" fill-opacity="0.1"/>
</g>
<rect x="121" y="44" width="96" height="96" rx="17.5493" fill="white"/>
<path d="M145.285 93.7766C145.285 88.2872 149.723 83.7812 155.284 83.5282L155.777 83.517H167.096V97.4127C167.096 98.4086 167.9 99.196 168.916 99.196C169.826 99.196 170.597 98.5343 170.719 97.657L170.736 97.4127V83.517H182.031C187.655 83.517 192.276 87.8661 192.535 93.3374L192.547 93.823V105.102C192.547 110.614 188.109 115.12 182.548 115.373L182.055 115.385H155.801C150.154 115.385 145.555 111.014 145.297 105.562L145.285 105.079V93.7766ZM160.764 77.7348C160.098 77.114 160.037 76.1358 160.564 75.45L160.74 75.2537L167.617 68.607C167.971 68.2656 168.42 68.0835 168.916 68.0835C169.295 68.0835 169.673 68.2 169.978 68.4215L170.192 68.607L177.069 75.2537C177.424 75.5951 177.613 76.0504 177.613 76.4829C177.613 76.9381 177.424 77.3934 177.069 77.7348C176.425 78.3556 175.409 78.412 174.697 77.9041L174.493 77.7348L170.736 74.0928L170.736 83.517H167.096L167.097 74.0928L163.34 77.7348C162.631 78.4177 161.473 78.4177 160.764 77.7348Z" fill="#B3B4B5"/>
<defs>
<filter id="filter0_f_1011_8965" x="102.59" y="24.2382" width="150.821" height="154.038" filterUnits="userSpaceOnUse" color-interpolation-filters="sRGB">
<feFlood flood-opacity="0" result="BackgroundImageFix"/>
<feBlend mode="normal" in="SourceGraphic" in2="BackgroundImageFix" result="shape"/>
<feGaussianBlur stdDeviation="15.2052" result="effect1_foregroundBlur_1011_8965"/>
</filter>
<radialGradient id="paint0_radial_1011_8965" cx="0" cy="0" r="1" gradientUnits="userSpaceOnUse" gradientTransform="translate(204.411 111.277) rotate(76.9564) scale(217.673 586.501)">
<stop stop-color="#FF4B51"/>
<stop offset="1" stop-color="#FE474D"/>
</radialGradient>
<radialGradient id="paint1_radial_1011_8965" cx="0" cy="0" r="1" gradientUnits="userSpaceOnUse" gradientTransform="translate(242.104 316.117) rotate(85.3036) scale(170.787)">
<stop stop-color="#D2D2D2"/>
<stop offset="1" stop-color="#FAFAFA"/>
</radialGradient>
<radialGradient id="paint2_radial_1011_8965" cx="0" cy="0" r="1" gradientUnits="userSpaceOnUse" gradientTransform="translate(-40.1839 164.972) rotate(85.3036) scale(325.487)">
<stop stop-color="#D2D2D2"/>
<stop offset="1" stop-color="#FAFAFA"/>
</radialGradient>
<radialGradient id="paint3_radial_1011_8965" cx="0" cy="0" r="1" gradientUnits="userSpaceOnUse" gradientTransform="translate(5.66972 5.66972) rotate(85.3036) scale(10.8672)">
<stop stop-color="white"/>
<stop offset="1" stop-color="#FAFAFA"/>
</radialGradient>
<radialGradient id="paint4_radial_1011_8965" cx="0" cy="0" r="1" gradientUnits="userSpaceOnUse" gradientTransform="translate(5.66972 5.66972) rotate(85.3036) scale(10.8672)">
<stop stop-color="white"/>
<stop offset="1" stop-color="#FAFAFA"/>
</radialGradient>
<radialGradient id="paint5_radial_1011_8965" cx="0" cy="0" r="1" gradientUnits="userSpaceOnUse" gradientTransform="translate(5.66972 5.66972) rotate(85.3036) scale(10.8672)">
<stop stop-color="white"/>
<stop offset="1" stop-color="#FAFAFA"/>
</radialGradient>
<radialGradient id="paint6_radial_1011_8965" cx="0" cy="0" r="1" gradientUnits="userSpaceOnUse" gradientTransform="translate(5.66972 5.66972) rotate(85.3036) scale(10.8672)">
<stop stop-color="white"/>
<stop offset="1" stop-color="#FAFAFA"/>
</radialGradient>
<radialGradient id="paint7_radial_1011_8965" cx="0" cy="0" r="1" gradientUnits="userSpaceOnUse" gradientTransform="translate(5.66972 5.66972) rotate(85.3036) scale(10.8672)">
<stop stop-color="white"/>
<stop offset="1" stop-color="#FAFAFA"/>
</radialGradient>
<radialGradient id="paint8_radial_1011_8965" cx="0" cy="0" r="1" gradientUnits="userSpaceOnUse" gradientTransform="translate(5.66972 5.66972) rotate(85.3036) scale(10.8672)">
<stop stop-color="white"/>
<stop offset="1" stop-color="#FAFAFA"/>
</radialGradient>
<radialGradient id="paint9_radial_1011_8965" cx="0" cy="0" r="1" gradientUnits="userSpaceOnUse" gradientTransform="translate(5.66972 5.66972) rotate(85.3036) scale(10.8672)">
<stop stop-color="white"/>
<stop offset="1" stop-color="#FAFAFA"/>
</radialGradient>
<radialGradient id="paint10_radial_1011_8965" cx="0" cy="0" r="1" gradientUnits="userSpaceOnUse" gradientTransform="translate(5.66972 5.66972) rotate(85.3036) scale(10.8672)">
<stop stop-color="white"/>
<stop offset="1" stop-color="#FAFAFA"/>
</radialGradient>
<radialGradient id="paint11_radial_1011_8965" cx="0" cy="0" r="1" gradientUnits="userSpaceOnUse" gradientTransform="translate(5.66972 5.66972) rotate(85.3036) scale(10.8672)">
<stop stop-color="white"/>
<stop offset="1" stop-color="#FAFAFA"/>
</radialGradient>
<radialGradient id="paint12_radial_1011_8965" cx="0" cy="0" r="1" gradientUnits="userSpaceOnUse" gradientTransform="translate(5.66972 5.66972) rotate(85.3036) scale(10.8672)">
<stop stop-color="white"/>
<stop offset="1" stop-color="#FAFAFA"/>
</radialGradient>
<radialGradient id="paint13_radial_1011_8965" cx="0" cy="0" r="1" gradientUnits="userSpaceOnUse" gradientTransform="translate(5.66972 5.66972) rotate(85.3036) scale(10.8672)">
<stop stop-color="white"/>
<stop offset="1" stop-color="#FAFAFA"/>
</radialGradient>
<radialGradient id="paint14_radial_1011_8965" cx="0" cy="0" r="1" gradientUnits="userSpaceOnUse" gradientTransform="translate(5.66972 5.66972) rotate(85.3036) scale(10.8672)">
<stop stop-color="white"/>
<stop offset="1" stop-color="#FAFAFA"/>
</radialGradient>
<radialGradient id="paint15_radial_1011_8965" cx="0" cy="0" r="1" gradientUnits="userSpaceOnUse" gradientTransform="translate(5.66972 5.66972) rotate(85.3036) scale(10.8672)">
<stop stop-color="white"/>
<stop offset="1" stop-color="#FAFAFA"/>
</radialGradient>
<radialGradient id="paint16_radial_1011_8965" cx="0" cy="0" r="1" gradientUnits="userSpaceOnUse" gradientTransform="translate(5.66972 5.66972) rotate(85.3036) scale(10.8672)">
<stop stop-color="white"/>
<stop offset="1" stop-color="#FAFAFA"/>
</radialGradient>
<radialGradient id="paint17_radial_1011_8965" cx="0" cy="0" r="1" gradientUnits="userSpaceOnUse" gradientTransform="translate(5.66972 5.66972) rotate(85.3036) scale(10.8672)">
<stop stop-color="white"/>
<stop offset="1" stop-color="#FAFAFA"/>
</radialGradient>
<radialGradient id="paint18_radial_1011_8965" cx="0" cy="0" r="1" gradientUnits="userSpaceOnUse" gradientTransform="translate(5.66972 5.66972) rotate(85.3036) scale(10.8672)">
<stop stop-color="white"/>
<stop offset="1" stop-color="#FAFAFA"/>
</radialGradient>
<radialGradient id="paint19_radial_1011_8965" cx="0" cy="0" r="1" gradientUnits="userSpaceOnUse" gradientTransform="translate(5.66972 5.66972) rotate(85.3036) scale(10.8672)">
<stop stop-color="white"/>
<stop offset="1" stop-color="#FAFAFA"/>
</radialGradient>
<radialGradient id="paint20_radial_1011_8965" cx="0" cy="0" r="1" gradientUnits="userSpaceOnUse" gradientTransform="translate(5.66972 5.66972) rotate(85.3036) scale(10.8672)">
<stop stop-color="white"/>
<stop offset="1" stop-color="#FAFAFA"/>
</radialGradient>
<radialGradient id="paint21_radial_1011_8965" cx="0" cy="0" r="1" gradientUnits="userSpaceOnUse" gradientTransform="translate(5.66972 5.66972) rotate(85.3036) scale(10.8672)">
<stop stop-color="white"/>
<stop offset="1" stop-color="#FAFAFA"/>
</radialGradient>
<radialGradient id="paint22_radial_1011_8965" cx="0" cy="0" r="1" gradientUnits="userSpaceOnUse" gradientTransform="translate(5.66972 5.66972) rotate(85.3036) scale(10.8672)">
<stop stop-color="white"/>
<stop offset="1" stop-color="#FAFAFA"/>
</radialGradient>
<radialGradient id="paint23_radial_1011_8965" cx="0" cy="0" r="1" gradientUnits="userSpaceOnUse" gradientTransform="translate(5.66972 5.66972) rotate(85.3036) scale(10.8672)">
<stop stop-color="white"/>
<stop offset="1" stop-color="#FAFAFA"/>
</radialGradient>
<radialGradient id="paint24_radial_1011_8965" cx="0" cy="0" r="1" gradientUnits="userSpaceOnUse" gradientTransform="translate(5.66972 5.66972) rotate(85.3036) scale(10.8672)">
<stop stop-color="white"/>
<stop offset="1" stop-color="#FAFAFA"/>
</radialGradient>
<radialGradient id="paint25_radial_1011_8965" cx="0" cy="0" r="1" gradientUnits="userSpaceOnUse" gradientTransform="translate(5.66972 5.66972) rotate(85.3036) scale(10.8672)">
<stop stop-color="white"/>
<stop offset="1" stop-color="#FAFAFA"/>
</radialGradient>
<radialGradient id="paint26_radial_1011_8965" cx="0" cy="0" r="1" gradientUnits="userSpaceOnUse" gradientTransform="translate(5.66972 5.66972) rotate(85.3036) scale(10.8672)">
<stop stop-color="white"/>
<stop offset="1" stop-color="#FAFAFA"/>
</radialGradient>
<radialGradient id="paint27_radial_1011_8965" cx="0" cy="0" r="1" gradientUnits="userSpaceOnUse" gradientTransform="translate(5.66972 5.66972) rotate(85.3036) scale(10.8672)">
<stop stop-color="white"/>
<stop offset="1" stop-color="#FAFAFA"/>
</radialGradient>
<radialGradient id="paint28_radial_1011_8965" cx="0" cy="0" r="1" gradientUnits="userSpaceOnUse" gradientTransform="translate(5.66972 5.66972) rotate(85.3036) scale(10.8672)">
<stop stop-color="white"/>
<stop offset="1" stop-color="#FAFAFA"/>
</radialGradient>
<radialGradient id="paint29_radial_1011_8965" cx="0" cy="0" r="1" gradientUnits="userSpaceOnUse" gradientTransform="translate(5.66972 5.66972) rotate(85.3036) scale(10.8672)">
<stop stop-color="white"/>
<stop offset="1" stop-color="#FAFAFA"/>
</radialGradient>
<radialGradient id="paint30_radial_1011_8965" cx="0" cy="0" r="1" gradientUnits="userSpaceOnUse" gradientTransform="translate(5.66972 5.66972) rotate(85.3036) scale(10.8672)">
<stop stop-color="white"/>
<stop offset="1" stop-color="#FAFAFA"/>
</radialGradient>
<radialGradient id="paint31_radial_1011_8965" cx="0" cy="0" r="1" gradientUnits="userSpaceOnUse" gradientTransform="translate(5.66972 5.66972) rotate(85.3036) scale(10.8672)">
<stop stop-color="white"/>
<stop offset="1" stop-color="#FAFAFA"/>
</radialGradient>
<radialGradient id="paint32_radial_1011_8965" cx="0" cy="0" r="1" gradientUnits="userSpaceOnUse" gradientTransform="translate(5.66972 5.66972) rotate(85.3036) scale(10.8672)">
<stop stop-color="white"/>
<stop offset="1" stop-color="#FAFAFA"/>
</radialGradient>
<radialGradient id="paint33_radial_1011_8965" cx="0" cy="0" r="1" gradientUnits="userSpaceOnUse" gradientTransform="translate(5.66972 5.66972) rotate(85.3036) scale(10.8672)">
<stop stop-color="white"/>
<stop offset="1" stop-color="#FAFAFA"/>
</radialGradient>
<radialGradient id="paint34_radial_1011_8965" cx="0" cy="0" r="1" gradientUnits="userSpaceOnUse" gradientTransform="translate(5.66972 5.66972) rotate(85.3036) scale(10.8672)">
<stop stop-color="white"/>
<stop offset="1" stop-color="#FAFAFA"/>
</radialGradient>
<radialGradient id="paint35_radial_1011_8965" cx="0" cy="0" r="1" gradientUnits="userSpaceOnUse" gradientTransform="translate(5.66972 5.66972) rotate(85.3036) scale(10.8672)">
<stop stop-color="white"/>
<stop offset="1" stop-color="#FAFAFA"/>
</radialGradient>
<radialGradient id="paint36_radial_1011_8965" cx="0" cy="0" r="1" gradientUnits="userSpaceOnUse" gradientTransform="translate(5.66972 5.66972) rotate(85.3036) scale(10.8672)">
<stop stop-color="white"/>
<stop offset="1" stop-color="#FAFAFA"/>
</radialGradient>
<radialGradient id="paint37_radial_1011_8965" cx="0" cy="0" r="1" gradientUnits="userSpaceOnUse" gradientTransform="translate(5.66972 5.66972) rotate(85.3036) scale(10.8672)">
<stop stop-color="white"/>
<stop offset="1" stop-color="#FAFAFA"/>
</radialGradient>
<radialGradient id="paint38_radial_1011_8965" cx="0" cy="0" r="1" gradientUnits="userSpaceOnUse" gradientTransform="translate(5.66972 5.66972) rotate(85.3036) scale(10.8672)">
<stop stop-color="white"/>
<stop offset="1" stop-color="#FAFAFA"/>
</radialGradient>
<radialGradient id="paint39_radial_1011_8965" cx="0" cy="0" r="1" gradientUnits="userSpaceOnUse" gradientTransform="translate(5.66972 5.66972) rotate(85.3036) scale(10.8672)">
<stop stop-color="white"/>
<stop offset="1" stop-color="#FAFAFA"/>
</radialGradient>
<radialGradient id="paint40_radial_1011_8965" cx="0" cy="0" r="1" gradientUnits="userSpaceOnUse" gradientTransform="translate(5.66972 5.66972) rotate(85.3036) scale(10.8672)">
<stop stop-color="white"/>
<stop offset="1" stop-color="#FAFAFA"/>
</radialGradient>
<radialGradient id="paint41_radial_1011_8965" cx="0" cy="0" r="1" gradientUnits="userSpaceOnUse" gradientTransform="translate(5.66972 5.66972) rotate(85.3036) scale(10.8672)">
<stop stop-color="white"/>
<stop offset="1" stop-color="#FAFAFA"/>
</radialGradient>
<radialGradient id="paint42_radial_1011_8965" cx="0" cy="0" r="1" gradientUnits="userSpaceOnUse" gradientTransform="translate(5.66972 5.66972) rotate(85.3036) scale(10.8672)">
<stop stop-color="white"/>
<stop offset="1" stop-color="#FAFAFA"/>
</radialGradient>
</defs>
</svg>
