<svg width="164" height="97" viewBox="0 0 164 97" fill="none" xmlns="http://www.w3.org/2000/svg">
<g opacity="0.5">
<rect width="11.3394" height="11.3394" rx="0.788513" transform="matrix(0.707101 -0.707112 0.707101 0.707112 0 24.2036)" fill="url(#paint0_radial_1296_19318)" fill-opacity="0.6"/>
<rect width="11.3394" height="11.3394" rx="0.788513" transform="matrix(0.707101 -0.707112 0.707101 0.707112 21.1191 24.2036)" fill="url(#paint1_radial_1296_19318)" fill-opacity="0.6"/>
<rect width="11.3394" height="11.3394" rx="0.788513" transform="matrix(0.707101 -0.707112 0.707101 0.707112 42.2344 24.2036)" fill="url(#paint2_radial_1296_19318)" fill-opacity="0.6"/>
<rect width="11.3394" height="11.3394" rx="0.788513" transform="matrix(0.707101 -0.707112 0.707101 0.707112 63.3516 24.2036)" fill="url(#paint3_radial_1296_19318)" fill-opacity="0.6"/>
<rect width="11.3394" height="11.3394" rx="0.788513" transform="matrix(0.707101 -0.707112 0.707101 0.707112 84.4727 24.2036)" fill="url(#paint4_radial_1296_19318)" fill-opacity="0.6"/>
<rect width="11.3394" height="11.3394" rx="0.788513" transform="matrix(0.707101 -0.707112 0.707101 0.707112 105.588 24.2036)" fill="url(#paint5_radial_1296_19318)" fill-opacity="0.6"/>
<rect width="11.3394" height="11.3394" rx="0.788513" transform="matrix(0.707101 -0.707112 0.707101 0.707112 126.705 24.2036)" fill="url(#paint6_radial_1296_19318)" fill-opacity="0.6"/>
<rect width="11.3394" height="11.3394" rx="0.788513" transform="matrix(0.707101 -0.707112 0.707101 0.707112 147.823 24.2036)" fill="url(#paint7_radial_1296_19318)" fill-opacity="0.6"/>
</g>
<g opacity="0.5">
<rect width="11.3394" height="11.3394" rx="0.788513" transform="matrix(0.707101 -0.707112 0.707101 0.707112 0 67.3889)" fill="url(#paint8_radial_1296_19318)" fill-opacity="0.6"/>
<rect width="11.3394" height="11.3394" rx="0.788513" transform="matrix(0.707101 -0.707112 0.707101 0.707112 21.1191 67.3889)" fill="url(#paint9_radial_1296_19318)" fill-opacity="0.6"/>
<rect width="11.3394" height="11.3394" rx="0.788513" transform="matrix(0.707101 -0.707112 0.707101 0.707112 42.2344 67.3889)" fill="url(#paint10_radial_1296_19318)" fill-opacity="0.6"/>
<rect width="11.3394" height="11.3394" rx="0.788513" transform="matrix(0.707101 -0.707112 0.707101 0.707112 63.3516 67.3889)" fill="url(#paint11_radial_1296_19318)" fill-opacity="0.6"/>
<rect width="11.3394" height="11.3394" rx="0.788513" transform="matrix(0.707101 -0.707112 0.707101 0.707112 84.4727 67.3889)" fill="url(#paint12_radial_1296_19318)" fill-opacity="0.6"/>
<rect width="11.3394" height="11.3394" rx="0.788513" transform="matrix(0.707101 -0.707112 0.707101 0.707112 105.587 67.3889)" fill="url(#paint13_radial_1296_19318)" fill-opacity="0.6"/>
<rect width="11.3394" height="11.3394" rx="0.788513" transform="matrix(0.707101 -0.707112 0.707101 0.707112 126.705 67.3889)" fill="url(#paint14_radial_1296_19318)" fill-opacity="0.6"/>
<rect width="11.3394" height="11.3394" rx="0.788513" transform="matrix(0.707101 -0.707112 0.707101 0.707112 147.823 67.3889)" fill="url(#paint15_radial_1296_19318)" fill-opacity="0.6"/>
</g>
<g opacity="0.5">
<rect width="11.3394" height="11.3394" rx="0.788513" transform="matrix(0.707101 -0.707112 0.707101 0.707112 0 2.61084)" fill="url(#paint16_radial_1296_19318)" fill-opacity="0.6"/>
<rect width="11.3394" height="11.3394" rx="0.788513" transform="matrix(0.707101 -0.707112 0.707101 0.707112 21.1191 2.61084)" fill="url(#paint17_radial_1296_19318)" fill-opacity="0.6"/>
<rect width="11.3394" height="11.3394" rx="0.788513" transform="matrix(0.707101 -0.707112 0.707101 0.707112 42.2344 2.61084)" fill="url(#paint18_radial_1296_19318)" fill-opacity="0.6"/>
<rect width="11.3394" height="11.3394" rx="0.788513" transform="matrix(0.707101 -0.707112 0.707101 0.707112 63.3516 2.61084)" fill="url(#paint19_radial_1296_19318)" fill-opacity="0.6"/>
<rect width="11.3394" height="11.3394" rx="0.788513" transform="matrix(0.707101 -0.707112 0.707101 0.707112 84.4727 2.61084)" fill="url(#paint20_radial_1296_19318)" fill-opacity="0.6"/>
<rect width="11.3394" height="11.3394" rx="0.788513" transform="matrix(0.707101 -0.707112 0.707101 0.707112 105.587 2.61084)" fill="url(#paint21_radial_1296_19318)" fill-opacity="0.6"/>
<rect width="11.3394" height="11.3394" rx="0.788513" transform="matrix(0.707101 -0.707112 0.707101 0.707112 126.705 2.61084)" fill="url(#paint22_radial_1296_19318)" fill-opacity="0.6"/>
<rect width="11.3394" height="11.3394" rx="0.788513" transform="matrix(0.707101 -0.707112 0.707101 0.707112 147.823 2.61084)" fill="url(#paint23_radial_1296_19318)" fill-opacity="0.6"/>
</g>
<g opacity="0.5">
<rect width="11.3394" height="11.3394" rx="0.788513" transform="matrix(0.707105 -0.707108 0.707105 0.707108 0 45.7966)" fill="url(#paint24_radial_1296_19318)" fill-opacity="0.6"/>
<rect width="11.3394" height="11.3394" rx="0.788513" transform="matrix(0.707105 -0.707108 0.707105 0.707108 21.1191 45.7966)" fill="url(#paint25_radial_1296_19318)" fill-opacity="0.6"/>
<rect width="11.3394" height="11.3394" rx="0.788513" transform="matrix(0.707105 -0.707108 0.707105 0.707108 42.2344 45.7966)" fill="url(#paint26_radial_1296_19318)" fill-opacity="0.6"/>
<rect width="11.3394" height="11.3394" rx="0.788513" transform="matrix(0.707105 -0.707108 0.707105 0.707108 63.3516 45.7966)" fill="url(#paint27_radial_1296_19318)" fill-opacity="0.6"/>
<rect width="11.3394" height="11.3394" rx="0.788513" transform="matrix(0.707105 -0.707108 0.707105 0.707108 84.4727 45.7966)" fill="url(#paint28_radial_1296_19318)" fill-opacity="0.6"/>
<rect width="11.3394" height="11.3394" rx="0.788513" transform="matrix(0.707105 -0.707108 0.707105 0.707108 105.587 45.7966)" fill="url(#paint29_radial_1296_19318)" fill-opacity="0.6"/>
<rect width="11.3394" height="11.3394" rx="0.788513" transform="matrix(0.707105 -0.707108 0.707105 0.707108 126.705 45.7966)" fill="url(#paint30_radial_1296_19318)" fill-opacity="0.6"/>
<rect width="11.3394" height="11.3394" rx="0.788513" transform="matrix(0.707105 -0.707108 0.707105 0.707108 147.823 45.7966)" fill="url(#paint31_radial_1296_19318)" fill-opacity="0.6"/>
</g>
<g opacity="0.5">
<rect width="11.3394" height="11.3394" rx="0.788513" transform="matrix(0.707101 -0.707112 0.707101 0.707112 0 88.9819)" fill="url(#paint32_radial_1296_19318)" fill-opacity="0.6"/>
<rect width="11.3394" height="11.3394" rx="0.788513" transform="matrix(0.707101 -0.707112 0.707101 0.707112 21.1191 88.9819)" fill="url(#paint33_radial_1296_19318)" fill-opacity="0.6"/>
<rect width="11.3394" height="11.3394" rx="0.788513" transform="matrix(0.707101 -0.707112 0.707101 0.707112 42.2344 88.9819)" fill="url(#paint34_radial_1296_19318)" fill-opacity="0.6"/>
<rect width="11.3394" height="11.3394" rx="0.788513" transform="matrix(0.707101 -0.707112 0.707101 0.707112 63.3516 88.9819)" fill="url(#paint35_radial_1296_19318)" fill-opacity="0.6"/>
<rect width="11.3394" height="11.3394" rx="0.788513" transform="matrix(0.707101 -0.707112 0.707101 0.707112 84.4727 88.9819)" fill="url(#paint36_radial_1296_19318)" fill-opacity="0.6"/>
<rect width="11.3394" height="11.3394" rx="0.788513" transform="matrix(0.707101 -0.707112 0.707101 0.707112 105.588 88.9819)" fill="url(#paint37_radial_1296_19318)" fill-opacity="0.6"/>
<rect width="11.3394" height="11.3394" rx="0.788513" transform="matrix(0.707101 -0.707112 0.707101 0.707112 126.705 88.9819)" fill="url(#paint38_radial_1296_19318)" fill-opacity="0.6"/>
<rect width="11.3394" height="11.3394" rx="0.788513" transform="matrix(0.707101 -0.707112 0.707101 0.707112 147.823 88.9819)" fill="url(#paint39_radial_1296_19318)" fill-opacity="0.6"/>
</g>
<defs>
<radialGradient id="paint0_radial_1296_19318" cx="0" cy="0" r="1" gradientUnits="userSpaceOnUse" gradientTransform="translate(5.66972 5.66972) rotate(85.3036) scale(10.8672)">
<stop stop-color="white"/>
<stop offset="1" stop-color="#FAFAFA"/>
</radialGradient>
<radialGradient id="paint1_radial_1296_19318" cx="0" cy="0" r="1" gradientUnits="userSpaceOnUse" gradientTransform="translate(5.66972 5.66972) rotate(85.3036) scale(10.8672)">
<stop stop-color="white"/>
<stop offset="1" stop-color="#FAFAFA"/>
</radialGradient>
<radialGradient id="paint2_radial_1296_19318" cx="0" cy="0" r="1" gradientUnits="userSpaceOnUse" gradientTransform="translate(5.66972 5.66972) rotate(85.3036) scale(10.8672)">
<stop stop-color="white"/>
<stop offset="1" stop-color="#FAFAFA"/>
</radialGradient>
<radialGradient id="paint3_radial_1296_19318" cx="0" cy="0" r="1" gradientUnits="userSpaceOnUse" gradientTransform="translate(5.66972 5.66972) rotate(85.3036) scale(10.8672)">
<stop stop-color="white"/>
<stop offset="1" stop-color="#FAFAFA"/>
</radialGradient>
<radialGradient id="paint4_radial_1296_19318" cx="0" cy="0" r="1" gradientUnits="userSpaceOnUse" gradientTransform="translate(5.66972 5.66972) rotate(85.3036) scale(10.8672)">
<stop stop-color="white"/>
<stop offset="1" stop-color="#FAFAFA"/>
</radialGradient>
<radialGradient id="paint5_radial_1296_19318" cx="0" cy="0" r="1" gradientUnits="userSpaceOnUse" gradientTransform="translate(5.66972 5.66972) rotate(85.3036) scale(10.8672)">
<stop stop-color="white"/>
<stop offset="1" stop-color="#FAFAFA"/>
</radialGradient>
<radialGradient id="paint6_radial_1296_19318" cx="0" cy="0" r="1" gradientUnits="userSpaceOnUse" gradientTransform="translate(5.66972 5.66972) rotate(85.3036) scale(10.8672)">
<stop stop-color="white"/>
<stop offset="1" stop-color="#FAFAFA"/>
</radialGradient>
<radialGradient id="paint7_radial_1296_19318" cx="0" cy="0" r="1" gradientUnits="userSpaceOnUse" gradientTransform="translate(5.66972 5.66972) rotate(85.3036) scale(10.8672)">
<stop stop-color="white"/>
<stop offset="1" stop-color="#FAFAFA"/>
</radialGradient>
<radialGradient id="paint8_radial_1296_19318" cx="0" cy="0" r="1" gradientUnits="userSpaceOnUse" gradientTransform="translate(5.66972 5.66972) rotate(85.3036) scale(10.8672)">
<stop stop-color="white"/>
<stop offset="1" stop-color="#FAFAFA"/>
</radialGradient>
<radialGradient id="paint9_radial_1296_19318" cx="0" cy="0" r="1" gradientUnits="userSpaceOnUse" gradientTransform="translate(5.66972 5.66972) rotate(85.3036) scale(10.8672)">
<stop stop-color="white"/>
<stop offset="1" stop-color="#FAFAFA"/>
</radialGradient>
<radialGradient id="paint10_radial_1296_19318" cx="0" cy="0" r="1" gradientUnits="userSpaceOnUse" gradientTransform="translate(5.66972 5.66972) rotate(85.3036) scale(10.8672)">
<stop stop-color="white"/>
<stop offset="1" stop-color="#FAFAFA"/>
</radialGradient>
<radialGradient id="paint11_radial_1296_19318" cx="0" cy="0" r="1" gradientUnits="userSpaceOnUse" gradientTransform="translate(5.66972 5.66972) rotate(85.3036) scale(10.8672)">
<stop stop-color="white"/>
<stop offset="1" stop-color="#FAFAFA"/>
</radialGradient>
<radialGradient id="paint12_radial_1296_19318" cx="0" cy="0" r="1" gradientUnits="userSpaceOnUse" gradientTransform="translate(5.66972 5.66972) rotate(85.3036) scale(10.8672)">
<stop stop-color="white"/>
<stop offset="1" stop-color="#FAFAFA"/>
</radialGradient>
<radialGradient id="paint13_radial_1296_19318" cx="0" cy="0" r="1" gradientUnits="userSpaceOnUse" gradientTransform="translate(5.66972 5.66972) rotate(85.3036) scale(10.8672)">
<stop stop-color="white"/>
<stop offset="1" stop-color="#FAFAFA"/>
</radialGradient>
<radialGradient id="paint14_radial_1296_19318" cx="0" cy="0" r="1" gradientUnits="userSpaceOnUse" gradientTransform="translate(5.66972 5.66972) rotate(85.3036) scale(10.8672)">
<stop stop-color="white"/>
<stop offset="1" stop-color="#FAFAFA"/>
</radialGradient>
<radialGradient id="paint15_radial_1296_19318" cx="0" cy="0" r="1" gradientUnits="userSpaceOnUse" gradientTransform="translate(5.66972 5.66972) rotate(85.3036) scale(10.8672)">
<stop stop-color="white"/>
<stop offset="1" stop-color="#FAFAFA"/>
</radialGradient>
<radialGradient id="paint16_radial_1296_19318" cx="0" cy="0" r="1" gradientUnits="userSpaceOnUse" gradientTransform="translate(5.66972 5.66972) rotate(85.3036) scale(10.8672)">
<stop stop-color="white"/>
<stop offset="1" stop-color="#FAFAFA"/>
</radialGradient>
<radialGradient id="paint17_radial_1296_19318" cx="0" cy="0" r="1" gradientUnits="userSpaceOnUse" gradientTransform="translate(5.66972 5.66972) rotate(85.3036) scale(10.8672)">
<stop stop-color="white"/>
<stop offset="1" stop-color="#FAFAFA"/>
</radialGradient>
<radialGradient id="paint18_radial_1296_19318" cx="0" cy="0" r="1" gradientUnits="userSpaceOnUse" gradientTransform="translate(5.66972 5.66972) rotate(85.3036) scale(10.8672)">
<stop stop-color="white"/>
<stop offset="1" stop-color="#FAFAFA"/>
</radialGradient>
<radialGradient id="paint19_radial_1296_19318" cx="0" cy="0" r="1" gradientUnits="userSpaceOnUse" gradientTransform="translate(5.66972 5.66972) rotate(85.3036) scale(10.8672)">
<stop stop-color="white"/>
<stop offset="1" stop-color="#FAFAFA"/>
</radialGradient>
<radialGradient id="paint20_radial_1296_19318" cx="0" cy="0" r="1" gradientUnits="userSpaceOnUse" gradientTransform="translate(5.66972 5.66972) rotate(85.3036) scale(10.8672)">
<stop stop-color="white"/>
<stop offset="1" stop-color="#FAFAFA"/>
</radialGradient>
<radialGradient id="paint21_radial_1296_19318" cx="0" cy="0" r="1" gradientUnits="userSpaceOnUse" gradientTransform="translate(5.66972 5.66972) rotate(85.3036) scale(10.8672)">
<stop stop-color="white"/>
<stop offset="1" stop-color="#FAFAFA"/>
</radialGradient>
<radialGradient id="paint22_radial_1296_19318" cx="0" cy="0" r="1" gradientUnits="userSpaceOnUse" gradientTransform="translate(5.66972 5.66972) rotate(85.3036) scale(10.8672)">
<stop stop-color="white"/>
<stop offset="1" stop-color="#FAFAFA"/>
</radialGradient>
<radialGradient id="paint23_radial_1296_19318" cx="0" cy="0" r="1" gradientUnits="userSpaceOnUse" gradientTransform="translate(5.66972 5.66972) rotate(85.3036) scale(10.8672)">
<stop stop-color="white"/>
<stop offset="1" stop-color="#FAFAFA"/>
</radialGradient>
<radialGradient id="paint24_radial_1296_19318" cx="0" cy="0" r="1" gradientUnits="userSpaceOnUse" gradientTransform="translate(5.66972 5.66972) rotate(85.3036) scale(10.8672)">
<stop stop-color="white"/>
<stop offset="1" stop-color="#FAFAFA"/>
</radialGradient>
<radialGradient id="paint25_radial_1296_19318" cx="0" cy="0" r="1" gradientUnits="userSpaceOnUse" gradientTransform="translate(5.66972 5.66972) rotate(85.3036) scale(10.8672)">
<stop stop-color="white"/>
<stop offset="1" stop-color="#FAFAFA"/>
</radialGradient>
<radialGradient id="paint26_radial_1296_19318" cx="0" cy="0" r="1" gradientUnits="userSpaceOnUse" gradientTransform="translate(5.66972 5.66972) rotate(85.3036) scale(10.8672)">
<stop stop-color="white"/>
<stop offset="1" stop-color="#FAFAFA"/>
</radialGradient>
<radialGradient id="paint27_radial_1296_19318" cx="0" cy="0" r="1" gradientUnits="userSpaceOnUse" gradientTransform="translate(5.66972 5.66972) rotate(85.3036) scale(10.8672)">
<stop stop-color="white"/>
<stop offset="1" stop-color="#FAFAFA"/>
</radialGradient>
<radialGradient id="paint28_radial_1296_19318" cx="0" cy="0" r="1" gradientUnits="userSpaceOnUse" gradientTransform="translate(5.66972 5.66972) rotate(85.3036) scale(10.8672)">
<stop stop-color="white"/>
<stop offset="1" stop-color="#FAFAFA"/>
</radialGradient>
<radialGradient id="paint29_radial_1296_19318" cx="0" cy="0" r="1" gradientUnits="userSpaceOnUse" gradientTransform="translate(5.66972 5.66972) rotate(85.3036) scale(10.8672)">
<stop stop-color="white"/>
<stop offset="1" stop-color="#FAFAFA"/>
</radialGradient>
<radialGradient id="paint30_radial_1296_19318" cx="0" cy="0" r="1" gradientUnits="userSpaceOnUse" gradientTransform="translate(5.66972 5.66972) rotate(85.3036) scale(10.8672)">
<stop stop-color="white"/>
<stop offset="1" stop-color="#FAFAFA"/>
</radialGradient>
<radialGradient id="paint31_radial_1296_19318" cx="0" cy="0" r="1" gradientUnits="userSpaceOnUse" gradientTransform="translate(5.66972 5.66972) rotate(85.3036) scale(10.8672)">
<stop stop-color="white"/>
<stop offset="1" stop-color="#FAFAFA"/>
</radialGradient>
<radialGradient id="paint32_radial_1296_19318" cx="0" cy="0" r="1" gradientUnits="userSpaceOnUse" gradientTransform="translate(5.66972 5.66972) rotate(85.3036) scale(10.8672)">
<stop stop-color="white"/>
<stop offset="1" stop-color="#FAFAFA"/>
</radialGradient>
<radialGradient id="paint33_radial_1296_19318" cx="0" cy="0" r="1" gradientUnits="userSpaceOnUse" gradientTransform="translate(5.66972 5.66972) rotate(85.3036) scale(10.8672)">
<stop stop-color="white"/>
<stop offset="1" stop-color="#FAFAFA"/>
</radialGradient>
<radialGradient id="paint34_radial_1296_19318" cx="0" cy="0" r="1" gradientUnits="userSpaceOnUse" gradientTransform="translate(5.66972 5.66972) rotate(85.3036) scale(10.8672)">
<stop stop-color="white"/>
<stop offset="1" stop-color="#FAFAFA"/>
</radialGradient>
<radialGradient id="paint35_radial_1296_19318" cx="0" cy="0" r="1" gradientUnits="userSpaceOnUse" gradientTransform="translate(5.66972 5.66972) rotate(85.3036) scale(10.8672)">
<stop stop-color="white"/>
<stop offset="1" stop-color="#FAFAFA"/>
</radialGradient>
<radialGradient id="paint36_radial_1296_19318" cx="0" cy="0" r="1" gradientUnits="userSpaceOnUse" gradientTransform="translate(5.66972 5.66972) rotate(85.3036) scale(10.8672)">
<stop stop-color="white"/>
<stop offset="1" stop-color="#FAFAFA"/>
</radialGradient>
<radialGradient id="paint37_radial_1296_19318" cx="0" cy="0" r="1" gradientUnits="userSpaceOnUse" gradientTransform="translate(5.66972 5.66972) rotate(85.3036) scale(10.8672)">
<stop stop-color="white"/>
<stop offset="1" stop-color="#FAFAFA"/>
</radialGradient>
<radialGradient id="paint38_radial_1296_19318" cx="0" cy="0" r="1" gradientUnits="userSpaceOnUse" gradientTransform="translate(5.66972 5.66972) rotate(85.3036) scale(10.8672)">
<stop stop-color="white"/>
<stop offset="1" stop-color="#FAFAFA"/>
</radialGradient>
<radialGradient id="paint39_radial_1296_19318" cx="0" cy="0" r="1" gradientUnits="userSpaceOnUse" gradientTransform="translate(5.66972 5.66972) rotate(85.3036) scale(10.8672)">
<stop stop-color="white"/>
<stop offset="1" stop-color="#FAFAFA"/>
</radialGradient>
</defs>
</svg>
