<svg width="652" height="185" viewBox="0 0 652 185" fill="none" xmlns="http://www.w3.org/2000/svg">
<path d="M572.918 117.432C572.704 118.883 571.359 119.887 569.914 119.673C568.469 119.459 567.472 118.109 567.686 116.658C567.9 115.206 569.245 114.203 570.69 114.416C572.135 114.63 573.133 115.98 572.918 117.432Z" fill="#3897FF"/>
<path d="M522.597 108.199C522.269 110.419 520.212 111.954 518.002 111.627C515.792 111.3 514.266 109.235 514.594 107.015C514.921 104.795 516.978 103.26 519.188 103.587C521.398 103.914 522.924 105.979 522.597 108.199Z" fill="#8E4DD5"/>
<path d="M623.164 100.33C622.891 102.18 621.178 103.458 619.337 103.186C617.497 102.913 616.226 101.194 616.499 99.3444C616.771 97.4953 618.485 96.2171 620.325 96.4893C622.166 96.7616 623.437 98.4813 623.164 100.33Z" fill="#00A98F"/>
<path d="M655.164 74.3304C654.891 76.1795 653.178 77.4578 651.337 77.1855C649.497 76.9132 648.226 75.1935 648.499 73.3444C648.771 71.4953 650.485 70.2171 652.325 70.4893C654.166 70.7616 655.437 72.4813 655.164 74.3304Z" fill="#FFCC00"/>
<path d="M200.406 109.27C200.2 110.666 198.906 111.631 197.517 111.426C196.127 111.22 195.168 109.922 195.374 108.526C195.58 107.13 196.873 106.165 198.263 106.37C199.652 106.576 200.612 107.874 200.406 109.27Z" fill="#3897FF"/>
<path d="M349.76 115.484C349.54 116.972 348.162 118 346.681 117.781C345.201 117.562 344.178 116.178 344.398 114.691C344.617 113.204 345.996 112.176 347.476 112.395C348.957 112.614 349.979 113.997 349.76 115.484Z" fill="#00A98F"/>
<path d="M3.96486 113.327C3.65711 113.995 2.86872 114.286 2.20395 113.978C1.53918 113.669 1.24976 112.878 1.55751 112.21C1.86526 111.542 2.65365 111.25 3.31842 111.559C3.98319 111.867 4.27261 112.659 3.96486 113.327Z" fill="#00A98F"/>
<path d="M420.522 113.91L421.25 110.925L423.889 109.362L420.917 108.639L419.367 105.995L418.638 108.98L416 110.543L418.972 111.266L420.522 113.91Z" fill="#8E4DD5"/>
<path d="M641.198 118.654L643.731 113.502L632.676 115.199L630.413 120.614L641.198 118.654Z" fill="#00A98F"/>
<path d="M262.946 114.185L264.891 110.23L256.404 111.533L254.667 115.691L262.946 114.185Z" fill="#FFCC00"/>
<path d="M478.694 111.981L478.615 106.24L469.533 112.769L469.973 118.621L478.694 111.981Z" fill="#FFCC00"/>
<path d="M104 116.07L103.839 113.122L99.2712 116.682L99.6217 119.68L104 116.07Z" fill="#FFCC00"/>
</svg>
