<svg width="353" height="589" viewBox="0 0 353 589" fill="none" xmlns="http://www.w3.org/2000/svg">
<path d="M312.562 516.232C312.304 517.981 310.683 519.191 308.942 518.933C307.201 518.675 305.999 517.049 306.257 515.3C306.515 513.551 308.136 512.342 309.877 512.599C311.618 512.857 312.82 514.483 312.562 516.232Z" fill="#3897FF"/>
<path d="M315.148 358.403C314.754 361.078 312.275 362.927 309.612 362.533C306.95 362.139 305.111 359.651 305.506 356.976C305.901 354.301 308.379 352.452 311.042 352.846C313.705 353.24 315.543 355.728 315.148 358.403Z" fill="#8E4DD5"/>
<path d="M339.418 301.355C339.09 303.583 337.025 305.123 334.807 304.795C332.59 304.467 331.058 302.395 331.387 300.167C331.716 297.939 333.78 296.399 335.998 296.727C338.216 297.055 339.747 299.127 339.418 301.355Z" fill="#00A98F"/>
<path d="M154.516 549.941C154.268 551.623 152.709 552.786 151.035 552.538C149.361 552.291 148.205 550.726 148.453 549.044C148.701 547.362 150.26 546.2 151.934 546.447C153.608 546.695 154.764 548.259 154.516 549.941Z" fill="#3897FF"/>
<path d="M280.627 546.221C280.299 548.449 278.234 549.989 276.016 549.661C273.799 549.333 272.267 547.261 272.596 545.033C272.925 542.805 274.989 541.265 277.207 541.593C279.425 541.921 280.956 543.993 280.627 546.221Z" fill="#00A98F"/>
<path d="M339.286 54.9286C338.634 56.3442 336.963 56.9619 335.554 56.3082C334.146 55.6546 333.532 53.9771 334.184 52.5615C334.837 51.1459 336.507 50.5282 337.916 51.1818C339.325 51.8355 339.938 53.513 339.286 54.9286Z" fill="#00A98F"/>
<path d="M309.362 65.9342C308.991 66.7391 308.041 67.0903 307.24 66.7186C306.439 66.3469 306.091 65.3932 306.461 64.5883C306.832 63.7834 307.782 63.4322 308.583 63.8038C309.384 64.1755 309.733 65.1293 309.362 65.9342Z" fill="#00A98F"/>
<path d="M4.57294 551.803C4.20214 552.608 3.25221 552.959 2.45123 552.588C1.65025 552.216 1.30153 551.262 1.67234 550.457C2.04315 549.652 2.99307 549.301 3.79405 549.673C4.59503 550.045 4.94375 550.998 4.57294 551.803Z" fill="#00A98F"/>
<path d="M321.429 107.417C320.296 109.875 317.395 110.947 314.949 109.812C312.503 108.677 311.438 105.765 312.571 103.307C313.703 100.849 316.604 99.7763 319.05 100.911C321.496 102.046 322.561 104.959 321.429 107.417Z" fill="#8E4DD5"/>
<path d="M274.742 38.2587L273.056 31.3084L276.839 25.2555L269.921 26.9393L263.889 23.1306L265.575 30.081L261.792 36.1339L268.71 34.4504L274.742 38.2587Z" fill="#FFCC00"/>
<path d="M334.238 142.668L335.115 139.071L338.294 137.188L334.713 136.317L332.846 133.132L331.968 136.728L328.789 138.611L332.37 139.482L334.238 142.668Z" fill="#FFCC00"/>
<path d="M319.449 558.535L320.326 554.938L323.505 553.056L319.924 552.184L318.057 548.999L317.179 552.595L314 554.478L317.581 555.349L319.449 558.535Z" fill="#8E4DD5"/>
<path d="M341.135 98.7325L341.834 95.866L344.368 94.3651L341.514 93.6708L340.025 91.1318L339.326 93.9983L336.792 95.4992L339.646 96.1935L341.135 98.7325Z" fill="#8E4DD5"/>
<path d="M330.831 231.704L333.884 225.497L320.563 227.542L317.837 234.067L330.831 231.704Z" fill="#00A98F"/>
<path d="M210.001 556.761L212.345 551.995L202.119 553.565L200.026 558.574L210.001 556.761Z" fill="#FFCC00"/>
<path d="M335.88 439.345L335.784 432.428L324.841 440.294L325.372 447.346L335.88 439.345Z" fill="#8E4DD5"/>
<path d="M325.619 162.992L320.045 162.474L325.451 172.029L331.169 172.206L325.619 162.992Z" fill="#3897FF"/>
<path d="M90.2303 556.699L90.036 553.147L84.5329 557.437L84.9552 561.048L90.2303 556.699Z" fill="#FFCC00"/>
</svg>
