<svg width="153" height="200" viewBox="0 0 153 200" fill="none" xmlns="http://www.w3.org/2000/svg">
<path d="M16.4788 126.807C14.9649 124.174 15.873 120.813 18.5069 119.3C21.1409 117.787 24.5033 118.695 26.0172 121.329C27.5311 123.962 26.6231 127.323 23.9891 128.836C21.3551 130.349 17.9927 129.441 16.4788 126.807Z" fill="#8E4DD5"/>
<path d="M49.5288 137.574C48.8407 136.377 49.2542 134.849 50.4525 134.16C51.6507 133.472 53.1799 133.885 53.8681 135.082C54.5562 136.279 54.1426 137.807 52.9444 138.495C51.7461 139.183 50.2169 138.771 49.5288 137.574Z" fill="#8E4DD5"/>
<path d="M12.0797 49.0861L21.5909 56.3083L23.044 68.1592L30.2668 58.652L42.1208 57.2013L32.6102 49.9787L31.1565 38.1282L23.9337 47.6354L12.0797 49.0861Z" fill="#00A98F"/>
<path d="M14.6928 85.3355L19.0161 88.6184L19.6766 94.0051L22.9597 89.6837L28.3479 89.0243L24.0249 85.7413L23.3641 80.3547L20.081 84.6761L14.6928 85.3355Z" fill="#00A98F"/>
<path d="M50.8938 113.233C50.4969 111.586 51.5059 109.935 53.1474 109.544C54.789 109.153 56.4414 110.171 56.8383 111.817C57.2352 113.463 56.2262 115.115 54.5846 115.506C52.9431 115.897 51.2906 114.879 50.8938 113.233Z" fill="white"/>
<path d="M81.4249 167.157C81.2308 166.352 81.7267 165.543 82.5326 165.351C83.3385 165.159 84.1492 165.657 84.3433 166.462C84.5374 167.267 84.0415 168.076 83.2356 168.268C82.4297 168.46 81.6191 167.962 81.4249 167.157Z" fill="#00A98F"/>
<path d="M43.3893 20.0437L55.0932 24.358L60.1683 35.7748L64.4712 24.0452L75.8616 18.9605L64.1582 14.6456L59.0826 3.22938L54.7797 14.9589L43.3893 20.0437Z" fill="#3897FF"/>
<path d="M43.6368 106.649L49.6306 111.332L50.4513 118.879L55.1363 112.906L62.6995 112.098L56.7057 107.415L55.885 99.8685L51.2001 105.841L43.6368 106.649Z" fill="#FFCC00"/>
<path d="M67.3498 155.348L68.9359 158.805L67.5668 162.345L71.0197 160.768L74.564 162.147L72.9779 158.69L74.3471 155.15L70.8944 156.727L67.3498 155.348Z" fill="#FFCC00"/>
<path d="M83.2889 175.868L84.6484 178.83L83.4748 181.865L86.4344 180.513L89.4724 181.695L88.1129 178.733L89.2865 175.698L86.327 177.049L83.2889 175.868Z" fill="#8E4DD5"/>
<path d="M41.2668 79.9297L42.4995 87.037L52.5624 76.1924L50.8565 69.0555L41.2668 79.9297Z" fill="#00A98F"/>
<path d="M47.6021 157.753L52.5614 154.612L41.7437 150.202L36.8911 153.716L47.6021 157.753Z" fill="#3897FF"/>
<path d="M74.1259 179.038L77.3232 177.237L70.1041 174.317L66.9852 176.347L74.1259 179.038Z" fill="#FFCC00"/>
</svg>
