<svg width="275" height="229" viewBox="0 0 275 229" fill="none" xmlns="http://www.w3.org/2000/svg">
<rect width="275" height="229" rx="32" fill="#363636"/>
<mask id="mask0_1011_11414" style="mask-type:alpha" maskUnits="userSpaceOnUse" x="0" y="0" width="275" height="229">
<path d="M0 32C0 14.3269 14.3269 0 32 0H243C260.673 0 275 14.3269 275 32V197C275 214.673 260.673 229 243 229H32C14.3269 229 0 214.673 0 197V32Z" fill="url(#paint0_radial_1011_11414)"/>
</mask>
<g mask="url(#mask0_1011_11414)">
<rect opacity="0.2" x="152" y="127.507" width="235.912" height="235.912" rx="26.856" transform="rotate(-31.8548 152 127.507)" fill="url(#paint1_radial_1011_11414)"/>
<rect opacity="0.2" x="-216" y="60.2104" width="229.4" height="229.4" rx="26.856" transform="rotate(-45 -216 60.2104)" fill="url(#paint2_radial_1011_11414)"/>
<g opacity="0.5">
<rect x="146" y="1.16895" width="14.3808" height="14.3808" rx="2" transform="rotate(-45 146 1.16895)" fill="url(#paint3_radial_1011_11414)" fill-opacity="0.3"/>
<rect x="172.783" y="1.1687" width="14.3808" height="14.3808" rx="2" transform="rotate(-45 172.783 1.1687)" fill="url(#paint4_radial_1011_11414)" fill-opacity="0.3"/>
<rect x="199.562" y="1.1687" width="14.3808" height="14.3808" rx="2" transform="rotate(-45 199.562 1.1687)" fill="url(#paint5_radial_1011_11414)" fill-opacity="0.3"/>
<rect x="226.344" y="1.1687" width="14.3808" height="14.3808" rx="2" transform="rotate(-45 226.344 1.1687)" fill="url(#paint6_radial_1011_11414)" fill-opacity="0.3"/>
<rect x="253.129" y="1.16895" width="14.3808" height="14.3808" rx="2" transform="rotate(-45 253.129 1.16895)" fill="url(#paint7_radial_1011_11414)" fill-opacity="0.3"/>
</g>
<g opacity="0.5">
<rect x="146" y="55.9368" width="14.3808" height="14.3808" rx="2" transform="rotate(-45 146 55.9368)" fill="url(#paint8_radial_1011_11414)" fill-opacity="0.3"/>
<rect x="172.783" y="55.9368" width="14.3808" height="14.3808" rx="2" transform="rotate(-45 172.783 55.9368)" fill="url(#paint9_radial_1011_11414)" fill-opacity="0.3"/>
<rect x="199.562" y="55.9368" width="14.3808" height="14.3808" rx="2" transform="rotate(-45 199.562 55.9368)" fill="url(#paint10_radial_1011_11414)" fill-opacity="0.3"/>
<rect x="226.344" y="55.9368" width="14.3808" height="14.3808" rx="2" transform="rotate(-45 226.344 55.9368)" fill="url(#paint11_radial_1011_11414)" fill-opacity="0.3"/>
<rect x="253.129" y="55.9368" width="14.3808" height="14.3808" rx="2" transform="rotate(-45 253.129 55.9368)" fill="url(#paint12_radial_1011_11414)" fill-opacity="0.3"/>
</g>
<g opacity="0.5">
<rect x="146" y="110.705" width="14.3808" height="14.3808" rx="2" transform="rotate(-45 146 110.705)" fill="url(#paint13_radial_1011_11414)" fill-opacity="0.3"/>
<rect x="172.783" y="110.705" width="14.3808" height="14.3808" rx="2" transform="rotate(-45 172.783 110.705)" fill="url(#paint14_radial_1011_11414)" fill-opacity="0.3"/>
<rect x="199.562" y="110.705" width="14.3808" height="14.3808" rx="2" transform="rotate(-45 199.562 110.705)" fill="url(#paint15_radial_1011_11414)" fill-opacity="0.3"/>
<rect x="226.344" y="110.705" width="14.3808" height="14.3808" rx="2" transform="rotate(-45 226.344 110.705)" fill="url(#paint16_radial_1011_11414)" fill-opacity="0.3"/>
<rect x="253.129" y="110.705" width="14.3808" height="14.3808" rx="2" transform="rotate(-45 253.129 110.705)" fill="url(#paint17_radial_1011_11414)" fill-opacity="0.3"/>
</g>
<g opacity="0.5">
<rect x="146" y="28.5527" width="14.3808" height="14.3808" rx="2" transform="rotate(-45 146 28.5527)" fill="url(#paint18_radial_1011_11414)" fill-opacity="0.3"/>
<rect x="172.783" y="28.5527" width="14.3808" height="14.3808" rx="2" transform="rotate(-45 172.783 28.5527)" fill="url(#paint19_radial_1011_11414)" fill-opacity="0.3"/>
<rect x="199.562" y="28.5527" width="14.3808" height="14.3808" rx="2" transform="rotate(-45 199.562 28.5527)" fill="url(#paint20_radial_1011_11414)" fill-opacity="0.3"/>
<rect x="226.344" y="28.5527" width="14.3808" height="14.3808" rx="2" transform="rotate(-45 226.344 28.5527)" fill="url(#paint21_radial_1011_11414)" fill-opacity="0.3"/>
<rect x="253.129" y="28.5527" width="14.3808" height="14.3808" rx="2" transform="rotate(-45 253.129 28.5527)" fill="url(#paint22_radial_1011_11414)" fill-opacity="0.3"/>
</g>
<g opacity="0.5">
<rect width="14.3808" height="14.3808" rx="2" transform="matrix(0.707105 -0.707108 0.707105 0.707108 146 83.321)" fill="url(#paint23_radial_1011_11414)" fill-opacity="0.3"/>
<rect width="14.3808" height="14.3808" rx="2" transform="matrix(0.707105 -0.707108 0.707105 0.707108 172.783 83.321)" fill="url(#paint24_radial_1011_11414)" fill-opacity="0.3"/>
<rect width="14.3808" height="14.3808" rx="2" transform="matrix(0.707105 -0.707108 0.707105 0.707108 199.562 83.321)" fill="url(#paint25_radial_1011_11414)" fill-opacity="0.3"/>
<rect width="14.3808" height="14.3808" rx="2" transform="matrix(0.707105 -0.707108 0.707105 0.707108 226.344 83.321)" fill="url(#paint26_radial_1011_11414)" fill-opacity="0.3"/>
<rect width="14.3808" height="14.3808" rx="2" transform="matrix(0.707105 -0.707108 0.707105 0.707108 253.129 83.321)" fill="url(#paint27_radial_1011_11414)" fill-opacity="0.3"/>
</g>
<g opacity="0.5">
<rect x="146" y="138.089" width="14.3808" height="14.3808" rx="2" transform="rotate(-45 146 138.089)" fill="url(#paint28_radial_1011_11414)" fill-opacity="0.3"/>
<rect x="172.783" y="138.089" width="14.3808" height="14.3808" rx="2" transform="rotate(-45 172.783 138.089)" fill="url(#paint29_radial_1011_11414)" fill-opacity="0.3"/>
<rect x="199.562" y="138.089" width="14.3808" height="14.3808" rx="2" transform="rotate(-45 199.562 138.089)" fill="url(#paint30_radial_1011_11414)" fill-opacity="0.3"/>
<rect x="226.344" y="138.089" width="14.3808" height="14.3808" rx="2" transform="rotate(-45 226.344 138.089)" fill="url(#paint31_radial_1011_11414)" fill-opacity="0.3"/>
<rect x="253.129" y="138.089" width="14.3808" height="14.3808" rx="2" transform="rotate(-45 253.129 138.089)" fill="url(#paint32_radial_1011_11414)" fill-opacity="0.3"/>
</g>
</g>
<g filter="url(#filter0_f_1011_11414)">
<rect x="102" y="99.686" width="90" height="93.2173" rx="6.0916" fill="black" fill-opacity="0.1"/>
</g>
<rect x="90" y="89" width="96" height="96" rx="17.625" fill="white"/>
<rect x="106" y="105" width="64" height="64" rx="12" fill="#B3B4B5"/>
<path d="M148.667 143.659C148.667 146.098 147.945 148.159 146.499 149.845C145.079 151.5 143.157 152.569 140.73 153.051V155.624C140.73 156.437 140.511 157.084 140.072 157.566C139.659 158.077 139.104 158.333 138.407 158.333C137.736 158.333 137.181 158.077 136.742 157.566C136.304 157.084 136.084 156.437 136.084 155.624V153.186C134.664 153.036 133.284 152.689 131.941 152.148C130.625 151.606 129.463 150.914 128.457 150.071C128.044 149.77 127.747 149.439 127.566 149.077C127.411 148.686 127.334 148.205 127.334 147.633C127.334 146.88 127.528 146.218 127.915 145.646C128.328 145.074 128.792 144.788 129.309 144.788C129.799 144.788 130.406 145.029 131.128 145.511C132.316 146.323 133.438 146.925 134.497 147.317C135.581 147.678 136.704 147.858 137.865 147.858C139.414 147.858 140.601 147.527 141.427 146.865C142.253 146.173 142.666 145.21 142.666 143.975C142.666 143.223 142.421 142.606 141.93 142.124C141.466 141.643 140.885 141.267 140.188 140.996C139.491 140.725 138.485 140.379 137.168 139.957C135.258 139.385 133.684 138.813 132.445 138.241C131.206 137.67 130.135 136.767 129.231 135.532C128.354 134.298 127.915 132.643 127.915 130.566C127.915 128.128 128.65 126.036 130.122 124.29C131.619 122.544 133.567 121.431 135.968 120.949V118.375C135.968 117.563 136.187 116.916 136.626 116.434C137.065 115.922 137.62 115.667 138.291 115.667C138.988 115.667 139.543 115.922 139.956 116.434C140.395 116.916 140.614 117.563 140.614 118.375V120.859C142.937 121.22 145.118 122.243 147.157 123.929C147.545 124.23 147.816 124.576 147.97 124.967C148.151 125.359 148.241 125.825 148.241 126.367C148.241 127.12 148.035 127.782 147.622 128.354C147.235 128.926 146.783 129.211 146.267 129.211C145.983 129.211 145.712 129.166 145.454 129.076C145.221 128.986 144.886 128.79 144.447 128.489C143.389 127.706 142.434 127.12 141.582 126.728C140.756 126.337 139.736 126.141 138.523 126.141C137.13 126.141 136.007 126.502 135.155 127.225C134.329 127.947 133.916 128.91 133.916 130.114C133.916 130.957 134.161 131.65 134.652 132.191C135.142 132.703 135.761 133.109 136.51 133.41C137.259 133.711 138.304 134.058 139.646 134.449C141.53 134.991 143.066 135.548 144.254 136.119C145.467 136.661 146.499 137.549 147.351 138.783C148.229 139.987 148.667 141.613 148.667 143.659Z" fill="white"/>
<path d="M60.8718 67.336C58.3438 67.336 56.2558 66.496 54.6078 64.816C52.9598 63.136 52.1357 61.064 52.1357 58.6C52.1357 56.12 52.9598 54.048 54.6078 52.384C56.2558 50.704 58.3438 49.864 60.8718 49.864C62.3918 49.864 63.7918 50.224 65.0718 50.944C66.3678 51.648 67.3758 52.608 68.0958 53.824L65.2398 55.48C64.8238 54.728 64.2318 54.144 63.4637 53.728C62.6958 53.296 61.8318 53.08 60.8718 53.08C59.2398 53.08 57.9198 53.592 56.9118 54.616C55.9198 55.64 55.4238 56.968 55.4238 58.6C55.4238 60.216 55.9198 61.536 56.9118 62.56C57.9198 63.584 59.2398 64.096 60.8718 64.096C61.8318 64.096 62.6958 63.888 63.4637 63.472C64.2478 63.04 64.8398 62.456 65.2398 61.72L68.0958 63.376C67.3758 64.592 66.3758 65.56 65.0958 66.28C63.8158 66.984 62.4078 67.336 60.8718 67.336ZM73.2698 57.064C73.5578 56.296 74.0298 55.72 74.6858 55.336C75.3578 54.952 76.1018 54.76 76.9178 54.76V58.216C75.9738 58.104 75.1258 58.296 74.3738 58.792C73.6378 59.288 73.2698 60.112 73.2698 61.264V67H70.1738V55H73.2698V57.064ZM80.8992 62.272C81.3152 63.776 82.4432 64.528 84.2832 64.528C85.4672 64.528 86.3632 64.128 86.9712 63.328L89.4672 64.768C88.2832 66.48 86.5392 67.336 84.2352 67.336C82.2512 67.336 80.6592 66.736 79.4592 65.536C78.2592 64.336 77.6592 62.824 77.6592 61C77.6592 59.192 78.2512 57.688 79.4352 56.488C80.6192 55.272 82.1392 54.664 83.9952 54.664C85.7552 54.664 87.2032 55.272 88.3392 56.488C89.4912 57.704 90.0672 59.208 90.0672 61C90.0672 61.4 90.0272 61.824 89.9472 62.272H80.8992ZM80.8512 59.872H86.9712C86.7952 59.056 86.4272 58.448 85.8672 58.048C85.3232 57.648 84.6992 57.448 83.9952 57.448C83.1632 57.448 82.4752 57.664 81.9312 58.096C81.3872 58.512 81.0272 59.104 80.8512 59.872ZM101.255 55H104.351V67H101.255V65.584C100.327 66.752 99.0228 67.336 97.3428 67.336C95.7428 67.336 94.3668 66.728 93.2148 65.512C92.0788 64.28 91.5107 62.776 91.5107 61C91.5107 59.224 92.0788 57.728 93.2148 56.512C94.3668 55.28 95.7428 54.664 97.3428 54.664C99.0228 54.664 100.327 55.248 101.255 56.416V55ZM95.5428 63.448C96.1668 64.072 96.9588 64.384 97.9188 64.384C98.8788 64.384 99.6708 64.072 100.295 63.448C100.935 62.808 101.255 61.992 101.255 61C101.255 60.008 100.935 59.2 100.295 58.576C99.6708 57.936 98.8788 57.616 97.9188 57.616C96.9588 57.616 96.1668 57.936 95.5428 58.576C94.9188 59.2 94.6068 60.008 94.6068 61C94.6068 61.992 94.9188 62.808 95.5428 63.448ZM114.022 57.976H111.31V62.968C111.31 63.384 111.414 63.688 111.622 63.88C111.83 64.072 112.134 64.184 112.534 64.216C112.934 64.232 113.43 64.224 114.022 64.192V67C111.894 67.24 110.39 67.04 109.51 66.4C108.646 65.76 108.214 64.616 108.214 62.968V57.976H106.126V55H108.214V52.576L111.31 51.64V55H114.022V57.976ZM118.446 62.272C118.862 63.776 119.99 64.528 121.83 64.528C123.014 64.528 123.91 64.128 124.518 63.328L127.014 64.768C125.83 66.48 124.086 67.336 121.782 67.336C119.798 67.336 118.206 66.736 117.006 65.536C115.806 64.336 115.206 62.824 115.206 61C115.206 59.192 115.798 57.688 116.982 56.488C118.166 55.272 119.686 54.664 121.542 54.664C123.302 54.664 124.75 55.272 125.886 56.488C127.038 57.704 127.614 59.208 127.614 61C127.614 61.4 127.574 61.824 127.494 62.272H118.446ZM118.398 59.872H124.518C124.342 59.056 123.974 58.448 123.414 58.048C122.87 57.648 122.246 57.448 121.542 57.448C120.71 57.448 120.022 57.664 119.478 58.096C118.934 58.512 118.574 59.104 118.398 59.872ZM137.311 53.56C136.799 53.56 136.351 53.376 135.967 53.008C135.599 52.624 135.415 52.176 135.415 51.664C135.415 51.152 135.599 50.704 135.967 50.32C136.351 49.936 136.799 49.744 137.311 49.744C137.839 49.744 138.287 49.936 138.655 50.32C139.039 50.704 139.231 51.152 139.231 51.664C139.231 52.176 139.039 52.624 138.655 53.008C138.287 53.376 137.839 53.56 137.311 53.56ZM135.775 67V55H138.871V67H135.775ZM148.377 54.664C149.689 54.664 150.769 55.104 151.617 55.984C152.481 56.864 152.913 58.08 152.913 59.632V67H149.817V60.016C149.817 59.216 149.601 58.608 149.169 58.192C148.737 57.76 148.161 57.544 147.441 57.544C146.641 57.544 146.001 57.792 145.521 58.288C145.041 58.784 144.801 59.528 144.801 60.52V67H141.705V55H144.801V56.344C145.553 55.224 146.745 54.664 148.377 54.664ZM163.242 55H166.65L162.09 67H158.562L154.002 55H157.41L160.314 63.4L163.242 55ZM177.898 65.512C176.666 66.728 175.162 67.336 173.386 67.336C171.61 67.336 170.106 66.728 168.874 65.512C167.658 64.28 167.05 62.776 167.05 61C167.05 59.224 167.658 57.728 168.874 56.512C170.106 55.28 171.61 54.664 173.386 54.664C175.162 54.664 176.666 55.28 177.898 56.512C179.13 57.728 179.746 59.224 179.746 61C179.746 62.776 179.13 64.28 177.898 65.512ZM171.058 63.376C171.682 64 172.458 64.312 173.386 64.312C174.314 64.312 175.09 64 175.714 63.376C176.338 62.752 176.65 61.96 176.65 61C176.65 60.04 176.338 59.248 175.714 58.624C175.09 58 174.314 57.688 173.386 57.688C172.458 57.688 171.682 58 171.058 58.624C170.45 59.248 170.146 60.04 170.146 61C170.146 61.96 170.45 62.752 171.058 63.376ZM183.46 53.56C182.948 53.56 182.5 53.376 182.116 53.008C181.748 52.624 181.564 52.176 181.564 51.664C181.564 51.152 181.748 50.704 182.116 50.32C182.5 49.936 182.948 49.744 183.46 49.744C183.988 49.744 184.436 49.936 184.804 50.32C185.188 50.704 185.38 51.152 185.38 51.664C185.38 52.176 185.188 52.624 184.804 53.008C184.436 53.376 183.988 53.56 183.46 53.56ZM181.924 67V55H185.02V67H181.924ZM193.566 67.336C191.758 67.336 190.246 66.728 189.03 65.512C187.83 64.296 187.229 62.792 187.229 61C187.229 59.208 187.83 57.704 189.03 56.488C190.246 55.272 191.758 54.664 193.566 54.664C194.734 54.664 195.798 54.944 196.758 55.504C197.718 56.064 198.446 56.816 198.942 57.76L196.278 59.32C196.038 58.824 195.67 58.432 195.174 58.144C194.694 57.856 194.15 57.712 193.542 57.712C192.614 57.712 191.846 58.024 191.238 58.648C190.63 59.256 190.326 60.04 190.326 61C190.326 61.944 190.63 62.728 191.238 63.352C191.846 63.96 192.614 64.264 193.542 64.264C194.166 64.264 194.718 64.128 195.198 63.856C195.694 63.568 196.062 63.176 196.302 62.68L198.99 64.216C198.462 65.16 197.718 65.92 196.758 66.496C195.798 67.056 194.734 67.336 193.566 67.336ZM203.055 62.272C203.471 63.776 204.599 64.528 206.439 64.528C207.623 64.528 208.519 64.128 209.127 63.328L211.623 64.768C210.439 66.48 208.695 67.336 206.391 67.336C204.407 67.336 202.815 66.736 201.615 65.536C200.415 64.336 199.815 62.824 199.815 61C199.815 59.192 200.407 57.688 201.591 56.488C202.775 55.272 204.295 54.664 206.151 54.664C207.911 54.664 209.359 55.272 210.495 56.488C211.647 57.704 212.223 59.208 212.223 61C212.223 61.4 212.183 61.824 212.103 62.272H203.055ZM203.007 59.872H209.127C208.951 59.056 208.583 58.448 208.023 58.048C207.479 57.648 206.855 57.448 206.151 57.448C205.319 57.448 204.631 57.664 204.087 58.096C203.543 58.512 203.183 59.104 203.007 59.872ZM216.772 58.408C216.772 58.728 216.98 58.992 217.396 59.2C217.828 59.392 218.348 59.568 218.956 59.728C219.564 59.872 220.172 60.064 220.78 60.304C221.388 60.528 221.9 60.912 222.316 61.456C222.748 62 222.964 62.68 222.964 63.496C222.964 64.728 222.5 65.68 221.572 66.352C220.66 67.008 219.516 67.336 218.14 67.336C215.676 67.336 213.996 66.384 213.1 64.48L215.788 62.968C216.14 64.008 216.924 64.528 218.14 64.528C219.244 64.528 219.796 64.184 219.796 63.496C219.796 63.176 219.58 62.92 219.148 62.728C218.732 62.52 218.22 62.336 217.612 62.176C217.004 62.016 216.396 61.816 215.788 61.576C215.18 61.336 214.66 60.96 214.228 60.448C213.812 59.92 213.604 59.264 213.604 58.48C213.604 57.296 214.036 56.368 214.9 55.696C215.78 55.008 216.868 54.664 218.164 54.664C219.14 54.664 220.028 54.888 220.828 55.336C221.628 55.768 222.26 56.392 222.724 57.208L220.084 58.648C219.7 57.832 219.06 57.424 218.164 57.424C217.764 57.424 217.428 57.512 217.156 57.688C216.9 57.864 216.772 58.104 216.772 58.408Z" fill="white"/>
<defs>
<filter id="filter0_f_1011_11414" x="71.5896" y="69.2756" width="150.821" height="154.038" filterUnits="userSpaceOnUse" color-interpolation-filters="sRGB">
<feFlood flood-opacity="0" result="BackgroundImageFix"/>
<feBlend mode="normal" in="SourceGraphic" in2="BackgroundImageFix" result="shape"/>
<feGaussianBlur stdDeviation="15.2052" result="effect1_foregroundBlur_1011_11414"/>
</filter>
<radialGradient id="paint0_radial_1011_11414" cx="0" cy="0" r="1" gradientUnits="userSpaceOnUse" gradientTransform="translate(137.44 111.277) rotate(81.1463) scale(214.614 399.967)">
<stop stop-color="#FF4B51"/>
<stop offset="1" stop-color="#FE474D"/>
</radialGradient>
<radialGradient id="paint1_radial_1011_11414" cx="0" cy="0" r="1" gradientUnits="userSpaceOnUse" gradientTransform="translate(269.956 245.463) rotate(85.3036) scale(226.087)">
<stop stop-color="#373737"/>
<stop offset="1" stop-color="#FAFAFA" stop-opacity="0"/>
</radialGradient>
<radialGradient id="paint2_radial_1011_11414" cx="0" cy="0" r="1" gradientUnits="userSpaceOnUse" gradientTransform="translate(-101.3 174.911) rotate(85.3036) scale(219.846)">
<stop stop-color="#373737"/>
<stop offset="1" stop-color="#FAFAFA" stop-opacity="0"/>
</radialGradient>
<radialGradient id="paint3_radial_1011_11414" cx="0" cy="0" r="1" gradientUnits="userSpaceOnUse" gradientTransform="translate(153.19 8.35934) rotate(85.3036) scale(13.7819)">
<stop stop-color="#6D6D6D" stop-opacity="0.6"/>
<stop offset="1" stop-color="#FAFAFA" stop-opacity="0"/>
</radialGradient>
<radialGradient id="paint4_radial_1011_11414" cx="0" cy="0" r="1" gradientUnits="userSpaceOnUse" gradientTransform="translate(179.974 8.3591) rotate(85.3036) scale(13.7819)">
<stop stop-color="#6D6D6D" stop-opacity="0.6"/>
<stop offset="1" stop-color="#FAFAFA" stop-opacity="0"/>
</radialGradient>
<radialGradient id="paint5_radial_1011_11414" cx="0" cy="0" r="1" gradientUnits="userSpaceOnUse" gradientTransform="translate(206.753 8.3591) rotate(85.3036) scale(13.7819)">
<stop stop-color="#6D6D6D" stop-opacity="0.6"/>
<stop offset="1" stop-color="#FAFAFA" stop-opacity="0"/>
</radialGradient>
<radialGradient id="paint6_radial_1011_11414" cx="0" cy="0" r="1" gradientUnits="userSpaceOnUse" gradientTransform="translate(233.534 8.3591) rotate(85.3036) scale(13.7819)">
<stop stop-color="#6D6D6D" stop-opacity="0.6"/>
<stop offset="1" stop-color="#FAFAFA" stop-opacity="0"/>
</radialGradient>
<radialGradient id="paint7_radial_1011_11414" cx="0" cy="0" r="1" gradientUnits="userSpaceOnUse" gradientTransform="translate(260.319 8.35934) rotate(85.3036) scale(13.7819)">
<stop stop-color="#6D6D6D" stop-opacity="0.6"/>
<stop offset="1" stop-color="#FAFAFA" stop-opacity="0"/>
</radialGradient>
<radialGradient id="paint8_radial_1011_11414" cx="0" cy="0" r="1" gradientUnits="userSpaceOnUse" gradientTransform="translate(153.19 63.1272) rotate(85.3036) scale(13.7819)">
<stop stop-color="#6D6D6D" stop-opacity="0.6"/>
<stop offset="1" stop-color="#FAFAFA" stop-opacity="0"/>
</radialGradient>
<radialGradient id="paint9_radial_1011_11414" cx="0" cy="0" r="1" gradientUnits="userSpaceOnUse" gradientTransform="translate(179.974 63.1272) rotate(85.3036) scale(13.7819)">
<stop stop-color="#6D6D6D" stop-opacity="0.6"/>
<stop offset="1" stop-color="#FAFAFA" stop-opacity="0"/>
</radialGradient>
<radialGradient id="paint10_radial_1011_11414" cx="0" cy="0" r="1" gradientUnits="userSpaceOnUse" gradientTransform="translate(206.753 63.1272) rotate(85.3036) scale(13.7819)">
<stop stop-color="#6D6D6D" stop-opacity="0.6"/>
<stop offset="1" stop-color="#FAFAFA" stop-opacity="0"/>
</radialGradient>
<radialGradient id="paint11_radial_1011_11414" cx="0" cy="0" r="1" gradientUnits="userSpaceOnUse" gradientTransform="translate(233.534 63.1272) rotate(85.3036) scale(13.7819)">
<stop stop-color="#6D6D6D" stop-opacity="0.6"/>
<stop offset="1" stop-color="#FAFAFA" stop-opacity="0"/>
</radialGradient>
<radialGradient id="paint12_radial_1011_11414" cx="0" cy="0" r="1" gradientUnits="userSpaceOnUse" gradientTransform="translate(260.319 63.1272) rotate(85.3036) scale(13.7819)">
<stop stop-color="#6D6D6D" stop-opacity="0.6"/>
<stop offset="1" stop-color="#FAFAFA" stop-opacity="0"/>
</radialGradient>
<radialGradient id="paint13_radial_1011_11414" cx="0" cy="0" r="1" gradientUnits="userSpaceOnUse" gradientTransform="translate(153.19 117.895) rotate(85.3036) scale(13.7819)">
<stop stop-color="#6D6D6D" stop-opacity="0.6"/>
<stop offset="1" stop-color="#FAFAFA" stop-opacity="0"/>
</radialGradient>
<radialGradient id="paint14_radial_1011_11414" cx="0" cy="0" r="1" gradientUnits="userSpaceOnUse" gradientTransform="translate(179.974 117.895) rotate(85.3036) scale(13.7819)">
<stop stop-color="#6D6D6D" stop-opacity="0.6"/>
<stop offset="1" stop-color="#FAFAFA" stop-opacity="0"/>
</radialGradient>
<radialGradient id="paint15_radial_1011_11414" cx="0" cy="0" r="1" gradientUnits="userSpaceOnUse" gradientTransform="translate(206.753 117.895) rotate(85.3036) scale(13.7819)">
<stop stop-color="#6D6D6D" stop-opacity="0.6"/>
<stop offset="1" stop-color="#FAFAFA" stop-opacity="0"/>
</radialGradient>
<radialGradient id="paint16_radial_1011_11414" cx="0" cy="0" r="1" gradientUnits="userSpaceOnUse" gradientTransform="translate(233.534 117.895) rotate(85.3036) scale(13.7819)">
<stop stop-color="#6D6D6D" stop-opacity="0.6"/>
<stop offset="1" stop-color="#FAFAFA" stop-opacity="0"/>
</radialGradient>
<radialGradient id="paint17_radial_1011_11414" cx="0" cy="0" r="1" gradientUnits="userSpaceOnUse" gradientTransform="translate(260.319 117.895) rotate(85.3036) scale(13.7819)">
<stop stop-color="#6D6D6D" stop-opacity="0.6"/>
<stop offset="1" stop-color="#FAFAFA" stop-opacity="0"/>
</radialGradient>
<radialGradient id="paint18_radial_1011_11414" cx="0" cy="0" r="1" gradientUnits="userSpaceOnUse" gradientTransform="translate(153.19 35.7431) rotate(85.3036) scale(13.7819)">
<stop stop-color="#6D6D6D" stop-opacity="0.6"/>
<stop offset="1" stop-color="#FAFAFA" stop-opacity="0"/>
</radialGradient>
<radialGradient id="paint19_radial_1011_11414" cx="0" cy="0" r="1" gradientUnits="userSpaceOnUse" gradientTransform="translate(179.974 35.7431) rotate(85.3036) scale(13.7819)">
<stop stop-color="#6D6D6D" stop-opacity="0.6"/>
<stop offset="1" stop-color="#FAFAFA" stop-opacity="0"/>
</radialGradient>
<radialGradient id="paint20_radial_1011_11414" cx="0" cy="0" r="1" gradientUnits="userSpaceOnUse" gradientTransform="translate(206.753 35.7431) rotate(85.3036) scale(13.7819)">
<stop stop-color="#6D6D6D" stop-opacity="0.6"/>
<stop offset="1" stop-color="#FAFAFA" stop-opacity="0"/>
</radialGradient>
<radialGradient id="paint21_radial_1011_11414" cx="0" cy="0" r="1" gradientUnits="userSpaceOnUse" gradientTransform="translate(233.534 35.7431) rotate(85.3036) scale(13.7819)">
<stop stop-color="#6D6D6D" stop-opacity="0.6"/>
<stop offset="1" stop-color="#FAFAFA" stop-opacity="0"/>
</radialGradient>
<radialGradient id="paint22_radial_1011_11414" cx="0" cy="0" r="1" gradientUnits="userSpaceOnUse" gradientTransform="translate(260.319 35.7431) rotate(85.3036) scale(13.7819)">
<stop stop-color="#6D6D6D" stop-opacity="0.6"/>
<stop offset="1" stop-color="#FAFAFA" stop-opacity="0"/>
</radialGradient>
<radialGradient id="paint23_radial_1011_11414" cx="0" cy="0" r="1" gradientUnits="userSpaceOnUse" gradientTransform="translate(7.1904 7.1904) rotate(85.3036) scale(13.7819)">
<stop stop-color="#6D6D6D" stop-opacity="0.6"/>
<stop offset="1" stop-color="#FAFAFA" stop-opacity="0"/>
</radialGradient>
<radialGradient id="paint24_radial_1011_11414" cx="0" cy="0" r="1" gradientUnits="userSpaceOnUse" gradientTransform="translate(7.1904 7.1904) rotate(85.3036) scale(13.7819)">
<stop stop-color="#6D6D6D" stop-opacity="0.6"/>
<stop offset="1" stop-color="#FAFAFA" stop-opacity="0"/>
</radialGradient>
<radialGradient id="paint25_radial_1011_11414" cx="0" cy="0" r="1" gradientUnits="userSpaceOnUse" gradientTransform="translate(7.1904 7.1904) rotate(85.3036) scale(13.7819)">
<stop stop-color="#6D6D6D" stop-opacity="0.6"/>
<stop offset="1" stop-color="#FAFAFA" stop-opacity="0"/>
</radialGradient>
<radialGradient id="paint26_radial_1011_11414" cx="0" cy="0" r="1" gradientUnits="userSpaceOnUse" gradientTransform="translate(7.1904 7.1904) rotate(85.3036) scale(13.7819)">
<stop stop-color="#6D6D6D" stop-opacity="0.6"/>
<stop offset="1" stop-color="#FAFAFA" stop-opacity="0"/>
</radialGradient>
<radialGradient id="paint27_radial_1011_11414" cx="0" cy="0" r="1" gradientUnits="userSpaceOnUse" gradientTransform="translate(7.1904 7.1904) rotate(85.3036) scale(13.7819)">
<stop stop-color="#6D6D6D" stop-opacity="0.6"/>
<stop offset="1" stop-color="#FAFAFA" stop-opacity="0"/>
</radialGradient>
<radialGradient id="paint28_radial_1011_11414" cx="0" cy="0" r="1" gradientUnits="userSpaceOnUse" gradientTransform="translate(153.19 145.28) rotate(85.3036) scale(13.7819)">
<stop stop-color="#6D6D6D" stop-opacity="0.6"/>
<stop offset="1" stop-color="#FAFAFA" stop-opacity="0"/>
</radialGradient>
<radialGradient id="paint29_radial_1011_11414" cx="0" cy="0" r="1" gradientUnits="userSpaceOnUse" gradientTransform="translate(179.974 145.28) rotate(85.3036) scale(13.7819)">
<stop stop-color="#6D6D6D" stop-opacity="0.6"/>
<stop offset="1" stop-color="#FAFAFA" stop-opacity="0"/>
</radialGradient>
<radialGradient id="paint30_radial_1011_11414" cx="0" cy="0" r="1" gradientUnits="userSpaceOnUse" gradientTransform="translate(206.753 145.28) rotate(85.3036) scale(13.7819)">
<stop stop-color="#6D6D6D" stop-opacity="0.6"/>
<stop offset="1" stop-color="#FAFAFA" stop-opacity="0"/>
</radialGradient>
<radialGradient id="paint31_radial_1011_11414" cx="0" cy="0" r="1" gradientUnits="userSpaceOnUse" gradientTransform="translate(233.534 145.28) rotate(85.3036) scale(13.7819)">
<stop stop-color="#6D6D6D" stop-opacity="0.6"/>
<stop offset="1" stop-color="#FAFAFA" stop-opacity="0"/>
</radialGradient>
<radialGradient id="paint32_radial_1011_11414" cx="0" cy="0" r="1" gradientUnits="userSpaceOnUse" gradientTransform="translate(260.319 145.28) rotate(85.3036) scale(13.7819)">
<stop stop-color="#6D6D6D" stop-opacity="0.6"/>
<stop offset="1" stop-color="#FAFAFA" stop-opacity="0"/>
</radialGradient>
</defs>
</svg>
