<svg width="96" height="96" viewBox="0 0 96 96" fill="none" xmlns="http://www.w3.org/2000/svg">
<rect width="96" height="96" rx="17.625" fill="white"/>
<rect x="16" y="16" width="64" height="64" rx="12" fill="#B3B4B5"/>
<path d="M58.6673 54.6595C58.6673 57.0975 57.9446 59.1594 56.4991 60.845C55.0795 62.5005 53.1565 63.569 50.7302 64.0506V66.6242C50.7302 67.4369 50.5108 68.084 50.072 68.5656C49.659 69.0773 49.1041 69.3332 48.4072 69.3332C47.7361 69.3332 47.1811 69.0773 46.7423 68.5656C46.3035 68.084 46.0841 67.4369 46.0841 66.6242V64.1861C44.6645 64.0356 43.2836 63.6894 41.9414 63.1476C40.625 62.6058 39.4634 61.9135 38.4568 61.0707C38.0438 60.7697 37.747 60.4386 37.5663 60.0774C37.4114 59.6861 37.334 59.2045 37.334 58.6326C37.334 57.8801 37.5276 57.2179 37.9147 56.646C38.3277 56.0741 38.7923 55.7882 39.3086 55.7882C39.799 55.7882 40.4056 56.029 41.1283 56.5106C42.3156 57.3233 43.4384 57.9253 44.4967 58.3166C45.5808 58.6778 46.7036 58.8584 47.8651 58.8584C49.4138 58.8584 50.6012 58.5273 51.4271 57.8651C52.2531 57.1728 52.6661 56.2096 52.6661 54.9755C52.6661 54.223 52.4209 53.606 51.9305 53.1244C51.4659 52.6428 50.8851 52.2665 50.1882 51.9956C49.4913 51.7247 48.4846 51.3786 47.1682 50.9572C45.2582 50.3853 43.6837 49.8134 42.4447 49.2415C41.2057 48.6696 40.1345 47.7666 39.2311 46.5325C38.3535 45.2984 37.9147 43.6429 37.9147 41.566C37.9147 39.1279 38.6504 37.0359 40.1216 35.2901C41.6187 33.5443 43.5675 32.4306 45.968 31.949V29.3755C45.968 28.5628 46.1874 27.9157 46.6262 27.4341C47.065 26.9224 47.6199 26.6665 48.291 26.6665C48.9879 26.6665 49.5429 26.9224 49.9559 27.4341C50.3947 27.9157 50.6141 28.5628 50.6141 29.3755V31.8587C52.9371 32.2199 55.1182 33.2433 57.1573 34.9289C57.5445 35.2299 57.8155 35.5761 57.9704 35.9674C58.1511 36.3587 58.2414 36.8252 58.2414 37.367C58.2414 38.1195 58.0349 38.7817 57.6219 39.3536C57.2348 39.9255 56.7831 40.2115 56.2668 40.2115C55.9829 40.2115 55.7119 40.1663 55.4538 40.076C55.2215 39.9857 54.8859 39.7901 54.4471 39.4891C53.3888 38.7065 52.4338 38.1195 51.582 37.7282C50.756 37.3369 49.7365 37.1413 48.5233 37.1413C47.1295 37.1413 46.0067 37.5025 45.1549 38.2249C44.3289 38.9473 43.916 39.9105 43.916 41.1145C43.916 41.9573 44.1612 42.6496 44.6516 43.1914C45.142 43.7031 45.7615 44.1094 46.51 44.4104C47.2586 44.7114 48.3039 45.0576 49.6461 45.4489C51.5304 45.9907 53.0662 46.5475 54.2535 47.1194C55.4667 47.6612 56.4991 48.5492 57.3509 49.7833C58.2285 50.9873 58.6673 52.6127 58.6673 54.6595Z" fill="white"/>
</svg>
