<svg width="96" height="96" viewBox="0 0 96 96" fill="none" xmlns="http://www.w3.org/2000/svg">
<rect width="96" height="96" rx="17.5493" fill="white"/>
<path d="M24.2852 49.7766C24.2852 44.2872 28.7228 39.7812 34.2837 39.5282L34.7772 39.517H46.0964V53.4127C46.0964 54.4086 46.8998 55.196 47.916 55.196C48.8257 55.196 49.5965 54.5343 49.7187 53.657L49.7355 53.4127V39.517H61.0311C66.6552 39.517 71.2758 43.8661 71.5353 49.3374L71.5468 49.823V61.1017C71.5468 66.6137 67.1091 71.1203 61.5482 71.3733L61.0547 71.3845H34.8009C29.1538 71.3845 24.5548 67.0135 24.2966 61.5622L24.2852 61.0785V49.7766ZM39.7638 33.7348C39.0978 33.114 39.0373 32.1358 39.5644 31.45L39.7402 31.2537L46.6167 24.607C46.9712 24.2656 47.4202 24.0835 47.9164 24.0835C48.2945 24.0835 48.6726 24.2 48.9781 24.4215L49.1925 24.607L56.0691 31.2537C56.4235 31.5951 56.6126 32.0504 56.6126 32.4829C56.6126 32.9381 56.4235 33.3934 56.0691 33.7348C55.4246 34.3556 54.409 34.412 53.6971 33.9041L53.4933 33.7348L49.736 30.0928L49.7355 39.517H46.0964L46.0969 30.0928L42.3396 33.7348C41.6306 34.4177 40.4727 34.4177 39.7638 33.7348Z" fill="#B3B4B5"/>
</svg>
