<svg width="152" height="155" viewBox="0 0 152 155" fill="none" xmlns="http://www.w3.org/2000/svg">
<g filter="url(#filter0_f_1011_9095)">
<rect x="31" y="30.6487" width="90" height="93.217" rx="6.0916" fill="black" fill-opacity="0.1"/>
</g>
<rect x="19" y="20" width="96" height="96" rx="17.5493" fill="white"/>
<path d="M43.2852 69.7766C43.2852 64.2872 47.7228 59.7812 53.2837 59.5282L53.7772 59.517H65.0964V73.4127C65.0964 74.4086 65.8998 75.196 66.916 75.196C67.8257 75.196 68.5965 74.5343 68.7187 73.657L68.7355 73.4127V59.517H80.0311C85.6552 59.517 90.2758 63.8661 90.5353 69.3374L90.5468 69.823V81.1017C90.5468 86.6137 86.1091 91.1203 80.5482 91.3733L80.0547 91.3845H53.8009C48.1538 91.3845 43.5548 87.0135 43.2966 81.5622L43.2852 81.0785V69.7766ZM58.7638 53.7348C58.0978 53.114 58.0373 52.1358 58.5644 51.45L58.7402 51.2537L65.6167 44.607C65.9712 44.2656 66.4202 44.0835 66.9164 44.0835C67.2945 44.0835 67.6726 44.2 67.9781 44.4215L68.1925 44.607L75.0691 51.2537C75.4235 51.5951 75.6126 52.0504 75.6126 52.4829C75.6126 52.9381 75.4235 53.3934 75.0691 53.7348C74.4246 54.3556 73.409 54.412 72.6971 53.9041L72.4933 53.7348L68.736 50.0928L68.7355 59.517H65.0964L65.0969 50.0928L61.3396 53.7348C60.6306 54.4177 59.4727 54.4177 58.7638 53.7348Z" fill="#B3B4B5"/>
<defs>
<filter id="filter0_f_1011_9095" x="0.589563" y="0.238245" width="150.821" height="154.038" filterUnits="userSpaceOnUse" color-interpolation-filters="sRGB">
<feFlood flood-opacity="0" result="BackgroundImageFix"/>
<feBlend mode="normal" in="SourceGraphic" in2="BackgroundImageFix" result="shape"/>
<feGaussianBlur stdDeviation="15.2052" result="effect1_foregroundBlur_1011_9095"/>
</filter>
</defs>
</svg>
