<svg width="81" height="76" viewBox="0 0 81 76" fill="none" xmlns="http://www.w3.org/2000/svg">
<path d="M25.2484 54.5651C23.2226 53.3759 20.6163 54.054 19.4271 56.0798C18.2378 58.1056 18.916 60.7119 20.9417 61.9011C22.9675 63.0904 25.5738 62.4122 26.7631 60.3864C27.9523 58.3607 27.2742 55.7544 25.2484 54.5651Z" fill="#3897FF"/>
<path d="M73.2179 31.9995L73.6366 39.3753L79.2162 44.2173L71.8404 44.636L66.9984 50.2156L66.5793 42.84L61.0001 37.9978L68.3758 37.5791L73.2179 31.9995Z" fill="#FFCC00"/>
<path d="M29.8897 14.9882L34.3034 20.9122L41.6274 21.8788L35.7029 26.2925L34.7367 33.6165L30.323 27.6924L22.9991 26.7258L28.9229 22.3123L29.8897 14.9882Z" fill="#8E4DD5"/>
</svg>
