<svg width="768" height="274" viewBox="0 0 768 274" fill="none" xmlns="http://www.w3.org/2000/svg">
<mask id="mask0_1102_1847" style="mask-type:alpha" maskUnits="userSpaceOnUse" x="0" y="0" width="768" height="274">
<path d="M0 0H704C739.346 0 768 28.6538 768 64V210C768 245.346 739.346 274 704 274H0V0Z" fill="url(#paint0_radial_1102_1847)"/>
</mask>
<g mask="url(#mask0_1102_1847)">
<rect x="470" y="272.273" width="506.675" height="506.675" rx="42.989" transform="rotate(-45 470 272.273)" fill="url(#paint1_radial_1102_1847)" fill-opacity="0.6"/>
<rect x="-348" y="127.333" width="479.889" height="479.889" rx="36.7977" transform="rotate(-45 -348 127.333)" fill="url(#paint2_radial_1102_1847)" fill-opacity="0.6"/>
<g opacity="0.5">
<rect x="8" y="212.302" width="25.8816" height="25.8816" rx="5.03638" transform="rotate(-45 8 212.302)" fill="url(#paint3_radial_1102_1847)" fill-opacity="0.5"/>
<rect x="56.2031" y="212.301" width="25.8816" height="25.8816" rx="5.03638" transform="rotate(-45 56.2031 212.301)" fill="url(#paint4_radial_1102_1847)" fill-opacity="0.5"/>
<rect x="104.397" y="212.301" width="25.8816" height="25.8816" rx="5.03638" transform="rotate(-45 104.397 212.301)" fill="url(#paint5_radial_1102_1847)" fill-opacity="0.5"/>
<rect x="152.598" y="212.301" width="25.8816" height="25.8816" rx="5.03638" transform="rotate(-45 152.598 212.301)" fill="url(#paint6_radial_1102_1847)" fill-opacity="0.5"/>
<rect x="200.804" y="212.302" width="25.8816" height="25.8816" rx="5.03638" transform="rotate(-45 200.804 212.302)" fill="url(#paint7_radial_1102_1847)" fill-opacity="0.5"/>
<rect x="248.998" y="212.301" width="25.8816" height="25.8816" rx="5.03638" transform="rotate(-45 248.998 212.301)" fill="url(#paint8_radial_1102_1847)" fill-opacity="0.5"/>
<rect x="297.198" y="212.301" width="25.8816" height="25.8816" rx="5.03638" transform="rotate(-45 297.198 212.301)" fill="url(#paint9_radial_1102_1847)" fill-opacity="0.5"/>
<rect x="345.397" y="212.301" width="25.8816" height="25.8816" rx="5.03638" transform="rotate(-45 345.397 212.301)" fill="url(#paint10_radial_1102_1847)" fill-opacity="0.5"/>
</g>
<g opacity="0.5">
<rect x="8" y="261.585" width="25.8816" height="25.8816" rx="5.03638" transform="rotate(-45 8 261.585)" fill="url(#paint11_radial_1102_1847)" fill-opacity="0.5"/>
<rect x="56.2031" y="261.585" width="25.8816" height="25.8816" rx="5.03638" transform="rotate(-45 56.2031 261.585)" fill="url(#paint12_radial_1102_1847)" fill-opacity="0.5"/>
<rect x="104.398" y="261.585" width="25.8816" height="25.8816" rx="5.03638" transform="rotate(-45 104.398 261.585)" fill="url(#paint13_radial_1102_1847)" fill-opacity="0.5"/>
<rect x="152.598" y="261.585" width="25.8816" height="25.8816" rx="5.03638" transform="rotate(-45 152.598 261.585)" fill="url(#paint14_radial_1102_1847)" fill-opacity="0.5"/>
<rect x="200.804" y="261.585" width="25.8816" height="25.8816" rx="5.03638" transform="rotate(-45 200.804 261.585)" fill="url(#paint15_radial_1102_1847)" fill-opacity="0.5"/>
<rect x="248.998" y="261.585" width="25.8816" height="25.8816" rx="5.03638" transform="rotate(-45 248.998 261.585)" fill="url(#paint16_radial_1102_1847)" fill-opacity="0.5"/>
<rect x="297.198" y="261.585" width="25.8816" height="25.8816" rx="5.03638" transform="rotate(-45 297.198 261.585)" fill="url(#paint17_radial_1102_1847)" fill-opacity="0.5"/>
<rect x="345.397" y="261.585" width="25.8816" height="25.8816" rx="5.03638" transform="rotate(-45 345.397 261.585)" fill="url(#paint18_radial_1102_1847)" fill-opacity="0.5"/>
</g>
<g opacity="0.5">
<rect x="615" y="9.57324" width="15.4076" height="15.4076" rx="3.2057" transform="rotate(-45 615 9.57324)" fill="url(#paint19_radial_1102_1847)" fill-opacity="0.5"/>
<rect x="643.696" y="9.57324" width="15.4076" height="15.4076" rx="3.2057" transform="rotate(-45 643.696 9.57324)" fill="url(#paint20_radial_1102_1847)" fill-opacity="0.5"/>
<rect x="672.387" y="9.57324" width="15.4076" height="15.4076" rx="3.2057" transform="rotate(-45 672.387 9.57324)" fill="url(#paint21_radial_1102_1847)" fill-opacity="0.5"/>
<rect x="701.081" y="9.57324" width="15.4076" height="15.4076" rx="3.2057" transform="rotate(-45 701.081 9.57324)" fill="url(#paint22_radial_1102_1847)" fill-opacity="0.5"/>
<rect x="729.778" y="9.57324" width="15.4076" height="15.4076" rx="3.2057" transform="rotate(-45 729.778 9.57324)" fill="url(#paint23_radial_1102_1847)" fill-opacity="0.5"/>
<rect x="758.469" y="9.57324" width="15.4076" height="15.4076" rx="3.2057" transform="rotate(-45 758.469 9.57324)" fill="url(#paint24_radial_1102_1847)" fill-opacity="0.5"/>
</g>
<g opacity="0.5">
<rect x="615" y="68.252" width="15.4076" height="15.4076" rx="3.2057" transform="rotate(-45 615 68.252)" fill="url(#paint25_radial_1102_1847)" fill-opacity="0.5"/>
<rect x="643.696" y="68.252" width="15.4076" height="15.4076" rx="3.2057" transform="rotate(-45 643.696 68.252)" fill="url(#paint26_radial_1102_1847)" fill-opacity="0.5"/>
<rect x="672.387" y="68.252" width="15.4076" height="15.4076" rx="3.2057" transform="rotate(-45 672.387 68.252)" fill="url(#paint27_radial_1102_1847)" fill-opacity="0.5"/>
<rect x="701.081" y="68.252" width="15.4076" height="15.4076" rx="3.2057" transform="rotate(-45 701.081 68.252)" fill="url(#paint28_radial_1102_1847)" fill-opacity="0.5"/>
<rect x="729.778" y="68.252" width="15.4076" height="15.4076" rx="3.2057" transform="rotate(-45 729.778 68.252)" fill="url(#paint29_radial_1102_1847)" fill-opacity="0.5"/>
<rect x="758.469" y="68.252" width="15.4076" height="15.4076" rx="3.2057" transform="rotate(-45 758.469 68.252)" fill="url(#paint30_radial_1102_1847)" fill-opacity="0.5"/>
</g>
<g opacity="0.5">
<rect width="15.4076" height="15.4076" rx="3.2057" transform="matrix(0.707105 -0.707108 0.707105 0.707108 615 38.9124)" fill="url(#paint31_radial_1102_1847)" fill-opacity="0.5"/>
<rect width="15.4076" height="15.4076" rx="3.2057" transform="matrix(0.707105 -0.707108 0.707105 0.707108 643.696 38.9124)" fill="url(#paint32_radial_1102_1847)" fill-opacity="0.5"/>
<rect width="15.4076" height="15.4076" rx="3.2057" transform="matrix(0.707105 -0.707108 0.707105 0.707108 672.387 38.9124)" fill="url(#paint33_radial_1102_1847)" fill-opacity="0.5"/>
<rect width="15.4076" height="15.4076" rx="3.2057" transform="matrix(0.707105 -0.707108 0.707105 0.707108 701.081 38.9124)" fill="url(#paint34_radial_1102_1847)" fill-opacity="0.5"/>
<rect width="15.4076" height="15.4076" rx="3.2057" transform="matrix(0.707105 -0.707108 0.707105 0.707108 729.778 38.9124)" fill="url(#paint35_radial_1102_1847)" fill-opacity="0.5"/>
<rect width="15.4076" height="15.4076" rx="3.2057" transform="matrix(0.707105 -0.707108 0.707105 0.707108 758.469 38.9124)" fill="url(#paint36_radial_1102_1847)" fill-opacity="0.5"/>
</g>
<g opacity="0.5">
<rect x="615" y="97.5913" width="15.4076" height="15.4076" rx="3.2057" transform="rotate(-45 615 97.5913)" fill="url(#paint37_radial_1102_1847)" fill-opacity="0.5"/>
<rect x="643.696" y="97.5913" width="15.4076" height="15.4076" rx="3.2057" transform="rotate(-45 643.696 97.5913)" fill="url(#paint38_radial_1102_1847)" fill-opacity="0.5"/>
<rect x="672.387" y="97.5913" width="15.4076" height="15.4076" rx="3.2057" transform="rotate(-45 672.387 97.5913)" fill="url(#paint39_radial_1102_1847)" fill-opacity="0.5"/>
<rect x="701.081" y="97.5913" width="15.4076" height="15.4076" rx="3.2057" transform="rotate(-45 701.081 97.5913)" fill="url(#paint40_radial_1102_1847)" fill-opacity="0.5"/>
<rect x="729.778" y="97.5913" width="15.4076" height="15.4076" rx="3.2057" transform="rotate(-45 729.778 97.5913)" fill="url(#paint41_radial_1102_1847)" fill-opacity="0.5"/>
<rect x="758.469" y="97.5913" width="15.4076" height="15.4076" rx="3.2057" transform="rotate(-45 758.469 97.5913)" fill="url(#paint42_radial_1102_1847)" fill-opacity="0.5"/>
</g>
</g>
<defs>
<radialGradient id="paint0_radial_1102_1847" cx="0" cy="0" r="1" gradientUnits="userSpaceOnUse" gradientTransform="translate(383.832 133.143) rotate(70.0201) scale(269.976 1062.43)">
<stop stop-color="#FF4B51"/>
<stop offset="1" stop-color="#FE474D"/>
</radialGradient>
<radialGradient id="paint1_radial_1102_1847" cx="0" cy="0" r="1" gradientUnits="userSpaceOnUse" gradientTransform="translate(723.338 525.611) rotate(85.3036) scale(485.574)">
<stop stop-color="white"/>
<stop offset="1" stop-color="#FAFAFA"/>
</radialGradient>
<radialGradient id="paint2_radial_1102_1847" cx="0" cy="0" r="1" gradientUnits="userSpaceOnUse" gradientTransform="translate(-108.055 367.277) rotate(85.3036) scale(459.903)">
<stop stop-color="white"/>
<stop offset="1" stop-color="#FAFAFA"/>
</radialGradient>
<radialGradient id="paint3_radial_1102_1847" cx="0" cy="0" r="1" gradientUnits="userSpaceOnUse" gradientTransform="translate(20.9408 225.243) rotate(85.3036) scale(24.8037)">
<stop stop-color="#D2D2D2"/>
<stop offset="1" stop-color="#FAFAFA"/>
</radialGradient>
<radialGradient id="paint4_radial_1102_1847" cx="0" cy="0" r="1" gradientUnits="userSpaceOnUse" gradientTransform="translate(69.1439 225.242) rotate(85.3036) scale(24.8037)">
<stop stop-color="#D2D2D2"/>
<stop offset="1" stop-color="#FAFAFA"/>
</radialGradient>
<radialGradient id="paint5_radial_1102_1847" cx="0" cy="0" r="1" gradientUnits="userSpaceOnUse" gradientTransform="translate(117.338 225.242) rotate(85.3036) scale(24.8037)">
<stop stop-color="#D2D2D2"/>
<stop offset="1" stop-color="#FAFAFA"/>
</radialGradient>
<radialGradient id="paint6_radial_1102_1847" cx="0" cy="0" r="1" gradientUnits="userSpaceOnUse" gradientTransform="translate(165.538 225.242) rotate(85.3036) scale(24.8037)">
<stop stop-color="#D2D2D2"/>
<stop offset="1" stop-color="#FAFAFA"/>
</radialGradient>
<radialGradient id="paint7_radial_1102_1847" cx="0" cy="0" r="1" gradientUnits="userSpaceOnUse" gradientTransform="translate(213.745 225.243) rotate(85.3036) scale(24.8037)">
<stop stop-color="#D2D2D2"/>
<stop offset="1" stop-color="#FAFAFA"/>
</radialGradient>
<radialGradient id="paint8_radial_1102_1847" cx="0" cy="0" r="1" gradientUnits="userSpaceOnUse" gradientTransform="translate(261.939 225.242) rotate(85.3036) scale(24.8037)">
<stop stop-color="#D2D2D2"/>
<stop offset="1" stop-color="#FAFAFA"/>
</radialGradient>
<radialGradient id="paint9_radial_1102_1847" cx="0" cy="0" r="1" gradientUnits="userSpaceOnUse" gradientTransform="translate(310.139 225.242) rotate(85.3036) scale(24.8037)">
<stop stop-color="#D2D2D2"/>
<stop offset="1" stop-color="#FAFAFA"/>
</radialGradient>
<radialGradient id="paint10_radial_1102_1847" cx="0" cy="0" r="1" gradientUnits="userSpaceOnUse" gradientTransform="translate(358.338 225.242) rotate(85.3036) scale(24.8037)">
<stop stop-color="#D2D2D2"/>
<stop offset="1" stop-color="#FAFAFA"/>
</radialGradient>
<radialGradient id="paint11_radial_1102_1847" cx="0" cy="0" r="1" gradientUnits="userSpaceOnUse" gradientTransform="translate(20.9408 274.526) rotate(85.3036) scale(24.8037)">
<stop stop-color="#D2D2D2"/>
<stop offset="1" stop-color="#FAFAFA"/>
</radialGradient>
<radialGradient id="paint12_radial_1102_1847" cx="0" cy="0" r="1" gradientUnits="userSpaceOnUse" gradientTransform="translate(69.1439 274.526) rotate(85.3036) scale(24.8037)">
<stop stop-color="#D2D2D2"/>
<stop offset="1" stop-color="#FAFAFA"/>
</radialGradient>
<radialGradient id="paint13_radial_1102_1847" cx="0" cy="0" r="1" gradientUnits="userSpaceOnUse" gradientTransform="translate(117.339 274.526) rotate(85.3036) scale(24.8037)">
<stop stop-color="#D2D2D2"/>
<stop offset="1" stop-color="#FAFAFA"/>
</radialGradient>
<radialGradient id="paint14_radial_1102_1847" cx="0" cy="0" r="1" gradientUnits="userSpaceOnUse" gradientTransform="translate(165.538 274.526) rotate(85.3036) scale(24.8037)">
<stop stop-color="#D2D2D2"/>
<stop offset="1" stop-color="#FAFAFA"/>
</radialGradient>
<radialGradient id="paint15_radial_1102_1847" cx="0" cy="0" r="1" gradientUnits="userSpaceOnUse" gradientTransform="translate(213.745 274.526) rotate(85.3036) scale(24.8037)">
<stop stop-color="#D2D2D2"/>
<stop offset="1" stop-color="#FAFAFA"/>
</radialGradient>
<radialGradient id="paint16_radial_1102_1847" cx="0" cy="0" r="1" gradientUnits="userSpaceOnUse" gradientTransform="translate(261.939 274.526) rotate(85.3036) scale(24.8037)">
<stop stop-color="#D2D2D2"/>
<stop offset="1" stop-color="#FAFAFA"/>
</radialGradient>
<radialGradient id="paint17_radial_1102_1847" cx="0" cy="0" r="1" gradientUnits="userSpaceOnUse" gradientTransform="translate(310.139 274.526) rotate(85.3036) scale(24.8037)">
<stop stop-color="#D2D2D2"/>
<stop offset="1" stop-color="#FAFAFA"/>
</radialGradient>
<radialGradient id="paint18_radial_1102_1847" cx="0" cy="0" r="1" gradientUnits="userSpaceOnUse" gradientTransform="translate(358.338 274.526) rotate(85.3036) scale(24.8037)">
<stop stop-color="#D2D2D2"/>
<stop offset="1" stop-color="#FAFAFA"/>
</radialGradient>
<radialGradient id="paint19_radial_1102_1847" cx="0" cy="0" r="1" gradientUnits="userSpaceOnUse" gradientTransform="translate(622.704 17.277) rotate(85.3036) scale(14.7659)">
<stop stop-color="#D2D2D2"/>
<stop offset="1" stop-color="#FAFAFA"/>
</radialGradient>
<radialGradient id="paint20_radial_1102_1847" cx="0" cy="0" r="1" gradientUnits="userSpaceOnUse" gradientTransform="translate(651.4 17.277) rotate(85.3036) scale(14.7659)">
<stop stop-color="#D2D2D2"/>
<stop offset="1" stop-color="#FAFAFA"/>
</radialGradient>
<radialGradient id="paint21_radial_1102_1847" cx="0" cy="0" r="1" gradientUnits="userSpaceOnUse" gradientTransform="translate(680.09 17.277) rotate(85.3036) scale(14.7659)">
<stop stop-color="#D2D2D2"/>
<stop offset="1" stop-color="#FAFAFA"/>
</radialGradient>
<radialGradient id="paint22_radial_1102_1847" cx="0" cy="0" r="1" gradientUnits="userSpaceOnUse" gradientTransform="translate(708.785 17.277) rotate(85.3036) scale(14.7659)">
<stop stop-color="#D2D2D2"/>
<stop offset="1" stop-color="#FAFAFA"/>
</radialGradient>
<radialGradient id="paint23_radial_1102_1847" cx="0" cy="0" r="1" gradientUnits="userSpaceOnUse" gradientTransform="translate(737.482 17.277) rotate(85.3036) scale(14.7659)">
<stop stop-color="#D2D2D2"/>
<stop offset="1" stop-color="#FAFAFA"/>
</radialGradient>
<radialGradient id="paint24_radial_1102_1847" cx="0" cy="0" r="1" gradientUnits="userSpaceOnUse" gradientTransform="translate(766.173 17.277) rotate(85.3036) scale(14.7659)">
<stop stop-color="#D2D2D2"/>
<stop offset="1" stop-color="#FAFAFA"/>
</radialGradient>
<radialGradient id="paint25_radial_1102_1847" cx="0" cy="0" r="1" gradientUnits="userSpaceOnUse" gradientTransform="translate(622.704 75.9557) rotate(85.3036) scale(14.7659)">
<stop stop-color="#D2D2D2"/>
<stop offset="1" stop-color="#FAFAFA"/>
</radialGradient>
<radialGradient id="paint26_radial_1102_1847" cx="0" cy="0" r="1" gradientUnits="userSpaceOnUse" gradientTransform="translate(651.4 75.9557) rotate(85.3036) scale(14.7659)">
<stop stop-color="#D2D2D2"/>
<stop offset="1" stop-color="#FAFAFA"/>
</radialGradient>
<radialGradient id="paint27_radial_1102_1847" cx="0" cy="0" r="1" gradientUnits="userSpaceOnUse" gradientTransform="translate(680.09 75.9557) rotate(85.3036) scale(14.7659)">
<stop stop-color="#D2D2D2"/>
<stop offset="1" stop-color="#FAFAFA"/>
</radialGradient>
<radialGradient id="paint28_radial_1102_1847" cx="0" cy="0" r="1" gradientUnits="userSpaceOnUse" gradientTransform="translate(708.785 75.9557) rotate(85.3036) scale(14.7659)">
<stop stop-color="#D2D2D2"/>
<stop offset="1" stop-color="#FAFAFA"/>
</radialGradient>
<radialGradient id="paint29_radial_1102_1847" cx="0" cy="0" r="1" gradientUnits="userSpaceOnUse" gradientTransform="translate(737.482 75.9557) rotate(85.3036) scale(14.7659)">
<stop stop-color="#D2D2D2"/>
<stop offset="1" stop-color="#FAFAFA"/>
</radialGradient>
<radialGradient id="paint30_radial_1102_1847" cx="0" cy="0" r="1" gradientUnits="userSpaceOnUse" gradientTransform="translate(766.173 75.9557) rotate(85.3036) scale(14.7659)">
<stop stop-color="#D2D2D2"/>
<stop offset="1" stop-color="#FAFAFA"/>
</radialGradient>
<radialGradient id="paint31_radial_1102_1847" cx="0" cy="0" r="1" gradientUnits="userSpaceOnUse" gradientTransform="translate(7.70378 7.70378) rotate(85.3036) scale(14.7659)">
<stop stop-color="#D2D2D2"/>
<stop offset="1" stop-color="#FAFAFA"/>
</radialGradient>
<radialGradient id="paint32_radial_1102_1847" cx="0" cy="0" r="1" gradientUnits="userSpaceOnUse" gradientTransform="translate(7.70378 7.70378) rotate(85.3036) scale(14.7659)">
<stop stop-color="#D2D2D2"/>
<stop offset="1" stop-color="#FAFAFA"/>
</radialGradient>
<radialGradient id="paint33_radial_1102_1847" cx="0" cy="0" r="1" gradientUnits="userSpaceOnUse" gradientTransform="translate(7.70378 7.70378) rotate(85.3036) scale(14.7659)">
<stop stop-color="#D2D2D2"/>
<stop offset="1" stop-color="#FAFAFA"/>
</radialGradient>
<radialGradient id="paint34_radial_1102_1847" cx="0" cy="0" r="1" gradientUnits="userSpaceOnUse" gradientTransform="translate(7.70378 7.70378) rotate(85.3036) scale(14.7659)">
<stop stop-color="#D2D2D2"/>
<stop offset="1" stop-color="#FAFAFA"/>
</radialGradient>
<radialGradient id="paint35_radial_1102_1847" cx="0" cy="0" r="1" gradientUnits="userSpaceOnUse" gradientTransform="translate(7.70378 7.70378) rotate(85.3036) scale(14.7659)">
<stop stop-color="#D2D2D2"/>
<stop offset="1" stop-color="#FAFAFA"/>
</radialGradient>
<radialGradient id="paint36_radial_1102_1847" cx="0" cy="0" r="1" gradientUnits="userSpaceOnUse" gradientTransform="translate(7.70378 7.70378) rotate(85.3036) scale(14.7659)">
<stop stop-color="#D2D2D2"/>
<stop offset="1" stop-color="#FAFAFA"/>
</radialGradient>
<radialGradient id="paint37_radial_1102_1847" cx="0" cy="0" r="1" gradientUnits="userSpaceOnUse" gradientTransform="translate(622.704 105.295) rotate(85.3036) scale(14.7659)">
<stop stop-color="#D2D2D2"/>
<stop offset="1" stop-color="#FAFAFA"/>
</radialGradient>
<radialGradient id="paint38_radial_1102_1847" cx="0" cy="0" r="1" gradientUnits="userSpaceOnUse" gradientTransform="translate(651.4 105.295) rotate(85.3036) scale(14.7659)">
<stop stop-color="#D2D2D2"/>
<stop offset="1" stop-color="#FAFAFA"/>
</radialGradient>
<radialGradient id="paint39_radial_1102_1847" cx="0" cy="0" r="1" gradientUnits="userSpaceOnUse" gradientTransform="translate(680.09 105.295) rotate(85.3036) scale(14.7659)">
<stop stop-color="#D2D2D2"/>
<stop offset="1" stop-color="#FAFAFA"/>
</radialGradient>
<radialGradient id="paint40_radial_1102_1847" cx="0" cy="0" r="1" gradientUnits="userSpaceOnUse" gradientTransform="translate(708.785 105.295) rotate(85.3036) scale(14.7659)">
<stop stop-color="#D2D2D2"/>
<stop offset="1" stop-color="#FAFAFA"/>
</radialGradient>
<radialGradient id="paint41_radial_1102_1847" cx="0" cy="0" r="1" gradientUnits="userSpaceOnUse" gradientTransform="translate(737.482 105.295) rotate(85.3036) scale(14.7659)">
<stop stop-color="#D2D2D2"/>
<stop offset="1" stop-color="#FAFAFA"/>
</radialGradient>
<radialGradient id="paint42_radial_1102_1847" cx="0" cy="0" r="1" gradientUnits="userSpaceOnUse" gradientTransform="translate(766.173 105.295) rotate(85.3036) scale(14.7659)">
<stop stop-color="#D2D2D2"/>
<stop offset="1" stop-color="#FAFAFA"/>
</radialGradient>
</defs>
</svg>
