<svg width="64" height="64" viewBox="0 0 64 64" fill="none" xmlns="http://www.w3.org/2000/svg">
<path d="M48.3128 40.8134C44.3378 44.8259 41.9004 50.201 41.4504 55.826C41.3753 56.8007 40.5504 57.5509 39.5754 57.5509H24.4253C23.4503 57.5509 22.6254 56.8009 22.5503 55.826C22.1003 50.201 19.6629 44.8259 15.6879 40.8134C15.0503 40.2135 14.9379 39.2009 15.4254 38.4509L30.1254 16.4009L31.7754 19.326L32.0004 19.0259L33.8754 16.4009L48.5753 38.4509C49.0629 39.2009 48.9505 40.2135 48.3128 40.8134Z" fill="white"/>
<path d="M48.3124 40.8134C44.3374 44.8259 41.9 50.201 41.45 55.826C41.3749 56.8007 40.55 57.5509 39.575 57.5509H32V19.0259L33.875 16.4009L48.5749 38.4509C49.0625 39.2009 48.9501 40.2135 48.3124 40.8134Z" fill="#DADADA"/>
<path d="M35.75 52.75H28.25C23.075 52.75 18.875 56.95 18.875 62.125C18.875 63.1749 19.6999 64 20.75 64H43.25C44.3001 64 45.125 63.1749 45.125 62.125C45.125 56.95 40.925 52.75 35.75 52.75Z" fill="#8A8A8A"/>
<path d="M45.125 62.125C45.125 63.1749 44.3001 64 43.25 64H32V52.75H35.75C40.925 52.75 45.125 56.95 45.125 62.125Z" fill="#5F5F5F"/>
<path d="M56.375 5.625C56.375 6.67488 55.5501 7.5 54.5 7.5H9.5C8.44987 7.5 7.625 6.67488 7.625 5.625C7.625 4.57487 8.44987 3.75 9.5 3.75H54.5C55.5501 3.75 56.375 4.57487 56.375 5.625Z" fill="#8A8A8A"/>
<path d="M56.375 5.625C56.375 6.67488 55.5501 7.5 54.5 7.5H32V3.75H54.5C55.5501 3.75 56.375 4.57487 56.375 5.625Z" fill="#5F5F5F"/>
<path d="M9.5 30.0011C8.46362 30.0011 7.625 29.1624 7.625 28.1261C7.625 16.1656 16.1742 6.05455 27.9534 4.08618C28.9696 3.90493 29.9401 4.60618 30.1122 5.62605C30.2825 6.6478 29.594 7.61456 28.5724 7.78493C18.6076 9.45118 11.375 18.0058 11.375 28.1261C11.375 29.1624 10.5364 30.0011 9.5 30.0011Z" fill="#8A8A8A"/>
<path d="M54.5023 30.0011C53.4659 30.0011 52.6273 29.1624 52.6273 28.1261C52.6273 18.0058 45.3946 9.45117 35.43 7.78492C34.4083 7.61467 33.7198 6.6478 33.8901 5.62605C34.0604 4.60617 35.0254 3.90304 36.049 4.08617C47.828 6.05455 56.3773 16.1655 56.3773 28.1261C56.3773 29.1624 55.5387 30.0011 54.5023 30.0011Z" fill="#5F5F5F"/>
<path d="M9.5 37.5C6.39825 37.5 3.875 34.9767 3.875 31.875C3.875 28.7733 6.39825 26.25 9.5 26.25C12.6017 26.25 15.125 28.7733 15.125 31.875C15.125 34.9767 12.6017 37.5 9.5 37.5Z" fill="#FF474D"/>
<path d="M9.5 33.75C8.46613 33.75 7.625 32.9089 7.625 31.875C7.625 30.8411 8.46613 30 9.5 30C10.5339 30 11.375 30.8411 11.375 31.875C11.375 32.9089 10.5339 33.75 9.5 33.75Z" fill="#FAE1E1"/>
<path d="M54.5 37.5C51.3983 37.5 48.875 34.9767 48.875 31.875C48.875 28.7733 51.3983 26.25 54.5 26.25C57.6017 26.25 60.125 28.7733 60.125 31.875C60.125 34.9767 57.6017 37.5 54.5 37.5Z" fill="#D61414"/>
<path d="M54.5 33.75C53.4661 33.75 52.625 32.9089 52.625 31.875C52.625 30.8411 53.4661 30 54.5 30C55.5339 30 56.375 30.8411 56.375 31.875C56.375 32.9089 55.5339 33.75 54.5 33.75Z" fill="#FFBFBF"/>
<path d="M32 0C28.8874 0 26.375 2.51238 26.375 5.625C26.375 8.73738 28.8874 11.25 32 11.25C35.1126 11.25 37.625 8.73738 37.625 5.625C37.625 2.51238 35.1126 0 32 0Z" fill="#FF474D"/>
<path d="M9.375 11.25H1.875C0.838625 11.25 0 10.4114 0 9.375V1.875C0 0.838625 0.838625 0 1.875 0H9.375C10.4114 0 11.25 0.838625 11.25 1.875V9.375C11.25 10.4114 10.4114 11.25 9.375 11.25Z" fill="#FF474D"/>
<path d="M7.5 3.75H3.75V7.5H7.5V3.75Z" fill="#FAE1E1"/>
<path d="M62.125 11.25H54.625C53.5886 11.25 52.75 10.4114 52.75 9.375V1.875C52.75 0.838625 53.5886 0 54.625 0H62.125C63.1614 0 64 0.838625 64 1.875V9.375C64 10.4114 63.1614 11.25 62.125 11.25Z" fill="#D61414"/>
<path d="M60.25 3.75H56.5V7.5H60.25V3.75Z" fill="#FFBFBF"/>
<path d="M32 33.8745C28.8874 33.8745 26.375 36.3869 26.375 39.4995C26.375 42.6119 28.8874 45.1245 32 45.1245C35.1126 45.1245 37.625 42.6119 37.625 39.4995C37.625 36.3869 35.1126 33.8745 32 33.8745Z" fill="#8A8A8A"/>
<path d="M33.875 16.3985V35.7486C33.875 36.7985 33.0501 37.6236 32 37.6236C30.9499 37.6236 30.125 36.7985 30.125 35.7486V16.3985L30.4251 15.9485C30.8 15.4235 31.4001 15.1611 32 15.1611C32.5999 15.1611 33.2 15.4234 33.5749 15.9485L33.875 16.3985Z" fill="#8A8A8A"/>
<path d="M32 11.25V0C35.1126 0 37.625 2.51238 37.625 5.625C37.625 8.73738 35.1126 11.25 32 11.25Z" fill="#D61414"/>
<path d="M32 7.5C30.9661 7.5 30.125 6.65887 30.125 5.625C30.125 4.59113 30.9661 3.75 32 3.75C33.0339 3.75 33.875 4.59113 33.875 5.625C33.875 6.65887 33.0339 7.5 32 7.5Z" fill="#FAE1E1"/>
<path d="M33.875 5.625C33.875 4.59113 33.0339 3.75 32 3.75V7.5C33.0339 7.5 33.875 6.65887 33.875 5.625Z" fill="#FFBFBF"/>
<path d="M32 37.6236V15.1611C32.5999 15.1611 33.2 15.4234 33.5749 15.9485L33.875 16.3985V35.7486C33.875 36.7985 33.0501 37.6236 32 37.6236Z" fill="#5F5F5F"/>
<path d="M37.625 39.4995C37.625 42.6119 35.1126 45.1245 32 45.1245V33.8745C35.1126 33.8745 37.625 36.3869 37.625 39.4995Z" fill="#5F5F5F"/>
</svg>
