<svg width="58" height="48" viewBox="0 0 58 48" fill="none" xmlns="http://www.w3.org/2000/svg">
<path d="M28.5544 0C12.8925 0 0.0168181 10.7525 0.0168181 23.9796C0.0168181 29.2951 2.08617 34.4074 5.81898 38.5461L0.503613 44.6322C-0.023906 45.2409 -0.145402 46.0929 0.178903 46.8231C0.544201 47.5537 1.2338 47.9999 2.04544 47.9999H30.583C42.1467 47.9999 57.0919 38.3025 57.0919 23.9794C57.0921 10.7524 44.2161 0 28.5544 0Z" fill="white"/>
<path d="M28.5543 0C28.5514 0 28.5487 0 28.5459 0V48H30.583C42.1468 48 57.092 38.3027 57.092 23.9794C57.092 10.7524 44.216 0 28.5543 0Z" fill="#DADADA"/>
<path d="M16.3827 27.7122C14.146 27.7122 12.3252 25.8915 12.3252 23.6547C12.3252 21.4178 14.1459 19.5972 16.3827 19.5972C18.6196 19.5972 20.4402 21.4178 20.4402 23.6547C20.4402 25.8915 18.6194 27.7122 16.3827 27.7122Z" fill="#FF474D"/>
<path d="M28.5556 19.5972C26.324 19.5972 24.498 21.423 24.498 23.6547C24.498 25.8864 26.3239 27.7122 28.5556 27.7122C30.7873 27.7122 32.6131 25.8864 32.6131 23.6547C32.6131 21.423 30.787 19.5972 28.5556 19.5972Z" fill="#FF474D"/>
<path d="M40.8622 27.7117C38.6255 27.7117 36.8047 25.891 36.8047 23.6542C36.8047 21.4174 38.6254 19.5967 40.8622 19.5967C43.0991 19.5967 44.9197 21.4174 44.9197 23.6542C44.9197 25.891 43.0989 27.7117 40.8622 27.7117ZM40.8622 23.6503C40.8622 23.6523 40.8622 23.6542 40.8622 23.6542V23.6503Z" fill="#D61414"/>
<path d="M32.6122 23.6546C32.6122 25.8861 30.7864 27.7121 28.5547 27.7121V19.5972C30.7861 19.597 32.6122 21.4229 32.6122 23.6546Z" fill="#D61414"/>
</svg>
