<svg width="64" height="64" viewBox="0 0 64 64" fill="none" xmlns="http://www.w3.org/2000/svg">
<path d="M46.7807 34.488C46.0607 34.1653 45.2234 34.2907 44.6315 34.8187L33.5413 44.6933C33.0399 45.1387 32.7946 45.8053 32.8906 46.472L34.6772 58.944C34.7839 59.6933 35.3518 60.272 36.0691 60.512L36.6611 60.6053C37.2131 60.6053 37.7704 60.376 38.1624 59.9813C44.4795 53.6613 47.9593 45.2587 47.9593 36.3147C47.962 35.5253 47.5007 34.8107 46.7807 34.488Z" fill="#D61414"/>
<path d="M27.6885 16.0371C18.7448 16.0371 10.3398 19.5171 4.02276 25.8344L3.92943 25.9251C3.39345 26.4611 3.2068 27.2531 3.44679 27.9704C3.68678 28.6904 4.31075 29.2104 5.06005 29.3171L17.5315 31.1038L17.8142 31.1251C18.3795 31.1251 18.9262 30.8851 19.3075 30.4558L29.1817 19.3651C29.707 18.7758 29.835 17.9358 29.5124 17.2158C29.1897 16.4984 28.4751 16.0371 27.6885 16.0371Z" fill="#D61414"/>
<path d="M31.6756 51.0695C31.1637 51.0695 30.6517 50.8722 30.2624 50.4828L13.519 33.7388C12.7697 32.9895 12.7351 31.7841 13.4417 30.9921L25.9905 16.9361C34.8782 6.53347 49.3069 -0.261193 62.0397 0.0108066C63.1064 0.0348066 63.9677 0.89614 63.9917 1.96281C64.285 14.6241 57.4719 29.1228 47.035 38.0402L33.0116 50.5602C32.6276 50.9015 32.153 51.0695 31.6756 51.0695Z" fill="#DADADA"/>
<path d="M45.6878 24.9761C43.9785 24.9761 42.2719 24.3255 40.9733 23.0268C38.3761 20.4268 38.3761 16.1975 40.9733 13.5975C43.5732 10.9975 47.8024 10.9975 50.4023 13.5975C52.9995 16.1975 52.9995 20.4268 50.4023 23.0268C49.101 24.3281 47.3944 24.9761 45.6878 24.9761Z" fill="#D61414"/>
<path d="M2.00059 63.9999C1.47794 63.9999 0.965964 63.7946 0.587313 63.4133C0.0673337 62.8933 -0.124658 62.1306 0.0859996 61.4239C0.755306 59.1813 4.24583 47.8533 6.97105 45.1306C10.1523 41.9519 15.6934 41.9519 18.8692 45.1306C20.4585 46.7226 21.3331 48.8319 21.3331 51.0826C21.3331 53.3306 20.4585 55.4426 18.8692 57.0319C16.1467 59.7546 4.81647 63.2453 2.57657 63.9173L2.00059 63.9999Z" fill="#5F5F5F"/>
<path d="M26.7658 16.0479C18.1689 16.2799 10.1238 19.7332 4.0201 25.8345L3.92943 25.9252C3.39345 26.4612 3.2068 27.2532 3.44679 27.9705C3.68678 28.6905 4.31075 29.2105 5.06005 29.3172L13.8144 30.5732L25.9899 16.9332C26.2432 16.6372 26.5018 16.3412 26.7658 16.0479Z" fill="#FF474D"/>
<path d="M61.2958 0C49.1149 0 35.5261 6.344 26.7665 16.048C26.5025 16.3413 26.2439 16.6347 25.9879 16.9333L13.815 30.5733L13.4417 30.992C12.7351 31.784 12.7697 32.9893 13.519 33.7387L21.892 42.112L40.9739 23.0293C38.3767 20.4293 38.3767 16.2 40.9739 13.6C42.2725 12.3013 43.9818 11.6507 45.6884 11.6507C47.395 11.6507 49.1043 12.3013 50.4029 13.6L63.4077 0.594667C63.0557 0.242667 62.573 0.0213333 62.0397 0.008C61.7917 0.00266667 61.5438 0 61.2958 0V0Z" fill="white"/>
<path d="M45.6878 11.6504C43.9812 11.6504 42.2719 12.3011 40.9733 13.5997C38.3761 16.1997 38.3761 20.4291 40.9733 23.0291L50.3996 13.5997C49.101 12.2984 47.3944 11.6504 45.6878 11.6504Z" fill="#FF474D"/>
<path d="M12.9209 42.7466C10.7396 42.7466 8.56103 43.5412 6.9691 45.1306C4.24654 47.8532 0.756019 59.1839 0.0840465 61.4239C-0.126612 62.1279 0.0653806 62.8933 0.585359 63.4133L18.8673 45.1306C17.2807 43.5412 15.1021 42.7466 12.9209 42.7466Z" fill="#8A8A8A"/>
</svg>
