<svg width="628" height="228" viewBox="0 0 628 228" fill="none" xmlns="http://www.w3.org/2000/svg">
<mask id="mask0_774_3822" style="mask-type:alpha" maskUnits="userSpaceOnUse" x="0" y="0" width="628" height="228">
<path d="M0 48C0 21.4903 21.4903 0 48 0H628V228H48C21.4903 228 0 206.51 0 180V48Z" fill="url(#paint0_radial_774_3822)"/>
</mask>
<g mask="url(#mask0_774_3822)">
<rect opacity="0.2" x="420" y="170.353" width="294.655" height="294.655" rx="29.4898" transform="rotate(-45 420 170.353)" fill="url(#paint1_radial_774_3822)"/>
<rect opacity="0.2" x="-117" y="53.0059" width="223.454" height="223.454" rx="26.856" transform="rotate(-45 -117 53.0059)" fill="url(#paint2_radial_774_3822)"/>
<g opacity="0.05">
<g opacity="0.5">
<rect x="3" y="154.169" width="14.3808" height="14.3808" rx="3.22165" transform="rotate(-45 3 154.169)" fill="url(#paint3_radial_774_3822)"/>
<rect x="29.7832" y="154.169" width="14.3808" height="14.3808" rx="3.22165" transform="rotate(-45 29.7832 154.169)" fill="url(#paint4_radial_774_3822)"/>
<rect x="56.5625" y="154.169" width="14.3808" height="14.3808" rx="3.22165" transform="rotate(-45 56.5625 154.169)" fill="url(#paint5_radial_774_3822)"/>
<rect x="83.3438" y="154.169" width="14.3808" height="14.3808" rx="3.22165" transform="rotate(-45 83.3438 154.169)" fill="url(#paint6_radial_774_3822)"/>
<rect x="110.129" y="154.169" width="14.3808" height="14.3808" rx="3.22165" transform="rotate(-45 110.129 154.169)" fill="url(#paint7_radial_774_3822)"/>
<rect x="136.908" y="154.169" width="14.3808" height="14.3808" rx="3.22165" transform="rotate(-45 136.908 154.169)" fill="url(#paint8_radial_774_3822)"/>
<rect x="163.689" y="154.169" width="14.3808" height="14.3808" rx="3.22165" transform="rotate(-45 163.689 154.169)" fill="url(#paint9_radial_774_3822)"/>
<rect x="190.472" y="154.169" width="14.3808" height="14.3808" rx="3.22165" transform="rotate(-45 190.472 154.169)" fill="url(#paint10_radial_774_3822)"/>
</g>
<g opacity="0.5">
<rect x="3" y="208.937" width="14.3808" height="14.3808" rx="3.22165" transform="rotate(-45 3 208.937)" fill="url(#paint11_radial_774_3822)"/>
<rect x="29.7832" y="208.937" width="14.3808" height="14.3808" rx="3.22165" transform="rotate(-45 29.7832 208.937)" fill="url(#paint12_radial_774_3822)"/>
<rect x="56.5625" y="208.937" width="14.3808" height="14.3808" rx="3.22165" transform="rotate(-45 56.5625 208.937)" fill="url(#paint13_radial_774_3822)"/>
<rect x="83.3438" y="208.937" width="14.3808" height="14.3808" rx="3.22165" transform="rotate(-45 83.3438 208.937)" fill="url(#paint14_radial_774_3822)"/>
<rect x="110.129" y="208.937" width="14.3808" height="14.3808" rx="3.22165" transform="rotate(-45 110.129 208.937)" fill="url(#paint15_radial_774_3822)"/>
<rect x="136.908" y="208.937" width="14.3808" height="14.3808" rx="3.22165" transform="rotate(-45 136.908 208.937)" fill="url(#paint16_radial_774_3822)"/>
<rect x="163.689" y="208.937" width="14.3808" height="14.3808" rx="3.22165" transform="rotate(-45 163.689 208.937)" fill="url(#paint17_radial_774_3822)"/>
<rect x="190.472" y="208.937" width="14.3808" height="14.3808" rx="3.22165" transform="rotate(-45 190.472 208.937)" fill="url(#paint18_radial_774_3822)"/>
</g>
<g opacity="0.5">
<rect x="3" y="181.553" width="14.3808" height="14.3808" rx="3.22165" transform="rotate(-45 3 181.553)" fill="url(#paint19_radial_774_3822)"/>
<rect x="29.7832" y="181.553" width="14.3808" height="14.3808" rx="3.22165" transform="rotate(-45 29.7832 181.553)" fill="url(#paint20_radial_774_3822)"/>
<rect x="56.5625" y="181.553" width="14.3808" height="14.3808" rx="3.22165" transform="rotate(-45 56.5625 181.553)" fill="url(#paint21_radial_774_3822)"/>
<rect x="83.3438" y="181.553" width="14.3808" height="14.3808" rx="3.22165" transform="rotate(-45 83.3438 181.553)" fill="url(#paint22_radial_774_3822)"/>
<rect x="110.129" y="181.553" width="14.3808" height="14.3808" rx="3.22165" transform="rotate(-45 110.129 181.553)" fill="url(#paint23_radial_774_3822)"/>
<rect x="136.907" y="181.553" width="14.3808" height="14.3808" rx="3.22165" transform="rotate(-45 136.907 181.553)" fill="url(#paint24_radial_774_3822)"/>
<rect x="163.689" y="181.553" width="14.3808" height="14.3808" rx="3.22165" transform="rotate(-45 163.689 181.553)" fill="url(#paint25_radial_774_3822)"/>
<rect x="190.472" y="181.553" width="14.3808" height="14.3808" rx="3.22165" transform="rotate(-45 190.472 181.553)" fill="url(#paint26_radial_774_3822)"/>
</g>
<g opacity="0.5">
<rect width="14.3808" height="14.3808" rx="3.22165" transform="matrix(0.707105 -0.707108 0.707105 0.707108 3 236.321)" fill="url(#paint27_radial_774_3822)"/>
<rect width="14.3808" height="14.3808" rx="3.22165" transform="matrix(0.707105 -0.707108 0.707105 0.707108 29.7832 236.321)" fill="url(#paint28_radial_774_3822)"/>
<rect width="14.3808" height="14.3808" rx="3.22165" transform="matrix(0.707105 -0.707108 0.707105 0.707108 56.5625 236.321)" fill="url(#paint29_radial_774_3822)"/>
<rect width="14.3808" height="14.3808" rx="3.22165" transform="matrix(0.707105 -0.707108 0.707105 0.707108 83.3438 236.321)" fill="url(#paint30_radial_774_3822)"/>
<rect width="14.3808" height="14.3808" rx="3.22165" transform="matrix(0.707105 -0.707108 0.707105 0.707108 110.129 236.321)" fill="url(#paint31_radial_774_3822)"/>
<rect width="14.3808" height="14.3808" rx="3.22165" transform="matrix(0.707105 -0.707108 0.707105 0.707108 136.907 236.321)" fill="url(#paint32_radial_774_3822)"/>
<rect width="14.3808" height="14.3808" rx="3.22165" transform="matrix(0.707105 -0.707108 0.707105 0.707108 163.689 236.321)" fill="url(#paint33_radial_774_3822)"/>
<rect width="14.3808" height="14.3808" rx="3.22165" transform="matrix(0.707105 -0.707108 0.707105 0.707108 190.471 236.321)" fill="url(#paint34_radial_774_3822)"/>
</g>
</g>
</g>
<defs>
<radialGradient id="paint0_radial_774_3822" cx="0" cy="0" r="1" gradientUnits="userSpaceOnUse" gradientTransform="translate(313.863 110.791) rotate(70.3393) scale(224.201 870.504)">
<stop stop-color="#FF4B51"/>
<stop offset="1" stop-color="#FE474D"/>
</radialGradient>
<radialGradient id="paint1_radial_774_3822" cx="0" cy="0" r="1" gradientUnits="userSpaceOnUse" gradientTransform="translate(567.327 317.68) rotate(85.3036) scale(282.383)">
<stop stop-color="#373737"/>
<stop offset="1" stop-color="#FAFAFA" stop-opacity="0"/>
</radialGradient>
<radialGradient id="paint2_radial_774_3822" cx="0" cy="0" r="1" gradientUnits="userSpaceOnUse" gradientTransform="translate(-5.27303 164.733) rotate(85.3036) scale(214.148)">
<stop stop-color="#373737"/>
<stop offset="1" stop-color="#FAFAFA" stop-opacity="0"/>
</radialGradient>
<radialGradient id="paint3_radial_774_3822" cx="0" cy="0" r="1" gradientUnits="userSpaceOnUse" gradientTransform="translate(10.1904 161.359) rotate(85.3036) scale(13.7819)">
<stop stop-color="white"/>
<stop offset="1" stop-color="#FAFAFA"/>
</radialGradient>
<radialGradient id="paint4_radial_774_3822" cx="0" cy="0" r="1" gradientUnits="userSpaceOnUse" gradientTransform="translate(36.9736 161.359) rotate(85.3036) scale(13.7819)">
<stop stop-color="white"/>
<stop offset="1" stop-color="#FAFAFA"/>
</radialGradient>
<radialGradient id="paint5_radial_774_3822" cx="0" cy="0" r="1" gradientUnits="userSpaceOnUse" gradientTransform="translate(63.7529 161.359) rotate(85.3036) scale(13.7819)">
<stop stop-color="white"/>
<stop offset="1" stop-color="#FAFAFA"/>
</radialGradient>
<radialGradient id="paint6_radial_774_3822" cx="0" cy="0" r="1" gradientUnits="userSpaceOnUse" gradientTransform="translate(90.5341 161.359) rotate(85.3036) scale(13.7819)">
<stop stop-color="white"/>
<stop offset="1" stop-color="#FAFAFA"/>
</radialGradient>
<radialGradient id="paint7_radial_774_3822" cx="0" cy="0" r="1" gradientUnits="userSpaceOnUse" gradientTransform="translate(117.319 161.359) rotate(85.3036) scale(13.7819)">
<stop stop-color="white"/>
<stop offset="1" stop-color="#FAFAFA"/>
</radialGradient>
<radialGradient id="paint8_radial_774_3822" cx="0" cy="0" r="1" gradientUnits="userSpaceOnUse" gradientTransform="translate(144.099 161.359) rotate(85.3036) scale(13.7819)">
<stop stop-color="white"/>
<stop offset="1" stop-color="#FAFAFA"/>
</radialGradient>
<radialGradient id="paint9_radial_774_3822" cx="0" cy="0" r="1" gradientUnits="userSpaceOnUse" gradientTransform="translate(170.88 161.359) rotate(85.3036) scale(13.7819)">
<stop stop-color="white"/>
<stop offset="1" stop-color="#FAFAFA"/>
</radialGradient>
<radialGradient id="paint10_radial_774_3822" cx="0" cy="0" r="1" gradientUnits="userSpaceOnUse" gradientTransform="translate(197.662 161.359) rotate(85.3036) scale(13.7819)">
<stop stop-color="white"/>
<stop offset="1" stop-color="#FAFAFA"/>
</radialGradient>
<radialGradient id="paint11_radial_774_3822" cx="0" cy="0" r="1" gradientUnits="userSpaceOnUse" gradientTransform="translate(10.1904 216.127) rotate(85.3036) scale(13.7819)">
<stop stop-color="white"/>
<stop offset="1" stop-color="#FAFAFA"/>
</radialGradient>
<radialGradient id="paint12_radial_774_3822" cx="0" cy="0" r="1" gradientUnits="userSpaceOnUse" gradientTransform="translate(36.9736 216.127) rotate(85.3036) scale(13.7819)">
<stop stop-color="white"/>
<stop offset="1" stop-color="#FAFAFA"/>
</radialGradient>
<radialGradient id="paint13_radial_774_3822" cx="0" cy="0" r="1" gradientUnits="userSpaceOnUse" gradientTransform="translate(63.7529 216.127) rotate(85.3036) scale(13.7819)">
<stop stop-color="white"/>
<stop offset="1" stop-color="#FAFAFA"/>
</radialGradient>
<radialGradient id="paint14_radial_774_3822" cx="0" cy="0" r="1" gradientUnits="userSpaceOnUse" gradientTransform="translate(90.5341 216.127) rotate(85.3036) scale(13.7819)">
<stop stop-color="white"/>
<stop offset="1" stop-color="#FAFAFA"/>
</radialGradient>
<radialGradient id="paint15_radial_774_3822" cx="0" cy="0" r="1" gradientUnits="userSpaceOnUse" gradientTransform="translate(117.319 216.127) rotate(85.3036) scale(13.7819)">
<stop stop-color="white"/>
<stop offset="1" stop-color="#FAFAFA"/>
</radialGradient>
<radialGradient id="paint16_radial_774_3822" cx="0" cy="0" r="1" gradientUnits="userSpaceOnUse" gradientTransform="translate(144.099 216.127) rotate(85.3036) scale(13.7819)">
<stop stop-color="white"/>
<stop offset="1" stop-color="#FAFAFA"/>
</radialGradient>
<radialGradient id="paint17_radial_774_3822" cx="0" cy="0" r="1" gradientUnits="userSpaceOnUse" gradientTransform="translate(170.88 216.127) rotate(85.3036) scale(13.7819)">
<stop stop-color="white"/>
<stop offset="1" stop-color="#FAFAFA"/>
</radialGradient>
<radialGradient id="paint18_radial_774_3822" cx="0" cy="0" r="1" gradientUnits="userSpaceOnUse" gradientTransform="translate(197.662 216.127) rotate(85.3036) scale(13.7819)">
<stop stop-color="white"/>
<stop offset="1" stop-color="#FAFAFA"/>
</radialGradient>
<radialGradient id="paint19_radial_774_3822" cx="0" cy="0" r="1" gradientUnits="userSpaceOnUse" gradientTransform="translate(10.1904 188.743) rotate(85.3036) scale(13.7819)">
<stop stop-color="white"/>
<stop offset="1" stop-color="#FAFAFA"/>
</radialGradient>
<radialGradient id="paint20_radial_774_3822" cx="0" cy="0" r="1" gradientUnits="userSpaceOnUse" gradientTransform="translate(36.9736 188.743) rotate(85.3036) scale(13.7819)">
<stop stop-color="white"/>
<stop offset="1" stop-color="#FAFAFA"/>
</radialGradient>
<radialGradient id="paint21_radial_774_3822" cx="0" cy="0" r="1" gradientUnits="userSpaceOnUse" gradientTransform="translate(63.7529 188.743) rotate(85.3036) scale(13.7819)">
<stop stop-color="white"/>
<stop offset="1" stop-color="#FAFAFA"/>
</radialGradient>
<radialGradient id="paint22_radial_774_3822" cx="0" cy="0" r="1" gradientUnits="userSpaceOnUse" gradientTransform="translate(90.5341 188.743) rotate(85.3036) scale(13.7819)">
<stop stop-color="white"/>
<stop offset="1" stop-color="#FAFAFA"/>
</radialGradient>
<radialGradient id="paint23_radial_774_3822" cx="0" cy="0" r="1" gradientUnits="userSpaceOnUse" gradientTransform="translate(117.319 188.743) rotate(85.3036) scale(13.7819)">
<stop stop-color="white"/>
<stop offset="1" stop-color="#FAFAFA"/>
</radialGradient>
<radialGradient id="paint24_radial_774_3822" cx="0" cy="0" r="1" gradientUnits="userSpaceOnUse" gradientTransform="translate(144.098 188.743) rotate(85.3036) scale(13.7819)">
<stop stop-color="white"/>
<stop offset="1" stop-color="#FAFAFA"/>
</radialGradient>
<radialGradient id="paint25_radial_774_3822" cx="0" cy="0" r="1" gradientUnits="userSpaceOnUse" gradientTransform="translate(170.88 188.743) rotate(85.3036) scale(13.7819)">
<stop stop-color="white"/>
<stop offset="1" stop-color="#FAFAFA"/>
</radialGradient>
<radialGradient id="paint26_radial_774_3822" cx="0" cy="0" r="1" gradientUnits="userSpaceOnUse" gradientTransform="translate(197.662 188.743) rotate(85.3036) scale(13.7819)">
<stop stop-color="white"/>
<stop offset="1" stop-color="#FAFAFA"/>
</radialGradient>
<radialGradient id="paint27_radial_774_3822" cx="0" cy="0" r="1" gradientUnits="userSpaceOnUse" gradientTransform="translate(7.1904 7.1904) rotate(85.3036) scale(13.7819)">
<stop stop-color="white"/>
<stop offset="1" stop-color="#FAFAFA"/>
</radialGradient>
<radialGradient id="paint28_radial_774_3822" cx="0" cy="0" r="1" gradientUnits="userSpaceOnUse" gradientTransform="translate(7.1904 7.1904) rotate(85.3036) scale(13.7819)">
<stop stop-color="white"/>
<stop offset="1" stop-color="#FAFAFA"/>
</radialGradient>
<radialGradient id="paint29_radial_774_3822" cx="0" cy="0" r="1" gradientUnits="userSpaceOnUse" gradientTransform="translate(7.1904 7.1904) rotate(85.3036) scale(13.7819)">
<stop stop-color="white"/>
<stop offset="1" stop-color="#FAFAFA"/>
</radialGradient>
<radialGradient id="paint30_radial_774_3822" cx="0" cy="0" r="1" gradientUnits="userSpaceOnUse" gradientTransform="translate(7.1904 7.1904) rotate(85.3036) scale(13.7819)">
<stop stop-color="white"/>
<stop offset="1" stop-color="#FAFAFA"/>
</radialGradient>
<radialGradient id="paint31_radial_774_3822" cx="0" cy="0" r="1" gradientUnits="userSpaceOnUse" gradientTransform="translate(7.1904 7.1904) rotate(85.3036) scale(13.7819)">
<stop stop-color="white"/>
<stop offset="1" stop-color="#FAFAFA"/>
</radialGradient>
<radialGradient id="paint32_radial_774_3822" cx="0" cy="0" r="1" gradientUnits="userSpaceOnUse" gradientTransform="translate(7.1904 7.1904) rotate(85.3036) scale(13.7819)">
<stop stop-color="white"/>
<stop offset="1" stop-color="#FAFAFA"/>
</radialGradient>
<radialGradient id="paint33_radial_774_3822" cx="0" cy="0" r="1" gradientUnits="userSpaceOnUse" gradientTransform="translate(7.1904 7.1904) rotate(85.3036) scale(13.7819)">
<stop stop-color="white"/>
<stop offset="1" stop-color="#FAFAFA"/>
</radialGradient>
<radialGradient id="paint34_radial_774_3822" cx="0" cy="0" r="1" gradientUnits="userSpaceOnUse" gradientTransform="translate(7.1904 7.1904) rotate(85.3036) scale(13.7819)">
<stop stop-color="white"/>
<stop offset="1" stop-color="#FAFAFA"/>
</radialGradient>
</defs>
</svg>
