<svg width="1226" height="196" viewBox="0 0 1226 196" fill="none" xmlns="http://www.w3.org/2000/svg">
<mask id="mask0_1011_10014" style="mask-type:alpha" maskUnits="userSpaceOnUse" x="0" y="0" width="1226" height="196">
<path d="M0 0H1178C1204.51 0 1226 21.4903 1226 48V148C1226 174.51 1204.51 196 1178 196H0V0Z" fill="#363636"/>
</mask>
<g mask="url(#mask0_1011_10014)">
<rect x="-141" y="53.741" width="278.234" height="278.234" rx="32" transform="rotate(-45 -141 53.741)" fill="url(#paint0_radial_1011_10014)" fill-opacity="0.3"/>
<g opacity="0.5">
<rect x="689" y="123.529" width="17.7184" height="17.7184" rx="2.56631" transform="rotate(-45 689 123.529)" fill="url(#paint1_radial_1011_10014)" fill-opacity="0.3"/>
<rect x="721.997" y="123.529" width="17.7184" height="17.7184" rx="2.56631" transform="rotate(-45 721.997 123.529)" fill="url(#paint2_radial_1011_10014)" fill-opacity="0.3"/>
<rect x="754.993" y="123.529" width="17.7184" height="17.7184" rx="2.56631" transform="rotate(-45 754.993 123.529)" fill="url(#paint3_radial_1011_10014)" fill-opacity="0.3"/>
<rect x="787.995" y="123.529" width="17.7184" height="17.7184" rx="2.56631" transform="rotate(-45 787.995 123.529)" fill="url(#paint4_radial_1011_10014)" fill-opacity="0.3"/>
<rect x="820.988" y="123.529" width="17.7184" height="17.7184" rx="2.56631" transform="rotate(-45 820.988 123.529)" fill="url(#paint5_radial_1011_10014)" fill-opacity="0.3"/>
<rect x="853.987" y="123.529" width="17.7184" height="17.7184" rx="2.56631" transform="rotate(-45 853.987 123.529)" fill="url(#paint6_radial_1011_10014)" fill-opacity="0.3"/>
<rect x="886.986" y="123.529" width="17.7184" height="17.7184" rx="2.56631" transform="rotate(-45 886.986 123.529)" fill="url(#paint7_radial_1011_10014)" fill-opacity="0.3"/>
<rect x="919.978" y="123.529" width="17.7184" height="17.7184" rx="2.56631" transform="rotate(-45 919.978 123.529)" fill="url(#paint8_radial_1011_10014)" fill-opacity="0.3"/>
</g>
<g opacity="0.5">
<rect x="689" y="191.009" width="17.7184" height="17.7184" rx="2.56631" transform="rotate(-45 689 191.009)" fill="url(#paint9_radial_1011_10014)" fill-opacity="0.3"/>
<rect x="721.997" y="191.009" width="17.7184" height="17.7184" rx="2.56631" transform="rotate(-45 721.997 191.009)" fill="url(#paint10_radial_1011_10014)" fill-opacity="0.3"/>
<rect x="754.993" y="191.009" width="17.7184" height="17.7184" rx="2.56631" transform="rotate(-45 754.993 191.009)" fill="url(#paint11_radial_1011_10014)" fill-opacity="0.3"/>
<rect x="787.995" y="191.009" width="17.7184" height="17.7184" rx="2.56631" transform="rotate(-45 787.995 191.009)" fill="url(#paint12_radial_1011_10014)" fill-opacity="0.3"/>
<rect x="820.988" y="191.009" width="17.7184" height="17.7184" rx="2.56631" transform="rotate(-45 820.988 191.009)" fill="url(#paint13_radial_1011_10014)" fill-opacity="0.3"/>
<rect x="853.987" y="191.009" width="17.7184" height="17.7184" rx="2.56631" transform="rotate(-45 853.987 191.009)" fill="url(#paint14_radial_1011_10014)" fill-opacity="0.3"/>
<rect width="17.7184" height="17.7184" rx="2.56631" transform="matrix(0.707108 -0.707105 0.707108 0.707105 886.986 191.009)" fill="url(#paint15_radial_1011_10014)" fill-opacity="0.3"/>
<rect x="919.978" y="191.009" width="17.7184" height="17.7184" rx="2.56631" transform="rotate(-45 919.978 191.009)" fill="url(#paint16_radial_1011_10014)" fill-opacity="0.3"/>
</g>
<g opacity="0.5">
<rect x="689" y="157.268" width="17.7184" height="17.7184" rx="2.56631" transform="rotate(-45 689 157.268)" fill="url(#paint17_radial_1011_10014)" fill-opacity="0.3"/>
<rect x="721.997" y="157.268" width="17.7184" height="17.7184" rx="2.56631" transform="rotate(-45 721.997 157.268)" fill="url(#paint18_radial_1011_10014)" fill-opacity="0.3"/>
<rect x="754.992" y="157.268" width="17.7184" height="17.7184" rx="2.56631" transform="rotate(-45 754.992 157.268)" fill="url(#paint19_radial_1011_10014)" fill-opacity="0.3"/>
<rect x="787.995" y="157.268" width="17.7184" height="17.7184" rx="2.56631" transform="rotate(-45 787.995 157.268)" fill="url(#paint20_radial_1011_10014)" fill-opacity="0.3"/>
<rect x="820.988" y="157.268" width="17.7184" height="17.7184" rx="2.56631" transform="rotate(-45 820.988 157.268)" fill="url(#paint21_radial_1011_10014)" fill-opacity="0.3"/>
<rect x="853.987" y="157.268" width="17.7184" height="17.7184" rx="2.56631" transform="rotate(-45 853.987 157.268)" fill="url(#paint22_radial_1011_10014)" fill-opacity="0.3"/>
<rect x="886.986" y="157.268" width="17.7184" height="17.7184" rx="2.56631" transform="rotate(-45 886.986 157.268)" fill="url(#paint23_radial_1011_10014)" fill-opacity="0.3"/>
<rect x="919.978" y="157.268" width="17.7184" height="17.7184" rx="2.56631" transform="rotate(-45 919.978 157.268)" fill="url(#paint24_radial_1011_10014)" fill-opacity="0.3"/>
</g>
</g>
<defs>
<radialGradient id="paint0_radial_1011_10014" cx="0" cy="0" r="1" gradientUnits="userSpaceOnUse" gradientTransform="translate(-1.88318 192.858) rotate(85.3036) scale(266.646)">
<stop stop-color="#373737"/>
<stop offset="1" stop-color="#FAFAFA" stop-opacity="0"/>
</radialGradient>
<radialGradient id="paint1_radial_1011_10014" cx="0" cy="0" r="1" gradientUnits="userSpaceOnUse" gradientTransform="translate(697.859 132.388) rotate(85.3036) scale(16.9805)">
<stop stop-color="#373737"/>
<stop offset="1" stop-color="#FAFAFA" stop-opacity="0"/>
</radialGradient>
<radialGradient id="paint2_radial_1011_10014" cx="0" cy="0" r="1" gradientUnits="userSpaceOnUse" gradientTransform="translate(730.856 132.388) rotate(85.3036) scale(16.9805)">
<stop stop-color="#373737"/>
<stop offset="1" stop-color="#FAFAFA" stop-opacity="0"/>
</radialGradient>
<radialGradient id="paint3_radial_1011_10014" cx="0" cy="0" r="1" gradientUnits="userSpaceOnUse" gradientTransform="translate(763.852 132.388) rotate(85.3036) scale(16.9805)">
<stop stop-color="#373737"/>
<stop offset="1" stop-color="#FAFAFA" stop-opacity="0"/>
</radialGradient>
<radialGradient id="paint4_radial_1011_10014" cx="0" cy="0" r="1" gradientUnits="userSpaceOnUse" gradientTransform="translate(796.854 132.388) rotate(85.3036) scale(16.9805)">
<stop stop-color="#373737"/>
<stop offset="1" stop-color="#FAFAFA" stop-opacity="0"/>
</radialGradient>
<radialGradient id="paint5_radial_1011_10014" cx="0" cy="0" r="1" gradientUnits="userSpaceOnUse" gradientTransform="translate(829.847 132.388) rotate(85.3036) scale(16.9805)">
<stop stop-color="#373737"/>
<stop offset="1" stop-color="#FAFAFA" stop-opacity="0"/>
</radialGradient>
<radialGradient id="paint6_radial_1011_10014" cx="0" cy="0" r="1" gradientUnits="userSpaceOnUse" gradientTransform="translate(862.847 132.388) rotate(85.3036) scale(16.9805)">
<stop stop-color="#373737"/>
<stop offset="1" stop-color="#FAFAFA" stop-opacity="0"/>
</radialGradient>
<radialGradient id="paint7_radial_1011_10014" cx="0" cy="0" r="1" gradientUnits="userSpaceOnUse" gradientTransform="translate(895.846 132.388) rotate(85.3036) scale(16.9805)">
<stop stop-color="#373737"/>
<stop offset="1" stop-color="#FAFAFA" stop-opacity="0"/>
</radialGradient>
<radialGradient id="paint8_radial_1011_10014" cx="0" cy="0" r="1" gradientUnits="userSpaceOnUse" gradientTransform="translate(928.837 132.388) rotate(85.3036) scale(16.9805)">
<stop stop-color="#373737"/>
<stop offset="1" stop-color="#FAFAFA" stop-opacity="0"/>
</radialGradient>
<radialGradient id="paint9_radial_1011_10014" cx="0" cy="0" r="1" gradientUnits="userSpaceOnUse" gradientTransform="translate(697.859 199.868) rotate(85.3036) scale(16.9805)">
<stop stop-color="#373737"/>
<stop offset="1" stop-color="#FAFAFA" stop-opacity="0"/>
</radialGradient>
<radialGradient id="paint10_radial_1011_10014" cx="0" cy="0" r="1" gradientUnits="userSpaceOnUse" gradientTransform="translate(730.856 199.868) rotate(85.3036) scale(16.9805)">
<stop stop-color="#373737"/>
<stop offset="1" stop-color="#FAFAFA" stop-opacity="0"/>
</radialGradient>
<radialGradient id="paint11_radial_1011_10014" cx="0" cy="0" r="1" gradientUnits="userSpaceOnUse" gradientTransform="translate(763.852 199.868) rotate(85.3036) scale(16.9805)">
<stop stop-color="#373737"/>
<stop offset="1" stop-color="#FAFAFA" stop-opacity="0"/>
</radialGradient>
<radialGradient id="paint12_radial_1011_10014" cx="0" cy="0" r="1" gradientUnits="userSpaceOnUse" gradientTransform="translate(796.854 199.868) rotate(85.3036) scale(16.9805)">
<stop stop-color="#373737"/>
<stop offset="1" stop-color="#FAFAFA" stop-opacity="0"/>
</radialGradient>
<radialGradient id="paint13_radial_1011_10014" cx="0" cy="0" r="1" gradientUnits="userSpaceOnUse" gradientTransform="translate(829.847 199.868) rotate(85.3036) scale(16.9805)">
<stop stop-color="#373737"/>
<stop offset="1" stop-color="#FAFAFA" stop-opacity="0"/>
</radialGradient>
<radialGradient id="paint14_radial_1011_10014" cx="0" cy="0" r="1" gradientUnits="userSpaceOnUse" gradientTransform="translate(862.847 199.868) rotate(85.3036) scale(16.9805)">
<stop stop-color="#373737"/>
<stop offset="1" stop-color="#FAFAFA" stop-opacity="0"/>
</radialGradient>
<radialGradient id="paint15_radial_1011_10014" cx="0" cy="0" r="1" gradientUnits="userSpaceOnUse" gradientTransform="translate(8.85921 8.85921) rotate(85.3036) scale(16.9805)">
<stop stop-color="#373737"/>
<stop offset="1" stop-color="#FAFAFA" stop-opacity="0"/>
</radialGradient>
<radialGradient id="paint16_radial_1011_10014" cx="0" cy="0" r="1" gradientUnits="userSpaceOnUse" gradientTransform="translate(928.837 199.868) rotate(85.3036) scale(16.9805)">
<stop stop-color="#373737"/>
<stop offset="1" stop-color="#FAFAFA" stop-opacity="0"/>
</radialGradient>
<radialGradient id="paint17_radial_1011_10014" cx="0" cy="0" r="1" gradientUnits="userSpaceOnUse" gradientTransform="translate(697.859 166.127) rotate(85.3036) scale(16.9805)">
<stop stop-color="#373737"/>
<stop offset="1" stop-color="#FAFAFA" stop-opacity="0"/>
</radialGradient>
<radialGradient id="paint18_radial_1011_10014" cx="0" cy="0" r="1" gradientUnits="userSpaceOnUse" gradientTransform="translate(730.856 166.127) rotate(85.3036) scale(16.9805)">
<stop stop-color="#373737"/>
<stop offset="1" stop-color="#FAFAFA" stop-opacity="0"/>
</radialGradient>
<radialGradient id="paint19_radial_1011_10014" cx="0" cy="0" r="1" gradientUnits="userSpaceOnUse" gradientTransform="translate(763.851 166.127) rotate(85.3036) scale(16.9805)">
<stop stop-color="#373737"/>
<stop offset="1" stop-color="#FAFAFA" stop-opacity="0"/>
</radialGradient>
<radialGradient id="paint20_radial_1011_10014" cx="0" cy="0" r="1" gradientUnits="userSpaceOnUse" gradientTransform="translate(796.854 166.127) rotate(85.3036) scale(16.9805)">
<stop stop-color="#373737"/>
<stop offset="1" stop-color="#FAFAFA" stop-opacity="0"/>
</radialGradient>
<radialGradient id="paint21_radial_1011_10014" cx="0" cy="0" r="1" gradientUnits="userSpaceOnUse" gradientTransform="translate(829.847 166.127) rotate(85.3036) scale(16.9805)">
<stop stop-color="#373737"/>
<stop offset="1" stop-color="#FAFAFA" stop-opacity="0"/>
</radialGradient>
<radialGradient id="paint22_radial_1011_10014" cx="0" cy="0" r="1" gradientUnits="userSpaceOnUse" gradientTransform="translate(862.847 166.127) rotate(85.3036) scale(16.9805)">
<stop stop-color="#373737"/>
<stop offset="1" stop-color="#FAFAFA" stop-opacity="0"/>
</radialGradient>
<radialGradient id="paint23_radial_1011_10014" cx="0" cy="0" r="1" gradientUnits="userSpaceOnUse" gradientTransform="translate(895.846 166.127) rotate(85.3036) scale(16.9805)">
<stop stop-color="#373737"/>
<stop offset="1" stop-color="#FAFAFA" stop-opacity="0"/>
</radialGradient>
<radialGradient id="paint24_radial_1011_10014" cx="0" cy="0" r="1" gradientUnits="userSpaceOnUse" gradientTransform="translate(928.837 166.127) rotate(85.3036) scale(16.9805)">
<stop stop-color="#373737"/>
<stop offset="1" stop-color="#FAFAFA" stop-opacity="0"/>
</radialGradient>
</defs>
</svg>
