<svg width="182" height="98" viewBox="0 0 182 98" fill="none" xmlns="http://www.w3.org/2000/svg">
<circle cx="11" cy="40" r="11" fill="#C5EDDC"/>
<rect x="4.95117" y="33.9502" width="12.1" height="12.1" rx="3.3" fill="#5CC99C"/>
<path d="M13.0177 41.2587C13.0177 41.7197 12.8811 42.1095 12.6078 42.4282C12.3394 42.7412 11.9758 42.9432 11.5171 43.0342V43.5208C11.5171 43.6745 11.4756 43.7968 11.3927 43.8879C11.3146 43.9846 11.2097 44.033 11.0779 44.033C10.951 44.033 10.8461 43.9846 10.7631 43.8879C10.6802 43.7968 10.6387 43.6745 10.6387 43.5208V43.0599C10.3703 43.0314 10.1092 42.966 9.85546 42.8635C9.60658 42.7611 9.38698 42.6302 9.19666 42.4709C9.11858 42.414 9.06246 42.3514 9.0283 42.2831C8.99902 42.2091 8.98438 42.118 8.98438 42.0099C8.98438 41.8676 9.02098 41.7424 9.09418 41.6343C9.17226 41.5262 9.2601 41.4721 9.3577 41.4721C9.45042 41.4721 9.5651 41.5177 9.70174 41.6087C9.92622 41.7624 10.1385 41.8762 10.3386 41.9502C10.5435 42.0184 10.7558 42.0526 10.9754 42.0526C11.2682 42.0526 11.4927 41.99 11.6489 41.8648C11.805 41.7339 11.8831 41.5518 11.8831 41.3185C11.8831 41.1762 11.8367 41.0595 11.744 40.9685C11.6562 40.8774 11.5464 40.8063 11.4146 40.7551C11.2829 40.7039 11.0925 40.6384 10.8437 40.5588C10.4825 40.4506 10.1849 40.3425 9.95062 40.2344C9.71638 40.1263 9.51386 39.9555 9.34306 39.7222C9.17714 39.4889 9.09418 39.1759 9.09418 38.7832C9.09418 38.3223 9.23326 37.9268 9.51142 37.5967C9.79446 37.2666 10.1629 37.0561 10.6167 36.965V36.4785C10.6167 36.3248 10.6582 36.2025 10.7412 36.1114C10.8241 36.0147 10.9291 35.9663 11.0559 35.9663C11.1877 35.9663 11.2926 36.0147 11.3707 36.1114C11.4537 36.2025 11.4951 36.3248 11.4951 36.4785V36.948C11.9343 37.0163 12.3467 37.2097 12.7322 37.5284C12.8054 37.5853 12.8567 37.6508 12.8859 37.7248C12.9201 37.7987 12.9372 37.8869 12.9372 37.9894C12.9372 38.1316 12.8981 38.2568 12.8201 38.365C12.7469 38.4731 12.6615 38.5272 12.5639 38.5272C12.5102 38.5272 12.4589 38.5186 12.4101 38.5015C12.3662 38.4845 12.3028 38.4475 12.2198 38.3906C12.0197 38.2426 11.8392 38.1316 11.6781 38.0577C11.522 37.9837 11.3292 37.9467 11.0999 37.9467C10.8363 37.9467 10.6241 38.015 10.463 38.1516C10.3069 38.2881 10.2288 38.4702 10.2288 38.6979C10.2288 38.8572 10.2751 38.9881 10.3679 39.0905C10.4606 39.1873 10.5777 39.2641 10.7192 39.321C10.8607 39.3779 11.0584 39.4434 11.3121 39.5173C11.6684 39.6198 11.9587 39.7251 12.1832 39.8332C12.4126 39.9356 12.6078 40.1035 12.7688 40.3368C12.9347 40.5645 13.0177 40.8718 13.0177 41.2587Z" fill="#C5EDDC"/>
<path d="M26.4492 10.0645C26.4492 4.50606 30.9553 0 36.5138 0H171.935C177.494 0 182 4.50605 182 10.0645V40.2581C182 45.8166 177.494 50.3227 171.935 50.3227H26.4492V10.0645Z" fill="#F9FAFA"/>
<path d="M34.617 9.96678H37.071C37.6978 9.96678 38.2306 10.1799 38.6694 10.6061C39.1019 11.0324 39.3181 11.5558 39.3181 12.1763C39.3181 12.7968 39.1019 13.3202 38.6694 13.7465C38.2306 14.1727 37.6978 14.3858 37.071 14.3858H35.9145V16.5483H34.617V9.96678ZM35.9145 13.1729H37.071C37.3468 13.1729 37.5756 13.0789 37.7574 12.8909C37.9391 12.6966 38.03 12.4584 38.03 12.1763C38.03 11.888 37.9391 11.6498 37.7574 11.4617C37.5756 11.2737 37.3468 11.1797 37.071 11.1797H35.9145V13.1729ZM43.3671 12.402V11.8472H44.58V16.5483H43.3671V15.9936C43.0036 16.4512 42.4927 16.68 41.8345 16.68C41.2077 16.68 40.6687 16.4418 40.2174 15.9654C39.7723 15.4828 39.5498 14.8935 39.5498 14.1978C39.5498 13.5083 39.7723 12.9222 40.2174 12.4396C40.6687 11.9569 41.2077 11.7156 41.8345 11.7156C42.4927 11.7156 43.0036 11.9444 43.3671 12.402ZM41.1294 15.1568C41.3738 15.4013 41.6841 15.5235 42.0602 15.5235C42.4363 15.5235 42.7466 15.4013 42.991 15.1568C43.2417 14.9061 43.3671 14.5864 43.3671 14.1978C43.3671 13.8092 43.2417 13.4926 42.991 13.2482C42.7466 12.9974 42.4363 12.8721 42.0602 12.8721C41.6841 12.8721 41.3738 12.9974 41.1294 13.2482C40.8849 13.4926 40.7627 13.8092 40.7627 14.1978C40.7627 14.5864 40.8849 14.9061 41.1294 15.1568ZM47.7013 15.0064L48.745 11.8472H50.0425L48.3313 16.5483C48.0868 17.2253 47.7609 17.7142 47.3534 18.0151C46.9523 18.3222 46.4508 18.4601 45.8491 18.4288V17.3005C46.1688 17.3068 46.4257 17.2378 46.6201 17.0937C46.8144 16.9495 46.9679 16.7176 47.0808 16.3979L45.1533 11.8472H46.479L47.7013 15.0064ZM55.8191 11.7156C56.3582 11.7156 56.7875 11.8911 57.1072 12.2421C57.4332 12.5931 57.5961 13.0632 57.5961 13.6525V16.5483H56.3833V13.7371C56.3833 13.455 56.3143 13.2356 56.1764 13.0789C56.0385 12.9222 55.8442 12.8439 55.5935 12.8439C55.3177 12.8439 55.1014 12.9347 54.9447 13.1165C54.7943 13.2983 54.7191 13.5616 54.7191 13.9063V16.5483H53.5062V13.7371C53.5062 13.455 53.4372 13.2356 53.2993 13.0789C53.1614 12.9222 52.9671 12.8439 52.7164 12.8439C52.4468 12.8439 52.2306 12.9379 52.0676 13.1259C51.9109 13.3077 51.8326 13.5678 51.8326 13.9063V16.5483H50.6197V11.8472H51.8326V12.3455C52.1146 11.9256 52.5503 11.7156 53.1395 11.7156C53.7224 11.7156 54.1487 11.9412 54.4182 12.3926C54.7253 11.9412 55.1923 11.7156 55.8191 11.7156ZM63.1958 14.6961H59.6511C59.8078 15.2853 60.2497 15.5799 60.9768 15.5799C61.4407 15.5799 61.7917 15.4232 62.0299 15.1098L63.0077 15.6739C62.5439 16.3446 61.8606 16.68 60.958 16.68C60.1808 16.68 59.5571 16.4449 59.087 15.9748C58.6169 15.5047 58.3818 14.9124 58.3818 14.1978C58.3818 13.4957 58.6137 12.9065 59.0776 12.4302C59.5352 11.9538 60.1306 11.7156 60.864 11.7156C61.5598 11.7156 62.127 11.9538 62.5658 12.4302C63.0171 12.9065 63.2428 13.4957 63.2428 14.1978C63.2428 14.3294 63.2271 14.4955 63.1958 14.6961ZM59.6323 13.7559H62.0299C61.9609 13.4487 61.8199 13.2137 61.6068 13.0507C61.3999 12.8877 61.1523 12.8063 60.864 12.8063C60.5381 12.8063 60.2685 12.8909 60.0554 13.0601C59.8423 13.2231 59.7013 13.455 59.6323 13.7559ZM66.7033 11.7156C67.2236 11.7156 67.6467 11.888 67.9726 12.2327C68.3111 12.5837 68.4803 13.0601 68.4803 13.6619V16.5483H67.2674V13.8123C67.2674 13.5052 67.1828 13.267 67.0136 13.0977C66.8506 12.9285 66.625 12.8439 66.3366 12.8439C66.0169 12.8439 65.7631 12.9441 65.575 13.1447C65.3933 13.339 65.3024 13.6274 65.3024 14.0097V16.5483H64.0895V11.8472H65.3024V12.3737C65.5907 11.935 66.0577 11.7156 66.7033 11.7156ZM72.205 11.8472V13.0131H71.1426V14.9688C71.1426 15.1317 71.1833 15.2508 71.2648 15.326C71.3463 15.4013 71.4654 15.4451 71.6221 15.4577C71.7788 15.4639 71.9731 15.4608 72.205 15.4483V16.5483C71.3839 16.6424 70.7978 16.5671 70.4468 16.3227C70.102 16.072 69.9297 15.6207 69.9297 14.9688V13.0131H69.1117V11.8472H69.9297V10.8976L71.1426 10.5309V11.8472H72.205ZM78.6621 16.68C77.678 16.68 76.86 16.3509 76.2082 15.6927C75.5625 15.0408 75.2397 14.2291 75.2397 13.2576C75.2397 12.2797 75.5625 11.468 76.2082 10.8224C76.86 10.1642 77.678 9.83514 78.6621 9.83514C79.2576 9.83514 79.8061 9.97618 80.3075 10.2582C80.8152 10.534 81.2101 10.9101 81.4922 11.3865L80.3733 12.0353C80.2104 11.7407 79.9785 11.5119 79.6776 11.3489C79.3767 11.1797 79.0382 11.095 78.6621 11.095C78.0228 11.095 77.5057 11.2956 77.1108 11.6968C76.7221 12.1042 76.5278 12.6245 76.5278 13.2576C76.5278 13.8844 76.7221 14.4015 77.1108 14.8089C77.5057 15.2101 78.0228 15.4107 78.6621 15.4107C79.0382 15.4107 79.3767 15.3292 79.6776 15.1662C79.9847 14.997 80.2166 14.7682 80.3733 14.4798L81.4922 15.1286C81.2101 15.605 80.8152 15.9842 80.3075 16.2663C79.8061 16.5421 79.2576 16.68 78.6621 16.68ZM86.2658 15.9654C85.7894 16.4418 85.2002 16.68 84.4981 16.68C83.7961 16.68 83.2069 16.4418 82.7305 15.9654C82.2541 15.489 82.0159 14.8998 82.0159 14.1978C82.0159 13.502 82.2541 12.9159 82.7305 12.4396C83.2132 11.9569 83.8024 11.7156 84.4981 11.7156C85.1939 11.7156 85.7831 11.9569 86.2658 12.4396C86.7484 12.9222 86.9897 13.5083 86.9897 14.1978C86.9897 14.8935 86.7484 15.4828 86.2658 15.9654ZM83.5861 15.1286C83.8306 15.3731 84.1346 15.4953 84.4981 15.4953C84.8617 15.4953 85.1657 15.3731 85.4101 15.1286C85.6546 14.8841 85.7768 14.5739 85.7768 14.1978C85.7768 13.8217 85.6546 13.5114 85.4101 13.267C85.1657 13.0225 84.8617 12.9003 84.4981 12.9003C84.1346 12.9003 83.8306 13.0225 83.5861 13.267C83.3479 13.5177 83.2288 13.828 83.2288 14.1978C83.2288 14.5676 83.3479 14.8779 83.5861 15.1286ZM93.0424 11.7156C93.5815 11.7156 94.0108 11.8911 94.3305 12.2421C94.6565 12.5931 94.8194 13.0632 94.8194 13.6525V16.5483H93.6065V13.7371C93.6065 13.455 93.5376 13.2356 93.3997 13.0789C93.2618 12.9222 93.0675 12.8439 92.8168 12.8439C92.541 12.8439 92.3247 12.9347 92.168 13.1165C92.0176 13.2983 91.9424 13.5616 91.9424 13.9063V16.5483H90.7295V13.7371C90.7295 13.455 90.6605 13.2356 90.5226 13.0789C90.3847 12.9222 90.1904 12.8439 89.9397 12.8439C89.6701 12.8439 89.4539 12.9379 89.2909 13.1259C89.1342 13.3077 89.0559 13.5678 89.0559 13.9063V16.5483H87.843V11.8472H89.0559V12.3455C89.3379 11.9256 89.7736 11.7156 90.3628 11.7156C90.9457 11.7156 91.372 11.9412 91.6415 12.3926C91.9486 11.9412 92.4156 11.7156 93.0424 11.7156ZM98.5856 11.7156C99.2187 11.7156 99.7578 11.9569 100.203 12.4396C100.654 12.9222 100.88 13.5083 100.88 14.1978C100.88 14.8998 100.654 15.489 100.203 15.9654C99.764 16.4418 99.225 16.68 98.5856 16.68C97.9275 16.68 97.4197 16.4512 97.0625 15.9936V18.4288H95.8496V11.8472H97.0625V12.402C97.4197 11.9444 97.9275 11.7156 98.5856 11.7156ZM97.4291 15.1568C97.6736 15.4013 97.9839 15.5235 98.36 15.5235C98.7361 15.5235 99.0463 15.4013 99.2908 15.1568C99.5415 14.9061 99.6669 14.5864 99.6669 14.1978C99.6669 13.8092 99.5415 13.4926 99.2908 13.2482C99.0463 12.9974 98.7361 12.8721 98.36 12.8721C97.9839 12.8721 97.6736 12.9974 97.4291 13.2482C97.1847 13.4926 97.0625 13.8092 97.0625 14.1978C97.0625 14.5864 97.1847 14.9061 97.4291 15.1568ZM102.948 16.5483H101.735V9.68471H102.948V16.5483ZM108.628 14.6961H105.083C105.24 15.2853 105.682 15.5799 106.409 15.5799C106.873 15.5799 107.224 15.4232 107.462 15.1098L108.44 15.6739C107.976 16.3446 107.293 16.68 106.39 16.68C105.613 16.68 104.989 16.4449 104.519 15.9748C104.049 15.5047 103.814 14.9124 103.814 14.1978C103.814 13.4957 104.046 12.9065 104.509 12.4302C104.967 11.9538 105.563 11.7156 106.296 11.7156C106.992 11.7156 107.559 11.9538 107.998 12.4302C108.449 12.9065 108.675 13.4957 108.675 14.1978C108.675 14.3294 108.659 14.4955 108.628 14.6961ZM105.064 13.7559H107.462C107.393 13.4487 107.252 13.2137 107.039 13.0507C106.832 12.8877 106.584 12.8063 106.296 12.8063C105.97 12.8063 105.7 12.8909 105.487 13.0601C105.274 13.2231 105.133 13.455 105.064 13.7559ZM112.073 11.8472V13.0131H111.01V14.9688C111.01 15.1317 111.051 15.2508 111.132 15.326C111.214 15.4013 111.333 15.4451 111.49 15.4577C111.646 15.4639 111.841 15.4608 112.073 15.4483V16.5483C111.252 16.6424 110.665 16.5671 110.314 16.3227C109.97 16.072 109.797 15.6207 109.797 14.9688V13.0131H108.979V11.8472H109.797V10.8976L111.01 10.5309V11.8472H112.073ZM117.35 14.6961H113.806C113.962 15.2853 114.404 15.5799 115.131 15.5799C115.595 15.5799 115.946 15.4232 116.185 15.1098L117.162 15.6739C116.699 16.3446 116.015 16.68 115.113 16.68C114.335 16.68 113.712 16.4449 113.242 15.9748C112.772 15.5047 112.536 14.9124 112.536 14.1978C112.536 13.4957 112.768 12.9065 113.232 12.4302C113.69 11.9538 114.285 11.7156 115.019 11.7156C115.714 11.7156 116.282 11.9538 116.72 12.4302C117.172 12.9065 117.397 13.4957 117.397 14.1978C117.397 14.3294 117.382 14.4955 117.35 14.6961ZM113.787 13.7559H116.185C116.116 13.4487 115.975 13.2137 115.761 13.0507C115.555 12.8877 115.307 12.8063 115.019 12.8063C114.693 12.8063 114.423 12.8909 114.21 13.0601C113.997 13.2231 113.856 13.455 113.787 13.7559ZM121.771 12.402V9.96678H122.984V16.5483H121.771V15.9936C121.414 16.4512 120.906 16.68 120.248 16.68C119.615 16.68 119.072 16.4418 118.621 15.9654C118.176 15.4828 117.954 14.8935 117.954 14.1978C117.954 13.5083 118.176 12.9222 118.621 12.4396C119.072 11.9569 119.615 11.7156 120.248 11.7156C120.906 11.7156 121.414 11.9444 121.771 12.402ZM119.533 15.1568C119.79 15.4013 120.104 15.5235 120.473 15.5235C120.849 15.5235 121.16 15.4013 121.404 15.1568C121.649 14.9061 121.771 14.5864 121.771 14.1978C121.771 13.8092 121.649 13.4926 121.404 13.2482C121.16 12.9974 120.849 12.8721 120.473 12.8721C120.097 12.8721 119.784 12.9974 119.533 13.2482C119.289 13.4926 119.166 13.8092 119.166 14.1978C119.166 14.5864 119.289 14.9061 119.533 15.1568Z" fill="#212121"/>
<path d="M155.013 40.9079C154.789 40.9079 154.588 40.8634 154.408 40.7744C154.229 40.6853 154.085 40.5632 153.977 40.408C153.869 40.2529 153.81 40.0761 153.8 39.8776H154.258C154.275 40.0544 154.355 40.2007 154.498 40.3165C154.642 40.4309 154.813 40.4882 155.013 40.4882C155.173 40.4882 155.316 40.4506 155.44 40.3756C155.566 40.3006 155.665 40.1975 155.736 40.0665C155.809 39.9342 155.845 39.7848 155.845 39.6182C155.845 39.4477 155.807 39.2957 155.732 39.1622C155.659 39.0273 155.557 38.9211 155.427 38.8435C155.297 38.766 155.149 38.7265 154.983 38.7253C154.863 38.724 154.74 38.7424 154.614 38.7806C154.488 38.8175 154.385 38.8652 154.303 38.9237L153.861 38.8703L154.097 36.9471H156.127V37.3668H154.494L154.357 38.5192H154.38C154.46 38.4556 154.56 38.4028 154.681 38.3608C154.802 38.3189 154.928 38.2979 155.059 38.2979C155.298 38.2979 155.511 38.3551 155.698 38.4696C155.886 38.5828 156.034 38.738 156.141 38.9351C156.249 39.1323 156.303 39.3574 156.303 39.6105C156.303 39.8598 156.247 40.0824 156.135 40.2783C156.024 40.4729 155.872 40.6268 155.677 40.74C155.482 40.8519 155.261 40.9079 155.013 40.9079ZM157.397 40.3546C157.302 40.3546 157.222 40.3209 157.154 40.2535C157.087 40.1861 157.053 40.1053 157.053 40.0112C157.053 39.9171 157.087 39.8363 157.154 39.7689C157.222 39.7015 157.302 39.6678 157.397 39.6678C157.491 39.6678 157.571 39.7015 157.639 39.7689C157.706 39.8363 157.74 39.9171 157.74 40.0112C157.74 40.0735 157.724 40.1308 157.692 40.1829C157.662 40.2351 157.62 40.277 157.568 40.3088C157.517 40.3394 157.46 40.3546 157.397 40.3546ZM157.397 38.378C157.302 38.378 157.222 38.3443 157.154 38.2769C157.087 38.2095 157.053 38.1287 157.053 38.0346C157.053 37.9405 157.087 37.8597 157.154 37.7923C157.222 37.7249 157.302 37.6912 157.397 37.6912C157.491 37.6912 157.571 37.7249 157.639 37.7923C157.706 37.8597 157.74 37.9405 157.74 38.0346C157.74 38.0969 157.724 38.1541 157.692 38.2063C157.662 38.2584 157.62 38.3004 157.568 38.3322C157.517 38.3627 157.46 38.378 157.397 38.378ZM158.54 40.8545V40.5111L159.83 39.0992C159.981 38.9339 160.106 38.7901 160.204 38.668C160.302 38.5446 160.374 38.4289 160.422 38.3208C160.47 38.2114 160.494 38.0969 160.494 37.9773C160.494 37.84 160.461 37.721 160.395 37.6206C160.33 37.5201 160.241 37.4425 160.128 37.3878C160.015 37.3331 159.887 37.3058 159.746 37.3058C159.596 37.3058 159.465 37.3369 159.353 37.3992C159.242 37.4603 159.157 37.5462 159.096 37.6568C159.036 37.7675 159.006 37.8972 159.006 38.046H158.556C158.556 37.8171 158.608 37.6161 158.714 37.4431C158.82 37.2701 158.963 37.1353 159.145 37.0387C159.328 36.942 159.534 36.8936 159.761 36.8936C159.99 36.8936 160.193 36.942 160.37 37.0387C160.547 37.1353 160.685 37.2657 160.786 37.4298C160.886 37.5939 160.937 37.7764 160.937 37.9773C160.937 38.1211 160.911 38.2616 160.858 38.399C160.808 38.5351 160.719 38.6871 160.591 38.855C160.465 39.0216 160.291 39.2251 160.067 39.4655L159.189 40.4042V40.4347H161.005V40.8545H158.54ZM163.091 40.9079C162.93 40.9054 162.77 40.8748 162.61 40.8163C162.45 40.7578 162.303 40.6592 162.171 40.5206C162.039 40.3807 161.933 40.1918 161.852 39.954C161.772 39.7148 161.732 39.4146 161.732 39.0534C161.732 38.7074 161.765 38.4009 161.83 38.1338C161.894 37.8654 161.989 37.6396 162.112 37.4565C162.235 37.2721 162.384 37.1321 162.558 37.0367C162.734 36.9413 162.932 36.8936 163.152 36.8936C163.371 36.8936 163.565 36.9375 163.736 37.0253C163.907 37.1118 164.047 37.2326 164.155 37.3878C164.263 37.543 164.333 37.7217 164.365 37.9239H163.9C163.856 37.7484 163.773 37.6028 163.648 37.487C163.523 37.3713 163.358 37.3134 163.152 37.3134C162.849 37.3134 162.611 37.445 162.436 37.7083C162.263 37.9716 162.176 38.3411 162.175 38.8168H162.205C162.277 38.7087 162.361 38.6165 162.459 38.5402C162.558 38.4626 162.668 38.4028 162.787 38.3608C162.907 38.3189 163.033 38.2979 163.167 38.2979C163.391 38.2979 163.596 38.3538 163.781 38.4658C163.967 38.5764 164.116 38.7297 164.228 38.9256C164.34 39.1202 164.396 39.3434 164.396 39.5953C164.396 39.8369 164.342 40.0583 164.234 40.2592C164.125 40.4589 163.973 40.6179 163.778 40.7362C163.583 40.8532 163.354 40.9105 163.091 40.9079ZM163.091 40.4882C163.251 40.4882 163.395 40.4481 163.522 40.368C163.65 40.2878 163.752 40.1804 163.825 40.0455C163.9 39.9107 163.938 39.7606 163.938 39.5953C163.938 39.4337 163.902 39.2868 163.829 39.1545C163.758 39.021 163.659 38.9148 163.533 38.8359C163.409 38.7571 163.266 38.7176 163.106 38.7176C162.985 38.7176 162.873 38.7418 162.768 38.7901C162.664 38.8372 162.572 38.9021 162.494 38.9847C162.416 39.0674 162.355 39.1622 162.31 39.269C162.266 39.3746 162.244 39.4859 162.244 39.6029C162.244 39.7581 162.28 39.9031 162.352 40.0379C162.426 40.1727 162.527 40.2815 162.654 40.3642C162.782 40.4468 162.928 40.4882 163.091 40.4882ZM166.726 40.8545V36.9471H168.046C168.353 36.9471 168.603 37.0024 168.798 37.1131C168.994 37.2224 169.139 37.3706 169.233 37.5576C169.327 37.7446 169.374 37.9532 169.374 38.1834C169.374 38.4136 169.327 38.6229 169.233 38.8111C169.14 38.9994 168.996 39.1494 168.802 39.2614C168.607 39.372 168.358 39.4274 168.054 39.4274H167.107V39.0076H168.038C168.248 39.0076 168.417 38.9714 168.544 38.8989C168.671 38.8264 168.763 38.7284 168.821 38.6051C168.879 38.4804 168.908 38.3399 168.908 38.1834C168.908 38.027 168.879 37.887 168.821 37.7637C168.763 37.6403 168.671 37.5436 168.542 37.4737C168.414 37.4024 168.243 37.3668 168.031 37.3668H167.199V40.8545H166.726ZM170.136 36.9471H170.701L172.029 40.1905H172.075L173.403 36.9471H173.967V40.8545H173.525V37.8858H173.487L172.265 40.8545H171.838L170.617 37.8858H170.579V40.8545H170.136V36.9471Z" fill="#5C5C5C"/>
<path d="M35.4254 23.1491V29.0103H34.7156V23.1491H35.4254ZM41.4961 23.1491V29.0103H40.8093L37.6154 24.4083H37.5582V29.0103H36.8484V23.1491H37.5353L40.7406 27.7625H40.7978V23.1491H41.4961ZM43.1567 23.1491L44.8967 28.083H44.9654L46.7055 23.1491H47.4495L45.2974 29.0103H44.5648L42.4126 23.1491H43.1567ZM50.3801 25.7649V26.3945H47.8159V25.7649H50.3801ZM51.6601 29.0103V23.1491H52.3698V25.7592H55.495V23.1491H56.2048V29.0103H55.495V26.3888H52.3698V29.0103H51.6601ZM59.4344 29.0103H57.6257V23.1491H59.5145C60.0831 23.1491 60.5696 23.2665 60.9741 23.5011C61.3786 23.7339 61.6886 24.0687 61.9042 24.5057C62.1198 24.9407 62.2276 25.4615 62.2276 26.0682C62.2276 26.6788 62.1188 27.2044 61.9013 27.6451C61.6838 28.084 61.3671 28.4217 60.9512 28.6582C60.5353 28.8929 60.0297 29.0103 59.4344 29.0103ZM58.3354 28.3806H59.3886C59.8732 28.3806 60.2748 28.2872 60.5935 28.1002C60.9121 27.9132 61.1496 27.647 61.3061 27.3017C61.4625 26.9564 61.5407 26.5452 61.5407 26.0682C61.5407 25.5951 61.4635 25.1877 61.3089 24.8462C61.1544 24.5028 60.9235 24.2395 60.6163 24.0563C60.3092 23.8713 59.9266 23.7787 59.4687 23.7787H58.3354V28.3806ZM68.0658 23.1491V29.0103H67.379L64.1851 24.4083H64.1279V29.0103H63.4181V23.1491H64.105L67.3103 27.7625H67.3675V23.1491H68.0658ZM72.6913 24.6144C72.657 24.3244 72.5177 24.0993 72.2735 23.939C72.0293 23.7787 71.7297 23.6986 71.3749 23.6986C71.1154 23.6986 70.8884 23.7406 70.6937 23.8245C70.501 23.9085 70.3503 24.0239 70.2416 24.1708C70.1347 24.3177 70.0813 24.4847 70.0813 24.6716C70.0813 24.8281 70.1185 24.9626 70.1929 25.0752C70.2692 25.1858 70.3665 25.2784 70.4848 25.3528C70.6031 25.4253 70.7271 25.4854 70.8569 25.5331C70.9866 25.5789 71.1059 25.6161 71.2146 25.6447L71.8099 25.8049C71.9625 25.845 72.1323 25.9003 72.3193 25.9709C72.5082 26.0415 72.6885 26.1379 72.8602 26.26C73.0338 26.3802 73.1769 26.5347 73.2895 26.7236C73.402 26.9125 73.4583 27.1443 73.4583 27.419C73.4583 27.7358 73.3753 28.022 73.2093 28.2776C73.0453 28.5333 72.8049 28.7365 72.4881 28.8872C72.1733 29.0379 71.7908 29.1133 71.3405 29.1133C70.9208 29.1133 70.5573 29.0456 70.2502 28.9101C69.9449 28.7746 69.7045 28.5857 69.529 28.3434C69.3553 28.1011 69.2571 27.8197 69.2342 27.4992H69.9668C69.9859 27.7205 70.0603 27.9037 70.1901 28.0487C70.3217 28.1918 70.4877 28.2986 70.688 28.3692C70.8903 28.4379 71.1078 28.4722 71.3405 28.4722C71.6115 28.4722 71.8547 28.4283 72.0703 28.3406C72.2859 28.2509 72.4567 28.1269 72.5826 27.9685C72.7085 27.8083 72.7715 27.6213 72.7715 27.4076C72.7715 27.213 72.7171 27.0546 72.6083 26.9325C72.4996 26.8104 72.3565 26.7112 72.1791 26.6349C72.0016 26.5586 71.8099 26.4918 71.6038 26.4346L70.8826 26.2285C70.4247 26.0969 70.0622 25.9089 69.7951 25.6647C69.528 25.4205 69.3944 25.1009 69.3944 24.706C69.3944 24.3778 69.4832 24.0916 69.6606 23.8474C69.8399 23.6013 70.0803 23.4105 70.3818 23.275C70.6852 23.1377 71.0238 23.069 71.3978 23.069C71.7755 23.069 72.1113 23.1367 72.4051 23.2722C72.699 23.4057 72.9317 23.5889 73.1034 23.8217C73.2771 24.0544 73.3686 24.3187 73.3782 24.6144H72.6913ZM76.434 29.0103H74.6253V23.1491H76.5141C77.0827 23.1491 77.5692 23.2665 77.9737 23.5011C78.3781 23.7339 78.6882 24.0687 78.9038 24.5057C79.1194 24.9407 79.2272 25.4615 79.2272 26.0682C79.2272 26.6788 79.1184 27.2044 78.9009 27.6451C78.6834 28.084 78.3667 28.4217 77.9508 28.6582C77.5348 28.8929 77.0292 29.0103 76.434 29.0103ZM75.335 28.3806H76.3882C76.8728 28.3806 77.2744 28.2872 77.593 28.1002C77.9116 27.9132 78.1492 27.647 78.3056 27.3017C78.4621 26.9564 78.5403 26.5452 78.5403 26.0682C78.5403 25.5951 78.463 25.1877 78.3085 24.8462C78.154 24.5028 77.9231 24.2395 77.6159 24.0563C77.3087 23.8713 76.9262 23.7787 76.4683 23.7787H75.335V28.3806ZM82.1463 29.0904C81.8105 29.0904 81.5081 29.0236 81.2391 28.8901C80.97 28.7565 80.7544 28.5733 80.5923 28.3406C80.4301 28.1078 80.3414 27.8426 80.3261 27.545H81.013C81.0397 27.8102 81.1599 28.0296 81.3736 28.2032C81.5892 28.3749 81.8467 28.4608 82.1463 28.4608C82.3867 28.4608 82.6004 28.4045 82.7873 28.2919C82.9762 28.1794 83.1241 28.0248 83.2309 27.8283C83.3397 27.6299 83.3941 27.4057 83.3941 27.1558C83.3941 26.9001 83.3378 26.6721 83.2252 26.4718C83.1145 26.2695 82.9619 26.1102 82.7673 25.9938C82.5727 25.8774 82.3504 25.8183 82.1005 25.8164C81.9211 25.8145 81.737 25.8422 81.5481 25.8994C81.3593 25.9547 81.2038 26.0263 81.0817 26.114L80.4177 26.0339L80.7726 23.1491H83.8176V23.7787H81.3678L81.1618 25.5073H81.1961C81.3163 25.4119 81.4671 25.3327 81.6483 25.2698C81.8296 25.2068 82.0184 25.1753 82.215 25.1753C82.5737 25.1753 82.8932 25.2612 83.1737 25.4329C83.4561 25.6027 83.6774 25.8355 83.8376 26.1312C83.9998 26.4269 84.0809 26.7646 84.0809 27.1443C84.0809 27.5183 83.997 27.8521 83.8291 28.146C83.6631 28.4379 83.4341 28.6687 83.1422 28.8385C82.8503 29.0064 82.5183 29.0904 82.1463 29.0904ZM85.3208 29.0103V23.1491H86.0306V25.7592H89.1557V23.1491H89.8655V29.0103H89.1557V26.3888H86.0306V29.0103H85.3208Z" fill="#5C5C5C"/>
<path d="M36.3412 41.4846V34.1582H36.8105V41.4846H36.3412ZM37.9209 36.3561C37.8866 36.0661 37.7473 35.841 37.5031 35.6807C37.2589 35.5204 36.9593 35.4403 36.6044 35.4403C36.345 35.4403 36.1179 35.4823 35.9233 35.5662C35.7306 35.6502 35.5799 35.7656 35.4711 35.9125C35.3643 36.0594 35.3109 36.2264 35.3109 36.4133C35.3109 36.5698 35.3481 36.7043 35.4225 36.8169C35.4988 36.9275 35.5961 37.0201 35.7144 37.0945C35.8327 37.167 35.9567 37.2271 36.0864 37.2748C36.2162 37.3206 36.3354 37.3578 36.4442 37.3864L37.0395 37.5466C37.1921 37.5867 37.3619 37.642 37.5489 37.7126C37.7378 37.7832 37.9181 37.8796 38.0898 38.0017C38.2634 38.1219 38.4065 38.2764 38.519 38.4653C38.6316 38.6542 38.6879 38.886 38.6879 39.1607C38.6879 39.4775 38.6049 39.7637 38.4389 40.0193C38.2748 40.275 38.0344 40.4782 37.7177 40.6289C37.4029 40.7796 37.0204 40.855 36.5701 40.855C36.1504 40.855 35.7869 40.7872 35.4797 40.6518C35.1745 40.5163 34.9341 40.3274 34.7585 40.0851C34.5849 39.8428 34.4867 39.5614 34.4638 39.2409H35.1964C35.2155 39.4622 35.2899 39.6454 35.4196 39.7904C35.5513 39.9335 35.7173 40.0403 35.9176 40.1109C36.1198 40.1796 36.3373 40.2139 36.5701 40.2139C36.841 40.2139 37.0843 40.17 37.2999 40.0823C37.5155 39.9926 37.6862 39.8686 37.8122 39.7102C37.9381 39.55 38.001 39.363 38.001 39.1493C38.001 38.9547 37.9467 38.7963 37.8379 38.6742C37.7292 38.5521 37.5861 38.4529 37.4086 38.3766C37.2312 38.3003 37.0395 38.2335 36.8334 38.1763L36.1122 37.9702C35.6543 37.8386 35.2918 37.6506 35.0247 37.4064C34.7576 37.1622 34.624 36.8426 34.624 36.4477C34.624 36.1195 34.7127 35.8333 34.8902 35.5891C35.0695 35.343 35.3099 35.1522 35.6114 35.0167C35.9147 34.8794 36.2534 34.8107 36.6273 34.8107C37.0051 34.8107 37.3409 34.8784 37.6347 35.0139C37.9285 35.1474 38.1613 35.3306 38.333 35.5634C38.5066 35.7961 38.5982 36.0604 38.6078 36.3561H37.9209ZM41.881 39.55V38.9661L44.4567 34.8908H44.8803V35.7952H44.5941L42.648 38.8746V38.9203H46.1166V39.55H41.881ZM44.6399 40.752V39.3725V39.1006V34.8908H45.3153V40.752H44.6399ZM49.0207 40.8321C48.6849 40.8321 48.3825 40.7653 48.1135 40.6318C47.8445 40.4982 47.6289 40.315 47.4667 40.0823C47.3045 39.8495 47.2158 39.5843 47.2006 39.2867H47.8874C47.9141 39.5519 48.0343 39.7713 48.248 39.9449C48.4636 40.1166 48.7212 40.2025 49.0207 40.2025C49.2611 40.2025 49.4748 40.1462 49.6618 40.0336C49.8507 39.9211 49.9985 39.7665 50.1054 39.57C50.2141 39.3716 50.2685 39.1474 50.2685 38.8975C50.2685 38.6418 50.2122 38.4138 50.0996 38.2135C49.989 38.0112 49.8364 37.8519 49.6417 37.7355C49.4471 37.6191 49.2249 37.56 48.9749 37.5581C48.7956 37.5562 48.6115 37.5839 48.4226 37.6411C48.2337 37.6964 48.0782 37.768 47.9561 37.8557L47.2921 37.7756L47.647 34.8908H50.6921V35.5204H48.2423L48.0362 37.249H48.0706C48.1908 37.1536 48.3415 37.0744 48.5228 37.0115C48.704 36.9485 48.8929 36.917 49.0894 36.917C49.4481 36.917 49.7677 37.0029 50.0481 37.1746C50.3305 37.3444 50.5518 37.5772 50.7121 37.8729C50.8743 38.1686 50.9554 38.5063 50.9554 38.886C50.9554 39.26 50.8714 39.5938 50.7035 39.8877C50.5375 40.1796 50.3086 40.4104 50.0167 40.5802C49.7247 40.7481 49.3928 40.8321 49.0207 40.8321ZM54.004 40.8321C53.5728 40.8321 53.2055 40.7147 52.9021 40.4801C52.5988 40.2435 52.367 39.901 52.2067 39.4527C52.0464 39.0024 51.9663 38.4586 51.9663 37.8214C51.9663 37.188 52.0464 36.6471 52.2067 36.1987C52.3689 35.7484 52.6016 35.405 52.905 35.1684C53.2103 34.9299 53.5766 34.8107 54.004 34.8107C54.4313 34.8107 54.7967 34.9299 55.1001 35.1684C55.4053 35.405 55.6381 35.7484 55.7984 36.1987C55.9605 36.6471 56.0416 37.188 56.0416 37.8214C56.0416 38.4586 55.9615 39.0024 55.8012 39.4527C55.641 39.901 55.4092 40.2435 55.1058 40.4801C54.8024 40.7147 54.4352 40.8321 54.004 40.8321ZM54.004 40.2025C54.4313 40.2025 54.7633 39.9964 54.9999 39.5843C55.2365 39.1722 55.3548 38.5846 55.3548 37.8214C55.3548 37.3139 55.3004 36.8817 55.1916 36.525C55.0848 36.1682 54.9303 35.8963 54.728 35.7093C54.5277 35.5223 54.2863 35.4289 54.004 35.4289C53.5804 35.4289 53.2494 35.6378 53.0109 36.0556C52.7724 36.4715 52.6532 37.0601 52.6532 37.8214C52.6532 38.3289 52.7066 38.7601 52.8134 39.115C52.9203 39.4698 53.0739 39.7398 53.2742 39.9249C53.4764 40.1099 53.7197 40.2025 54.004 40.2025ZM57.4282 40.7977C57.287 40.7977 57.1659 40.7472 57.0648 40.6461C56.9636 40.5449 56.9131 40.4238 56.9131 40.2826C56.9131 40.1414 56.9636 40.0203 57.0648 39.9191C57.1659 39.818 57.287 39.7675 57.4282 39.7675C57.5694 39.7675 57.6905 39.818 57.7917 39.9191C57.8928 40.0203 57.9433 40.1414 57.9433 40.2826C57.9433 40.3761 57.9195 40.4619 57.8718 40.5402C57.826 40.6184 57.764 40.6814 57.6858 40.7291C57.6095 40.7748 57.5236 40.7977 57.4282 40.7977ZM60.851 40.8321C60.4198 40.8321 60.0526 40.7147 59.7492 40.4801C59.4458 40.2435 59.214 39.901 59.0538 39.4527C58.8935 39.0024 58.8134 38.4586 58.8134 37.8214C58.8134 37.188 58.8935 36.6471 59.0538 36.1987C59.2159 35.7484 59.4487 35.405 59.7521 35.1684C60.0573 34.9299 60.4236 34.8107 60.851 34.8107C61.2784 34.8107 61.6438 34.9299 61.9471 35.1684C62.2524 35.405 62.4852 35.7484 62.6454 36.1987C62.8076 36.6471 62.8887 37.188 62.8887 37.8214C62.8887 38.4586 62.8085 39.0024 62.6483 39.4527C62.488 39.901 62.2562 40.2435 61.9528 40.4801C61.6495 40.7147 61.2822 40.8321 60.851 40.8321ZM60.851 40.2025C61.2784 40.2025 61.6104 39.9964 61.847 39.5843C62.0835 39.1722 62.2018 38.5846 62.2018 37.8214C62.2018 37.3139 62.1475 36.8817 62.0387 36.525C61.9319 36.1682 61.7773 35.8963 61.5751 35.7093C61.3747 35.5223 61.1334 35.4289 60.851 35.4289C60.4275 35.4289 60.0964 35.6378 59.8579 36.0556C59.6195 36.4715 59.5002 37.0601 59.5002 37.8214C59.5002 38.3289 59.5536 38.7601 59.6605 39.115C59.7673 39.4698 59.9209 39.7398 60.1212 39.9249C60.3235 40.1099 60.5667 40.2025 60.851 40.2025ZM65.8879 40.8321C65.4567 40.8321 65.0895 40.7147 64.7861 40.4801C64.4827 40.2435 64.2509 39.901 64.0907 39.4527C63.9304 39.0024 63.8503 38.4586 63.8503 37.8214C63.8503 37.188 63.9304 36.6471 64.0907 36.1987C64.2528 35.7484 64.4856 35.405 64.789 35.1684C65.0942 34.9299 65.4606 34.8107 65.8879 34.8107C66.3153 34.8107 66.6807 34.9299 66.984 35.1684C67.2893 35.405 67.5221 35.7484 67.6823 36.1987C67.8445 36.6471 67.9256 37.188 67.9256 37.8214C67.9256 38.4586 67.8455 39.0024 67.6852 39.4527C67.5249 39.901 67.2931 40.2435 66.9898 40.4801C66.6864 40.7147 66.3191 40.8321 65.8879 40.8321ZM65.8879 40.2025C66.3153 40.2025 66.6473 39.9964 66.8839 39.5843C67.1204 39.1722 67.2387 38.5846 67.2387 37.8214C67.2387 37.3139 67.1844 36.8817 67.0756 36.525C66.9688 36.1682 66.8142 35.8963 66.612 35.7093C66.4117 35.5223 66.1703 35.4289 65.8879 35.4289C65.4644 35.4289 65.1333 35.6378 64.8949 36.0556C64.6564 36.4715 64.5371 37.0601 64.5371 37.8214C64.5371 38.3289 64.5905 38.7601 64.6974 39.115C64.8042 39.4698 64.9578 39.7398 65.1582 39.9249C65.3604 40.1099 65.6037 40.2025 65.8879 40.2025Z" fill="#5C5C5C"/>
<path d="M174.172 12.5801C174.172 12.6703 174.137 12.7604 174.068 12.8292L171.897 14.993C171.759 15.1306 171.535 15.1306 171.397 14.993C171.258 14.8554 171.258 14.6322 171.397 14.4946L173.318 12.5801L171.397 10.6655C171.259 10.5279 171.259 10.3048 171.397 10.1672C171.535 10.0295 171.759 10.0295 171.897 10.1672L174.068 12.3309C174.137 12.3997 174.172 12.4899 174.172 12.5801Z" fill="#5C5C5C"/>
<rect width="1.98325" height="1.98325" rx="0.661082" transform="matrix(0.895337 0.445389 -0.446684 0.894692 11.8086 55.9438)" fill="url(#paint0_radial_1102_21299)" fill-opacity="0.8"/>
<rect width="1.98325" height="1.98325" rx="0.661082" transform="matrix(0.895337 0.445389 -0.446684 0.894692 10.0684 52)" fill="url(#paint1_radial_1102_21299)" fill-opacity="0.8"/>
<rect width="1.98325" height="1.98325" rx="0.661082" transform="matrix(0.895337 0.445389 -0.446684 0.894692 14.0107 59.2124)" fill="url(#paint2_radial_1102_21299)" fill-opacity="0.8"/>
<rect width="1.98325" height="1.98325" rx="0.661082" transform="matrix(0.895337 0.445389 -0.446684 0.894692 16.3652 62.3726)" fill="url(#paint3_radial_1102_21299)" fill-opacity="0.8"/>
<rect width="1.98325" height="1.98325" rx="0.661082" transform="matrix(0.895337 0.445389 -0.446684 0.894692 18.8838 65.4053)" fill="url(#paint4_radial_1102_21299)" fill-opacity="0.8"/>
<rect width="1.98325" height="1.98325" rx="0.661082" transform="matrix(0.895337 0.445389 -0.446684 0.894692 21.5879 68.2754)" fill="url(#paint5_radial_1102_21299)" fill-opacity="0.8"/>
<rect width="1.98325" height="1.98325" rx="0.661082" transform="matrix(0.895337 0.445389 -0.446684 0.894692 24.5029 70.9282)" fill="url(#paint6_radial_1102_21299)" fill-opacity="0.8"/>
<rect width="1.98325" height="1.98325" rx="0.661082" transform="matrix(0.895337 0.445389 -0.446684 0.894692 27.6689 73.2764)" fill="url(#paint7_radial_1102_21299)" fill-opacity="0.8"/>
<rect width="1.98325" height="1.98325" rx="0.661082" transform="matrix(0.895337 0.445389 -0.446684 0.894692 31.1211 75.1802)" fill="url(#paint8_radial_1102_21299)" fill-opacity="0.8"/>
<rect width="1.98325" height="1.98325" rx="0.661082" transform="matrix(0.895337 0.445389 -0.446684 0.894692 34.8643 76.416)" fill="url(#paint9_radial_1102_21299)" fill-opacity="0.8"/>
<rect width="1.98325" height="1.98325" rx="0.661082" transform="matrix(0.895337 0.445389 -0.446684 0.894692 38.7959 76.7036)" fill="url(#paint10_radial_1102_21299)" fill-opacity="0.8"/>
<rect width="1.98325" height="1.98325" rx="0.661082" transform="matrix(0.895337 0.445389 -0.446684 0.894692 42.6484 75.8667)" fill="url(#paint11_radial_1102_21299)" fill-opacity="0.8"/>
<rect width="1.98325" height="1.98325" rx="0.661082" transform="matrix(0.895337 0.445389 -0.446684 0.894692 46.1348 74.0278)" fill="url(#paint12_radial_1102_21299)" fill-opacity="0.8"/>
<rect width="1.98325" height="1.98325" rx="0.661082" transform="matrix(0.895337 0.445389 -0.446684 0.894692 49.1523 71.4922)" fill="url(#paint13_radial_1102_21299)" fill-opacity="0.8"/>
<rect width="1.98325" height="1.98325" rx="0.661082" transform="matrix(0.895337 0.445389 -0.446684 0.894692 52.0635 68.9497)" fill="url(#paint14_radial_1102_21299)" fill-opacity="0.8"/>
<rect width="1.98325" height="1.98325" rx="0.661082" transform="matrix(0.895337 0.445389 -0.446684 0.894692 55.4648 66.9575)" fill="url(#paint15_radial_1102_21299)" fill-opacity="0.8"/>
<rect width="1.98325" height="1.98325" rx="0.661082" transform="matrix(0.895337 0.445389 -0.446684 0.894692 59.2871 65.9951)" fill="url(#paint16_radial_1102_21299)" fill-opacity="0.8"/>
<rect width="1.98325" height="1.98325" rx="0.661082" transform="matrix(0.895337 0.445389 -0.446684 0.894692 63.2021 66.4482)" fill="url(#paint17_radial_1102_21299)" fill-opacity="0.8"/>
<rect width="1.98325" height="1.98325" rx="0.661082" transform="matrix(0.895337 0.445389 -0.446684 0.894692 66.7461 68.1738)" fill="url(#paint18_radial_1102_21299)" fill-opacity="0.8"/>
<rect width="1.98325" height="1.98325" rx="0.661082" transform="matrix(0.895337 0.445389 -0.446684 0.894692 69.7705 70.7026)" fill="url(#paint19_radial_1102_21299)" fill-opacity="0.8"/>
<rect width="1.98325" height="1.98325" rx="0.661082" transform="matrix(0.895337 0.445389 -0.446684 0.894692 72.3418 73.6914)" fill="url(#paint20_radial_1102_21299)" fill-opacity="0.8"/>
<rect width="1.98325" height="1.98325" rx="0.661082" transform="matrix(0.895337 0.445389 -0.446684 0.894692 74.5508 76.9556)" fill="url(#paint21_radial_1102_21299)" fill-opacity="0.8"/>
<rect width="1.98325" height="1.98325" rx="0.661082" transform="matrix(0.895337 0.445389 -0.446684 0.894692 76.4688 80.3994)" fill="url(#paint22_radial_1102_21299)" fill-opacity="0.8"/>
<rect width="1.98325" height="1.98325" rx="0.661082" transform="matrix(0.895337 0.445389 -0.446684 0.894692 78.1367 83.9717)" fill="url(#paint23_radial_1102_21299)" fill-opacity="0.8"/>
<rect width="1.98325" height="1.98325" rx="0.661082" transform="matrix(0.895337 0.445389 -0.446684 0.894692 79.5723 87.6431)" fill="url(#paint24_radial_1102_21299)" fill-opacity="0.8"/>
<rect width="1.98325" height="1.98325" rx="0.661082" transform="matrix(0.895337 0.445389 -0.446684 0.894692 80.7549 91.4033)" fill="url(#paint25_radial_1102_21299)" fill-opacity="0.8"/>
<rect width="1.98325" height="1.98325" rx="0.661082" transform="matrix(0.895337 0.445389 -0.446684 0.894692 81.5293 95.2588)" fill="url(#paint26_radial_1102_21299)" fill-opacity="0.8"/>
<defs>
<radialGradient id="paint0_radial_1102_21299" cx="0" cy="0" r="1" gradientUnits="userSpaceOnUse" gradientTransform="translate(0.991624 0.991624) rotate(85.3036) scale(1.90065)">
<stop stop-color="white"/>
<stop offset="1" stop-color="#FAFAFA"/>
</radialGradient>
<radialGradient id="paint1_radial_1102_21299" cx="0" cy="0" r="1" gradientUnits="userSpaceOnUse" gradientTransform="translate(0.991624 0.991624) rotate(85.3036) scale(1.90065)">
<stop stop-color="white"/>
<stop offset="1" stop-color="#FAFAFA"/>
</radialGradient>
<radialGradient id="paint2_radial_1102_21299" cx="0" cy="0" r="1" gradientUnits="userSpaceOnUse" gradientTransform="translate(0.991624 0.991624) rotate(85.3036) scale(1.90065)">
<stop stop-color="white"/>
<stop offset="1" stop-color="#FAFAFA"/>
</radialGradient>
<radialGradient id="paint3_radial_1102_21299" cx="0" cy="0" r="1" gradientUnits="userSpaceOnUse" gradientTransform="translate(0.991624 0.991624) rotate(85.3036) scale(1.90065)">
<stop stop-color="white"/>
<stop offset="1" stop-color="#FAFAFA"/>
</radialGradient>
<radialGradient id="paint4_radial_1102_21299" cx="0" cy="0" r="1" gradientUnits="userSpaceOnUse" gradientTransform="translate(0.991624 0.991624) rotate(85.3036) scale(1.90065)">
<stop stop-color="white"/>
<stop offset="1" stop-color="#FAFAFA"/>
</radialGradient>
<radialGradient id="paint5_radial_1102_21299" cx="0" cy="0" r="1" gradientUnits="userSpaceOnUse" gradientTransform="translate(0.991624 0.991624) rotate(85.3036) scale(1.90065)">
<stop stop-color="white"/>
<stop offset="1" stop-color="#FAFAFA"/>
</radialGradient>
<radialGradient id="paint6_radial_1102_21299" cx="0" cy="0" r="1" gradientUnits="userSpaceOnUse" gradientTransform="translate(0.991624 0.991624) rotate(85.3036) scale(1.90065)">
<stop stop-color="white"/>
<stop offset="1" stop-color="#FAFAFA"/>
</radialGradient>
<radialGradient id="paint7_radial_1102_21299" cx="0" cy="0" r="1" gradientUnits="userSpaceOnUse" gradientTransform="translate(0.991624 0.991624) rotate(85.3036) scale(1.90065)">
<stop stop-color="white"/>
<stop offset="1" stop-color="#FAFAFA"/>
</radialGradient>
<radialGradient id="paint8_radial_1102_21299" cx="0" cy="0" r="1" gradientUnits="userSpaceOnUse" gradientTransform="translate(0.991624 0.991624) rotate(85.3036) scale(1.90065)">
<stop stop-color="white"/>
<stop offset="1" stop-color="#FAFAFA"/>
</radialGradient>
<radialGradient id="paint9_radial_1102_21299" cx="0" cy="0" r="1" gradientUnits="userSpaceOnUse" gradientTransform="translate(0.991624 0.991624) rotate(85.3036) scale(1.90065)">
<stop stop-color="white"/>
<stop offset="1" stop-color="#FAFAFA"/>
</radialGradient>
<radialGradient id="paint10_radial_1102_21299" cx="0" cy="0" r="1" gradientUnits="userSpaceOnUse" gradientTransform="translate(0.991624 0.991624) rotate(85.3036) scale(1.90065)">
<stop stop-color="white"/>
<stop offset="1" stop-color="#FAFAFA"/>
</radialGradient>
<radialGradient id="paint11_radial_1102_21299" cx="0" cy="0" r="1" gradientUnits="userSpaceOnUse" gradientTransform="translate(0.991624 0.991624) rotate(85.3036) scale(1.90065)">
<stop stop-color="white"/>
<stop offset="1" stop-color="#FAFAFA"/>
</radialGradient>
<radialGradient id="paint12_radial_1102_21299" cx="0" cy="0" r="1" gradientUnits="userSpaceOnUse" gradientTransform="translate(0.991624 0.991624) rotate(85.3036) scale(1.90065)">
<stop stop-color="white"/>
<stop offset="1" stop-color="#FAFAFA"/>
</radialGradient>
<radialGradient id="paint13_radial_1102_21299" cx="0" cy="0" r="1" gradientUnits="userSpaceOnUse" gradientTransform="translate(0.991624 0.991624) rotate(85.3036) scale(1.90065)">
<stop stop-color="white"/>
<stop offset="1" stop-color="#FAFAFA"/>
</radialGradient>
<radialGradient id="paint14_radial_1102_21299" cx="0" cy="0" r="1" gradientUnits="userSpaceOnUse" gradientTransform="translate(0.991624 0.991624) rotate(85.3036) scale(1.90065)">
<stop stop-color="white"/>
<stop offset="1" stop-color="#FAFAFA"/>
</radialGradient>
<radialGradient id="paint15_radial_1102_21299" cx="0" cy="0" r="1" gradientUnits="userSpaceOnUse" gradientTransform="translate(0.991624 0.991624) rotate(85.3036) scale(1.90065)">
<stop stop-color="white"/>
<stop offset="1" stop-color="#FAFAFA"/>
</radialGradient>
<radialGradient id="paint16_radial_1102_21299" cx="0" cy="0" r="1" gradientUnits="userSpaceOnUse" gradientTransform="translate(0.991624 0.991624) rotate(85.3036) scale(1.90065)">
<stop stop-color="white"/>
<stop offset="1" stop-color="#FAFAFA"/>
</radialGradient>
<radialGradient id="paint17_radial_1102_21299" cx="0" cy="0" r="1" gradientUnits="userSpaceOnUse" gradientTransform="translate(0.991624 0.991624) rotate(85.3036) scale(1.90065)">
<stop stop-color="white"/>
<stop offset="1" stop-color="#FAFAFA"/>
</radialGradient>
<radialGradient id="paint18_radial_1102_21299" cx="0" cy="0" r="1" gradientUnits="userSpaceOnUse" gradientTransform="translate(0.991624 0.991624) rotate(85.3036) scale(1.90065)">
<stop stop-color="white"/>
<stop offset="1" stop-color="#FAFAFA"/>
</radialGradient>
<radialGradient id="paint19_radial_1102_21299" cx="0" cy="0" r="1" gradientUnits="userSpaceOnUse" gradientTransform="translate(0.991624 0.991624) rotate(85.3036) scale(1.90065)">
<stop stop-color="white"/>
<stop offset="1" stop-color="#FAFAFA"/>
</radialGradient>
<radialGradient id="paint20_radial_1102_21299" cx="0" cy="0" r="1" gradientUnits="userSpaceOnUse" gradientTransform="translate(0.991624 0.991624) rotate(85.3036) scale(1.90065)">
<stop stop-color="white"/>
<stop offset="1" stop-color="#FAFAFA"/>
</radialGradient>
<radialGradient id="paint21_radial_1102_21299" cx="0" cy="0" r="1" gradientUnits="userSpaceOnUse" gradientTransform="translate(0.991624 0.991624) rotate(85.3036) scale(1.90065)">
<stop stop-color="white"/>
<stop offset="1" stop-color="#FAFAFA"/>
</radialGradient>
<radialGradient id="paint22_radial_1102_21299" cx="0" cy="0" r="1" gradientUnits="userSpaceOnUse" gradientTransform="translate(0.991624 0.991624) rotate(85.3036) scale(1.90065)">
<stop stop-color="white"/>
<stop offset="1" stop-color="#FAFAFA"/>
</radialGradient>
<radialGradient id="paint23_radial_1102_21299" cx="0" cy="0" r="1" gradientUnits="userSpaceOnUse" gradientTransform="translate(0.991624 0.991624) rotate(85.3036) scale(1.90065)">
<stop stop-color="white"/>
<stop offset="1" stop-color="#FAFAFA"/>
</radialGradient>
<radialGradient id="paint24_radial_1102_21299" cx="0" cy="0" r="1" gradientUnits="userSpaceOnUse" gradientTransform="translate(0.991624 0.991624) rotate(85.3036) scale(1.90065)">
<stop stop-color="white"/>
<stop offset="1" stop-color="#FAFAFA"/>
</radialGradient>
<radialGradient id="paint25_radial_1102_21299" cx="0" cy="0" r="1" gradientUnits="userSpaceOnUse" gradientTransform="translate(0.991624 0.991624) rotate(85.3036) scale(1.90065)">
<stop stop-color="white"/>
<stop offset="1" stop-color="#FAFAFA"/>
</radialGradient>
<radialGradient id="paint26_radial_1102_21299" cx="0" cy="0" r="1" gradientUnits="userSpaceOnUse" gradientTransform="translate(0.991624 0.991624) rotate(85.3036) scale(1.90065)">
<stop stop-color="white"/>
<stop offset="1" stop-color="#FAFAFA"/>
</radialGradient>
</defs>
</svg>
