<svg width="40" height="41" viewBox="0 0 40 41" fill="none" xmlns="http://www.w3.org/2000/svg">
<rect y="0.589844" width="40" height="40.0333" rx="8" fill="#F3F4F5"/>
<path d="M26.9367 14.9996C26.2499 14.2736 25.3368 13.8737 24.3655 13.8737C23.3942 13.8737 22.4811 14.2736 21.7943 14.9996L16.0622 21.0594C15.2116 21.9586 15.2116 23.4219 16.0623 24.3212C16.913 25.2205 18.2971 25.2205 19.1478 24.3211L22.9222 20.3309C23.2062 20.0307 23.2062 19.5439 22.9222 19.2436C22.6382 18.9434 22.1777 18.9434 21.8937 19.2436L18.1193 23.2339C17.8357 23.5337 17.3743 23.5337 17.0908 23.2339C16.8072 22.9341 16.8072 22.4463 17.0907 22.1466L22.8227 16.087C23.2349 15.6513 23.7827 15.4114 24.3655 15.4114C24.9483 15.4114 25.4961 15.6513 25.9082 16.087C26.7588 16.9863 26.7589 18.4495 25.9083 19.3489L19.662 25.9521C18.2442 27.4509 15.9373 27.4508 14.5196 25.9521C13.8328 25.2261 13.4545 24.2607 13.4545 23.2339C13.4545 22.2071 13.8328 21.2417 14.5196 20.5156L20.7657 13.9123C21.0497 13.6121 21.0497 13.1253 20.7657 12.825C20.4817 12.5248 20.0212 12.5248 19.7372 12.825L13.4911 19.4284C12.5295 20.4449 12 21.7964 12 23.2339C12 24.6715 12.5295 26.023 13.4911 27.0394C14.4837 28.0887 15.787 28.6133 17.0908 28.6132C18.3942 28.6131 19.6981 28.0885 20.6905 27.0394L26.9368 20.4361C28.3545 18.9372 28.3544 16.4985 26.9367 14.9996Z" fill="#B3B4B5"/>
</svg>
