<svg width="994" height="200" viewBox="0 0 994 200" fill="none" xmlns="http://www.w3.org/2000/svg">
<path d="M533.198 184.516C531.432 184.433 530.068 182.941 530.151 181.183C530.234 179.425 531.733 178.067 533.499 178.15C535.265 178.233 536.629 179.725 536.546 181.483C536.463 183.241 534.964 184.599 533.198 184.516Z" fill="#3897FF"/>
<path d="M652.89 177.966C650.189 177.839 648.103 175.557 648.23 172.868C648.358 170.179 650.65 168.103 653.351 168.229C656.052 168.356 658.138 170.639 658.011 173.327C657.884 176.016 655.591 178.093 652.89 177.966Z" fill="#8E4DD5"/>
<path d="M728.533 196.371C726.284 196.265 724.546 194.364 724.652 192.124C724.758 189.885 726.667 188.155 728.917 188.261C731.167 188.366 732.904 190.268 732.798 192.507C732.692 194.746 730.783 196.476 728.533 196.371Z" fill="#00A98F"/>
<path d="M3.69927 172.5C2.20862 172.43 1.05713 171.171 1.12735 169.687C1.19756 168.203 2.46289 167.057 3.95354 167.127C5.44419 167.197 6.59567 168.456 6.52545 169.94C6.45524 171.424 5.18991 172.57 3.69927 172.5Z" fill="#00A98F"/>
<path d="M966.696 175.378C965.222 174.87 964.442 173.269 964.952 171.802C965.462 170.335 967.071 169.558 968.544 170.067C970.017 170.575 970.798 172.176 970.288 173.643C969.777 175.109 968.169 175.886 966.696 175.378Z" fill="#00A98F"/>
<path d="M959.798 143.06C958.961 142.771 958.517 141.861 958.807 141.027C959.097 140.193 960.012 139.751 960.849 140.04C961.687 140.329 962.131 141.24 961.841 142.074C961.551 142.908 960.636 143.349 959.798 143.06Z" fill="#00A98F"/>
<path d="M919.721 159.191C917.162 158.308 915.807 155.528 916.693 152.982C917.579 150.435 920.372 149.086 922.93 149.968C925.489 150.85 926.844 153.63 925.958 156.177C925.072 158.724 922.279 160.073 919.721 159.191Z" fill="#8E4DD5"/>
<path d="M989.172 54.409C987.421 53.8048 986.492 51.9012 987.099 50.1573C987.706 48.4134 989.618 47.4896 991.37 48.0938C993.122 48.698 994.05 50.6016 993.443 52.3455C992.836 54.0894 990.924 55.0132 989.172 54.409Z" fill="#8E4DD5"/>
<path d="M960.633 60.82C958.074 59.9376 956.719 57.1577 957.605 54.611C958.491 52.0642 961.283 50.715 963.842 51.5974C966.4 52.4799 967.756 55.2597 966.87 57.8065C965.983 60.3532 963.191 61.7024 960.633 60.82Z" fill="#3897FF"/>
<path d="M963 101.097L969.748 98.7281L976.147 101.891L973.784 95.1743L976.974 88.7933L970.226 91.1623L963.827 87.9994L966.19 94.7157L963 101.097Z" fill="#FFCC00"/>
<path d="M885.918 175.44L889.584 175.956L891.774 178.932L892.285 175.282L895.269 173.107L891.603 172.591L889.413 169.616L888.902 173.265L885.918 175.44Z" fill="#FFCC00"/>
<path d="M322 172.825L325.666 173.34L327.855 176.316L328.366 172.666L331.35 170.491L327.684 169.976L325.495 167L324.984 170.65L322 172.825Z" fill="#FFCC00"/>
<path d="M934.629 187.456L937.551 187.867L939.296 190.239L939.704 187.33L942.082 185.596L939.16 185.185L937.415 182.813L937.008 185.722L934.629 187.456Z" fill="#8E4DD5"/>
<path d="M957 14.6432L959.922 15.0542L961.668 17.4261L962.075 14.517L964.453 12.7834L961.531 12.3724L959.786 10.0005L959.379 12.9095L957 14.6432Z" fill="#00A98F"/>
<path d="M177.997 187.643L180.919 188.054L182.664 190.426L183.071 187.516L185.45 185.783L182.528 185.372L180.783 183L180.375 185.909L177.997 187.643Z" fill="#8E4DD5"/>
<path d="M789.914 182.721L796.394 185.141L793.035 172.09L786.271 170.026L789.914 182.721Z" fill="#00A98F"/>
<path d="M422.658 174.007L423.522 178.131L429.145 172.153L428.005 168L422.658 174.007Z" fill="#00A98F"/>
<path d="M850.317 189.019L850.278 183.421L841.308 189.75L841.701 195.458L850.317 189.019Z" fill="#3897FF"/>
<path d="M990.146 119.116L990.125 116.128L985.336 119.507L985.545 122.554L990.146 119.116Z" fill="#3897FF"/>
</svg>
