<svg width="85" height="87" viewBox="0 0 85 87" fill="none" xmlns="http://www.w3.org/2000/svg">
<path d="M56.0579 61.5057C57.8059 62.8304 60.2969 62.4872 61.6216 60.7392C62.9463 58.9911 62.6031 56.5003 60.855 55.1756C59.107 53.8509 56.6161 54.1941 55.2914 55.9422C53.9667 57.6902 54.3099 60.1811 56.0579 61.5057Z" fill="#8E4DD5"/>
<path d="M68.512 36.7091L65.0689 30.7324L58.3838 29.0338L64.3605 25.5907L66.0591 18.9055L69.5024 24.882L76.1874 26.5808L70.2106 30.0239L68.512 36.7091Z" fill="#FFCC00"/>
<path d="M10.4974 61.38L7.0541 55.4035L0.369117 53.7047L6.34598 50.2614L8.04443 43.5764L11.4877 49.5529L18.1727 51.2517L12.1964 54.6949L10.4974 61.38Z" fill="#00A98F"/>
</svg>
