<svg width="14" height="14" viewBox="0 0 14 14" fill="none" xmlns="http://www.w3.org/2000/svg">
<path d="M7.014 0C10.99 0 14 3.25989 14 6.98948C14 11.315 10.472 14 7 14C5.852 14 4.578 13.6915 3.556 13.0886C3.199 12.8713 2.898 12.7101 2.513 12.8363L1.099 13.2569C0.742 13.3691 0.42 13.0886 0.525 12.7101L0.994 11.1397C1.071 10.9224 1.057 10.691 0.945 10.5088C0.343 9.4011 0 8.18828 0 7.01052C0 3.32298 2.947 0 7.014 0ZM10.213 6.12018C9.716 6.12018 9.317 6.51978 9.317 7.01753C9.317 7.50826 9.716 7.91487 10.213 7.91487C10.71 7.91487 11.109 7.50826 11.109 7.01753C11.109 6.51978 10.71 6.12018 10.213 6.12018ZM6.986 6.12018C6.496 6.11317 6.09 6.51978 6.09 7.01052C6.09 7.50826 6.489 7.90786 6.986 7.91487C7.483 7.91487 7.882 7.50826 7.882 7.01753C7.882 6.51978 7.483 6.12018 6.986 6.12018ZM3.759 6.12018C3.262 6.12018 2.863 6.51978 2.863 7.01753C2.863 7.50826 3.269 7.91487 3.759 7.91487C4.256 7.90786 4.655 7.50826 4.655 7.01753C4.655 6.51978 4.256 6.12018 3.759 6.12018Z" fill="#212121"/>
</svg>
