<svg width="228" height="228" viewBox="0 0 228 228" fill="none" xmlns="http://www.w3.org/2000/svg">
<circle cx="114" cy="114" r="114" fill="white"/>
<path d="M228 114C228 176.96 176.96 228 114 228C114 228 114 176.96 114 114C114 51.0395 114 0 114 0C176.96 0 228 51.0395 228 114Z" fill="#ECECEC"/>
<path d="M122.142 103.401H105.862C105.862 103.401 103.536 113.081 114.002 113.081C124.467 113.081 122.142 103.401 122.142 103.401Z" fill="#FF474D"/>
<path d="M122.365 103.401H114.005L114.006 113.081C114.006 113.081 123.56 114.291 122.365 103.401Z" fill="#D61414"/>
<path d="M143.857 112.461C143.857 112.461 148.763 132.235 165.935 128.295C179.3 125.229 168.388 99.0629 176.974 90.5367C181.378 86.1642 189.24 88.1009 189.24 88.1009" stroke="#D61414" stroke-width="8.40084" stroke-linecap="round"/>
<path d="M84.145 112.461C84.145 112.461 79.2387 132.235 62.0666 128.295C48.702 125.229 59.6134 99.0629 51.0274 90.5367C46.6242 86.1642 38.7616 88.1009 38.7616 88.1009" stroke="#FF474D" stroke-width="8.40084" stroke-linecap="round"/>
<path d="M82.1802 93.7213C82.1802 93.7213 76.2287 49.8739 114 49.8741C151.771 49.8743 146.001 93.7213 146.001 93.7213" stroke="#FF474D" stroke-width="8.40084" stroke-linecap="round"/>
<path d="M114 45.6741C124.315 45.6741 132.048 48.6935 137.677 53.5436C143.238 58.3355 146.4 64.6151 148.189 70.5945C149.977 76.5738 150.46 82.4739 150.512 86.8203C150.538 89.0076 150.456 90.8365 150.365 92.1313C150.319 92.7794 150.272 93.296 150.234 93.6592C150.216 93.8408 150.2 93.9843 150.188 94.0869L150.173 94.21L150.168 94.2479L150.166 94.2608C150.166 94.2608 150.165 94.2697 146.055 93.7288L150.165 94.2698C149.862 96.5697 147.752 98.1889 145.452 97.8862C143.154 97.5837 141.536 95.4772 141.835 93.1795L141.836 93.1698L141.844 93.1048C141.852 93.0415 141.863 92.9388 141.878 92.7993C141.906 92.5202 141.946 92.0948 141.985 91.544C142.062 90.4409 142.135 88.8442 142.112 86.9208C142.066 83.046 141.63 77.9843 140.14 73.0019C138.65 68.0194 136.173 63.3373 132.193 59.9078C128.28 56.5365 122.57 54.075 114 54.0749L114 45.6741Z" fill="#D61414"/>
<path d="M114 126.384V173.837" stroke="#FF474D" stroke-width="8.40084" stroke-linecap="round"/>
<path d="M113.999 122.184C116.319 122.184 118.2 124.065 118.2 126.385V173.838C118.2 176.157 116.319 178.038 113.999 178.038V122.184Z" fill="#D61414"/>
<path d="M132.681 119.127C132.681 119.127 126.267 160.268 150.64 160.268C175.013 160.268 172.447 139.074 172.447 139.074" stroke="#D61414" stroke-width="8.40084" stroke-linecap="round"/>
<path d="M95.3203 119.127C95.3203 119.127 101.734 160.268 77.3616 160.268C52.9888 160.268 55.5544 139.074 55.5544 139.074" stroke="#FF474D" stroke-width="8.40084" stroke-linecap="round"/>
<ellipse cx="129.527" cy="97.3548" rx="4.7772" ry="4.84012" fill="#D61414"/>
<ellipse cx="98.4772" cy="97.3548" rx="4.7772" ry="4.84012" fill="#FF474D"/>
</svg>
