<svg width="153" height="22" viewBox="0 0 153 22" fill="none" xmlns="http://www.w3.org/2000/svg">
<path d="M-0.000488281 0.525186H9.40091C11.2594 0.525186 12.7575 1.05037 13.8954 2.10074C15.0332 3.14165 15.6021 4.60839 15.6021 6.50095C15.6021 8.12856 15.0948 9.54798 14.0803 10.7592C13.0657 11.961 11.5059 12.5619 9.40091 12.5619H2.82989V21.3765H-0.000488281V0.525186ZM12.7433 6.51515C12.7433 4.98217 12.1744 3.94126 11.0366 3.39242C10.4107 3.09907 9.55262 2.9524 8.46219 2.9524H2.82989V10.1773H8.46219C9.73278 10.1773 10.7616 9.90757 11.5486 9.36819C12.3451 8.82881 12.7433 7.87779 12.7433 6.51515Z" fill="#C4C4C4"/>
<path d="M14.768 0.525186H18.0678L24.0699 10.5463L30.072 0.525186H33.386L25.4922 12.9735V21.3765H22.6618V12.9735L14.768 0.525186Z" fill="#C4C4C4"/>
<path d="M36.6969 0.525186H40.7505L46.7526 18.1544L52.712 0.525186H56.7229V21.3765H54.0347V9.07011C54.0347 8.64428 54.0442 7.9393 54.0632 6.95517C54.0821 5.97104 54.0916 4.91593 54.0916 3.78986L48.1322 21.3765H45.3303L39.3282 3.78986V4.4286C39.3282 4.93959 39.3376 5.72027 39.3566 6.77064C39.3851 7.81155 39.3993 8.57804 39.3993 9.07011V21.3765H36.6969V0.525186Z" fill="#C4C4C4"/>
<path d="M54.0347 0.525186H57.3771L67.9306 17.4163V0.525186H70.6187V21.3765H67.447L56.6451 3.78986L56.7371 21.3765H54.0347V10.9508V0.525186Z" fill="#C4C4C4"/>
<path d="M90.0129 0.525186V3.00918H82.9726V21.3765H80.0995V3.00918H73.0591V0.525186H90.0129Z" fill="#C4C4C4"/>
<path d="M94.4648 14.6484C94.5311 15.8313 94.8108 16.7918 95.3039 17.5299C96.2426 18.9114 97.8972 19.6022 100.268 19.6022C101.33 19.6022 102.297 19.4508 103.169 19.148C104.857 18.5613 105.701 17.5109 105.701 15.9969C105.701 14.8614 105.345 14.0523 104.634 13.5697C103.914 13.0965 102.785 12.6849 101.249 12.3348L98.4187 11.696C96.5698 11.2797 95.2612 10.8207 94.4932 10.3192C93.1657 9.44862 92.502 8.14748 92.502 6.41579C92.502 4.54215 93.1515 3.00444 94.4505 1.80267C95.7496 0.600889 97.5891 0 99.9691 0C102.159 0 104.018 0.529918 105.544 1.58975C107.081 2.64013 107.849 4.32451 107.849 6.6429H105.189C105.047 5.52628 104.743 4.6699 104.279 4.07374C103.416 2.98552 101.951 2.44141 99.8837 2.44141C98.2149 2.44141 97.0154 2.79153 96.2853 3.49178C95.5552 4.19203 95.1901 5.00583 95.1901 5.93319C95.1901 6.95517 95.6168 7.70273 96.4702 8.17587C97.0296 8.47868 98.2955 8.85719 100.268 9.31141L103.198 9.97854C104.61 10.3003 105.701 10.7403 106.469 11.2986C107.796 12.2733 108.46 13.688 108.46 15.5427C108.46 17.8516 107.616 19.5029 105.928 20.4965C104.25 21.4901 102.297 21.9869 100.069 21.9869C97.4705 21.9869 95.4367 21.3245 93.9669 19.9997C92.4972 18.6843 91.7766 16.9006 91.8051 14.6484H94.4648Z" fill="#C4C4C4"/>
<path d="M54.0112 0.523926L56.7389 0.523919V21.4146L54.0112 21.4147V0.523926Z" fill="#C4C4C4"/>
<path d="M112.143 21.9737C111.708 21.9737 111.335 21.8203 111.023 21.5134C110.716 21.2022 110.562 20.8296 110.562 20.3957C110.562 19.9661 110.716 19.5979 111.023 19.2911C111.335 18.9843 111.708 18.8308 112.143 18.8308C112.565 18.8308 112.934 18.9843 113.25 19.2911C113.566 19.5979 113.724 19.9661 113.724 20.3957C113.724 20.685 113.65 20.9502 113.5 21.1913C113.355 21.428 113.164 21.6186 112.927 21.7633C112.69 21.9036 112.429 21.9737 112.143 21.9737Z" fill="#898989"/>
<path d="M120.601 22C119.564 22 118.673 21.7808 117.926 21.3425C117.184 20.8998 116.613 20.2861 116.213 19.5015C115.818 18.7169 115.62 17.8139 115.62 16.7926C115.62 15.7581 115.82 14.8508 116.22 14.0705C116.624 13.2859 117.197 12.6744 117.939 12.2361C118.682 11.7934 119.564 11.572 120.588 11.572C121.471 11.572 122.244 11.732 122.907 12.052C123.57 12.372 124.095 12.8213 124.482 13.3999C124.868 13.9785 125.081 14.6579 125.121 15.4381H122.472C122.397 14.934 122.2 14.5286 121.879 14.2218C121.563 13.9105 121.148 13.7549 120.634 13.7549C120.199 13.7549 119.819 13.8733 119.494 14.11C119.174 14.3423 118.923 14.682 118.743 15.1291C118.563 15.5762 118.473 16.1175 118.473 16.7531C118.473 17.3975 118.561 17.9454 118.736 18.3969C118.917 18.8484 119.169 19.1925 119.494 19.4292C119.819 19.6659 120.199 19.7842 120.634 19.7842C120.955 19.7842 121.242 19.7185 121.497 19.587C121.756 19.4555 121.969 19.2648 122.136 19.0149C122.307 18.7607 122.419 18.4561 122.472 18.101H125.121C125.077 18.8725 124.866 19.5519 124.488 20.1393C124.115 20.7223 123.599 21.1781 122.94 21.5069C122.281 21.8356 121.501 22 120.601 22Z" fill="#898989"/>
<path d="M131.49 22C130.466 22 129.581 21.783 128.835 21.3491C128.092 20.9107 127.519 20.3014 127.115 19.5212C126.711 18.7366 126.509 17.8271 126.509 16.7926C126.509 15.7493 126.711 14.8376 127.115 14.0574C127.519 13.2728 128.092 12.6635 128.835 12.2295C129.581 11.7912 130.466 11.572 131.49 11.572C132.513 11.572 133.396 11.7912 134.138 12.2295C134.885 12.6635 135.46 13.2728 135.865 14.0574C136.269 14.8376 136.471 15.7493 136.471 16.7926C136.471 17.8271 136.269 18.7366 135.865 19.5212C135.46 20.3014 134.885 20.9107 134.138 21.3491C133.396 21.783 132.513 22 131.49 22ZM131.503 19.8302C131.969 19.8302 132.357 19.6987 132.669 19.4357C132.981 19.1684 133.216 18.8045 133.374 18.3443C133.537 17.884 133.618 17.3602 133.618 16.7729C133.618 16.1855 133.537 15.6617 133.374 15.2014C133.216 14.7412 132.981 14.3774 132.669 14.11C132.357 13.8426 131.969 13.7089 131.503 13.7089C131.033 13.7089 130.638 13.8426 130.317 14.11C130.001 14.3774 129.762 14.7412 129.599 15.2014C129.441 15.6617 129.362 16.1855 129.362 16.7729C129.362 17.3602 129.441 17.884 129.599 18.3443C129.762 18.8045 130.001 19.1684 130.317 19.4357C130.638 19.6987 131.033 19.8302 131.503 19.8302Z" fill="#898989"/>
<path d="M138.296 21.8027V11.7035H140.971V13.4854H141.089C141.3 12.8936 141.651 12.4268 142.143 12.0849C142.635 11.743 143.224 11.572 143.909 11.572C144.603 11.572 145.194 11.7452 145.681 12.0914C146.169 12.4333 146.494 12.898 146.656 13.4854H146.762C146.968 12.9067 147.341 12.4443 147.882 12.098C148.426 11.7474 149.07 11.572 149.812 11.572C150.756 11.572 151.523 11.8723 152.111 12.4728C152.704 13.0689 153.001 13.9149 153.001 15.0108V21.8027H150.201V15.5631C150.201 15.002 150.051 14.5812 149.753 14.3007C149.454 14.0201 149.081 13.8799 148.633 13.8799C148.123 13.8799 147.726 14.042 147.44 14.3664C147.155 14.6864 147.012 15.1094 147.012 15.6354V21.8027H144.291V15.5039C144.291 15.0086 144.148 14.6141 143.863 14.3204C143.582 14.0267 143.211 13.8799 142.749 13.8799C142.438 13.8799 142.156 13.9588 141.906 14.1166C141.66 14.27 141.465 14.4869 141.32 14.7675C141.175 15.0436 141.102 15.368 141.102 15.7406V21.8027H138.296Z" fill="#898989"/>
</svg>
