<svg width="203" height="40" viewBox="0 0 203 40" fill="none" xmlns="http://www.w3.org/2000/svg">
<path d="M65.9976 27.5631H70.2627V14.8924H76.574V10.9155H59.9438V14.8924H65.9976V27.5631Z" fill="#C4C4C4"/>
<path d="M77.9702 27.5631H92.4694V23.6415H82.2724V21.2277H91.3345V17.5911H82.2724V14.8924H92.3536V10.9155H77.9702V27.5631Z" fill="#C4C4C4"/>
<path d="M110.669 23.7535C111.038 22.9756 111.003 21.5746 111.003 21.5746H106.179C105.762 22.3607 104.68 24.3138 102.85 24.3138C100.626 24.3138 98.8838 22.1849 98.8838 19.2393C98.8838 16.2937 100.626 14.3418 102.85 14.3418C104.68 14.3418 105.762 16.0485 106.179 16.8346H111.003C111.003 16.8346 110.763 15.6146 110.444 14.8924C109.06 11.7523 106.926 10.4531 102.85 10.4531C97.43 10.4531 93.7473 13.5514 93.7473 19.2393C93.7473 24.9272 97.43 28.0255 102.85 28.0255C106.926 28.0255 109.659 25.8824 110.669 23.7535Z" fill="#C4C4C4"/>
<path d="M113.363 27.5631H118.436V20.5042H122.976V27.5631H128.066V10.9155H122.976V16.8346H118.436V10.9155H113.363V27.5631Z" fill="#C4C4C4"/>
<path d="M150.245 27.5631H154.806L155.689 24.3138H161.271L162.102 27.5631H166.801L160.547 10.9155H156.475L150.245 27.5631ZM157.053 20.7884L158.466 16.5341L159.879 20.7884H157.053Z" fill="#909599"/>
<path d="M166.556 24.0897C167.558 26.7772 169.312 28.0255 173.782 28.0255C178.669 28.0255 180.198 25.7365 180.198 22.5919C180.198 19.2393 177.24 17.8348 173.164 17.2568C172.131 17.0404 170.954 16.5341 171.341 15.2666C171.553 14.5702 172.438 14.0056 173.372 14.0056C174.882 14.0056 175.89 15.4705 176.284 15.9792L179.596 15.9389C179.596 15.9389 179.409 13.7091 178.362 12.6611C176.877 11.1753 175.874 10.7553 173.372 10.6443C169.846 10.4878 166.616 12.4647 166.616 15.7248C166.616 18.1988 167.82 20.2566 172.962 21.2509C175.116 21.6671 175.78 22.2682 175.556 23.1933C175.363 23.9886 174.963 24.3138 173.782 24.3138C171.952 24.3138 170.98 22.6382 170.702 22.2682H166.128C166.128 22.2682 166.321 23.462 166.556 24.0897Z" fill="#909599"/>
<path d="M181.388 27.5631H186.443L186.219 10.9155H181.388V27.5631Z" fill="#909599"/>
<path d="M186.443 27.5631H191.005L191.888 24.3138H197.47L198.301 27.5631H203L196.746 10.9155H192.674L186.443 27.5631ZM193.251 20.7884L194.664 16.5341L196.077 20.7884H193.251Z" fill="#909599"/>
<path d="M129.999 27.6283V10.9807H131.574V27.6283H129.999Z" fill="#909599"/>
<path d="M137.464 13.1079H137.418V27.6283H135.843V10.9807H137.626L147.261 25.5242H147.308V10.9807H148.883V27.6283H147.053L137.464 13.1079Z" fill="#909599"/>
<path d="M38.0477 15.1261L41.9761 17.2549L38.6089 11.4286L21.4363 40L15.1509 28.9076V20.2801L-0.00146484 7.17087H24.0178L30.5277 10.7563L27.7217 15.3501L22.6709 12.7731H15.7121L21.0996 17.591V28.9076L38.6089 0L57.2407 32.493L35.0173 19.8319L38.0477 15.1261Z" fill="#C4C4C4"/>
</svg>
