<svg width="169" height="20" viewBox="0 0 169 20" fill="none" xmlns="http://www.w3.org/2000/svg">
<path d="M9.90641 15.3413L12.3757 4.75868H10.8826V0.876452H19.0369V4.75868H17.7161L13.6964 19.5686H5.11149L1.32149 4.75868H0.000732422V0.876452H8.61437V4.75868H7.09263L9.3896 15.3413H9.90641Z" fill="#C4C4C4"/>
<path d="M33.0336 14.3061C33.0336 15.0729 32.9283 15.8014 32.7177 16.4916C32.5263 17.1818 32.1531 17.7857 31.598 18.3033C31.062 18.821 30.3251 19.2331 29.3871 19.5399C28.4492 19.8466 27.2529 20 25.7981 20C24.7453 20 23.7978 19.885 22.9556 19.6549C22.1134 19.444 21.3956 19.051 20.8022 18.4759C20.2088 17.9007 19.7494 17.1243 19.424 16.1465C19.0986 15.1496 18.9359 13.8843 18.9359 12.3506C18.9359 10.9127 19.0891 9.70492 19.3953 8.72717C19.7207 7.73026 20.1897 6.92505 20.8022 6.31156C21.4339 5.69808 22.1995 5.25713 23.0992 4.98873C24.018 4.70116 25.0707 4.55738 26.2575 4.55738C27.5209 4.55738 28.5832 4.70116 29.4446 4.98873C30.3059 5.25713 30.995 5.66932 31.5118 6.22529C32.0478 6.7621 32.4306 7.44268 32.6603 8.26706C32.9092 9.07226 33.0336 10.0021 33.0336 11.0565V13.1558H24.2764C24.2764 13.8076 24.3051 14.3348 24.3625 14.7374C24.4391 15.1209 24.5539 15.418 24.7071 15.6289C24.8793 15.8206 25.0995 15.9548 25.3674 16.0315C25.6354 16.089 25.98 16.1178 26.4011 16.1178C27.1093 16.1178 27.607 15.9548 27.8941 15.6289C28.1812 15.303 28.3248 14.862 28.3248 14.3061H33.0336ZM26.2575 8.38208C25.8747 8.38208 25.5589 8.41084 25.31 8.46836C25.0612 8.52587 24.8602 8.6409 24.7071 8.81344C24.5539 8.96682 24.4391 9.18729 24.3625 9.47486C24.3051 9.74326 24.2764 10.0979 24.2764 10.5389H28.2099C28.2099 10.0979 28.1812 9.74326 28.1238 9.47486C28.0664 9.18729 27.9611 8.96682 27.808 8.81344C27.674 8.6409 27.4826 8.52587 27.2337 8.46836C26.9849 8.41084 26.6595 8.38208 26.2575 8.38208Z" fill="#C4C4C4"/>
<path d="M40.5532 7.54813C40.9361 6.51287 41.5294 5.75559 42.3334 5.27631C43.1373 4.79702 44.1327 4.55738 45.3195 4.55738C45.9703 4.55738 46.5636 4.63406 47.0996 4.78743C47.6547 4.9408 48.1332 5.20921 48.5352 5.59264C48.9372 5.95689 49.2434 6.45535 49.454 7.08801C49.6837 7.7015 49.7985 8.47794 49.7985 9.41734V15.7152H51.1767V19.5686H43.5106V15.7152H44.6591V10.8264C44.6591 10.1746 44.5442 9.70492 44.3145 9.41734C44.0848 9.12977 43.6637 8.98599 43.0512 8.98599C42.4961 8.98599 42.0367 9.14894 41.673 9.47486C41.3093 9.80077 41.1275 10.3663 41.1275 11.1715V15.7152H42.276V19.5686H34.6098V15.7152H35.988V8.8422H34.7247V4.98873H40.5532V7.54813Z" fill="#C4C4C4"/>
<path d="M53.0886 4.98873V1.70552L58.228 0V4.98873H60.9844V8.8422H58.228V14.5936C58.228 15.0346 58.3046 15.3509 58.4577 15.5426C58.63 15.7343 58.9458 15.8302 59.4052 15.8302C59.6541 15.8302 59.9603 15.8206 60.324 15.8014C60.7068 15.7631 61.061 15.7152 61.3864 15.6577V19.4824C61.061 19.5591 60.5441 19.6357 59.8359 19.7124C59.1468 19.8083 58.429 19.8562 57.6825 19.8562C56.7637 19.8562 56.0076 19.7795 55.4142 19.6262C54.8208 19.492 54.3519 19.2427 54.0073 18.8785C53.6628 18.495 53.4235 17.9678 53.2895 17.2968C53.1555 16.6258 53.0886 15.7631 53.0886 14.7087V8.8422H51.7104V4.98873H53.0886Z" fill="#C4C4C4"/>
<path d="M68.4796 4.98873V14.8525C68.4796 15.6385 68.8433 16.0315 69.5706 16.0315C70.3363 16.0315 70.8627 15.8685 71.1498 15.5426C71.4561 15.2167 71.6092 14.7758 71.6092 14.2198V8.8422H70.0588V4.98873H76.7487V14.9387C76.7487 15.2646 76.787 15.4755 76.8635 15.5714C76.9592 15.6672 77.1602 15.7152 77.4665 15.7152H78.1269V19.5686H74.7101C73.9062 19.5686 73.2841 19.4057 72.8438 19.0798C72.4227 18.7347 72.2026 18.1116 72.1834 17.2105C71.8389 18.0541 71.2838 18.7347 70.5182 19.2523C69.7716 19.7508 68.7571 20 67.4747 20C66.843 20 66.2688 19.9233 65.7519 19.7699C65.2543 19.6357 64.8236 19.4057 64.4599 19.0798C64.1153 18.7347 63.8378 18.2842 63.6272 17.7282C63.4358 17.153 63.3401 16.4341 63.3401 15.5714V8.8422H61.9906V4.98873H68.4796Z" fill="#C4C4C4"/>
<path d="M80.7385 15.7152V8.8422H79.4752V4.98873H85.878V7.08801C86.1651 6.18695 86.615 5.54471 87.2275 5.16128C87.84 4.75868 88.6918 4.55738 89.7829 4.55738C90.2422 4.55738 90.7016 4.59572 91.161 4.6724C91.6204 4.74909 91.9841 4.83536 92.2521 4.93122V10.8264H88.3473V9.07226C88.2898 9.05309 88.1941 9.03392 88.0601 9.01474C87.9453 8.9764 87.7826 8.95723 87.572 8.95723C87.3615 8.95723 87.1509 8.98599 86.9404 9.0435C86.7489 9.10102 86.5767 9.22563 86.4235 9.41734C86.2704 9.60906 86.1364 9.88705 86.0216 10.2513C85.9259 10.5964 85.878 11.0661 85.878 11.6604V15.7152H87.8304V19.5686H79.3604V15.7152H80.7385Z" fill="#C4C4C4"/>
<path d="M107.646 14.3061C107.646 15.0729 107.541 15.8014 107.33 16.4916C107.139 17.1818 106.765 17.7857 106.21 18.3033C105.674 18.821 104.937 19.2331 103.999 19.5399C103.061 19.8466 101.865 20 100.41 20C99.3576 20 98.4101 19.885 97.5679 19.6549C96.7257 19.444 96.0079 19.051 95.4145 18.4759C94.8211 17.9007 94.3617 17.1243 94.0363 16.1465C93.7109 15.1496 93.5482 13.8843 93.5482 12.3506C93.5482 10.9127 93.7013 9.70492 94.0076 8.72717C94.333 7.73026 94.8019 6.92505 95.4145 6.31156C96.0461 5.69808 96.8118 5.25713 97.7114 4.98873C98.6302 4.70116 99.683 4.55738 100.87 4.55738C102.133 4.55738 103.195 4.70116 104.057 4.98873C104.918 5.25713 105.607 5.66932 106.124 6.22529C106.66 6.7621 107.043 7.44268 107.273 8.26706C107.521 9.07226 107.646 10.0021 107.646 11.0565V13.1558H98.8886C98.8886 13.8076 98.9174 14.3348 98.9748 14.7374C99.0513 15.1209 99.1662 15.418 99.3193 15.6289C99.4916 15.8206 99.7117 15.9548 99.9797 16.0315C100.248 16.089 100.592 16.1178 101.013 16.1178C101.722 16.1178 102.219 15.9548 102.506 15.6289C102.793 15.303 102.937 14.862 102.937 14.3061H107.646ZM100.87 8.38208C100.487 8.38208 100.171 8.41084 99.9223 8.46836C99.6734 8.52587 99.4725 8.6409 99.3193 8.81344C99.1662 8.96682 99.0513 9.18729 98.9748 9.47486C98.9174 9.74326 98.8886 10.0979 98.8886 10.5389H102.822C102.822 10.0979 102.793 9.74326 102.736 9.47486C102.679 9.18729 102.573 8.96682 102.42 8.81344C102.286 8.6409 102.095 8.52587 101.846 8.46836C101.597 8.41084 101.272 8.38208 100.87 8.38208Z" fill="#C4C4C4"/>
<path d="M120.276 0.876452C121.099 0.876452 121.827 0.953138 122.458 1.10651C123.109 1.25988 123.655 1.52828 124.095 1.91171C124.535 2.27597 124.861 2.77443 125.071 3.40709C125.301 4.02057 125.416 4.79702 125.416 5.73642C125.416 6.79085 125.253 7.62481 124.928 8.2383C124.602 8.85179 124.133 9.30232 123.521 9.58989C124.593 9.87746 125.339 10.4047 125.76 11.1715C126.201 11.9192 126.421 12.9257 126.421 14.191C126.421 15.2455 126.277 16.1178 125.99 16.8079C125.703 17.4981 125.272 18.0541 124.698 18.4759C124.124 18.8785 123.396 19.166 122.516 19.3386C121.654 19.492 120.64 19.5686 119.472 19.5686H109.366V15.6864H110.887V4.75868H109.366V0.876452H120.276ZM116.257 11.7754V15.6864H119.243C119.453 15.6864 119.645 15.6672 119.817 15.6289C119.989 15.5714 120.142 15.4755 120.276 15.3413C120.41 15.188 120.506 14.9867 120.563 14.7374C120.64 14.469 120.678 14.1239 120.678 13.7022C120.678 13.0503 120.592 12.5711 120.42 12.2643C120.248 11.9384 119.836 11.7754 119.185 11.7754H116.257ZM116.257 8.00824H118.697C119.118 8.00824 119.405 7.87404 119.558 7.60564C119.712 7.31807 119.788 6.87712 119.788 6.28281C119.788 5.76518 119.712 5.38175 119.558 5.13252C119.424 4.88329 119.137 4.75868 118.697 4.75868H116.257V8.00824Z" fill="#909599"/>
<path d="M141.966 14.3061C141.966 15.0729 141.861 15.8014 141.65 16.4916C141.459 17.1818 141.085 17.7857 140.53 18.3033C139.994 18.821 139.257 19.2331 138.319 19.5399C137.381 19.8466 136.185 20 134.73 20C133.678 20 132.73 19.885 131.888 19.6549C131.046 19.444 130.328 19.051 129.734 18.4759C129.141 17.9007 128.682 17.1243 128.356 16.1465C128.031 15.1496 127.868 13.8843 127.868 12.3506C127.868 10.9127 128.021 9.70492 128.328 8.72717C128.653 7.73026 129.122 6.92505 129.734 6.31156C130.366 5.69808 131.132 5.25713 132.031 4.98873C132.95 4.70116 134.003 4.55738 135.19 4.55738C136.453 4.55738 137.515 4.70116 138.377 4.98873C139.238 5.25713 139.927 5.66932 140.444 6.22529C140.98 6.7621 141.363 7.44268 141.593 8.26706C141.841 9.07226 141.966 10.0021 141.966 11.0565V13.1558H133.209C133.209 13.8076 133.237 14.3348 133.295 14.7374C133.371 15.1209 133.486 15.418 133.639 15.6289C133.812 15.8206 134.032 15.9548 134.3 16.0315C134.568 16.089 134.912 16.1178 135.333 16.1178C136.042 16.1178 136.539 15.9548 136.826 15.6289C137.113 15.303 137.257 14.862 137.257 14.3061H141.966ZM135.19 8.38208C134.807 8.38208 134.491 8.41084 134.242 8.46836C133.993 8.52587 133.792 8.6409 133.639 8.81344C133.486 8.96682 133.371 9.18729 133.295 9.47486C133.237 9.74326 133.209 10.0979 133.209 10.5389H137.142C137.142 10.0979 137.113 9.74326 137.056 9.47486C136.999 9.18729 136.893 8.96682 136.74 8.81344C136.606 8.6409 136.415 8.52587 136.166 8.46836C135.917 8.41084 135.592 8.38208 135.19 8.38208Z" fill="#909599"/>
<path d="M154.826 19.5686C154.118 19.5686 152.554 19.5686 152.554 19.5686V17.6836C152.554 17.6836 151.467 19.0702 150.72 19.4536C149.974 19.8179 148.969 20 147.705 20C146.231 20 145.169 19.6357 144.518 18.9072C143.867 18.1787 143.542 17.0955 143.542 15.6577C143.542 14.7566 143.638 13.9897 143.829 13.3571C144.04 12.7053 144.365 12.178 144.805 11.7754C145.265 11.3728 145.858 11.0853 146.586 10.9127C147.313 10.721 148.213 10.6251 149.284 10.6251H151.725V9.53237C151.725 9.14894 151.629 8.89013 151.438 8.75593C151.246 8.60256 150.698 8.35718 150.261 8.52587C150.041 8.61084 149.937 8.69808 149.776 8.88667C149.572 9.125 149.554 9.58989 149.554 9.58989H144.309C144.309 9.58989 144.444 7.63285 145.115 6.73233C145.922 5.65015 146.613 5.12444 147.894 4.81619C148.969 4.55738 149.543 4.55738 150.749 4.55738C151.897 4.55738 152.854 4.64365 153.62 4.81619C154.405 4.98873 155.036 5.26672 155.515 5.65015C155.994 6.01441 156.338 6.50328 156.549 7.11677C156.759 7.71108 156.864 8.44919 156.864 9.33107V14.9387C156.864 15.2646 156.856 15.7088 156.856 15.7088C156.856 15.7088 157.276 15.7152 157.582 15.7152H158.243V19.5686H154.826ZM149.801 16.0315C150.414 16.0315 150.883 15.8781 151.208 15.5714C151.553 15.2646 151.725 14.91 151.725 14.5074V13.3283H150.577C150.136 13.3283 149.792 13.3667 149.543 13.4434C149.313 13.52 149.131 13.6255 148.997 13.7597C148.863 13.8939 148.777 14.0568 148.739 14.2486C148.72 14.4211 148.71 14.6128 148.71 14.8237C148.71 15.2838 148.796 15.6001 148.969 15.7727C149.141 15.9452 149.418 16.0315 149.801 16.0315Z" fill="#909599"/>
<path d="M160.703 4.98873V1.52599L165.842 0V4.98873H168.599V8.8422H165.842V14.5936C165.842 15.0346 165.919 15.3509 166.072 15.5426C166.244 15.7343 166.56 15.8302 167.02 15.8302C167.268 15.8302 167.575 15.8206 167.938 15.8014C168.321 15.7631 168.675 15.7152 169.001 15.6577V19.4824C168.675 19.5591 168.159 19.6357 167.45 19.7124C166.761 19.8083 166.043 19.8562 165.297 19.8562C164.378 19.8562 163.622 19.7795 163.029 19.6262C162.435 19.492 161.966 19.2427 161.622 18.8785C161.277 18.495 161.038 17.9678 160.904 17.2968C160.77 16.6258 160.703 15.7631 160.703 14.7087V8.8422H159.325V4.98873H160.703Z" fill="#909599"/>
</svg>
